<svg width="47" height="48" viewBox="0 0 47 48" fill="none" xmlns="http://www.w3.org/2000/svg">
<g clip-path="url(#clip0_1674_755)">
<path d="M46.9982 43.2195C46.9639 41.9907 46.4405 40.8627 45.5243 40.0432L39.2685 34.4477C39.4572 33.8076 39.2996 33.0861 38.7955 32.5819L37.3368 31.1232C36.9814 30.7678 36.5087 30.572 36.0062 30.572C35.6549 30.572 35.3194 30.6695 35.0273 30.8483L32.2624 29.0737C33.945 26.7566 35.0567 24.0559 35.4735 21.1957C35.5284 20.8194 35.2678 20.4699 34.8916 20.4151C34.5151 20.3608 34.1658 20.6208 34.1109 20.9971C32.9428 29.0125 25.9437 35.0569 17.8304 35.0569C8.75796 35.057 1.37695 27.6755 1.37695 18.6025C1.37695 9.5295 8.75796 2.14813 17.8305 2.14813C26.6832 2.14813 33.9043 9.07171 34.2697 17.9104C34.2854 18.2903 34.607 18.5857 34.986 18.5698C35.366 18.5541 35.6612 18.2334 35.6455 17.8534C35.5138 14.6681 34.5453 11.6294 32.8592 8.99882L35.2497 6.97039H43.7178C44.0981 6.97039 44.4063 6.66214 44.4063 6.28192C44.4063 5.9017 44.0981 5.59344 43.7178 5.59344H35.1655C34.894 5.59344 34.6305 5.6902 34.423 5.86599L32.0675 7.86468C31.5024 7.11782 30.876 6.40997 30.1894 5.7495C26.8519 2.53918 22.4627 0.771179 17.8305 0.771179C7.9988 0.771179 0 8.77025 0 18.6025C0 28.4348 7.9988 36.4339 17.8305 36.4339C21.6077 36.4339 25.27 35.2367 28.3016 33.036L30.0758 35.8009C29.6346 36.5251 29.7249 37.4843 30.3504 38.1098L31.809 39.5686C32.1645 39.924 32.6371 40.1197 33.1397 40.1197C33.3238 40.1197 33.5036 40.0929 33.6753 40.0423L35.7503 42.3624C36.0045 42.5517 36.2255 42.7395 36.7225 42.4166C37.0059 42.1631 37.0302 41.7279 36.7768 41.4445L34.8022 39.2367L38.4636 35.5752L44.6064 41.0695C45.8441 42.1283 45.9916 44.278 44.7298 45.4993C43.6167 46.6703 41.4271 46.7084 40.2927 45.3757L38.916 43.8364C38.6624 43.553 38.2275 43.5286 37.9438 43.7822C37.6604 44.0356 37.6361 44.4708 37.8895 44.7543L39.2663 46.2937C40.8269 48.1246 43.9608 48.2899 45.7035 46.473C46.5726 45.6038 47.0324 44.4483 46.9982 43.2195ZM29.5437 32.047C30.2143 31.4622 30.8361 30.8309 31.4068 30.1607L33.9841 31.8148L31.0421 34.7569L29.3882 32.1795C29.44 32.1354 29.4923 32.0918 29.5437 32.047ZM32.7827 38.5949L31.3241 37.1362C31.1272 36.9394 31.1272 36.619 31.3241 36.4222L35.6492 32.0967C35.7445 32.0013 35.8713 31.9488 36.0062 31.9488C36.1411 31.9488 36.2679 32.0013 36.3632 32.0967L37.8219 33.5554C38.0188 33.7523 38.0188 34.0725 37.8219 34.2694L33.4967 38.5948C33.4014 38.6902 33.2747 38.7426 33.1397 38.7426C33.0049 38.7428 32.878 38.6903 32.7827 38.5949Z" fill="#F84E6C"/>
<path d="M8.25728 8.32609C5.4158 10.9744 3.78613 14.7201 3.78613 18.6026C3.78613 26.3469 10.0863 32.6474 17.8303 32.6474C25.5742 32.6474 31.8744 26.3469 31.8744 18.6026C31.8744 10.8582 25.5743 4.55774 17.8303 4.55774C15.4341 4.55774 13.0681 5.17204 10.9884 6.33438C10.6566 6.5199 10.5379 6.93932 10.7233 7.27126C10.9088 7.60319 11.3281 7.7217 11.6602 7.53636C13.5351 6.4885 15.6686 5.93469 17.8303 5.93469C22.0843 5.93469 25.8551 8.04262 28.1534 11.2688L25.7515 13.3372C25.3327 13.0284 24.8157 12.8453 24.2566 12.8453C23.7764 12.8453 23.3271 12.9802 22.9445 13.2139L20.5556 11.1146C20.6043 10.9191 20.6306 10.7148 20.6306 10.5045C20.6306 9.11252 19.4981 7.98011 18.1062 7.98011C16.7143 7.98011 15.5818 9.11252 15.5818 10.5045C15.5818 10.9596 15.7034 11.3865 15.915 11.7556L13.9961 15.2982C13.8123 15.2555 13.6212 15.2321 13.4245 15.2321C12.0326 15.2321 10.9001 16.3645 10.9001 17.7565C10.9001 19.1485 12.0326 20.2809 13.4245 20.2809C14.8164 20.2809 15.9489 19.1485 15.9489 17.7565C15.9489 17.0566 15.6625 16.4226 15.2009 15.9649L16.945 12.7449C17.2929 12.9259 17.6876 13.0289 18.1062 13.0289C18.782 13.0289 19.3962 12.7614 19.8498 12.3274L22.0082 14.2242C21.8322 14.5683 21.7321 14.9574 21.7321 15.3698C21.7321 16.7618 22.8646 17.8942 24.2566 17.8942C25.6485 17.8942 26.781 16.7618 26.781 15.3698C26.781 15.0361 26.7153 14.7177 26.5972 14.4259L28.897 12.4455C29.9157 14.2694 30.4974 16.3692 30.4974 18.6026C30.4974 25.5877 24.815 31.2704 17.8302 31.2704C10.8455 31.2704 5.16309 25.5877 5.16309 18.6026C5.16309 15.1007 6.63312 11.7222 9.19609 9.33329C9.47423 9.07405 9.48956 8.63839 9.23033 8.36024C8.971 8.08219 8.53534 8.06677 8.25728 8.32609ZM13.4246 18.904C12.7919 18.904 12.2772 18.3893 12.2772 17.7566C12.2772 17.1238 12.7919 16.6091 13.4246 16.6091C14.0574 16.6091 14.5721 17.1238 14.5721 17.7566C14.5721 18.3893 14.0574 18.904 13.4246 18.904ZM18.1063 11.6521C17.5617 11.6255 17.0088 11.2692 16.9588 10.5046C16.9588 9.87186 17.4735 9.35716 18.1063 9.35716C18.739 9.35716 19.2537 9.87186 19.2537 10.5046C19.2537 11.1374 18.739 11.6521 18.1063 11.6521ZM24.2567 16.5173C23.6239 16.5173 23.1092 16.0026 23.1092 15.3698C23.1092 14.7371 23.6239 14.2224 24.2567 14.2224C24.8894 14.2224 25.4041 14.7371 25.4041 15.3698C25.4041 16.0026 24.8894 16.5173 24.2567 16.5173Z" fill="#F84E6C"/>
<path d="M11.1299 21.3825C10.7496 21.3825 10.4414 21.6908 10.4414 22.071V23.2184H9.29395C9.16736 23.2184 9.06445 23.1154 9.06445 22.989V14.2682C9.06445 13.888 8.75629 13.5798 8.37598 13.5798C7.99566 13.5798 7.6875 13.888 7.6875 14.2682V22.989C7.6875 23.8747 8.4082 24.5954 9.29395 24.5954H27.0107C27.3911 24.5954 27.6992 24.2871 27.6992 23.9069C27.6992 23.5267 27.3911 23.2184 27.0107 23.2184H25.5879V22.071C25.5879 21.6908 25.2797 21.3825 24.8994 21.3825C24.5191 21.3825 24.2109 21.6908 24.2109 22.071V23.2184H20.998V22.071C20.998 21.6908 20.6899 21.3825 20.3096 21.3825C19.9293 21.3825 19.6211 21.6908 19.6211 22.071V23.2184H16.4082V22.071C16.4082 21.6908 16.1 21.3825 15.7197 21.3825C15.3394 21.3825 15.0312 21.6908 15.0312 22.071V23.2184H11.8184V22.071C11.8184 21.6907 11.5102 21.3825 11.1299 21.3825Z" fill="#F84E6C"/>
<path d="M3.41895 39.1911H16.1787C16.559 39.1911 16.8672 38.8828 16.8672 38.5026C16.8672 38.1224 16.559 37.8141 16.1787 37.8141H3.41895C3.03863 37.8141 2.73047 38.1224 2.73047 38.5026C2.73047 38.8828 3.03872 39.1911 3.41895 39.1911Z" fill="#F84E6C"/>
<path d="M3.41894 41.945H11.6807C12.061 41.945 12.3691 41.6368 12.3691 41.2565C12.3691 40.8763 12.061 40.5681 11.6807 40.5681H3.41894C3.03863 40.5681 2.73047 40.8763 2.73047 41.2565C2.73047 41.6368 3.03872 41.945 3.41894 41.945Z" fill="#F84E6C"/>
<path d="M18.29 43.322H11.6807C11.3003 43.322 10.9922 43.6302 10.9922 44.0104C10.9922 44.3907 11.3003 44.6989 11.6807 44.6989H18.29C18.6703 44.6989 18.9785 44.3907 18.9785 44.0104C18.9785 43.6302 18.6703 43.322 18.29 43.322Z" fill="#F84E6C"/>
<path d="M8.45896 43.322H3.41895C3.03863 43.322 2.73047 43.6302 2.73047 44.0104C2.73047 44.3907 3.03863 44.6989 3.41895 44.6989H8.45896C8.83928 44.6989 9.14744 44.3907 9.14744 44.0104C9.14744 43.6302 8.83928 43.322 8.45896 43.322Z" fill="#F84E6C"/>
<path d="M36.7871 4.21649H41.8359C42.2163 4.21649 42.5244 3.90824 42.5244 3.52802C42.5244 3.14779 42.2163 2.83954 41.8359 2.83954H36.7871C36.4068 2.83954 36.0986 3.14779 36.0986 3.52802C36.0986 3.90824 36.4069 4.21649 36.7871 4.21649Z" fill="#F84E6C"/>
</g>
<defs>
<clipPath id="clip0_1674_755">
<rect width="47" height="47" fill="white" transform="translate(0 0.762756)"/>
</clipPath>
</defs>
</svg>
