<svg width="47" height="47" viewBox="0 0 47 47" fill="none" xmlns="http://www.w3.org/2000/svg">
<path d="M47 15.9194C47 7.14097 39.8583 0 31.0806 0C27.6034 0 24.3938 1.13331 21.7724 3.03226H2.27419C1.02035 3.03226 0 4.05261 0 5.30645V37.1452C0 38.399 1.02035 39.4194 2.27419 39.4194H21.9839C23.2377 39.4194 24.2581 38.399 24.2581 37.1452V30.2809C24.7508 30.5159 25.2557 30.7259 25.7742 30.9101V40.395L29.278 46.0016C29.6691 46.6263 30.343 47 31.0806 47C31.8182 47 32.4922 46.6263 32.8833 46.0009L36.3871 40.395V30.9101C42.56 28.7178 47 22.8344 47 15.9194ZM22.7419 37.1452C22.7419 37.5629 22.4023 37.9032 21.9839 37.9032H2.27419C1.85574 37.9032 1.51613 37.5629 1.51613 37.1452V5.30645C1.51613 4.88876 1.85574 4.54839 2.27419 4.54839H19.9606C19.4747 5.02369 19.0244 5.5316 18.6021 6.06452H3.03226V21.2258H16.0899C16.2741 21.7443 16.4841 22.2492 16.7191 22.7419H3.03226V24.2581H17.5462C17.8714 24.7834 18.2208 25.2913 18.6029 25.7742H3.03226V27.2903H19.9606C20.8013 28.1121 21.7367 28.833 22.7419 29.4538V37.1452ZM15.6366 19.7097H4.54839V7.58065H17.5462C16.0437 10.0095 15.1613 12.8598 15.1613 15.9194C15.1613 17.2278 15.3372 18.4922 15.6366 19.7097ZM28.8065 31.6568V39.4194H27.2903V31.3634C27.7876 31.4855 28.2925 31.5832 28.8065 31.6568ZM30.3226 39.4194V31.8C30.5758 31.8122 30.8244 31.8387 31.0806 31.8387C31.3369 31.8387 31.5855 31.8122 31.8387 31.8V39.4194H30.3226ZM31.5984 45.1973C31.3733 45.5566 30.7888 45.5559 30.5636 45.1973L27.8998 40.9355H34.2615L31.5984 45.1973ZM34.871 39.4194H33.3548V31.6568C33.8688 31.5825 34.3737 31.4855 34.871 31.3634V39.4194ZM31.0806 30.3226C23.1384 30.3226 16.6774 23.8616 16.6774 15.9194C16.6774 7.97711 23.1384 1.51613 31.0806 1.51613C39.0229 1.51613 45.4839 7.97711 45.4839 15.9194C45.4839 23.8616 39.0229 30.3226 31.0806 30.3226Z" fill="#FFC33A"/>
<path d="M42.2431 9.47508C41.9179 8.91336 41.5472 8.37134 41.1409 7.8642L39.9575 8.81254C40.3168 9.26055 40.6436 9.73889 40.9309 10.2347L42.2431 9.47508Z" fill="#FFC33A"/>
<path d="M39.605 6.25406C37.2512 4.17621 34.2235 3.03229 31.0806 3.03229V4.54842C33.8536 4.54842 36.525 5.55816 38.6013 7.3904L39.605 6.25406Z" fill="#FFC33A"/>
<path d="M43.21 14.0894C39.9905 10.8699 35.7097 9.0968 31.1575 9.0968H31.0051C26.4522 9.0968 22.1714 10.8699 18.9519 14.0894C18.463 14.5776 18.1938 15.2273 18.1938 15.9194C18.1938 16.6115 18.463 17.2612 18.9519 17.7493C22.1714 20.9689 26.4522 22.742 31.0044 22.742H31.1567C35.7097 22.742 39.9897 20.9689 43.2092 17.7501C43.6982 17.2612 43.9673 16.6115 43.9673 15.9194C43.9673 15.2273 43.6989 14.5776 43.21 14.0894ZM25.7745 15.9194C25.7745 15.2674 25.8981 14.6451 26.1141 14.0674C26.4037 14.5397 26.8578 14.8922 27.399 15.0552C27.3338 15.3342 27.2906 15.6207 27.2906 15.9194C27.2906 18.0094 28.991 19.7097 31.0809 19.7097C31.3796 19.7097 31.6662 19.6665 31.9451 19.6013C32.1074 20.1418 32.4606 20.5966 32.9329 20.8862C32.3552 21.1023 31.7329 21.2258 31.0809 21.2258C28.1556 21.2258 25.7745 18.8455 25.7745 15.9194ZM34.0905 18.1981C34.0973 18.1974 34.1064 18.1936 34.1132 18.1936C34.5317 18.1936 34.8713 18.5339 34.8713 18.9516C34.8713 19.3693 34.5317 19.7097 34.1132 19.7097C33.6947 19.7097 33.3551 19.3693 33.3551 18.9516C33.3551 18.9448 33.3589 18.9357 33.3597 18.9289C33.6356 18.7189 33.8805 18.4741 34.0905 18.1981ZM31.0809 18.1936C29.8271 18.1936 28.8067 17.1732 28.8067 15.9194C28.8067 14.6655 29.8271 13.6452 31.0809 13.6452C32.3348 13.6452 33.3551 14.6655 33.3551 15.9194C33.3551 17.1732 32.3348 18.1936 31.0809 18.1936ZM28.8022 12.9099C28.5263 13.1199 28.2814 13.3647 28.0714 13.6406C28.0646 13.6414 28.0555 13.6452 28.0487 13.6452C27.6302 13.6452 27.2906 13.3048 27.2906 12.8871C27.2906 12.4694 27.6302 12.1291 28.0487 12.1291C28.4671 12.1291 28.8067 12.4694 28.8067 12.8871C28.8067 12.8939 28.803 12.903 28.8022 12.9099ZM36.0478 17.7713C35.7582 17.2991 35.3041 16.9466 34.7629 16.7836C34.8281 16.5046 34.8713 16.2181 34.8713 15.9194C34.8713 13.8294 33.1709 12.1291 31.0809 12.1291C30.7823 12.1291 30.4957 12.1723 30.2167 12.2375C30.0545 11.697 29.7013 11.2421 29.229 10.9525C29.8066 10.7365 30.429 10.6129 31.0809 10.6129C34.0063 10.6129 36.3874 12.9933 36.3874 15.9194C36.3874 16.5713 36.2638 17.1937 36.0478 17.7713ZM19.71 15.9194C19.71 15.6328 19.8207 15.3637 20.0238 15.1613C21.709 13.4761 23.7201 12.242 25.9079 11.4839C24.8822 12.6779 24.2584 14.2259 24.2584 15.9194C24.2584 17.6129 24.8822 19.1609 25.9079 20.3548C23.7201 19.596 21.709 18.3626 20.0238 16.6774C19.8207 16.475 19.71 16.2059 19.71 15.9194ZM42.1381 16.6774C40.4529 18.3626 38.4417 19.5968 36.254 20.3548C37.2796 19.1609 37.9035 17.6129 37.9035 15.9194C37.9035 14.2259 37.2796 12.6779 36.254 11.4839C38.4417 12.2428 40.4521 13.4761 42.1381 15.1621C42.3412 15.3637 42.4519 15.6328 42.4519 15.9194C42.4519 16.2059 42.3412 16.475 42.1381 16.6774Z" fill="#FFC33A"/>
<path d="M19.71 34.871H21.2261V36.3871H19.71V34.871Z" fill="#FFC33A"/>
<path d="M3.03223 34.871H18.1935V36.3871H3.03223V34.871Z" fill="#FFC33A"/>
<path d="M3.03223 31.8387H21.2258V33.3548H3.03223V31.8387Z" fill="#FFC33A"/>
<path d="M3.03223 28.8065H21.2258V30.3226H3.03223V28.8065Z" fill="#FFC33A"/>
</svg>
