<svg width="21" height="23" viewBox="0 0 21 23" fill="none" xmlns="http://www.w3.org/2000/svg">
<path d="M6.75 0C6.55109 0 6.36032 0.0790175 6.21967 0.21967C6.07902 0.360322 6 0.551088 6 0.75C6 0.948912 6.07902 1.13968 6.21967 1.28033C6.36032 1.42098 6.55109 1.5 6.75 1.5H13.25C13.4489 1.5 13.6397 1.42098 13.7803 1.28033C13.921 1.13968 14 0.948912 14 0.75C14 0.551088 13.921 0.360322 13.7803 0.21967C13.6397 0.0790175 13.4489 0 13.25 0H6.75ZM10 6.5C10.1989 6.5 10.3897 6.57902 10.5303 6.71967C10.671 6.86032 10.75 7.05109 10.75 7.25V13.25C10.75 13.4489 10.671 13.6397 10.5303 13.7803C10.3897 13.921 10.1989 14 10 14C9.80109 14 9.61032 13.921 9.46967 13.7803C9.32902 13.6397 9.25 13.4489 9.25 13.25V7.25C9.25 7.05109 9.32902 6.86032 9.46967 6.71967C9.61032 6.57902 9.80109 6.5 10 6.5ZM10 3C4.477 3 0 7.477 0 13C0 18.523 4.477 23 10 23C15.523 23 20 18.523 20 13C20 7.477 15.523 3 10 3ZM1.5 13C1.5 10.7457 2.39553 8.58365 3.98959 6.98959C5.58365 5.39553 7.74566 4.5 10 4.5C12.2543 4.5 14.4163 5.39553 16.0104 6.98959C17.6045 8.58365 18.5 10.7457 18.5 13C18.5 15.2543 17.6045 17.4163 16.0104 19.0104C14.4163 20.6045 12.2543 21.5 10 21.5C7.74566 21.5 5.58365 20.6045 3.98959 19.0104C2.39553 17.4163 1.5 15.2543 1.5 13ZM18.28 3.22C18.2113 3.14631 18.1285 3.08721 18.0365 3.04622C17.9445 3.00523 17.8452 2.98319 17.7445 2.98141C17.6438 2.97963 17.5438 2.99816 17.4504 3.03588C17.357 3.0736 17.2722 3.12974 17.201 3.20096C17.1297 3.27218 17.0736 3.35701 17.0359 3.4504C16.9982 3.54379 16.9796 3.64382 16.9814 3.74452C16.9832 3.84523 17.0052 3.94454 17.0462 4.03654C17.0872 4.12854 17.1463 4.21134 17.22 4.28L18.72 5.78C18.7887 5.85369 18.8715 5.91279 18.9635 5.95378C19.0555 5.99477 19.1548 6.01682 19.2555 6.01859C19.3562 6.02037 19.4562 6.00184 19.5496 5.96412C19.643 5.9264 19.7278 5.87026 19.799 5.79904C19.8703 5.72782 19.9264 5.64299 19.9641 5.5496C20.0018 5.45621 20.0204 5.35618 20.0186 5.25548C20.0168 5.15478 19.9948 5.05546 19.9538 4.96346C19.9128 4.87146 19.8537 4.78866 19.78 4.72L18.28 3.22Z" fill="#303E55"/>
</svg>
