<svg width="20" height="20" viewBox="0 0 20 20" fill="none" xmlns="http://www.w3.org/2000/svg">
<path fill-rule="evenodd" clip-rule="evenodd" d="M14.3989 11.9614C14.1594 11.8416 12.985 11.2645 12.7663 11.1841C12.5477 11.1045 12.3885 11.0651 12.2286 11.3046C12.0694 11.5426 11.612 12.0812 11.4729 12.2403C11.3331 12.4003 11.194 12.4196 10.9553 12.3006C10.7165 12.18 9.94642 11.9284 9.03405 11.1149C8.32425 10.4815 7.84436 9.69936 7.70529 9.45981C7.56622 9.22107 7.69002 9.09165 7.80979 8.97268C7.91751 8.86577 8.04853 8.69374 8.16831 8.55468C8.28808 8.41481 8.32747 8.31513 8.40705 8.15516C8.48744 7.996 8.44724 7.85694 8.38695 7.73716C8.32747 7.61739 7.84998 6.44136 7.65063 5.96307C7.4569 5.49764 7.25996 5.56114 7.11366 5.5531C6.97379 5.54667 6.81462 5.54506 6.65546 5.54506C6.4963 5.54506 6.23746 5.60455 6.01881 5.8441C5.79936 6.08284 5.18281 6.66081 5.18281 7.83684C5.18281 9.01207 6.03811 10.1479 6.15788 10.3079C6.27765 10.467 7.84194 12.8802 10.2382 13.9147C10.809 14.1607 11.2535 14.3078 11.5999 14.4172C12.1723 14.5996 12.6932 14.5739 13.1047 14.512C13.5629 14.4437 14.5179 13.934 14.7173 13.3762C14.9158 12.8183 14.9158 12.34 14.8563 12.2403C14.7969 12.1407 14.6377 12.0812 14.3981 11.9614H14.3989ZM10.0405 17.9123H10.0373C8.61399 17.9126 7.21685 17.53 5.99229 16.8046L5.7029 16.6326L2.69489 17.4219L3.49794 14.4895L3.30903 14.1889C2.51333 12.9223 2.09224 11.4564 2.09442 9.96061C2.09603 5.57963 5.6603 2.01536 10.0437 2.01536C12.1659 2.01536 14.161 2.84332 15.661 4.34492C16.4008 5.08171 16.9872 5.95789 17.3863 6.92278C17.7853 7.88767 17.9891 8.9221 17.9857 9.96624C17.9841 14.3472 14.4198 17.9123 10.0405 17.9123V17.9123ZM16.8025 3.20425C15.9168 2.31272 14.863 1.60583 13.7021 1.12453C12.5412 0.643238 11.2964 0.397114 10.0397 0.400424C4.77124 0.400424 0.481895 4.68896 0.480287 9.95981C0.477846 11.6372 0.917883 13.2856 1.756 14.7387L0.399902 19.6928L5.46737 18.3633C6.86918 19.127 8.44008 19.5272 10.0365 19.5272H10.0405C15.3089 19.5272 19.5982 15.2387 19.5999 9.96704C19.6037 8.71085 19.3585 7.46635 18.8783 6.30553C18.3982 5.14472 17.6926 4.09063 16.8025 3.20425" fill="#00C0E7"/>
</svg>
