<svg width="19" height="19" viewBox="0 0 19 19" fill="none" xmlns="http://www.w3.org/2000/svg">
<g clip-path="url(#clip0_2509_1730)">
<path d="M18.5 0.714844H0.5V18.7148H18.5V0.714844Z" fill="#FF566D"/>
<path d="M8.37719 13.6575C8.28787 13.6574 8.19989 13.6361 8.12039 13.5953C8.04089 13.5545 7.97225 13.4955 7.92003 13.4231C7.86781 13.3506 7.83352 13.2668 7.81999 13.1785C7.80646 13.0902 7.81407 13 7.84219 12.9152L10.0978 6.14824C10.1212 6.07799 10.1583 6.01303 10.2068 5.95709C10.2553 5.90115 10.3144 5.85531 10.3807 5.8222C10.447 5.78909 10.519 5.76935 10.5929 5.76411C10.6668 5.75887 10.741 5.76823 10.8112 5.79167C10.8815 5.8151 10.9465 5.85213 11.0024 5.90067C11.0584 5.9492 11.1042 6.00828 11.1373 6.07452C11.1704 6.14077 11.1901 6.21289 11.1954 6.28677C11.2006 6.36065 11.1913 6.43483 11.1679 6.50508L8.91217 13.2721C8.87474 13.3844 8.80289 13.4819 8.70689 13.5512C8.61089 13.6203 8.49554 13.6576 8.37719 13.6575Z" fill="white"/>
<path d="M4.9934 13.6575C4.90408 13.6574 4.81608 13.6361 4.7366 13.5953C4.65713 13.5545 4.58846 13.4955 4.53624 13.4231C4.48402 13.3506 4.44973 13.2668 4.4362 13.1785C4.42267 13.0902 4.43028 13 4.4584 12.9152L6.71407 6.14824C6.7375 6.07799 6.77454 6.01303 6.82307 5.95709C6.8716 5.90115 6.93068 5.85531 6.99693 5.8222C7.06318 5.78909 7.1353 5.76935 7.20917 5.76411C7.28305 5.75887 7.35723 5.76823 7.42749 5.79167C7.49775 5.8151 7.5627 5.85213 7.61864 5.90067C7.67458 5.9492 7.72042 6.00828 7.75354 6.07452C7.78665 6.14077 7.80638 6.21289 7.81162 6.28677C7.81686 6.36065 7.8075 6.43483 7.78407 6.50508L5.52842 13.2721C5.49097 13.3844 5.41915 13.4819 5.32312 13.5512C5.22711 13.6203 5.11175 13.6576 4.9934 13.6575Z" fill="white"/>
<path d="M11.761 13.6572C11.6717 13.6572 11.5836 13.6358 11.5042 13.5951C11.4247 13.5543 11.356 13.4952 11.3038 13.4228C11.2516 13.3503 11.2173 13.2665 11.2038 13.1782C11.1903 13.0899 11.1978 12.9997 11.226 12.915L13.4816 6.14796C13.5296 6.00691 13.6314 5.89057 13.7649 5.82437C13.8984 5.75816 14.0526 5.74746 14.194 5.7946C14.3353 5.84173 14.4522 5.94287 14.5193 6.07594C14.5863 6.20901 14.5979 6.36318 14.5516 6.5048L12.296 13.2718C12.2586 13.384 12.1867 13.4817 12.0907 13.5509C11.9946 13.62 11.8794 13.6572 11.761 13.6572Z" fill="white"/>
</g>
<defs>
<clipPath id="clip0_2509_1730">
<rect width="18" height="18" fill="white" transform="translate(0.5 0.714844)"/>
</clipPath>
</defs>
</svg>
