<svg width="179" height="63" viewBox="0 0 179 63" fill="none" xmlns="http://www.w3.org/2000/svg">
<g opacity="0.9" clip-path="url(#clip0_2419_3247)">
<path d="M63.9724 0H0.5V63.0737H63.9724V0Z" fill="#303E55"/>
<path d="M12.4258 12.0898H16.6022V46.6633H22.801V50.955H12.4258V12.0898Z" fill="white"/>
<path d="M41.5605 12.0947H52.1162V16.3322H45.737V28.7926H51.6987V33.3272H45.737V46.6585H52.1162V50.9551H41.5605V12.0947Z" fill="white"/>
<path d="M26.4389 50.9411V46.7855V46.689L27.7473 46.6842C29.4654 46.6745 32.3719 45.4857 32.8011 42.7976C33.2156 40.1918 32.9083 38.3052 29.54 32.5867L29.4951 32.4908C27.1494 28.6899 24.9252 25.3698 25.7557 20.1607C26.6579 14.4994 31.1137 12.0051 35.1667 12.0797L36.4761 12.0783V16.2344V16.3303L35.1667 16.3352C33.4497 16.3444 30.4617 17.5147 30.0321 20.2034C29.6175 22.8082 29.9043 24.4932 33.1858 30.138L33.2736 30.2824C35.7125 34.1831 37.9079 37.6321 37.0774 42.8407C36.1748 48.5034 31.8018 51.0157 27.7478 50.9415H26.4389" fill="white"/>
<path d="M77.4599 15.8915H75.8203V15.2295H79.8553V15.8915H78.2158V20.4682H77.4599V15.8915Z" fill="#303E55"/>
<path d="M80.625 15.2275H81.3819V17.419H83.9012V15.2275H84.6566V20.4677H83.9012V18.0814H81.3819V20.4677H80.625V15.2275Z" fill="#303E55"/>
<path d="M86.0586 15.2285H89.0119V15.8915H86.814V17.419H88.8169V18.0814H86.814V19.8043H89.0119V20.4677H86.0586V15.2285Z" fill="#303E55"/>
<path d="M93.3633 12.0596H94.5795V19.4122H98.1186V20.4676H93.3633V12.0596Z" fill="#303E55"/>
<path d="M98.8535 16.9771C98.8535 19.0958 100.088 20.5846 102.237 20.5846C104.388 20.5846 105.62 19.0954 105.62 16.9771C105.62 14.9097 104.375 13.3701 102.237 13.3701C100.098 13.3696 98.8535 14.9097 98.8535 16.9771ZM99.9152 16.9771C99.9152 15.5591 100.681 14.2395 102.236 14.2497C103.791 14.2395 104.56 15.5591 104.56 16.9771C104.56 18.366 103.861 19.705 102.236 19.705C100.611 19.705 99.9152 18.366 99.9152 16.9771Z" fill="#303E55"/>
<path d="M107.014 13.4863H108.383L111.5 19.1006H111.52V13.4863H112.524V20.4672H111.236L108.039 14.7182H108.019V20.4672H107.014V13.4863Z" fill="#303E55"/>
<path d="M114.219 20.4682H116.286C118.599 20.4682 120.023 19.2576 120.023 16.9169C120.023 14.7667 118.367 13.4873 116.286 13.4873H114.219V20.4682ZM115.221 14.3669H116.397C117.844 14.3669 118.959 15.3274 118.959 16.9581C118.959 18.7585 118.006 19.5891 116.278 19.5891H115.221V14.3669Z" fill="#303E55"/>
<path d="M121.146 16.9771C121.146 19.0958 122.38 20.5846 124.53 20.5846C126.679 20.5846 127.913 19.0954 127.913 16.9771C127.913 14.9097 126.67 13.3701 124.53 13.3701C122.389 13.3696 121.146 14.9097 121.146 16.9771ZM122.207 16.9771C122.207 15.5591 122.976 14.2395 124.529 14.2497C126.082 14.2395 126.851 15.5591 126.851 16.9771C126.851 18.366 126.155 19.705 124.529 19.705C122.903 19.705 122.207 18.366 122.207 16.9771Z" fill="#303E55"/>
<path d="M129.309 13.4863H130.677L133.793 19.1006H133.815V13.4863H134.817V20.4672H133.53L130.332 14.7182H130.313V20.4672H129.309V13.4863Z" fill="#303E55"/>
<path d="M143.358 13.3278C142.741 13.0869 142.402 12.9783 141.768 12.9783C141.087 12.9783 140.285 13.2187 140.285 14.0978C140.285 15.7111 143.925 15.3375 143.925 18.1051C143.925 19.8967 142.535 20.6052 140.833 20.6052C140.235 20.6052 139.657 20.4361 139.101 20.2563L139.221 19.1397C139.634 19.3084 140.355 19.5483 140.978 19.5483C141.669 19.5483 142.644 19.1635 142.644 18.1768C142.644 16.2999 139.004 16.817 139.004 14.2059C139.004 12.7152 140.187 11.9229 141.717 11.9229C142.279 11.9229 142.945 12.0183 143.524 12.217L143.358 13.3278Z" fill="#303E55"/>
<path d="M150.204 14.6393C149.762 14.3796 149.267 14.2497 148.753 14.2497C147.132 14.2497 146.052 15.4094 146.052 16.9771C146.052 18.6161 147.241 19.705 148.702 19.705C149.206 19.705 149.882 19.5751 150.234 19.3648L150.297 20.3355C149.762 20.555 149.108 20.5851 148.693 20.5851C146.467 20.5851 144.992 19.1651 144.992 16.948C144.992 14.7988 146.558 13.3701 148.702 13.3701C149.247 13.3701 149.782 13.4496 150.285 13.6628L150.204 14.6393Z" fill="#303E55"/>
<path d="M151.531 13.4863H152.533V16.4003H155.898V13.4863H156.901V20.4672H155.898V17.2804H152.533V20.4672H151.531V13.4863Z" fill="#303E55"/>
<path d="M158.357 16.9771C158.357 19.0958 159.593 20.5846 161.741 20.5846C163.892 20.5846 165.125 19.0954 165.125 16.9771C165.125 14.9097 163.879 13.3701 161.741 13.3701C159.603 13.3696 158.357 14.9097 158.357 16.9771ZM159.421 16.9771C159.421 15.5591 160.187 14.2395 161.742 14.2497C163.297 14.2395 164.065 15.5591 164.065 16.9771C164.065 18.366 163.368 19.705 161.742 19.705C160.117 19.705 159.421 18.366 159.421 16.9771Z" fill="#303E55"/>
<path d="M166.166 16.9771C166.166 19.0958 167.4 20.5846 169.549 20.5846C171.699 20.5846 172.933 19.0954 172.933 16.9771C172.933 14.9097 171.688 13.3701 169.549 13.3701C167.41 13.3696 166.166 14.9097 166.166 16.9771ZM167.229 16.9771C167.229 15.5591 167.996 14.2395 169.551 14.2497C171.105 14.2395 171.874 15.5591 171.874 16.9771C171.874 18.366 171.176 19.705 169.551 19.705C167.924 19.705 167.229 18.366 167.229 16.9771Z" fill="#303E55"/>
<path d="M174.326 13.4863H175.332V19.5876H178.272V20.4672H174.326V13.4863Z" fill="#303E55"/>
<path d="M75.8535 50.9349H77.0703V47.5727H78.2572C79.7822 47.5727 81.2428 46.9146 81.2428 45.0454C81.2428 43.1288 79.8066 42.5293 78.0749 42.5293H75.8535V50.9349ZM77.0703 43.5824H78.0987C78.8502 43.5824 79.9646 43.9696 79.9646 45.0314C79.9646 46.1416 79.02 46.5157 78.2689 46.5157H77.0703V43.5824Z" fill="#303E55"/>
<path d="M82.1426 47.4449C82.1426 49.5622 83.3764 51.0519 85.5265 51.0519C87.6767 51.0519 88.9105 49.5622 88.9105 47.4449C88.9105 45.3751 87.6664 43.8379 85.5265 43.8379C83.3866 43.8379 82.1426 45.3761 82.1426 47.4449ZM83.2047 47.4449C83.2047 46.0259 83.9728 44.7078 85.527 44.716C87.0812 44.7063 87.8488 46.0259 87.8488 47.4449C87.8488 48.8323 87.1529 50.1718 85.527 50.1718C83.9011 50.1718 83.2047 48.8338 83.2047 47.4449Z" fill="#303E55"/>
<path d="M90.3555 43.9541H91.3596V50.0554H94.3002V50.934H90.3555V43.9541Z" fill="#303E55"/>
<path d="M96.4363 43.9551H95.4316V50.934H96.4363V43.9551Z" fill="#303E55"/>
<path d="M99.6491 44.8346H97.4629V43.9541H102.839V44.8346H100.653V50.935H99.6491V44.8346Z" fill="#303E55"/>
<path d="M104.882 43.9551H103.877V50.934H104.882V43.9551Z" fill="#303E55"/>
<path d="M111.535 45.1066C111.093 44.8473 110.599 44.716 110.083 44.716C108.461 44.716 107.383 45.8772 107.383 47.4449C107.383 49.0834 108.572 50.1718 110.035 50.1718C110.539 50.1718 111.213 50.0405 111.565 49.834L111.627 50.8028C111.093 51.0213 110.438 51.0524 110.026 51.0524C107.8 51.0524 106.322 49.6334 106.322 47.4148C106.322 45.2651 107.888 43.8379 110.035 43.8379C110.579 43.8379 111.112 43.9159 111.616 44.1306L111.535 45.1066Z" fill="#303E55"/>
<path d="M112.084 50.935H113.14L113.854 49.1744H117.297L118.011 50.935H119.109L116.139 43.9551H115.083L112.084 50.935ZM116.974 48.3535H114.176L115.583 44.8914L116.974 48.3535Z" fill="#303E55"/>
<path d="M120.145 43.9541H121.148V50.0554H124.089V50.934H120.145V43.9541Z" fill="#303E55"/>
<path d="M132.059 43.7941C131.444 43.5551 131.106 43.4451 130.472 43.4451C129.789 43.4451 128.985 43.6855 128.985 44.5646C128.985 46.1779 132.626 45.8052 132.626 48.5729C132.626 50.365 131.237 51.0725 129.533 51.0725C128.936 51.0725 128.359 50.9039 127.804 50.7241L127.924 49.607C128.333 49.7766 129.058 50.0151 129.68 50.0151C130.374 50.0151 131.348 49.6313 131.348 48.6446C131.348 46.7677 127.707 47.2833 127.707 44.6732C127.707 43.1844 128.888 42.3896 130.422 42.3896C130.981 42.3896 131.65 42.4861 132.227 42.6833L132.059 43.7941Z" fill="#303E55"/>
<path d="M138.965 45.1066C138.521 44.8473 138.027 44.716 137.514 44.716C135.892 44.716 134.815 45.8772 134.815 47.4449C134.815 49.0834 136.004 50.1718 137.466 50.1718C137.969 50.1718 138.644 50.0405 138.996 49.834L139.056 50.8028C138.521 51.0213 137.867 51.0524 137.455 51.0524C135.23 51.0524 133.754 49.6334 133.754 47.4148C133.754 45.2651 135.32 43.8379 137.466 43.8379C138.008 43.8379 138.544 43.9159 139.046 44.1306L138.965 45.1066Z" fill="#303E55"/>
<path d="M141.305 43.9551H140.303V50.934H141.305V43.9551Z" fill="#303E55"/>
<path d="M143.162 43.9541H147.097V44.8346H144.166V46.8671H146.834V47.7477H144.166V50.0554H147.097V50.934H143.162V43.9541Z" fill="#303E55"/>
<path d="M148.725 43.9541H150.094L153.211 49.5674H153.231V43.9541H154.235V50.934H152.948L149.75 45.1855H149.727V50.934H148.725V43.9541Z" fill="#303E55"/>
<path d="M160.877 45.1066C160.433 44.8473 159.938 44.716 159.426 44.716C157.803 44.716 156.726 45.8772 156.726 47.4449C156.726 49.0834 157.914 50.1718 159.375 50.1718C159.879 50.1718 160.554 50.0405 160.906 49.834L160.967 50.8028C160.433 51.0213 159.778 51.0524 159.366 51.0524C157.14 51.0524 155.664 49.6334 155.664 47.4148C155.664 45.2651 157.23 43.8379 159.375 43.8379C159.918 43.8379 160.453 43.9159 160.958 44.1306L160.877 45.1066Z" fill="#303E55"/>
<path d="M162.254 43.9541H166.188V44.8346H163.256V46.8671H165.927V47.7477H163.256V50.0554H166.188V50.934H162.254V43.9541Z" fill="#303E55"/>
<path d="M75.8359 33.0547C75.8359 34.6404 76.7615 35.7618 78.3757 35.7618C79.9875 35.7618 80.9136 34.6409 80.9136 33.0547C80.9136 31.5049 79.9797 30.3477 78.3757 30.3477C76.7703 30.3477 75.8359 31.5049 75.8359 33.0547ZM76.6338 33.0547C76.6338 31.9934 77.2087 31.0029 78.3757 31.0116C79.5413 31.0029 80.1157 31.9929 80.1157 33.0547C80.1157 34.0971 79.593 35.0993 78.3757 35.0993C77.1565 35.0993 76.6338 34.0971 76.6338 33.0547Z" fill="#303E55"/>
<path d="M82.5938 30.4365H85.3964V31.0985H83.3492V32.6255H85.3057V33.288H83.3492V35.6742H82.5938V30.4365Z" fill="#303E55"/>
<path d="M91.1992 27.2676H95.9433V28.3231H92.4164V30.7873H95.6282V31.8428H92.4164V34.6207H95.9433V35.6757H91.1992V27.2676Z" fill="#303E55"/>
<path d="M103.583 29.8473C103.14 29.5876 102.644 29.4577 102.132 29.4577C100.51 29.4577 99.4337 30.6174 99.4337 32.1851C99.4337 33.8236 100.622 34.913 102.083 34.913C102.586 34.913 103.262 34.7817 103.614 34.5723L103.674 35.543C103.14 35.7621 102.485 35.7931 102.072 35.7931C99.8478 35.7931 98.3711 34.3741 98.3711 32.1565C98.3711 30.0068 99.937 28.5791 102.083 28.5791C102.627 28.5791 103.161 28.6581 103.664 28.8723L103.583 29.8473Z" fill="#303E55"/>
<path d="M105.393 32.1851C105.393 34.3029 106.625 35.7916 108.776 35.7916C110.926 35.7916 112.16 34.3029 112.16 32.1851C112.16 30.1168 110.915 28.5781 108.776 28.5781C106.637 28.5781 105.393 30.1173 105.393 32.1851ZM106.454 32.1851C106.454 30.7662 107.221 29.4475 108.778 29.4577C110.332 29.4475 111.097 30.7662 111.097 32.1851C111.097 33.574 110.4 34.913 108.778 34.913C107.15 34.913 106.454 33.574 106.454 32.1851Z" fill="#303E55"/>
<path d="M114.449 28.6953H115.817L118.935 34.3081H118.955V28.6953H119.96V35.6743H118.672L115.475 29.9267H115.455V35.6743H114.449V28.6953Z" fill="#303E55"/>
<path d="M122.236 32.1851C122.236 34.3029 123.468 35.7916 125.62 35.7916C127.771 35.7916 129.003 34.3029 129.003 32.1851C129.003 30.1168 127.759 28.5781 125.62 28.5781C123.481 28.5781 122.236 30.1173 122.236 32.1851ZM123.3 32.1851C123.3 30.7662 124.066 29.4475 125.621 29.4577C127.176 29.4475 127.943 30.7662 127.943 32.1851C127.943 33.574 127.246 34.913 125.621 34.913C123.995 34.913 123.3 33.574 123.3 32.1851Z" fill="#303E55"/>
<path d="M131.312 28.6953H132.972L135.178 34.5015L137.349 28.6953H139.008V35.6743H138.003V29.6335H137.983L135.654 35.6743H134.667L132.339 29.6335H132.317V35.6743H131.312V28.6953Z" fill="#303E55"/>
<path d="M142.697 28.6953H141.691V35.6757H142.697V28.6953Z" fill="#303E55"/>
<path d="M150.195 29.8473C149.752 29.5876 149.256 29.4577 148.743 29.4577C147.121 29.4577 146.045 30.6174 146.045 32.1851C146.045 33.8236 147.234 34.913 148.693 34.913C149.198 34.913 149.872 34.7817 150.225 34.5723L150.286 35.543C149.752 35.7621 149.097 35.7931 148.684 35.7931C146.459 35.7931 144.982 34.3741 144.982 32.1565C144.982 30.0068 146.549 28.5791 148.693 28.5791C149.236 28.5791 149.771 28.6581 150.276 28.8723L150.195 29.8473Z" fill="#303E55"/>
<path d="M155.568 29.7465C155.056 29.5473 154.771 29.4567 154.246 29.4567C153.679 29.4567 153.008 29.6573 153.008 30.3877C153.008 31.7247 156.037 31.4155 156.037 33.7136C156.037 35.1999 154.884 35.7911 153.465 35.7911C152.968 35.7911 152.489 35.652 152.026 35.4999L152.128 34.5718C152.467 34.7114 153.07 34.9111 153.586 34.9111C154.165 34.9111 154.977 34.5912 154.977 33.7717C154.977 32.2127 151.945 32.6416 151.945 30.4744C151.945 29.2352 152.93 28.5752 154.205 28.5752C154.674 28.5752 155.228 28.6556 155.708 28.8277L155.568 29.7465Z" fill="#303E55"/>
<path d="M161.133 35.6737H161.928L162.463 34.3541H165.049L165.584 35.6737H166.407L164.179 30.4336H163.385L161.133 35.6737ZM164.804 33.7387H162.704L163.757 31.1387L164.804 33.7387Z" fill="#303E55"/>
<path d="M167.809 30.4346H168.838L171.167 34.659H171.183V30.4346H171.938V35.6742H170.972L168.58 31.3645H168.564V35.6742H167.809V30.4346Z" fill="#303E55"/>
<path d="M173.883 35.6738H175.438C177.171 35.6738 178.238 34.7632 178.238 33.0103C178.238 31.3985 176.996 30.4355 175.438 30.4355H173.883V35.6738ZM174.639 31.0985H175.521C176.608 31.0985 177.442 31.8167 177.442 33.0408C177.442 34.389 176.728 35.0118 175.431 35.0118H174.639V31.0985Z" fill="#303E55"/>
<path d="M178.238 43.9258H171.195V50.9261H178.238V43.9258Z" fill="#303E55"/>
</g>
<defs>
<clipPath id="clip0_2419_3247">
<rect width="178" height="63" fill="white" transform="translate(0.5)"/>
</clipPath>
</defs>
</svg>
