<svg width="190" height="33" viewBox="0 0 190 33" fill="none" xmlns="http://www.w3.org/2000/svg">
<g opacity="0.9">
<path d="M50.1536 9.14029L46.9496 16.6206H53.3857L50.1536 9.14029ZM59.9541 24.043H56.4837L54.5871 19.5316H45.7465L43.8235 24.043H40.459L48.6857 5.21479H51.7274L59.9541 24.043Z" fill="#303E55"/>
<path d="M90.2643 24.043H86.9511V8.39226H81.0215V5.34719H96.4587L95.1861 8.39226H90.2643V24.043Z" fill="#303E55"/>
<path d="M153.159 8.39226H143.146V13.1469H149.559V16.0877H143.146V21.0558H153.164V24.043H139.84V5.34719H153.159V8.39226Z" fill="#303E55"/>
<path d="M176.633 24.0439H173.5V5.34817H176.633V24.0439Z" fill="#303E55"/>
<path d="M163.313 8.04526C161.403 8.04526 159.78 8.62283 159.771 9.89051C159.761 11.375 160.693 11.8897 164.21 13.0332C168.096 14.3108 170.159 15.61 170.138 18.7709C170.118 22.334 167.364 24.3662 163.343 24.3662C160.496 24.3662 157.944 23.4428 155.998 21.7316L157.209 18.799C158.975 20.2785 161.115 21.3278 163.427 21.3377C165.451 21.3476 166.891 20.3629 166.891 18.9049C166.891 17.6852 166.186 16.8743 162.775 15.7937C158.863 14.5111 156.499 13.1739 156.519 9.98815C156.543 6.81895 159.515 5.01673 163.252 5.03493C166.99 5.05314 169.095 6.42011 169.415 6.60546L168.24 9.27156C167.477 8.85948 165.804 8.04526 163.313 8.04526Z" fill="#303E55"/>
<path d="M180.671 14.3976L189.04 5.34681H185.03L176.633 14.3976L185.861 24.0459H189.925L180.671 14.3976Z" fill="#303E55"/>
<path d="M106.59 21.3483C102.916 21.3483 100.233 18.3711 100.233 14.6971C100.233 11.0232 102.916 8.04428 106.59 8.04428C110.264 8.04428 112.948 11.0232 112.948 14.6971C112.948 18.3711 110.264 21.3483 106.59 21.3483ZM106.59 5.02568C101.25 5.02568 96.9219 9.35664 96.9219 14.6971C96.9219 20.0376 101.25 24.3652 106.59 24.3652C111.929 24.3652 116.26 20.0376 116.26 14.6971C116.26 9.35664 111.929 5.02568 106.59 5.02568Z" fill="#303E55"/>
<path d="M126.806 21.0528L123.029 21.0561V8.39587H126.821C130.493 8.39587 133.163 10.9991 133.163 14.6714C133.163 18.3437 130.477 21.0528 126.806 21.0528ZM126.806 5.34914H119.713V24.0449L126.806 24.0433C132.143 24.0433 136.472 20.0102 136.472 14.6714C136.472 9.33091 132.143 5.34914 126.806 5.34914Z" fill="#303E55"/>
<path d="M77.4134 15.7597C77.4134 21.3335 74.1432 24.3389 69.4002 24.3389C64.6588 24.3389 61.3887 21.3335 61.3887 15.7597V5.34851H64.7002V16.1536C64.7002 19.4237 66.6199 21.3434 69.4002 21.3434C72.1838 21.3434 74.1035 19.4237 74.1035 16.1536V5.34851H77.4134V15.7597Z" fill="#303E55"/>
<path d="M6.59754 32.353C5.67684 32.353 5.19839 32.0057 4.7391 31.199L0.543721 23.4219C0.254607 22.8645 0.25 22.6789 0.25 22.2773L6.84359 22.568L8.3527 24.0771H21.5786L10.597 30.88C10.0618 31.1965 8.02595 32.353 6.59754 32.353Z" fill="#303E55"/>
<path d="M8.35875 24.0773H2.65539C0.932771 24.0773 0.25 23.1763 0.25 22.2776C0.25 21.7088 0.433005 21.3987 0.686034 20.7666L8.99765 0.924735L9.08697 0.750621L9.20203 0.571974L9.44123 0.338825L9.79247 0.151095L10.3012 0.0390625L11.1762 0.061772L16.952 2.20856L14.999 8.36732L8.35875 24.0773Z" fill="#303E55"/>
<path fill-rule="evenodd" clip-rule="evenodd" d="M25.1059 32.3526L11.9866 1.29473C11.7606 0.765897 11.3983 0.0835703 10.4605 0.0835703C9.62262 0.0835703 9.22346 0.489288 8.99805 0.925338C9.1146 0.61088 9.46732 0 10.4896 0H19.5442C20.3787 0 20.779 0.491323 20.9614 0.941166L34.2284 32.3526H25.1059Z" fill="#303E55"/>
</g>
</svg>
