<svg width="102" height="31" viewBox="0 0 102 31" fill="none" xmlns="http://www.w3.org/2000/svg">
<g opacity="0.9">
<path opacity="0.8" d="M84.349 10.9023L88.5265 15.5063L92.5483 10.9023H101.136L92.7433 20.3403L101.251 29.8553H92.3168L88.1786 25.2149L84.0783 29.8553H75.4512L83.8847 20.3795L75.4512 10.9023H84.349Z" fill="#303E55"/>
<path opacity="0.8" d="M75.4519 10.9024V17.3061H65.9004V23.1824H75.4519V29.8554H58.8809V0H75.4519V6.6548H65.9004V10.9024H75.4519Z" fill="#303E55"/>
<path d="M51.8878 0V12.2182H51.8107C50.262 10.4395 48.329 9.82088 46.0859 9.82088C41.4904 9.82088 38.0283 12.9463 36.8135 17.0761C35.4262 12.5254 31.8519 9.73531 26.5522 9.73531C22.2484 9.73531 18.8495 11.6669 17.0764 14.8148V10.9024H8.17993V6.6548H17.8886V0H0.25V29.8554H8.17993V17.3061H16.0846C15.8489 18.2278 15.7227 19.2153 15.7227 20.2576C15.7227 26.4845 20.4809 30.8556 26.5522 30.8556C31.6583 30.8556 35.0236 28.4582 36.8023 24.0886H30.0058C29.087 25.403 28.3898 25.7916 26.5522 25.7916C24.4213 25.7916 22.5837 23.9329 22.5837 21.7291H36.4221C37.0225 26.6753 40.876 30.9412 46.1631 30.9412C48.444 30.9412 50.5327 29.8189 51.8093 27.9252H51.8864V29.8582H58.8765V0H51.8878ZM22.8053 17.3945C23.2458 15.4979 24.7173 14.2593 26.5536 14.2593C28.575 14.2593 29.9707 15.4601 30.3383 17.3945C30.4926 17.3945 22.8053 17.3945 22.8053 17.3945ZM47.6444 25.3104C45.0675 25.3104 43.4655 22.9088 43.4655 20.4021C43.4655 17.7228 44.8585 15.1458 47.6444 15.1458C50.5327 15.1458 51.683 17.7228 51.683 20.4021C51.683 22.9425 50.464 25.3104 47.6444 25.3104Z" fill="#303E55"/>
</g>
</svg>
