<svg width="140" height="23" viewBox="0 0 140 23" fill="none" xmlns="http://www.w3.org/2000/svg">
<g opacity="0.9">
<path fill-rule="evenodd" clip-rule="evenodd" d="M137.78 0.776898V4.92118C135.633 4.11066 133.721 3.70084 132.048 3.70084C131.057 3.70084 130.268 3.88435 129.675 4.23913C129.081 4.59697 128.779 5.03743 128.779 5.55738C128.779 6.2486 129.448 6.86332 130.797 7.41391L134.694 9.31019C137.844 10.8119 139.407 12.8061 139.407 15.311C139.407 17.3939 138.578 19.0547 136.905 20.2842C135.244 21.526 133.009 22.1407 130.225 22.1407C128.941 22.1407 127.788 22.0857 126.763 21.9694C125.738 21.8594 124.561 21.633 123.255 21.3088V16.9718C125.65 17.7823 127.83 18.1922 129.794 18.1922C132.137 18.1922 133.302 17.5132 133.302 16.1429C133.302 15.4609 132.825 14.9104 131.856 14.4791L127.528 12.6348C125.931 11.913 124.744 11.0382 123.968 10.0014C123.203 8.95541 122.814 7.75646 122.814 6.38625C122.814 4.4685 123.622 2.92394 125.218 1.74946C126.827 0.584149 128.962 0 131.617 0C132.479 0 133.473 0.0764319 134.575 0.217137C135.685 0.367013 136.752 0.550519 137.78 0.776898Z" fill="#303E55"/>
<path fill-rule="evenodd" clip-rule="evenodd" d="M15.2062 0.776898V4.92118C13.0591 4.11066 11.1506 3.70084 9.47757 3.70084C8.48354 3.70084 7.69754 3.88435 7.10415 4.23913C6.51083 4.59697 6.20802 5.03743 6.20802 5.55738C6.20802 6.2486 6.88701 6.86332 8.23583 7.41391L12.1324 9.31019C15.2704 10.8119 16.8365 12.8061 16.8365 15.311C16.8365 17.3939 16.0045 19.0547 14.3437 20.2842C12.6707 21.526 10.4472 22.1407 7.65474 22.1407C6.37012 22.1407 5.21398 22.0857 4.18938 21.9694C3.16477 21.8594 1.99946 21.633 0.684343 21.3088V16.9718C3.08834 17.7823 5.26909 18.1922 7.2204 18.1922C9.56325 18.1922 10.7286 17.5132 10.7286 16.1429C10.7286 15.4609 10.2545 14.9104 9.29407 14.4791L4.96628 12.6348C3.35745 11.913 2.17074 11.0382 1.40614 10.0014C0.629242 8.95541 0.25 7.75646 0.25 6.38625C0.25 4.4685 1.05136 2.92394 2.65705 1.74946C4.25365 0.584149 6.39152 0 9.04636 0C9.91803 0 10.8998 0.0764319 12.0131 0.217137C13.1142 0.367013 14.1816 0.550519 15.2062 0.776898Z" fill="#303E55"/>
<path fill-rule="evenodd" clip-rule="evenodd" d="M19.6719 0.388672H26.0184V21.7525H19.6719V0.388672Z" fill="#303E55"/>
<path fill-rule="evenodd" clip-rule="evenodd" d="M46.4651 0.388672V4.33729H37.0356V9.0749H45.2141V12.635H37.0356V17.6083H46.6577V21.7525H30.9277V0.388672H46.4651Z" fill="#303E55"/>
<path fill-rule="evenodd" clip-rule="evenodd" d="M76.0911 0.388672V21.7525H70.1665V7.66188L64.0192 21.9483H60.3612L54.4491 7.66188V21.7525H50.1641V0.388672H57.9113L63.1995 13.467L68.7324 0.388672H76.0911Z" fill="#303E55"/>
<path fill-rule="evenodd" clip-rule="evenodd" d="M96.5294 0.388672V4.33729H87.1515V9.0749H95.33V12.635H87.1515V17.6083H96.7221V21.7525H80.9922V0.388672H96.5294Z" fill="#303E55"/>
<path fill-rule="evenodd" clip-rule="evenodd" d="M118.799 0.388672V21.7525H112.067L104.513 8.05029V21.7525H100.23V0.388672H107.158L114.517 13.8554V0.388672H118.799Z" fill="#303E55"/>
</g>
</svg>
