<svg width="131" height="39" viewBox="0 0 131 39" fill="none" xmlns="http://www.w3.org/2000/svg">
<g opacity="0.9" clip-path="url(#clip0_2418_794)">
<path d="M104.861 32.6846H26.2656L32.5345 39.0004L104.861 32.6846Z" fill="#303E55"/>
<path d="M117.477 28.6582V16.0266C117.477 13.6582 119.123 11.6845 121.474 11.6845C123.825 11.6845 125.47 13.6582 125.47 16.0266V28.6582H130.329V16.0266C130.329 10.816 126.802 6.63184 121.631 6.63184C119.28 6.63184 117.477 7.97394 117.477 7.97394V7.10552H112.619V28.5792H117.477V28.6582Z" fill="#303E55"/>
<path d="M101.414 6.55273C95.7718 6.55273 91.7754 11.5264 91.7754 17.8422C91.7754 24.4738 96.7905 29.1317 101.884 29.1317C104.47 29.1317 107.683 28.2633 110.425 24.3159L106.115 21.7896C102.824 26.6843 97.2606 24.2369 96.6337 19.2633H110.582C111.836 11.6843 106.899 6.55273 101.414 6.55273ZM105.645 15.079H96.9472C97.9659 10.1054 104.705 9.78958 105.645 15.079Z" fill="#303E55"/>
<path d="M90.208 23.5258C89.7378 23.8416 89.1893 24.0784 88.5624 24.0784C87.7788 24.0784 86.2899 23.4469 86.2899 21.4732V12.2363H90.4431V7.10475H86.2899V1.73633H81.4316V7.10475H78.8457V12.2363H81.4316V21.4732C81.4316 26.289 85.0362 29.1311 88.6408 29.1311C89.9729 29.1311 91.8535 28.6574 93.3424 27.789L90.208 23.5258Z" fill="#303E55"/>
<path d="M72.3414 7.10547V19.7371C72.3414 22.1055 70.6958 24.0792 68.345 24.0792C65.9942 24.0792 64.3486 22.1055 64.3486 19.7371V7.10547H59.4902V19.7371C59.4902 24.9476 63.0165 29.1318 68.1882 29.1318C70.5391 29.1318 72.3414 27.7897 72.3414 27.7897V28.5792H77.1997V7.10547H72.3414Z" fill="#303E55"/>
<path d="M50.4008 17.2105L58.707 7.10526H51.968L46.091 14.6053V0H41.1543V28.6579H46.091V19.8158L53.3002 28.6579H60.0392L50.4008 17.2105Z" fill="#303E55"/>
<path d="M33.5526 7.10537V8.05273C32.0638 7.10537 30.81 6.55273 29.0077 6.55273C23.5225 6.55273 19.291 11.6054 19.291 17.8422C19.291 24.079 23.4441 29.1317 29.0077 29.1317C30.81 29.1317 32.1421 28.579 33.5526 27.6317V28.579H38.411V7.10537H33.5526ZM28.9294 24.0001C26.1867 24.0001 24.2277 21.3159 24.2277 17.9212C24.2277 14.5264 26.1867 11.8422 28.9294 11.8422C31.672 11.8422 33.5526 14.5264 33.5526 17.9212C33.631 21.3159 31.672 24.0001 28.9294 24.0001Z" fill="#303E55"/>
<path d="M5.34343 28.6584V20.2899H8.86965L15.0601 28.5794H21.4073L13.8847 18.5531C16.2355 16.8952 17.7244 14.132 17.7244 10.9741C17.7244 5.84257 13.5713 1.7373 8.55621 1.7373H0.25V28.5794H5.34343V28.6584ZM5.34343 6.86888H8.63457C10.907 6.86888 12.7877 8.76362 12.7877 11.0531C12.7877 13.3426 10.907 15.2373 8.63457 15.2373H5.34343V6.86888Z" fill="#303E55"/>
</g>
<defs>
<clipPath id="clip0_2418_794">
<rect width="130" height="39" fill="white" transform="translate(0.25)"/>
</clipPath>
</defs>
</svg>
