<svg width="147" height="28" viewBox="0 0 147 28" fill="none" xmlns="http://www.w3.org/2000/svg">
<g opacity="0.9">
<path d="M138.512 23.4283C138.512 21.2919 140.246 19.5586 142.381 19.5586C144.518 19.5586 146.25 21.2919 146.25 23.4283C146.25 25.5646 144.518 27.2968 142.381 27.2968C140.246 27.2968 138.512 25.5646 138.512 23.4283Z" fill="#303E55"/>
<path d="M15.1017 13.1801C15.1017 10.7291 14.6281 8.91069 13.6809 7.72605C12.7324 6.54254 11.2958 5.95133 9.36435 5.95133H7.30976V20.9396H8.8817C11.027 20.9396 12.5992 20.3036 13.6002 19.0271C14.6 17.7529 15.1017 15.8035 15.1017 13.1801ZM22.4289 12.9248C22.4289 17.3902 21.2286 20.8309 18.828 23.2461C16.4273 25.6624 13.0527 26.8706 8.7026 26.8706H0.25V0.113281H9.29262C13.487 0.113281 16.7251 1.21169 19.0071 3.40741C21.2879 5.60425 22.4289 8.77523 22.4289 12.9248Z" fill="#303E55"/>
<path d="M45.8418 26.8702H52.5678V0.000976562H45.8418V26.8702Z" fill="#303E55"/>
<path d="M62.0176 16.8485C62.0176 18.5616 62.2416 19.8682 62.6884 20.7662C63.1362 21.6653 63.8863 22.1144 64.9411 22.1144C65.9846 22.1144 66.7225 21.6653 67.1525 20.7662C67.5824 19.8682 67.7963 18.5616 67.7963 16.8485C67.7963 15.1443 67.579 13.8588 67.1435 12.9911C66.7068 12.1211 65.9624 11.6855 64.9065 11.6855C63.8742 11.6855 63.1362 12.1189 62.6884 12.981C62.2416 13.8443 62.0176 15.1331 62.0176 16.8485ZM74.6422 16.8485C74.6422 20.1124 73.7866 22.6585 72.0713 24.4836C70.3571 26.3099 67.9576 27.2235 64.8729 27.2235C61.9146 27.2235 59.5598 26.2897 57.812 24.422C56.062 22.5544 55.1875 20.0306 55.1875 16.8485C55.1875 13.5946 56.0441 11.0663 57.7595 9.26362C59.4748 7.46091 61.8799 6.55957 64.977 6.55957C66.8906 6.55957 68.5835 6.97724 70.0503 7.81141C71.5182 8.64558 72.6514 9.8403 73.4475 11.3967C74.2447 12.9508 74.6422 14.7692 74.6422 16.8485Z" fill="#303E55"/>
<path d="M77.3145 26.8707H84.0416V16.5874V6.91211H77.3145V26.8707Z" fill="#303E55"/>
<path d="M77.3145 4.4978H84.0416V0H77.3145V4.4978Z" fill="#303E55"/>
<path d="M97.6691 21.7798C98.5772 21.7798 99.6587 21.5491 100.921 21.0912V26.113C100.014 26.5116 99.1515 26.7971 98.3319 26.9662C97.5123 27.1375 96.5504 27.2226 95.4498 27.2226C93.1913 27.2226 91.5633 26.6549 90.5634 25.5218C89.568 24.3887 89.0686 22.6487 89.0686 20.3007V12.0732H86.7129V6.91361H89.0686V1.81676L95.8474 0.637695V6.91361H100.139V12.0732H95.8474V19.8416C95.8474 21.1337 96.4553 21.7798 97.6691 21.7798Z" fill="#303E55"/>
<path d="M113.239 21.7798C114.147 21.7798 115.228 21.5491 116.49 21.0912V26.113C115.584 26.5116 114.721 26.7971 113.901 26.9662C113.081 27.1375 112.122 27.2226 111.019 27.2226C108.761 27.2226 107.133 26.6549 106.135 25.5218C105.138 24.3887 104.638 22.6487 104.638 20.3007V12.0732H102.281V6.91361H104.638V1.73951L111.416 0.637695V6.91361H115.71V12.0732H111.416V19.8416C111.416 21.1337 112.024 21.7798 113.239 21.7798Z" fill="#303E55"/>
<path d="M124.976 14.4165C125.068 13.3236 125.381 12.5231 125.913 12.0114C126.449 11.5008 127.109 11.2455 127.9 11.2455C128.762 11.2455 129.447 11.5321 129.955 12.1099C130.467 12.6843 130.734 13.4535 130.755 14.4165H124.976ZM134.462 8.91208C132.863 7.3445 130.595 6.55957 127.66 6.55957C124.575 6.55957 122.202 7.46091 120.538 9.26362C118.875 11.0663 118.043 13.6529 118.043 17.0231C118.043 20.287 118.942 22.8041 120.736 24.571C122.531 26.3378 125.051 27.2224 128.297 27.2224C129.856 27.2224 131.197 27.1161 132.321 26.9044C133.439 26.6951 134.52 26.3166 135.57 25.7701L134.536 21.2723C133.774 21.5836 133.048 21.8232 132.363 21.9811C131.373 22.2107 130.287 22.326 129.105 22.326C127.808 22.326 126.785 22.0091 126.034 21.3753C125.284 20.7405 124.884 19.8649 124.839 18.7497H136.862V15.6851C136.862 12.7369 136.062 10.4785 134.462 8.91208Z" fill="#303E55"/>
<path d="M31.355 14.4165C31.4468 13.3236 31.7592 12.5231 32.2921 12.0114C32.8262 11.5008 33.4881 11.2455 34.2798 11.2455C35.1397 11.2455 35.8249 11.5321 36.3344 12.1099C36.846 12.6843 37.1114 13.4535 37.135 14.4165H31.355ZM40.8422 8.91208C39.2422 7.3445 36.9747 6.55957 34.039 6.55957C30.953 6.55957 28.5804 7.46091 26.9176 9.26362C25.2549 11.0663 24.4219 13.6529 24.4219 17.0231C24.4219 20.287 25.3199 22.8041 27.1159 24.571C28.9097 26.3378 31.43 27.2224 34.676 27.2224C36.2347 27.2224 37.576 27.1161 38.7002 26.9044C39.8176 26.6951 40.8994 26.3166 41.9497 25.7701L40.9151 21.2723C40.1525 21.5836 39.4269 21.8232 38.7428 21.9811C37.7508 22.2107 36.6657 22.326 35.4832 22.326C34.1878 22.326 33.1634 22.0091 32.4133 21.3753C31.6619 20.7405 31.2633 19.8649 31.2175 18.7497H43.2406V15.6851C43.2406 12.7369 42.4412 10.4785 40.8422 8.91208Z" fill="#303E55"/>
</g>
</svg>
