<svg width="161" height="30" viewBox="0 0 161 30" fill="none" xmlns="http://www.w3.org/2000/svg">
<g opacity="0.9">
<path d="M87.5527 27.0817H108.261V24.5523H91.1028V16.4584H103.991V13.8991H91.1028V6.4421H108.261V3.92188H87.5527V27.0817Z" fill="#303E55"/>
<path d="M98.3154 0.177734L95.5117 3.32742L104.313 0.177734H98.3154Z" fill="#303E55"/>
<path d="M143.026 24.5523V3.92188H139.789V27.0817H160.723V24.5523H143.026Z" fill="#303E55"/>
<path d="M121.68 3.92188L109.904 27.0817H113.885L116.898 21.0873H131.021L134.06 27.0817H137.999L126.213 3.92188H121.68ZM118.388 18.1843L123.937 7.12211L129.551 18.1843H118.388Z" fill="#303E55"/>
<path d="M76.3162 17.3974C81.6221 15.9816 82.1376 12.0338 82.1107 10.6224C81.794 6.48503 79.0064 3.92188 73.9974 3.92188H59.4004V27.0817H62.728V17.3665H72.231L79.2222 27.0817H83.4164C83.4162 27.0817 78.3851 20.5433 76.3162 17.3974ZM73.5431 14.63H62.728V6.66315H73.92C76.4968 6.66315 77.9463 7.8661 78.4684 9.3942C78.8138 10.4417 78.5924 11.8167 78.0209 12.7529C77.0855 14.3007 75.3087 14.63 73.5431 14.63Z" fill="#303E55"/>
<path d="M39.403 0C30.0097 0 23.6074 6.62292 23.6074 14.6389C23.6074 23.0778 30.6797 29.0352 39.403 29.0352C48.1205 29.0352 55.1899 23.1629 55.1899 14.6389C55.1899 6.62292 48.7084 0 39.403 0ZM39.2902 26.1603C32.7915 26.1603 27.4369 20.9379 27.4369 14.6468C27.4369 8.36425 32.5387 2.89172 39.5422 2.89172C46.3721 2.89172 51.3927 8.36425 51.3927 14.6468C51.3927 20.9377 45.7862 26.1603 39.2902 26.1603Z" fill="#303E55"/>
<path d="M15.2285 12.115H17.6296L21.9878 3.92188H18.4807L15.2285 12.115Z" fill="#303E55"/>
<path d="M3.48855 24.5523V3.92188H0.25V27.0817H21.1835V24.5523H3.48855Z" fill="#303E55"/>
</g>
</svg>
