<svg width="95" height="79" viewBox="0 0 95 79" fill="none" xmlns="http://www.w3.org/2000/svg">
<g opacity="0.9">
<path d="M17.1763 31.1917C17.1763 27.5556 14.7638 25.4901 11.3482 25.4901H9.25781V36.8971H11.2887C14.4646 36.8971 17.1763 35.1711 17.1763 31.1917ZM54.3602 35.2958L38.9604 47.4219L24.8858 36.3409C22.8549 41.2198 17.9473 44.6085 12.2956 44.6085H0.25V17.7749H12.2956C18.6108 17.7749 23.1617 21.7907 24.882 26.0693L38.9604 14.9999L44.1748 19.1039L31.272 29.2452L33.7517 31.1859L46.6507 21.0505L51.8728 25.143L38.9719 35.2958L41.4478 37.2404L54.3602 27.0857V17.7749H63.7209V36.7763H73.0585V44.6411H54.3602V35.2958ZM84.9162 36.7801H94.25V44.6411H75.5459V17.7749H84.9162V36.7801Z" fill="#303E55"/>
</g>
</svg>
