<svg width="101" height="96" viewBox="0 0 101 96" fill="none" xmlns="http://www.w3.org/2000/svg">
<path d="M97.8967 95.3023H3.49712C2.2899 95.3023 1.30469 94.324 1.30469 93.1099V3.19233C1.30469 1.98511 2.2899 1.00684 3.49712 1.00684H97.8967C99.1039 1.00684 100.089 1.98511 100.089 3.19927V93.1099C100.089 94.3171 99.1108 95.3023 97.8967 95.3023Z" fill="white"/>
<path d="M97.8967 95.3023H3.49712C2.2899 95.3023 1.30469 94.324 1.30469 93.1099V3.19233C1.30469 1.98511 2.2899 1.00684 3.49712 1.00684H97.8967C99.1039 1.00684 100.089 1.98511 100.089 3.19927V93.1099C100.089 94.3171 99.1108 95.3023 97.8967 95.3023Z" stroke="#303E55" stroke-width="0.79" stroke-miterlimit="10"/>
<path d="M97.9252 95.3024H3.44243C2.23521 95.3024 1.25 94.3241 1.25 93.11V3.19243C1.25 1.98521 2.23521 1 3.44243 1H97.9252C99.1325 1 100.118 1.97827 100.118 3.19243V93.11C100.118 94.3172 99.1394 95.3024 97.9252 95.3024Z" fill="white"/>
<path d="M1.25 76.0488V91.9093C1.25 94.3099 2.11726 95.302 4.64272 95.302H96.725C99.3961 95.302 100.687 95.302 100.118 91.9093V76.0488H1.25Z" fill="#303E55"/>
<path d="M65.3306 31.0344C65.3306 29.9729 65.1641 28.953 64.9907 27.9678H51.0312V33.7541H58.8643C58.5174 35.6274 57.6294 37.2162 56.0405 38.2847V42.059H60.8903C63.7141 39.4503 65.3376 35.5927 65.3376 31.0344H65.3306Z" fill="#4284F4"/>
<path d="M50.9828 45.6816C55.0138 45.6816 58.4065 44.3564 60.8834 42.0668L56.0337 38.2925C54.7016 39.1945 52.9879 39.7218 50.9758 39.7218C47.0905 39.7218 43.788 37.0922 42.6085 33.5469H37.627V37.4253C40.083 42.3235 45.134 45.6816 50.9758 45.6816H50.9828Z" fill="#34A853"/>
<path d="M42.6133 33.5473C42.315 32.6454 42.1485 31.6879 42.1485 30.6958C42.1485 29.7036 42.315 28.7462 42.6133 27.8442V23.9658H37.6318C36.6188 25.9917 36.043 28.2744 36.043 30.6958C36.043 33.1171 36.6188 35.3998 37.6318 37.4257L42.6133 33.5473Z" fill="#FBBC04"/>
<path d="M50.9817 21.6688C53.1741 21.6688 55.1445 22.425 56.6987 23.9098L60.9795 19.6151C58.3916 17.1937 55.0127 15.709 50.9817 15.709C45.1468 15.709 40.0889 19.067 37.6328 23.9653L42.6144 27.8437C43.7938 24.2983 47.0894 21.6688 50.9817 21.6688Z" fill="#EA4335"/>
<path d="M97.9252 95.3024H3.44243C2.23521 95.3024 1.25 94.3241 1.25 93.11V3.19243C1.25 1.98521 2.23521 1 3.44243 1H97.9252C99.1325 1 100.118 1.97827 100.118 3.19243V93.11C100.118 94.3172 99.1394 95.3024 97.9252 95.3024Z" stroke="#303E55" stroke-width="0.79" stroke-miterlimit="10"/>
<path d="M18.9586 61.1949C18.3966 60.8688 17.9526 60.4248 17.6196 59.8559C17.2865 59.2869 17.127 58.6556 17.127 57.9687C17.127 57.2818 17.2935 56.6505 17.6196 56.0815C17.9456 55.5126 18.3966 55.0686 18.9586 54.7425C19.5206 54.4164 20.1381 54.2568 20.8041 54.2568C21.3245 54.2568 21.8171 54.347 22.275 54.5344C22.7329 54.7217 23.1145 54.9784 23.4129 55.3184L22.8092 55.922C22.5872 55.6445 22.2958 55.4294 21.9489 55.2837C21.5951 55.138 21.2204 55.0617 20.818 55.0617C20.3185 55.0617 19.8467 55.1796 19.4165 55.4224C18.9864 55.6653 18.6395 56.0052 18.3758 56.4423C18.1122 56.8794 17.9873 57.3928 17.9873 57.9687C17.9873 58.5446 18.1191 59.051 18.3758 59.4951C18.6325 59.9391 18.9864 60.2722 19.4235 60.515C19.8606 60.7578 20.3254 60.8758 20.825 60.8758C21.3245 60.8758 21.6991 60.7994 22.0183 60.6537C22.3375 60.508 22.615 60.3068 22.8439 60.064C23.0174 59.8767 23.1561 59.6547 23.2602 59.391C23.3643 59.1274 23.4337 58.8429 23.4614 58.5238H20.8319V57.7398H24.2454C24.2801 57.9271 24.294 58.0936 24.294 58.2532C24.294 58.6903 24.2246 59.1135 24.0858 59.5298C23.9471 59.9461 23.7251 60.3068 23.4198 60.6191C22.7676 61.3267 21.8934 61.6806 20.8111 61.6806C20.145 61.6806 19.5275 61.521 18.9655 61.1949H18.9586Z" fill="#5F6368"/>
<path d="M20.8025 61.7633C20.1226 61.7633 19.4843 61.5968 18.9154 61.2638C18.3395 60.9307 17.8816 60.4728 17.5416 59.89C17.2017 59.3142 17.0352 58.662 17.0352 57.9612C17.0352 57.2605 17.2086 56.6153 17.5416 56.0325C17.8747 55.4566 18.3395 54.9918 18.9154 54.6587C19.4912 54.3257 20.1226 54.1592 20.8025 54.1592C21.3368 54.1592 21.8432 54.2563 22.3081 54.4436C22.7799 54.631 23.1684 54.9016 23.4737 55.2485L23.5292 55.3109L22.8007 56.0394L22.7383 55.9631C22.5232 55.6994 22.2457 55.4913 21.9057 55.3456C21.5657 55.1999 21.198 55.1305 20.8095 55.1305C20.3238 55.1305 19.8659 55.2485 19.4496 55.4844C19.0333 55.7202 18.6934 56.0533 18.4366 56.4765C18.1869 56.8997 18.0551 57.3993 18.0551 57.9543C18.0551 58.5094 18.1799 59.0089 18.4366 59.4321C18.6864 59.8553 19.0333 60.1884 19.4496 60.4243C19.8728 60.6602 20.3307 60.7781 20.8095 60.7781C21.2882 60.7781 21.6629 60.7087 21.9681 60.563C22.2803 60.4173 22.544 60.23 22.773 59.9941C22.9395 59.8207 23.0713 59.5986 23.1754 59.3489C23.2656 59.1199 23.328 58.8701 23.3558 58.5996H20.7332V57.6421H24.3063L24.3201 57.7115C24.3548 57.8988 24.3687 58.0792 24.3687 58.2457C24.3687 58.6897 24.2993 59.1268 24.1536 59.5501C24.0079 59.9733 23.779 60.3479 23.4668 60.6671C22.8007 61.3887 21.8988 61.7564 20.7956 61.7564L20.8025 61.7633ZM20.8025 54.3396C20.1504 54.3396 19.5467 54.4991 18.9986 54.8114C18.4505 55.1305 18.0134 55.5676 17.6873 56.1157C17.3682 56.6708 17.2017 57.2883 17.2017 57.9543C17.2017 58.6204 17.3612 59.2448 17.6873 59.7929C18.0065 60.3479 18.4505 60.785 18.9986 61.0973C19.5467 61.4095 20.1504 61.5691 20.8025 61.5691C21.8571 61.5691 22.7105 61.2221 23.3488 60.5353C23.6472 60.23 23.8622 59.8762 23.9941 59.4807C24.1328 59.0783 24.1953 58.662 24.1953 58.2318C24.1953 58.1 24.1814 57.9543 24.1606 57.8017H20.9066V58.4122H23.5431V58.5094C23.5084 58.8354 23.439 59.1338 23.328 59.4044C23.217 59.675 23.0713 59.9108 22.8978 60.0982C22.6619 60.3479 22.3705 60.5561 22.0445 60.7087C21.7114 60.8614 21.2951 60.9377 20.8095 60.9377C20.3238 60.9377 19.8173 60.8128 19.3664 60.563C18.9154 60.3133 18.5546 59.9594 18.284 59.5084C18.0134 59.0575 17.8816 58.5302 17.8816 57.9404C17.8816 57.3507 18.0204 56.8234 18.284 56.3724C18.5546 55.9214 18.9154 55.5676 19.3594 55.3178C19.8035 55.0681 20.2891 54.9432 20.8025 54.9432C21.2119 54.9432 21.6074 55.0195 21.9681 55.1721C22.3012 55.3109 22.5787 55.5121 22.8007 55.7619L23.2794 55.2831C23.0019 54.9848 22.6481 54.7489 22.2318 54.5824C21.7877 54.402 21.3021 54.3118 20.7887 54.3118L20.8025 54.3396Z" fill="#5F6368"/>
<path d="M26.3741 61.3278C25.9786 61.0919 25.6664 60.7658 25.4444 60.3564C25.2223 59.9471 25.1113 59.4961 25.1113 58.9966C25.1113 58.497 25.2223 58.046 25.4444 57.6367C25.6664 57.2273 25.9786 56.9013 26.3741 56.6654C26.7695 56.4295 27.2205 56.3115 27.7131 56.3115C28.2057 56.3115 28.6567 56.4295 29.0522 56.6654C29.4476 56.9013 29.7598 57.2273 29.9819 57.6367C30.2039 58.046 30.3149 58.497 30.3149 58.9966C30.3149 59.4961 30.2039 59.9471 29.9819 60.3564C29.7598 60.7658 29.4476 61.0919 29.0522 61.3278C28.6567 61.5636 28.2057 61.6816 27.7131 61.6816C27.2205 61.6816 26.7695 61.5636 26.3741 61.3278ZM28.5804 60.6895C28.851 60.5368 29.066 60.3079 29.2256 60.0165C29.3852 59.7251 29.4684 59.3851 29.4684 58.9966C29.4684 58.608 29.3852 58.2681 29.2256 57.9767C29.066 57.6853 28.851 57.4632 28.5804 57.3106C28.3098 57.158 28.0253 57.0747 27.7131 57.0747C27.4009 57.0747 27.1095 57.151 26.8389 57.3106C26.5683 57.4632 26.3532 57.6922 26.1867 57.9767C26.0272 58.2681 25.9439 58.608 25.9439 58.9966C25.9439 59.3851 26.0272 59.7251 26.1867 60.0165C26.3463 60.3079 26.5683 60.5299 26.8389 60.6895C27.1095 60.8421 27.4009 60.9253 27.7131 60.9253C28.0253 60.9253 28.3167 60.849 28.5804 60.6895Z" fill="#5F6368"/>
<path d="M27.7143 61.7643C27.2009 61.7643 26.7361 61.6394 26.3267 61.3966C25.9174 61.1538 25.5982 60.8138 25.3693 60.3906C25.1403 59.9674 25.0293 59.4956 25.0293 58.9891C25.0293 58.4826 25.1472 58.0108 25.3693 57.5876C25.5913 57.1644 25.9174 56.8314 26.3267 56.5816C26.7361 56.3388 27.2009 56.2139 27.7143 56.2139C28.2278 56.2139 28.6926 56.3388 29.095 56.5816C29.5044 56.8244 29.8235 57.1644 30.0525 57.5876C30.2814 58.0108 30.3924 58.4826 30.3924 58.9891C30.3924 59.4956 30.2745 59.9674 30.0525 60.3906C29.8235 60.8138 29.5044 61.1538 29.095 61.3966C28.6857 61.6394 28.2208 61.7643 27.7143 61.7643ZM27.7143 56.3873C27.2356 56.3873 26.7985 56.5053 26.4169 56.7342C26.0353 56.9632 25.737 57.2823 25.5219 57.6709C25.3068 58.0663 25.2027 58.5104 25.2027 58.9891C25.2027 59.4678 25.3138 59.9119 25.5219 60.3073C25.737 60.7028 26.0353 61.015 26.4169 61.244C26.7985 61.4729 27.2356 61.5909 27.7143 61.5909C28.1931 61.5909 28.6302 61.4729 29.0118 61.244C29.3934 61.015 29.6917 60.7028 29.9068 60.3073C30.1218 59.9119 30.2259 59.4678 30.2259 58.9891C30.2259 58.5104 30.1149 58.0663 29.9068 57.6709C29.6917 57.2754 29.3934 56.9632 29.0118 56.7342C28.6302 56.5053 28.1931 56.3873 27.7143 56.3873ZM27.7143 61.0011C27.3882 61.0011 27.083 60.9179 26.7985 60.7583C26.514 60.5918 26.2851 60.3559 26.1186 60.0576C25.9521 59.7523 25.8619 59.3984 25.8619 58.996C25.8619 58.5936 25.9451 58.2328 26.1186 57.9345C26.2851 57.6292 26.521 57.3933 26.7985 57.2338C27.3605 56.9077 28.0682 56.9077 28.6232 57.2338C28.9007 57.3933 29.1297 57.6292 29.3032 57.9345C29.4697 58.2398 29.5599 58.5936 29.5599 58.996C29.5599 59.3984 29.4766 59.7592 29.3032 60.0576C29.1366 60.3628 28.9077 60.5987 28.6232 60.7583C28.3457 60.9179 28.0335 61.0011 27.7143 61.0011ZM27.7143 57.1505C27.416 57.1505 27.1385 57.2268 26.8818 57.3725C26.6251 57.5182 26.4169 57.7333 26.2643 58.0108C26.1116 58.2884 26.0353 58.6144 26.0353 58.9891C26.0353 59.3638 26.1116 59.6898 26.2643 59.9674C26.4169 60.2449 26.6251 60.46 26.8818 60.6057C27.3952 60.8971 28.0265 60.8971 28.533 60.6057C28.7828 60.46 28.9909 60.2449 29.1436 59.9674C29.2962 59.6898 29.3725 59.3638 29.3725 58.9891C29.3725 58.6144 29.2962 58.2884 29.1436 58.0108C28.9909 57.7333 28.7828 57.5182 28.533 57.3725C28.2833 57.2268 28.0057 57.1505 27.7074 57.1505H27.7143Z" fill="#5F6368"/>
<path d="M32.2744 61.3278C31.879 61.0919 31.5668 60.7658 31.3447 60.3564C31.1227 59.9471 31.0117 59.4961 31.0117 58.9966C31.0117 58.497 31.1227 58.046 31.3447 57.6367C31.5668 57.2273 31.879 56.9013 32.2744 56.6654C32.6699 56.4295 33.1209 56.3115 33.6135 56.3115C34.1061 56.3115 34.5571 56.4295 34.9525 56.6654C35.348 56.9013 35.6602 57.2273 35.8823 57.6367C36.1043 58.046 36.2153 58.497 36.2153 58.9966C36.2153 59.4961 36.1043 59.9471 35.8823 60.3564C35.6602 60.7658 35.348 61.0919 34.9525 61.3278C34.5571 61.5636 34.1061 61.6816 33.6135 61.6816C33.1209 61.6816 32.6699 61.5636 32.2744 61.3278ZM34.4808 60.6895C34.7513 60.5368 34.9664 60.3079 35.126 60.0165C35.2856 59.7251 35.3688 59.3851 35.3688 58.9966C35.3688 58.608 35.2856 58.2681 35.126 57.9767C34.9664 57.6853 34.7513 57.4632 34.4808 57.3106C34.2102 57.158 33.9257 57.0747 33.6135 57.0747C33.3013 57.0747 33.0099 57.151 32.7393 57.3106C32.4687 57.4632 32.2536 57.6922 32.0871 57.9767C31.9275 58.2681 31.8443 58.608 31.8443 58.9966C31.8443 59.3851 31.9275 59.7251 32.0871 60.0165C32.2467 60.3079 32.4687 60.5299 32.7393 60.6895C33.0099 60.8421 33.3013 60.9253 33.6135 60.9253C33.9257 60.9253 34.2171 60.849 34.4808 60.6895Z" fill="#5F6368"/>
<path d="M33.6147 61.7643C33.1013 61.7643 32.6365 61.6394 32.2271 61.3966C31.8178 61.1538 31.4986 60.8138 31.2697 60.3906C31.0407 59.9674 30.9297 59.4956 30.9297 58.9891C30.9297 58.4826 31.0476 58.0108 31.2697 57.5876C31.4917 57.1644 31.8178 56.8314 32.2271 56.5816C32.6365 56.3388 33.1013 56.2139 33.6147 56.2139C34.1281 56.2139 34.593 56.3388 34.9954 56.5816C35.4048 56.8244 35.7239 57.1644 35.9529 57.5876C36.1818 58.0108 36.2928 58.4826 36.2928 58.9891C36.2928 59.4956 36.1749 59.9674 35.9529 60.3906C35.7239 60.8138 35.4048 61.1538 34.9954 61.3966C34.5861 61.6394 34.1212 61.7643 33.6147 61.7643ZM33.6147 56.3873C33.136 56.3873 32.6989 56.5053 32.3173 56.7342C31.9357 56.9632 31.6374 57.2823 31.4223 57.6709C31.2072 58.0663 31.1031 58.5104 31.1031 58.9891C31.1031 59.4678 31.2142 59.9119 31.4223 60.3073C31.6374 60.7028 31.9357 61.015 32.3173 61.244C32.6989 61.4729 33.136 61.5909 33.6147 61.5909C34.0935 61.5909 34.5306 61.4729 34.9121 61.244C35.2937 61.015 35.5921 60.7028 35.8072 60.3073C36.0222 59.9119 36.1263 59.4678 36.1263 58.9891C36.1263 58.5104 36.0153 58.0663 35.8072 57.6709C35.5921 57.2754 35.2937 56.9632 34.9121 56.7342C34.5306 56.5053 34.0935 56.3873 33.6147 56.3873ZM33.6147 61.0011C33.2886 61.0011 32.9834 60.9179 32.6989 60.7583C32.4144 60.5918 32.1855 60.3559 32.019 60.0576C31.8525 59.7523 31.7623 59.3984 31.7623 58.996C31.7623 58.5936 31.8455 58.2328 32.019 57.9345C32.1855 57.6292 32.4214 57.3933 32.6989 57.2338C33.2609 56.9077 33.9686 56.9077 34.5236 57.2338C34.8011 57.3933 35.0301 57.6292 35.2035 57.9345C35.3701 58.2398 35.4603 58.5936 35.4603 58.996C35.4603 59.3984 35.377 59.7592 35.2035 60.0576C35.037 60.3628 34.8081 60.5987 34.5236 60.7583C34.2461 60.9179 33.9339 61.0011 33.6147 61.0011ZM33.6147 57.1505C33.3164 57.1505 33.0389 57.2268 32.7822 57.3725C32.5254 57.5182 32.3173 57.7333 32.1647 58.0108C32.012 58.2884 31.9357 58.6144 31.9357 58.9891C31.9357 59.3638 32.012 59.6898 32.1647 59.9674C32.3173 60.2449 32.5254 60.46 32.7822 60.6057C33.2956 60.8971 33.9269 60.8971 34.4334 60.6057C34.6832 60.46 34.8913 60.2449 35.044 59.9674C35.1966 59.6898 35.2729 59.3638 35.2729 58.9891C35.2729 58.6144 35.1966 58.2884 35.044 58.0108C34.8913 57.7333 34.6832 57.5182 34.4334 57.3725C34.1837 57.2268 33.9061 57.1505 33.6078 57.1505H33.6147Z" fill="#5F6368"/>
<path d="M37.9359 63.4081C37.5474 63.1306 37.2907 62.7976 37.1588 62.409L37.922 62.0829C38.033 62.3743 38.2204 62.6102 38.484 62.7906C38.7477 62.971 39.0529 63.0612 39.4137 63.0612C39.9341 63.0612 40.3434 62.9155 40.6279 62.6241C40.9124 62.3327 41.058 61.9164 41.058 61.3752V60.8133H41.0164C40.8499 61.07 40.621 61.2781 40.3157 61.4446C40.0173 61.6042 39.6704 61.6875 39.2888 61.6875C38.8517 61.6875 38.4563 61.5764 38.0955 61.3475C37.7347 61.1185 37.4502 60.7994 37.2352 60.397C37.0201 59.9876 36.916 59.5228 36.916 59.0024C36.916 58.4821 37.0201 58.0241 37.2352 57.6148C37.4502 57.2055 37.7347 56.8863 38.0955 56.6573C38.4563 56.4284 38.8517 56.3174 39.2888 56.3174C39.6704 56.3174 40.0173 56.4006 40.3157 56.5602C40.614 56.7198 40.8499 56.9349 41.0164 57.1985H41.058V56.477H41.8629V61.3406C41.8629 62.1523 41.6408 62.7767 41.1899 63.2C40.7389 63.6232 40.1492 63.8383 39.4137 63.8383C38.817 63.8383 38.3244 63.6995 37.9429 63.422L37.9359 63.4081ZM40.2394 60.6884C40.4891 60.5357 40.6834 60.3137 40.836 60.0223C40.9817 59.7309 41.058 59.391 41.058 58.9955C41.058 58.6 40.9817 58.2462 40.836 57.9548C40.6903 57.6634 40.4891 57.4483 40.2394 57.2956C39.9896 57.143 39.7121 57.0667 39.4137 57.0667C39.1154 57.0667 38.8309 57.143 38.5812 57.2956C38.3314 57.4483 38.1302 57.6703 37.9775 57.9617C37.8318 58.2531 37.7555 58.5931 37.7555 58.9885C37.7555 59.384 37.8318 59.7309 37.9775 60.0223C38.1232 60.3137 38.3244 60.5357 38.5812 60.6884C38.8379 60.841 39.1084 60.9173 39.4137 60.9173C39.719 60.9173 39.9965 60.841 40.2394 60.6884Z" fill="#5F6368"/>
<path d="M39.4119 63.9073C38.8014 63.9073 38.2879 63.7616 37.8855 63.4772C37.4831 63.1927 37.2125 62.8389 37.0738 62.4295L37.046 62.3532L37.9688 61.9577L38.0035 62.041C38.1076 62.3116 38.2879 62.5405 38.5308 62.707C38.7736 62.8805 39.072 62.9637 39.4119 62.9637C39.9045 62.9637 40.2931 62.825 40.5636 62.5544C40.8342 62.2838 40.973 61.8814 40.973 61.368V61.0141C40.8134 61.2084 40.6053 61.3749 40.3624 61.5067C40.0502 61.6733 39.6894 61.7565 39.294 61.7565C38.843 61.7565 38.4267 61.6386 38.0521 61.4027C37.6774 61.1668 37.3791 60.8338 37.164 60.4175C36.9489 60.0012 36.8379 59.5155 36.8379 58.9813C36.8379 58.4471 36.9489 57.9753 37.164 57.552C37.3791 57.1288 37.6843 56.7958 38.0521 56.5599C38.4267 56.324 38.843 56.2061 39.294 56.2061C39.6894 56.2061 40.0502 56.2893 40.3624 56.4628C40.6053 56.5946 40.8134 56.7611 40.973 56.9623V56.3656H41.9513V61.3125C41.9513 62.1451 41.7154 62.7903 41.2505 63.2343C40.7857 63.6714 40.1682 63.9004 39.4119 63.9004V63.9073ZM37.2681 62.4503C37.3999 62.7903 37.6427 63.0886 37.9896 63.3315C38.3573 63.5951 38.8361 63.7339 39.4119 63.7339C40.1196 63.7339 40.6955 63.5257 41.1256 63.1164C41.5558 62.707 41.7709 62.1034 41.7709 61.3194V56.546H41.1395V57.2676H40.9661L40.9383 57.226C40.7787 56.9762 40.5567 56.768 40.2722 56.6154C39.9878 56.4628 39.6548 56.3795 39.287 56.3795C38.8707 56.3795 38.4822 56.4905 38.1353 56.7056C37.7884 56.9207 37.5109 57.2329 37.3097 57.6284C37.1085 58.0238 37.0044 58.4817 37.0044 58.9743C37.0044 59.467 37.1085 59.9387 37.3097 60.3273C37.5109 60.7227 37.7884 61.028 38.1353 61.25C38.4822 61.4651 38.8638 61.5761 39.287 61.5761C39.6548 61.5761 39.9878 61.4998 40.2722 61.3472C40.5567 61.1945 40.7857 60.9933 40.9383 60.7436L40.9661 60.7019H41.1395V61.3541C41.1395 61.9161 40.9869 62.3601 40.6816 62.6654C40.3763 62.9707 39.9462 63.1303 39.405 63.1303C39.0303 63.1303 38.7042 63.0331 38.4267 62.8389C38.1769 62.6654 37.9896 62.4434 37.8717 62.1728L37.2611 62.4365L37.2681 62.4503ZM39.4119 61.0003C39.0928 61.0003 38.8014 60.917 38.5308 60.7644C38.2671 60.6048 38.0521 60.3689 37.8994 60.0636C37.7468 59.7584 37.6635 59.3976 37.6635 58.9882C37.6635 58.5789 37.7398 58.2181 37.8994 57.9198C38.0521 57.6214 38.2671 57.3855 38.5308 57.219C38.7944 57.0594 39.0928 56.9762 39.4119 56.9762C39.7311 56.9762 40.0225 57.0594 40.2861 57.2121C40.5498 57.3717 40.7579 57.6076 40.9105 57.9059C41.0632 58.2042 41.1464 58.5719 41.1464 58.9813C41.1464 59.3906 41.0701 59.7514 40.9105 60.0498C40.7579 60.3481 40.5428 60.584 40.2861 60.7505C40.0225 60.9101 39.7311 60.9933 39.4119 60.9933V61.0003ZM39.4119 57.1496C39.1275 57.1496 38.8638 57.226 38.621 57.3717C38.3851 57.5174 38.1908 57.7324 38.0521 58.003C37.9133 58.2805 37.837 58.6136 37.837 58.9882C37.837 59.3629 37.9064 59.7028 38.0521 59.9804C38.1908 60.2579 38.3851 60.466 38.621 60.6117C38.8569 60.7574 39.1205 60.8268 39.4119 60.8268C39.7033 60.8268 39.96 60.7505 40.1959 60.6048C40.4318 60.4591 40.6191 60.244 40.7579 59.9734C40.8967 59.6959 40.973 59.3629 40.973 58.9882C40.973 58.6136 40.9036 58.2667 40.7579 57.9891C40.6191 57.7186 40.4249 57.5035 40.1959 57.3647C39.96 57.226 39.6964 57.1496 39.4119 57.1496Z" fill="#5F6368"/>
<path d="M43.1035 54.416H43.95V61.5206H43.1035V54.416Z" fill="#5F6368"/>
<path d="M44.0316 61.6101H43.0117V54.332H44.0316V61.6101ZM43.1852 61.4366H43.8582V54.5055H43.1852V61.4366Z" fill="#5F6368"/>
<path d="M46.1497 61.3349C45.7681 61.1059 45.4698 60.7868 45.2547 60.3774C45.0396 59.9681 44.9355 59.5102 44.9355 59.0037C44.9355 58.4972 45.0396 58.0671 45.2408 57.6508C45.442 57.2414 45.7265 56.9153 46.1011 56.6656C46.4689 56.4227 46.899 56.2979 47.3916 56.2979C47.8842 56.2979 48.3144 56.4089 48.6821 56.6309C49.0429 56.8529 49.3274 57.1582 49.5216 57.5467C49.7159 57.9352 49.813 58.3862 49.813 58.8858C49.813 58.9829 49.8061 59.0731 49.7853 59.1425H45.7889C45.8097 59.5241 45.8999 59.8502 46.0665 60.1138C46.233 60.3774 46.4411 60.5786 46.6978 60.7105C46.9545 60.8423 47.2182 60.9117 47.4957 60.9117C48.1409 60.9117 48.6405 60.6064 48.9943 59.9959L49.709 60.3428C49.4939 60.7521 49.1955 61.0782 48.8209 61.3141C48.4462 61.55 47.9952 61.6679 47.4679 61.6679C46.9823 61.6679 46.5521 61.55 46.1705 61.321L46.1497 61.3349ZM48.9111 58.4556C48.8972 58.2475 48.8347 58.0324 48.7307 57.8173C48.6266 57.6092 48.4601 57.4288 48.2311 57.2831C48.0022 57.1374 47.7177 57.068 47.3708 57.068C46.9753 57.068 46.6354 57.1929 46.3648 57.4496C46.0873 57.7063 45.9069 58.0393 45.8236 58.4556H48.9111Z" fill="#5F6368"/>
<path d="M47.4466 61.7643C46.9471 61.7643 46.4961 61.6464 46.1006 61.4036C45.7052 61.1677 45.3929 60.8277 45.1709 60.4114C44.9489 59.9951 44.8379 59.5164 44.8379 58.996C44.8379 58.4757 44.942 58.0316 45.1501 57.6084C45.3582 57.1852 45.6566 56.8452 46.0382 56.5955C46.4198 56.3387 46.8708 56.2139 47.3772 56.2139C47.8837 56.2139 48.3347 56.3318 48.7093 56.5608C49.084 56.7897 49.3754 57.1089 49.5766 57.5113C49.7778 57.9137 49.8819 58.3785 49.8819 58.892C49.8819 58.996 49.868 59.0932 49.8472 59.1695L49.8264 59.2319H45.8578C45.8855 59.558 45.9757 59.8425 46.1145 60.0714C46.2741 60.3212 46.4683 60.5085 46.7112 60.6334C46.954 60.7583 47.2107 60.8208 47.4674 60.8208C48.0849 60.8208 48.5498 60.5363 48.8897 59.9535L48.9314 59.8841L49.7986 60.3073L49.757 60.3837C49.535 60.8069 49.2228 61.1399 48.8412 61.3897C48.4526 61.6325 47.9878 61.7574 47.4397 61.7574L47.4466 61.7643ZM46.1908 61.2579C46.5585 61.4799 46.9818 61.5909 47.4466 61.5909C47.96 61.5909 48.3971 61.4729 48.751 61.244C49.084 61.0289 49.3615 60.7444 49.5627 60.3837L49.0007 60.1131C48.64 60.7028 48.1196 61.0011 47.4674 61.0011C47.176 61.0011 46.8916 60.9318 46.6279 60.793C46.3573 60.6542 46.1353 60.4461 45.9619 60.1686C45.7884 59.891 45.6913 59.5511 45.6705 59.1556V59.0654H49.6876C49.6945 59.0169 49.7015 58.9544 49.7015 58.892C49.7015 58.4063 49.6044 57.9692 49.417 57.5876C49.2297 57.2129 48.9591 56.9146 48.6122 56.7065C48.2653 56.4914 47.8421 56.3873 47.3703 56.3873C46.8985 56.3873 46.4822 56.5053 46.1284 56.7412C45.7745 56.9771 45.497 57.2962 45.3027 57.6917C45.1085 58.0871 45.0113 58.5312 45.0113 59.003C45.0113 59.4748 45.1154 59.9466 45.3236 60.3351C45.5317 60.7236 45.8231 61.0358 46.1908 61.2579ZM48.9938 58.5381H45.7121L45.7329 58.4341C45.8231 58.0039 46.0104 57.6501 46.3018 57.3795C46.5932 57.1089 46.9471 56.9771 47.3703 56.9771C47.7311 56.9771 48.0363 57.0534 48.2722 57.206C48.5151 57.3587 48.6885 57.5529 48.8065 57.7749C48.9175 57.997 48.9799 58.219 48.9938 58.441V58.5312V58.5381ZM45.9341 58.3647H48.8134C48.7926 58.1982 48.7371 58.0247 48.6538 57.8582C48.5567 57.6639 48.3971 57.4905 48.182 57.3587C47.967 57.2268 47.6964 57.1574 47.3703 57.1574C46.9956 57.1574 46.6765 57.2754 46.4198 57.5182C46.1839 57.7402 46.0174 58.0247 45.9272 58.3716L45.9341 58.3647Z" fill="#5F6368"/>
<path d="M52.8477 54.416H55.2413C55.6368 54.416 56.0045 54.5062 56.3445 54.6866C56.6844 54.867 56.9481 55.1168 57.1562 55.4359C57.3574 55.7551 57.4615 56.1158 57.4615 56.5252C57.4615 56.9345 57.3574 57.2884 57.1562 57.6145C56.955 57.9336 56.6844 58.1834 56.3445 58.3638C56.0045 58.5442 55.6368 58.6344 55.2413 58.6344H53.6802V61.5345H52.8477V54.4299V54.416ZM55.2621 57.8157C55.5258 57.8157 55.7616 57.7532 55.9629 57.6284C56.1641 57.5035 56.3236 57.3439 56.4346 57.1427C56.5457 56.9415 56.6012 56.7333 56.6012 56.5183C56.6012 56.3032 56.5457 56.095 56.4346 55.8938C56.3236 55.6926 56.1641 55.533 55.9629 55.4082C55.7616 55.2833 55.5258 55.2208 55.2621 55.2208H53.6872V57.8226H55.2621V57.8157Z" fill="#5F6368"/>
<path d="M53.7716 61.6101H52.7656V54.332H55.2425C55.6519 54.332 56.0335 54.4222 56.3873 54.6096C56.7342 54.7969 57.0187 55.0605 57.2268 55.3866C57.435 55.7196 57.546 56.1012 57.546 56.5175C57.546 56.9338 57.4419 57.3154 57.2268 57.6484C57.0187 57.9815 56.7342 58.2451 56.3873 58.4255C56.0404 58.6128 55.6588 58.703 55.2425 58.703H53.7716V61.6031V61.6101ZM52.9391 61.4366H53.5982V58.5365H55.2425C55.6241 58.5365 55.978 58.4532 56.304 58.2798C56.6232 58.1063 56.8868 57.8705 57.0811 57.5582C57.2754 57.253 57.3725 56.8991 57.3725 56.5175C57.3725 56.1359 57.2754 55.7821 57.0811 55.4768C56.8868 55.1715 56.6301 54.9287 56.304 54.7553C55.978 54.5818 55.6241 54.4985 55.2425 54.4985H52.9391V61.4297V61.4366ZM55.2633 57.9121H53.5982V55.1368H55.2633C55.5409 55.1368 55.7906 55.2062 56.0057 55.3381C56.2208 55.4699 56.3873 55.6433 56.5053 55.8584C56.6232 56.0665 56.6856 56.2955 56.6856 56.5245C56.6856 56.7534 56.6232 56.9824 56.5053 57.1905C56.3873 57.3987 56.2208 57.5721 56.0057 57.7109C55.7906 57.8427 55.5409 57.9121 55.2633 57.9121ZM53.7716 57.7386H55.2633C55.5131 57.7386 55.7282 57.6831 55.9155 57.5652C56.1028 57.4472 56.2555 57.2946 56.3596 57.1073C56.4636 56.9199 56.5191 56.7257 56.5191 56.5245C56.5191 56.3233 56.4636 56.129 56.3596 55.9417C56.2555 55.7543 56.1028 55.6017 55.9155 55.4838C55.7282 55.3658 55.5062 55.3103 55.2633 55.3103H53.7716V57.7386Z" fill="#5F6368"/>
<path d="M59.1491 61.4647C58.8577 61.319 58.6357 61.1178 58.4761 60.8611C58.3166 60.6043 58.2402 60.3199 58.2402 59.9938C58.2402 59.4596 58.4414 59.0363 58.8438 58.738C59.2463 58.4397 59.7597 58.287 60.3702 58.287C60.6755 58.287 60.96 58.3217 61.2167 58.3842C61.4803 58.4535 61.6815 58.5299 61.8203 58.6131V58.3078C61.8203 57.9332 61.6885 57.6279 61.4248 57.399C61.1612 57.17 60.8281 57.059 60.4257 57.059C60.1413 57.059 59.8776 57.1214 59.6417 57.2394C59.4058 57.3643 59.2185 57.5308 59.0797 57.7528L58.4414 57.2741C58.6426 56.9688 58.9132 56.7329 59.2601 56.5594C59.607 56.386 59.9956 56.3027 60.4188 56.3027C61.1057 56.3027 61.6468 56.4831 62.0423 56.8439C62.4378 57.2047 62.632 57.6973 62.632 58.3148V61.5202H61.8272V60.7986H61.7856C61.6399 61.0414 61.4248 61.2496 61.1334 61.423C60.842 61.5965 60.5159 61.6797 60.1482 61.6797C59.7805 61.6797 59.4475 61.6104 59.1561 61.4647H59.1491ZM61.0155 60.7223C61.2583 60.5766 61.4526 60.3823 61.5983 60.1395C61.744 59.8967 61.8133 59.6261 61.8133 59.3347C61.6538 59.2306 61.4595 59.1404 61.2305 59.078C61.0016 59.0155 60.7518 58.9808 60.4951 58.9808C60.0303 58.9808 59.6834 59.078 59.4475 59.2722C59.2116 59.4665 59.0936 59.7093 59.0936 60.0146C59.0936 60.2921 59.1977 60.5142 59.4128 60.6876C59.6279 60.8611 59.8915 60.9443 60.2176 60.9443C60.502 60.9443 60.7657 60.8749 61.0085 60.7292L61.0155 60.7223Z" fill="#5F6368"/>
<path d="M60.1397 61.7623C59.7581 61.7623 59.4112 61.686 59.1059 61.5333C58.8006 61.3807 58.5647 61.1725 58.3982 60.902C58.2317 60.6383 58.1484 60.3261 58.1484 59.9861C58.1484 59.4241 58.3635 58.9801 58.7867 58.661C59.203 58.3487 59.7373 58.1961 60.3686 58.1961C60.6808 58.1961 60.9722 58.2308 61.2359 58.3002C61.4371 58.3487 61.5967 58.4042 61.7285 58.4667V58.3071C61.7285 57.9533 61.6105 57.6757 61.3608 57.4676C61.111 57.2525 60.7988 57.1485 60.4172 57.1485C60.1466 57.1485 59.8968 57.204 59.6748 57.3219C59.4528 57.4329 59.2724 57.5994 59.1406 57.8006L59.092 57.877L58.3149 57.2941L58.3566 57.2248C58.5647 56.9056 58.8492 56.6558 59.21 56.4824C59.5707 56.3089 59.9662 56.2188 60.4033 56.2188C61.111 56.2188 61.673 56.4061 62.0823 56.7807C62.4917 57.1554 62.6998 57.6757 62.6998 58.314V61.6027H61.7216V61.013C61.5759 61.1934 61.3885 61.3599 61.1596 61.4917C60.8543 61.6721 60.5074 61.7623 60.1327 61.7623H60.1397ZM60.3686 58.3696C59.7719 58.3696 59.2793 58.5153 58.8908 58.8067C58.5092 59.0911 58.3219 59.4796 58.3219 59.9931C58.3219 60.2983 58.3982 60.5759 58.5439 60.8118C58.6965 61.0546 58.9116 61.2419 59.1822 61.3807C59.4597 61.5194 59.7789 61.5888 60.1327 61.5888C60.4866 61.5888 60.7918 61.5056 61.0694 61.346C61.3469 61.1795 61.555 60.9852 61.6938 60.7493L61.7216 60.7077H61.895V61.4292H62.5264V58.314C62.5264 57.7243 62.339 57.2456 61.9644 56.9056C61.5897 56.5587 61.0624 56.3853 60.4033 56.3853C59.994 56.3853 59.6193 56.4685 59.2863 56.635C58.981 56.7877 58.7312 56.9958 58.5508 57.2525L59.0435 57.6272C59.1822 57.4329 59.3695 57.2803 59.5916 57.1623C59.8413 57.0374 60.1189 56.9681 60.4172 56.9681C60.8404 56.9681 61.1943 57.0929 61.4787 57.3288C61.7632 57.5717 61.9089 57.9047 61.9089 58.3002V58.765L61.7771 58.6818C61.6452 58.5985 61.451 58.5291 61.2012 58.4667C60.9445 58.4042 60.667 58.3696 60.3756 58.3696H60.3686ZM60.2229 61.0199C59.883 61.0199 59.5916 60.9297 59.3626 60.7424C59.1336 60.555 59.0157 60.3053 59.0157 60C59.0157 59.667 59.1475 59.3964 59.3973 59.1882C59.6471 58.987 60.0148 58.883 60.5004 58.883C60.7641 58.883 61.0208 58.9177 61.2567 58.987C61.4995 59.0564 61.7007 59.1466 61.8672 59.2576L61.9089 59.2854V59.3339C61.9089 59.6392 61.8326 59.9237 61.6799 60.1804C61.5273 60.4371 61.3191 60.6452 61.0624 60.7979C60.8057 60.9505 60.5213 61.0268 60.2229 61.0268V61.0199ZM60.5004 59.0564C60.0564 59.0564 59.7234 59.1466 59.5083 59.327C59.2932 59.5005 59.1891 59.7225 59.1891 60.0069C59.1891 60.2567 59.2793 60.4579 59.4736 60.6175C59.6679 60.7771 59.9176 60.8534 60.2229 60.8534C60.4935 60.8534 60.7433 60.784 60.9722 60.6452C61.2012 60.5065 61.3885 60.3192 61.5273 60.0902C61.6591 59.8751 61.7285 59.6323 61.7354 59.3756C61.5897 59.2854 61.4163 59.2091 61.2151 59.1536C60.993 59.0911 60.7502 59.0564 60.5074 59.0564H60.5004Z" fill="#5F6368"/>
<path d="M63.6573 56.5407H64.4621V57.3455H64.5038C64.6217 57.0472 64.8229 56.8182 65.1074 56.6517C65.3918 56.4852 65.7041 56.402 66.0371 56.402C66.1828 56.402 66.3077 56.4089 66.4048 56.4297V57.29C66.2938 57.2623 66.1412 57.2484 65.9469 57.2484C65.5167 57.2484 65.1698 57.3941 64.8992 57.6716C64.6287 57.9561 64.4968 58.3238 64.4968 58.7817V61.5916H63.6504V56.5338L63.6573 56.5407ZM68.7915 61.5778C68.6181 61.5084 68.4724 61.4182 68.3475 61.3072C68.2156 61.1823 68.1185 61.0297 68.0491 60.8631C67.9798 60.6966 67.952 60.4885 67.952 60.2457V57.2276H67.0709V56.4644H67.952V55.0352H68.7915V56.4644H70.0196V57.2276H68.7915V60.0445C68.7915 60.3289 68.847 60.5371 68.9511 60.6758C69.076 60.8215 69.2564 60.8978 69.4992 60.8978C69.6935 60.8978 69.8738 60.8423 70.0542 60.7313V61.557C69.9571 61.6055 69.853 61.6333 69.749 61.6541C69.6449 61.6749 69.5131 61.6818 69.3604 61.6818C69.1523 61.6818 68.965 61.6471 68.7915 61.5778Z" fill="#5F6368"/>
<path d="M69.3617 61.7644C69.1466 61.7644 68.9454 61.7297 68.758 61.6603C68.5707 61.5909 68.4111 61.4938 68.2863 61.3689C68.1475 61.2301 68.0365 61.0706 67.9671 60.8971C67.8977 60.7237 67.863 60.5016 67.863 60.2519V57.3171H66.9819V56.3804H67.863V54.9512H68.876V56.3804H70.104V57.3171H68.876V60.0507C68.876 60.3143 68.9246 60.5086 69.0148 60.6265C69.1258 60.7514 69.2784 60.8138 69.4935 60.8138C69.6669 60.8138 69.8404 60.7583 70 60.6612L70.1318 60.578V61.6117L70.0832 61.6325C69.9722 61.6811 69.8681 61.7158 69.7571 61.7366C69.6531 61.7574 69.5143 61.7644 69.3478 61.7644H69.3617ZM67.1553 57.1367H68.0365V60.2449C68.0365 60.4739 68.0642 60.6751 68.1267 60.8277C68.1891 60.9804 68.2793 61.1261 68.4042 61.244C68.5152 61.3481 68.654 61.4383 68.8135 61.5007C68.9801 61.5632 69.1605 61.5979 69.3547 61.5979C69.5074 61.5979 69.6322 61.5909 69.7294 61.5701C69.8057 61.5562 69.882 61.5354 69.9653 61.5007V60.8832C69.8126 60.9526 69.6531 60.9942 69.4935 60.9942C69.2298 60.9942 69.0217 60.911 68.8829 60.7375C68.765 60.5849 68.7025 60.3629 68.7025 60.0507V57.1436H69.9306V56.5539H68.7025V55.1246H68.0365V56.5539H67.1553V57.1436V57.1367ZM64.5883 61.688H63.5684V56.4567H64.5466V57.0673C64.6715 56.8661 64.845 56.7065 65.06 56.5816C65.3584 56.4082 65.6845 56.318 66.0383 56.318C66.184 56.318 66.3158 56.3319 66.4199 56.3457L66.4893 56.3596V57.4003L66.3852 57.3726C66.2811 57.3448 66.1354 57.3379 65.9481 57.3379C65.5388 57.3379 65.2196 57.4697 64.9629 57.7403C64.7131 58.0039 64.5883 58.3578 64.5883 58.7949V61.688ZM63.7418 61.5146H64.4148V58.7949C64.4148 58.3161 64.5605 57.9276 64.838 57.6223C65.1225 57.324 65.4971 57.1714 65.9481 57.1714C66.0938 57.1714 66.2187 57.1783 66.3158 57.1922V56.5053C66.2326 56.4914 66.1424 56.4914 66.0383 56.4914C65.7192 56.4914 65.4208 56.5747 65.1502 56.7273C64.8797 56.8869 64.6923 57.095 64.5813 57.3795L64.5605 57.435H64.3732V56.6302H63.7418V61.5146Z" fill="#5F6368"/>
<path d="M70.9855 56.4623H71.7903V57.2047H71.8319C71.9707 56.9549 72.1927 56.7398 72.498 56.5664C72.8032 56.3929 73.1293 56.3027 73.4693 56.3027C74.0798 56.3027 74.5447 56.4762 74.8638 56.83C75.183 57.1839 75.3426 57.6626 75.3426 58.2732V61.5202H74.4961V58.405C74.4961 57.9332 74.3851 57.5932 74.1562 57.3851C73.9341 57.1769 73.6219 57.0659 73.2334 57.0659C72.9628 57.0659 72.72 57.1422 72.5049 57.2949C72.2898 57.4475 72.1233 57.6487 72.0054 57.8985C71.8874 58.1483 71.825 58.405 71.825 58.6756V61.5202H70.9785V56.4623H70.9855Z" fill="#5F6368"/>
<path d="M75.434 61.6105H74.4141V58.4051C74.4141 57.9611 74.31 57.6419 74.1019 57.4477C73.8937 57.2534 73.6023 57.1563 73.2416 57.1563C72.9918 57.1563 72.7628 57.2256 72.5616 57.3713C72.3604 57.517 72.2008 57.7044 72.0898 57.9403C71.9788 58.1762 71.9164 58.4259 71.9164 58.6826V61.6175H70.8965V56.3861H71.8748V56.9898C72.0205 56.8024 72.2078 56.6428 72.4506 56.5041C72.7698 56.3237 73.1097 56.2266 73.4636 56.2266C74.0949 56.2266 74.5875 56.4139 74.9206 56.7886C75.2536 57.1563 75.4271 57.6627 75.4271 58.2941V61.6244L75.434 61.6105ZM74.5875 61.4371H75.2605V58.2802C75.2605 57.6974 75.1079 57.2326 74.8026 56.8926C74.5043 56.5596 74.0533 56.3931 73.4705 56.3931C73.1444 56.3931 72.8322 56.4763 72.5408 56.6428C72.2494 56.8094 72.0413 57.0106 71.9094 57.2534L71.8817 57.295H71.7013V56.5527H71.0699V61.4371H71.7429V58.6757C71.7429 58.3912 71.8054 58.1207 71.9303 57.857C72.0551 57.6003 72.2286 57.3852 72.4576 57.2256C72.6865 57.0661 72.9502 56.9828 73.2346 56.9828C73.644 56.9828 73.977 57.1008 74.2198 57.3228C74.4627 57.5517 74.5875 57.9125 74.5875 58.4051V61.4371Z" fill="#5F6368"/>
<path d="M77.5071 61.3349C77.1255 61.1059 76.8272 60.7868 76.6121 60.3774C76.397 59.9681 76.293 59.5102 76.293 59.0037C76.293 58.4972 76.397 58.0671 76.5982 57.6508C76.7994 57.2414 77.0839 56.9153 77.4586 56.6656C77.8332 56.4158 78.2564 56.2979 78.749 56.2979C79.2416 56.2979 79.6718 56.4089 80.0395 56.6309C80.4072 56.8529 80.6848 57.1582 80.879 57.5467C81.0733 57.9352 81.1704 58.3862 81.1704 58.8858C81.1704 58.9829 81.1635 59.0731 81.1427 59.1425H77.1463C77.1672 59.5241 77.2574 59.8502 77.4239 60.1138C77.5904 60.3774 77.7985 60.5786 78.0552 60.7105C78.3119 60.8423 78.5756 60.9117 78.8531 60.9117C79.4984 60.9117 79.9979 60.6064 80.3517 59.9959L81.0664 60.3428C80.8443 60.7521 80.5529 61.0782 80.1783 61.3141C79.8036 61.55 79.3527 61.6679 78.8254 61.6679C78.3397 61.6679 77.9095 61.55 77.5279 61.321L77.5071 61.3349ZM80.2685 58.4556C80.2546 58.2475 80.1922 58.0324 80.0881 57.8173C79.984 57.6092 79.8175 57.4288 79.5886 57.2831C79.3596 57.1374 79.0751 57.068 78.7282 57.068C78.3328 57.068 77.9928 57.1929 77.7222 57.4496C77.4447 57.7063 77.2643 58.0393 77.181 58.4556H80.2685Z" fill="#5F6368"/>
<path d="M78.806 61.7643C78.3134 61.7643 77.8555 61.6464 77.46 61.4036C77.0645 61.1677 76.7523 60.8277 76.5303 60.4114C76.3083 59.9951 76.1973 59.5164 76.1973 58.996C76.1973 58.4757 76.3013 58.0316 76.5095 57.6084C76.7176 57.1852 77.016 56.8452 77.3976 56.5955C77.7791 56.3387 78.2301 56.2139 78.7366 56.2139C79.2431 56.2139 79.6941 56.3318 80.0687 56.5608C80.4434 56.7897 80.7348 57.1089 80.936 57.5113C81.1372 57.9137 81.2412 58.3785 81.2412 58.892C81.2412 58.996 81.2274 59.0932 81.2066 59.1695L81.1857 59.2319H77.2172C77.2449 59.558 77.3351 59.8425 77.4739 60.0714C77.6265 60.3212 77.8277 60.5085 78.0705 60.6334C78.3134 60.7583 78.5631 60.8208 78.8268 60.8208C79.4443 60.8208 79.9161 60.5363 80.2491 59.9535L80.2907 59.8841L81.158 60.3073L81.1164 60.3837C80.8943 60.8069 80.5821 61.1399 80.2005 61.3897C79.812 61.6325 79.3402 61.7574 78.799 61.7574L78.806 61.7643ZM77.5502 61.2579C77.9179 61.4799 78.3411 61.5909 78.806 61.5909C79.3194 61.5909 79.7565 61.4729 80.1103 61.244C80.4434 61.0289 80.7209 60.7444 80.9221 60.3837L80.3601 60.1131C79.9993 60.7028 79.479 61.0011 78.8268 61.0011C78.5354 61.0011 78.2509 60.9318 77.9873 60.793C77.7167 60.6542 77.4947 60.4461 77.3212 60.1686C77.1478 59.891 77.0506 59.5511 77.0298 59.1556V59.0654H81.047C81.0539 59.0169 81.0609 58.9544 81.0609 58.892C81.0609 58.4063 80.9637 57.9692 80.7764 57.5876C80.5891 57.2129 80.3185 56.9216 79.9716 56.7065C79.6247 56.4914 79.2015 56.3873 78.7297 56.3873C78.2579 56.3873 77.8416 56.5053 77.4877 56.7412C77.1339 56.9771 76.8494 57.2962 76.6621 57.6917C76.4678 58.0871 76.3707 58.5312 76.3707 59.003C76.3707 59.4748 76.4748 59.9466 76.6829 60.3351C76.8911 60.7236 77.1825 61.0358 77.5502 61.2579ZM80.3532 58.5381H77.0715L77.0923 58.4341C77.1825 58.0039 77.3698 57.6501 77.6612 57.3795C77.9526 57.1089 78.3064 56.9771 78.7297 56.9771C79.0904 56.9771 79.3957 57.0534 79.6316 57.206C79.8744 57.3587 80.0479 57.5529 80.1658 57.7749C80.2769 57.997 80.3393 58.219 80.3532 58.441V58.5312V58.5381ZM77.2865 58.3647H80.1658C80.145 58.1982 80.0895 58.0247 80.0063 57.8582C79.9091 57.6639 79.7496 57.4905 79.5345 57.3587C79.3194 57.2199 79.0488 57.1574 78.7227 57.1574C78.3481 57.1574 78.0289 57.2754 77.7722 57.5182C77.5363 57.7402 77.3698 58.0247 77.2796 58.3716L77.2865 58.3647Z" fill="#5F6368"/>
<path d="M82.125 56.4623H82.9298V57.2741H82.9714C83.0686 56.9965 83.2628 56.7676 83.5473 56.5803C83.8318 56.3929 84.1301 56.3027 84.4423 56.3027C84.6713 56.3027 84.8725 56.3374 85.039 56.4137V57.3157C84.8239 57.2116 84.588 57.1561 84.3244 57.1561C84.0815 57.1561 83.8526 57.2255 83.6514 57.3643C83.4432 57.503 83.2837 57.6904 83.1588 57.9262C83.0339 58.1621 82.9784 58.4119 82.9784 58.6894V61.5202H82.1319V56.4623H82.125Z" fill="#5F6368"/>
<path d="M83.0531 61.6105H82.0332V56.3792H83.0115V56.9898C83.1294 56.8094 83.289 56.6498 83.4902 56.518C83.7885 56.3237 84.1077 56.2266 84.4338 56.2266C84.6766 56.2266 84.8848 56.2682 85.0651 56.3445L85.1206 56.3653V57.4685L84.9958 57.406C84.7946 57.3089 84.5656 57.2534 84.3228 57.2534C84.0938 57.2534 83.8857 57.3158 83.6983 57.4477C83.5041 57.5795 83.3514 57.7599 83.2335 57.975C83.1155 58.197 83.06 58.4398 83.06 58.6965V61.6175L83.0531 61.6105ZM82.2067 61.4371H82.8797V58.6896C82.8797 58.4051 82.9421 58.1345 83.0739 57.8917C83.1988 57.6419 83.3792 57.4477 83.5943 57.295C83.8163 57.1493 84.0591 57.073 84.3158 57.073C84.5448 57.073 84.7529 57.1077 84.9472 57.184V56.4694C84.8015 56.4139 84.635 56.3861 84.4407 56.3861C84.1493 56.3861 83.8649 56.4763 83.5943 56.6498C83.3306 56.8232 83.1433 57.0453 83.0531 57.302L83.0323 57.3575H82.845V56.5457H82.2136V61.4301L82.2067 61.4371Z" fill="#5F6368"/>
<path d="M25.5859 82.5498H27.5633C27.8963 82.5498 28.2085 82.6261 28.493 82.7718C28.7775 82.9175 29.0064 83.1257 29.1729 83.3963C29.3394 83.6599 29.4227 83.9652 29.4227 84.2982C29.4227 84.6312 29.3394 84.9365 29.1729 85.2002C29.0064 85.4638 28.7775 85.6719 28.493 85.8246C28.2085 85.9703 27.8963 86.0466 27.5633 86.0466H26.4809V88.2668H25.5859V82.5567V82.5498ZM27.5841 85.2002C27.7784 85.2002 27.9518 85.1585 28.0975 85.0683C28.2432 84.9781 28.3473 84.8671 28.4236 84.7284C28.4999 84.5896 28.5346 84.4439 28.5346 84.2982C28.5346 84.1525 28.4999 84.0068 28.4236 83.868C28.3473 83.7293 28.2432 83.6183 28.0975 83.535C27.9518 83.4518 27.7853 83.4101 27.5841 83.4101H26.4809V85.2071H27.5841V85.2002Z" fill="white"/>
<path d="M30.1719 82.5498H32.1839C32.5239 82.5498 32.8361 82.6261 33.1206 82.7718C33.405 82.9175 33.627 83.1257 33.7866 83.3963C33.9462 83.6599 34.0294 83.9652 34.0294 84.2982C34.0294 84.6798 33.9046 85.0198 33.6617 85.3181C33.412 85.6164 33.1067 85.8176 32.732 85.9148V85.9564L34.2862 88.2113V88.2598H33.2454L31.7399 86.0258H31.0669V88.2598H30.1719V82.5498ZM32.1562 85.2002C32.4198 85.2002 32.6488 85.1169 32.8361 84.9434C33.0234 84.77 33.1136 84.5549 33.1136 84.2913C33.1136 84.1456 33.0789 83.9999 33.0026 83.8611C32.9263 83.7223 32.8222 83.6113 32.6835 83.5211C32.5447 83.4309 32.3782 83.3893 32.1909 83.3893H31.0669V85.2002H32.1631H32.1562Z" fill="white"/>
<path d="M34.8984 82.5498H38.3675V83.4032H35.7935V84.9851H38.1177V85.8315H35.7935V87.4134H38.3675V88.2668H34.8984V82.5567V82.5498Z" fill="white"/>
<path d="M39.3164 82.5498H40.5306L42.1749 86.8861H42.2235L43.8678 82.5498H45.082V88.2598H44.1939V85.0614L44.2424 84.0346H44.1939L42.5565 88.2598H41.8419L40.2045 84.0346H40.1559L40.2045 85.0614V88.2598H39.3164V82.5498Z" fill="white"/>
<path d="M46.2266 82.5498H47.1216V88.2598H46.2266V82.5498Z" fill="white"/>
<path d="M48.2578 82.5498H51.7269V83.4032H49.1528V84.9851H51.4771V85.8315H49.1528V87.4134H51.7269V88.2668H48.2578V82.5567V82.5498Z" fill="white"/>
<path d="M52.6777 82.5498H54.6898C55.0297 82.5498 55.342 82.6261 55.6264 82.7718C55.9109 82.9175 56.1329 83.1257 56.2925 83.3963C56.4521 83.6599 56.5353 83.9652 56.5353 84.2982C56.5353 84.6798 56.4104 85.0198 56.1676 85.3181C55.9178 85.6164 55.6125 85.8176 55.2379 85.9148V85.9564L56.792 88.2113V88.2598H55.7513L54.2457 86.0258H53.5727V88.2598H52.6777V82.5498ZM54.662 85.2002C54.9257 85.2002 55.1546 85.1169 55.342 84.9434C55.5293 84.77 55.6195 84.5549 55.6195 84.2913C55.6195 84.1456 55.5848 83.9999 55.5085 83.8611C55.4322 83.7223 55.3281 83.6113 55.1893 83.5211C55.0506 83.4309 54.884 83.3893 54.6967 83.3893H53.5727V85.2002H54.669H54.662Z" fill="white"/>
<path d="M58.8381 87.4274C59.0115 87.2539 59.3446 86.9209 59.8441 86.4214C60.3437 85.9218 60.6767 85.5749 60.8432 85.3945C61.0652 85.1586 61.2179 84.9644 61.3011 84.8117C61.3844 84.6591 61.426 84.4856 61.426 84.2775C61.426 84.0694 61.3427 83.889 61.1832 83.7363C61.0236 83.5837 60.8085 83.5074 60.5379 83.5074C60.2882 83.5074 60.087 83.5837 59.9274 83.7294C59.7678 83.8751 59.6707 84.0416 59.6221 84.2359L58.8242 83.9098C58.8797 83.7155 58.9769 83.5282 59.1226 83.3409C59.2683 83.1535 59.4625 83.0009 59.7123 82.8691C59.9551 82.7442 60.2396 82.6748 60.5587 82.6748C60.9056 82.6748 61.2109 82.7442 61.4815 82.8829C61.7521 83.0217 61.9602 83.216 62.1059 83.4588C62.2516 83.7016 62.328 83.9653 62.328 84.2636C62.328 84.5758 62.2447 84.8811 62.0851 85.1725C61.9255 85.4639 61.7174 85.7345 61.4676 85.9843C61.3636 86.0883 61.093 86.352 60.6628 86.7821L60.0106 87.4343L60.0245 87.469H62.4043V88.2669H58.852V87.4343L58.8381 87.4274Z" fill="white"/>
<path d="M64.085 88.0102C63.745 87.7604 63.4814 87.4135 63.301 86.9834C63.1206 86.5532 63.0234 86.0675 63.0234 85.5333C63.0234 84.9991 63.1136 84.5134 63.301 84.0763C63.4814 83.6461 63.745 83.2992 64.085 83.0495C64.4249 82.7997 64.8204 82.6748 65.2644 82.6748C65.7085 82.6748 66.1039 82.7997 66.4439 83.0495C66.7839 83.2992 67.0406 83.6392 67.2279 84.0763C67.4083 84.5065 67.5054 84.9991 67.5054 85.5333C67.5054 86.0675 67.4152 86.5463 67.2279 86.9834C67.0406 87.4205 66.7839 87.7604 66.4439 88.0102C66.1039 88.26 65.7154 88.3918 65.2714 88.3918C64.8273 88.3918 64.4319 88.2669 64.0919 88.0102H64.085ZM65.9791 87.2886C66.1803 87.1082 66.3398 86.8654 66.4509 86.5601C66.5619 86.2549 66.6174 85.908 66.6174 85.5264C66.6174 85.1448 66.5619 84.7979 66.4509 84.4856C66.3398 84.1804 66.1872 83.9375 65.9791 83.7571C65.7709 83.5837 65.535 83.4935 65.2644 83.4935C64.9939 83.4935 64.751 83.5837 64.5429 83.7571C64.3347 83.9306 64.1821 84.1734 64.078 84.4856C63.974 84.7979 63.9115 85.1378 63.9115 85.5264C63.9115 85.9149 63.967 86.2549 64.078 86.5601C64.189 86.8654 64.3417 87.1082 64.5429 87.2886C64.7441 87.469 64.9869 87.5592 65.2644 87.5592C65.542 87.5592 65.7709 87.469 65.9791 87.2886Z" fill="white"/>
<path d="M68.0529 87.4274C68.2264 87.2539 68.5594 86.9209 69.059 86.4214C69.5585 85.9218 69.8915 85.5749 70.058 85.3945C70.2801 85.1586 70.4327 84.9644 70.516 84.8117C70.5992 84.6591 70.6408 84.4856 70.6408 84.2775C70.6408 84.0694 70.5576 83.889 70.398 83.7363C70.2384 83.5837 70.0233 83.5074 69.7528 83.5074C69.503 83.5074 69.3018 83.5837 69.1422 83.7294C68.9826 83.8751 68.8855 84.0416 68.8369 84.2359L68.0391 83.9098C68.0946 83.7155 68.1917 83.5282 68.3374 83.3409C68.4831 83.1535 68.6774 83.0009 68.9271 82.8691C69.17 82.7442 69.4544 82.6748 69.7736 82.6748C70.1205 82.6748 70.4258 82.7442 70.6963 82.8829C70.9669 83.0217 71.1751 83.216 71.3208 83.4588C71.4665 83.7016 71.5428 83.9653 71.5428 84.2636C71.5428 84.5758 71.4595 84.8811 71.3 85.1725C71.1404 85.4639 70.9322 85.7345 70.6825 85.9843C70.5784 86.0883 70.3078 86.352 69.8777 86.7821L69.2255 87.4343L69.2393 87.469H71.6191V88.2669H68.0668V87.4343L68.0529 87.4274Z" fill="white"/>
<path d="M72.2248 87.4274C72.3983 87.2539 72.7313 86.9209 73.2308 86.4214C73.7304 85.9218 74.0634 85.5749 74.2299 85.3945C74.4519 85.1586 74.6046 84.9644 74.6878 84.8117C74.7711 84.6591 74.8127 84.4856 74.8127 84.2775C74.8127 84.0694 74.7295 83.889 74.5699 83.7363C74.4103 83.5837 74.1952 83.5074 73.9246 83.5074C73.6749 83.5074 73.4737 83.5837 73.3141 83.7294C73.1545 83.8751 73.0574 84.0416 73.0088 84.2359L72.2109 83.9098C72.2664 83.7155 72.3636 83.5282 72.5093 83.3409C72.655 83.1535 72.8492 83.0009 73.099 82.8691C73.3418 82.7442 73.6263 82.6748 73.9455 82.6748C74.2924 82.6748 74.5976 82.7442 74.8682 82.8829C75.1388 83.0217 75.347 83.216 75.4927 83.4588C75.6384 83.7016 75.7147 83.9653 75.7147 84.2636C75.7147 84.5758 75.6314 84.8811 75.4718 85.1725C75.3123 85.4639 75.1041 85.7345 74.8544 85.9843C74.7503 86.0883 74.4797 86.352 74.0495 86.7821L73.3973 87.4343L73.4112 87.469H75.791V88.2669H72.2387V87.4343L72.2248 87.4274Z" fill="white"/>
</svg>
