<svg width="52" height="55" viewBox="0 0 52 55" fill="none" xmlns="http://www.w3.org/2000/svg">
<path fill-rule="evenodd" clip-rule="evenodd" d="M40.2188 0.365234C39.9556 0.628418 39.8535 0.826504 39.8535 1.07422C39.8535 1.32193 39.9556 1.52002 40.2188 1.7832L40.584 2.14844H42.7696H44.9552L39.6402 7.46432L34.3251 12.7803L32.1688 10.6333C30.0156 8.48944 30.0117 8.48633 29.5363 8.48633H29.0601L19.1613 18.396C12.2939 25.2708 5.72451 31.9133 5.69604 32.0996C5.58272 32.8433 6.01573 33.3887 6.71978 33.3887H7.1602L20.112 20.4392L29.5383 11.0151L31.6612 13.1266C33.7834 15.2375 34.0871 15.462 34.609 15.3063C34.7461 15.2654 37.4567 12.6393 40.6323 9.47031L46.4062 3.70874L46.4123 5.47991C46.4194 7.54789 46.5055 7.91194 47.0572 8.20757C47.5129 8.45174 47.9131 8.38578 48.2954 8.00347L48.5547 7.74415V4.24102C48.5547 2.0437 48.5134 0.660752 48.444 0.531201C48.1759 0.0301856 47.9317 0 44.145 0H40.584L40.2188 0.365234ZM39.3164 16.0143C38.6675 16.3077 38.1618 16.8063 37.8541 17.4561L37.5998 17.9932L37.5987 35.4224L37.5977 52.8516H34.5898H31.582L31.5814 43.3179C31.5811 37.1533 31.542 33.6444 31.471 33.3887C31.2857 32.7213 30.7159 32.0103 30.0752 31.6469L29.4873 31.3135H26.0498C22.728 31.3135 22.5977 31.3213 22.1769 31.5466C21.588 31.8618 21.0747 32.3955 20.7995 32.9785C20.5728 33.4587 20.5711 33.527 20.5416 43.1567L20.5121 52.8516H17.5673H14.6226L14.5891 47.7222C14.5559 42.632 14.5537 42.5887 14.3087 42.0557C13.9697 41.3184 13.3875 40.7535 12.703 40.4974C12.1799 40.3017 11.8643 40.2832 9.03858 40.2832C5.6303 40.2832 5.32716 40.3278 4.58616 40.9387C4.36788 41.1186 4.05636 41.4919 3.89394 41.7682L3.59863 42.2705L3.56791 47.561L3.53719 52.8516H2.19302C0.424746 52.8516 0 53.0596 0 53.9258C0 54.3752 0.156514 54.6421 0.534961 54.8378C0.812217 54.9811 3.77642 55 25.9961 55C48.2158 55 51.18 54.9811 51.4572 54.8378C51.8357 54.6421 51.9922 54.3752 51.9922 53.9258C51.9922 53.0667 51.563 52.8516 49.8491 52.8516H48.5547L48.5536 35.4224L48.5525 17.9932L48.3005 17.4561C47.9812 16.7756 47.5701 16.3645 46.8896 16.0452C46.3626 15.7979 46.291 15.7932 43.0762 15.7945C40.0128 15.7956 39.7683 15.8099 39.3164 16.0143ZM46.2098 18.1172C46.3985 18.288 46.4062 18.9708 46.4062 35.5733V52.8516H43.0762H39.7461V35.592C39.7461 19.6825 39.76 18.3169 39.9239 18.1359C40.0879 17.9546 40.3304 17.9395 43.0575 17.9395C45.6572 17.9395 46.037 17.9608 46.2098 18.1172ZM29.185 33.6417L29.4336 33.8754V43.3634V52.8516H26.0498H22.666V43.3936V33.9355L22.9297 33.6719L23.1933 33.4082H26.0648C28.8652 33.4082 28.9425 33.414 29.185 33.6417ZM12.1147 42.5989L12.3535 42.766V47.8089V52.8516H9.02344H5.69336V47.8564C5.69336 43.0045 5.69948 42.8552 5.9082 42.6465C6.1123 42.4424 6.26624 42.4316 8.99948 42.4316C11.4291 42.4316 11.9131 42.4576 12.1147 42.5989Z" fill="#00C0E7"/>
</svg>
