<svg width="47" height="53" viewBox="0 0 47 53" fill="none" xmlns="http://www.w3.org/2000/svg">
<path d="M18.789 2.77507C21.1946 -0.262464 25.8023 -0.268138 28.2144 2.76454L45.0039 23.8726C47.5286 27.0454 45.294 31.7334 41.2404 31.7731L36.6788 31.8185L36.6748 47.152C36.6746 47.9423 36.5187 48.7248 36.216 49.4549C35.9133 50.1849 35.4697 50.8481 34.9106 51.4067C34.3514 51.9652 33.6877 52.4081 32.9573 52.71C32.227 53.0119 31.4443 53.167 30.654 53.1663L16.3276 53.1533C14.7334 53.1515 13.2052 52.5169 12.0786 51.3891C10.9519 50.2613 10.3191 48.7324 10.3189 47.1382L10.3173 31.8217L5.86186 31.8193C1.79047 31.8168 -0.480591 27.1183 2.04489 23.9268L18.789 2.77507ZM25.9717 4.54704C25.6762 4.17554 25.3006 3.8756 24.873 3.66962C24.4453 3.46363 23.9766 3.35693 23.502 3.35748C23.0273 3.35802 22.5589 3.4658 22.1317 3.67277C21.7045 3.87973 21.3296 4.18054 21.035 4.55271L4.29083 25.7045C3.25131 27.0195 4.1855 28.9535 5.86267 28.9551L11.7506 28.9575C11.9387 28.9575 12.125 28.9945 12.2988 29.0665C12.4726 29.1385 12.6305 29.244 12.7636 29.377C12.8966 29.5101 13.0021 29.668 13.0741 29.8418C13.1461 30.0156 13.1831 30.2019 13.1831 30.39L13.1823 47.1382C13.1825 47.9733 13.5142 48.7742 14.1046 49.3649C14.695 49.9556 15.4957 50.2877 16.3308 50.2884L30.6572 50.3013C31.0712 50.3016 31.4811 50.2204 31.8636 50.0622C32.2461 49.9041 32.5937 49.6721 32.8866 49.3796C33.1794 49.087 33.4117 48.7397 33.5703 48.3573C33.7288 47.9749 33.8105 47.5651 33.8106 47.1512L33.8147 30.3997C33.8146 30.0223 33.9635 29.6601 34.229 29.3919C34.4945 29.1237 34.8552 28.9711 35.2326 28.9673L41.212 28.9089C42.8811 28.8927 43.8007 26.962 42.762 25.6559L25.9717 4.54704Z" fill="#00E3CF"/>
</svg>
