<svg width="544" height="419" viewBox="0 0 544 419" fill="none" xmlns="http://www.w3.org/2000/svg">
<path d="M768.305 418.789H656.862C644.346 418.774 632.109 414.96 621.663 407.817C611.216 400.675 603.018 390.518 598.081 378.6L518.662 186.874L595.519 1.19434L768.305 418.789Z" fill="#F7FAFD"/>
<path d="M345.096 235.026L269.093 418.788L211.521 282.368L288.307 100.449L345.096 235.026Z" fill="#F7FAFD"/>
<path d="M288.306 100.449L211.52 282.368L139.787 112.764C150.544 104.878 163.401 100.651 176.579 100.67L288.306 100.449Z" fill="#F7FAFD"/>
<path d="M211.519 282.368L170.671 379.042C165.68 390.854 157.476 400.903 147.062 407.962C136.648 415.02 124.476 418.783 112.032 418.789H0.304688L117.938 140.196C122.615 129.064 130.178 119.492 139.786 112.543L211.519 282.368Z" fill="#F7FAFD"/>
<path d="M417.538 406.548C406.703 414.514 393.746 418.792 380.461 418.789H269.09L345.093 235.026L417.538 406.548Z" fill="#F7FAFD"/>
<path d="M595.519 0.972656L518.662 186.652L447 13.2874C457.826 5.29512 470.784 0.991305 484.076 0.972656H595.519Z" fill="#F7FAFD"/>
<path d="M518.664 186.652L439.317 378.378C434.656 389.579 427.125 399.244 417.541 406.326L345.096 234.804L425.297 40.9395C429.892 29.7385 437.408 20.0861 447.002 13.0654L518.664 186.652Z" fill="#F7FAFD"/>
</svg>
