<svg width="53" height="53" viewBox="0 0 53 53" fill="none" xmlns="http://www.w3.org/2000/svg">
<path d="M0.805729 21.1448C0.996314 21.1531 1.18381 21.0946 1.33573 20.9792L10.5224 12.8083C11.0529 13.1698 11.6803 13.3623 12.3222 13.3604C12.8106 13.3576 13.2921 13.2438 13.7301 13.0276C14.1681 12.8115 14.5513 12.4986 14.8507 12.1127L18.1632 13.5481C18.1334 13.716 18.1149 13.8857 18.108 14.056C18.108 14.9111 18.4477 15.7312 19.0524 16.3359C19.657 16.9405 20.4771 17.2802 21.3322 17.2802C22.1873 17.2802 23.0074 16.9405 23.612 16.3359C24.2167 15.7312 24.5564 14.9111 24.5564 14.056C24.5597 13.4105 24.3672 12.7791 24.0043 12.2452L29.4147 6.11708C29.8652 6.35123 30.3645 6.47605 30.8722 6.48146C31.6953 6.48607 32.4877 6.16912 33.0805 5.59812L40.5447 10.346C40.4024 10.7879 40.3576 11.2553 40.4133 11.7161C40.469 12.177 40.6239 12.6202 40.8673 13.0155C41.1107 13.4107 41.4368 13.7486 41.8232 14.0057C42.2097 14.2628 42.6473 14.4332 43.1058 14.5051C43.5644 14.5769 44.0331 14.5486 44.4797 14.4219C44.9263 14.2953 45.3401 14.0735 45.6927 13.7716C46.0454 13.4697 46.3284 13.0951 46.5224 12.6734C46.7163 12.2517 46.8166 11.7929 46.8164 11.3287C46.8155 11.0411 46.7746 10.7549 46.6949 10.4785L52.6353 7.07771C52.7958 6.96094 52.9076 6.78906 52.9492 6.595C52.9909 6.40093 52.9594 6.19833 52.861 6.026C52.7625 5.85367 52.6039 5.72373 52.4156 5.66108C52.2272 5.59843 52.0224 5.60746 51.8403 5.68646L45.8557 9.05417C45.2709 8.44474 44.4682 8.09205 43.6238 8.07343C42.7793 8.0548 41.9619 8.37174 41.3507 8.95479L33.8866 4.20687C34.0013 3.89185 34.0611 3.55944 34.0632 3.22417C34.0632 2.36906 33.7235 1.54899 33.1189 0.944337C32.5142 0.339688 31.6942 0 30.8391 0C29.984 0 29.1639 0.339688 28.5592 0.944337C27.9546 1.54899 27.6149 2.36906 27.6149 3.22417C27.6115 3.86973 27.804 4.50113 28.167 5.035L22.7566 11.1631C22.3079 10.9241 21.8074 10.799 21.2991 10.7987C20.8102 10.7991 20.3279 10.9118 19.8895 11.1282C19.4511 11.3445 19.0683 11.6587 18.7705 12.0465L15.458 10.611C15.4934 10.444 15.5119 10.2739 15.5132 10.1031C15.5132 9.24802 15.1735 8.42794 14.5689 7.82329C13.9642 7.21865 13.1442 6.87896 12.2891 6.87896C11.434 6.87896 10.6139 7.21865 10.0092 7.82329C9.40458 8.42794 9.0649 9.24802 9.0649 10.1031C9.07143 10.6142 9.19614 11.1168 9.42927 11.5717L0.275729 19.7425C0.124321 19.8819 0.0319649 20.0739 0.0175939 20.2792C0.00322293 20.4845 0.0679252 20.6875 0.198438 20.8467C0.272976 20.9363 0.365601 21.0092 0.470252 21.0606C0.574903 21.1119 0.689222 21.1406 0.805729 21.1448ZM43.548 9.6725C43.8704 9.66592 44.1874 9.75549 44.4586 9.9298C44.7299 10.1041 44.9431 10.3552 45.071 10.6512C45.1989 10.9471 45.2359 11.2745 45.177 11.5915C45.1182 11.9085 44.9663 12.2008 44.7406 12.4311C44.515 12.6614 44.2259 12.8194 43.9102 12.8847C43.5945 12.9501 43.2664 12.9199 42.9679 12.7981C42.6694 12.6763 42.4139 12.4683 42.234 12.2007C42.0542 11.9331 41.9581 11.618 41.958 11.2956C41.9579 10.8708 42.1244 10.4629 42.4217 10.1595C42.7189 9.856 43.1233 9.68117 43.548 9.6725ZM30.8391 1.60104C31.1601 1.60104 31.4739 1.69624 31.7408 1.87459C32.0077 2.05294 32.2158 2.30644 32.3386 2.60302C32.4615 2.89961 32.4936 3.22597 32.431 3.54082C32.3684 3.85568 32.2138 4.14489 31.9868 4.37189C31.7598 4.59889 31.4706 4.75348 31.1557 4.8161C30.8409 4.87873 30.5145 4.84659 30.2179 4.72374C29.9213 4.60089 29.6678 4.39285 29.4895 4.12593C29.3111 3.859 29.2159 3.54519 29.2159 3.22417C29.2159 2.79369 29.3869 2.38084 29.6913 2.07644C29.9957 1.77205 30.4086 1.60104 30.8391 1.60104ZM21.2991 12.3998C21.6206 12.3976 21.9354 12.4909 22.2038 12.668C22.4722 12.845 22.6819 13.0977 22.8065 13.3941C22.931 13.6905 22.9648 14.0172 22.9034 14.3328C22.842 14.6483 22.6883 14.9386 22.4617 15.1667C22.2352 15.3948 21.946 15.5505 21.6308 15.614C21.3157 15.6775 20.9888 15.646 20.6915 15.5235C20.3943 15.401 20.1402 15.193 19.9613 14.9258C19.7825 14.6587 19.687 14.3444 19.687 14.0229C19.687 13.5943 19.8565 13.1832 20.1585 12.8791C20.4605 12.575 20.8705 12.4027 21.2991 12.3998ZM12.3222 8.48C12.6432 8.48 12.957 8.57519 13.2239 8.75355C13.4909 8.9319 13.6989 9.18539 13.8218 9.48198C13.9446 9.77857 13.9768 10.1049 13.9141 10.4198C13.8515 10.7346 13.6969 11.0238 13.4699 11.2508C13.2429 11.4778 12.9537 11.6324 12.6388 11.6951C12.324 11.7577 11.9976 11.7255 11.701 11.6027C11.4045 11.4798 11.151 11.2718 10.9726 11.0049C10.7943 10.738 10.6991 10.4241 10.6991 10.1031C10.6991 9.67264 10.8701 9.2598 11.1745 8.9554C11.4789 8.65101 11.8917 8.48 12.3222 8.48Z" fill="#00E3CF"/>
<path d="M39.6724 27.4718L51.9839 30.9168C52.0847 30.9469 52.1905 30.9564 52.295 30.9448C52.3995 30.9331 52.5006 30.9006 52.5923 30.8491C52.684 30.7976 52.7644 30.7282 52.8287 30.6449C52.893 30.5617 52.9399 30.4664 52.9666 30.3647C52.9968 30.2632 53.0065 30.1567 52.995 30.0514C52.9835 29.9461 52.9511 29.8442 52.8996 29.7516C52.8482 29.6591 52.7788 29.5777 52.6955 29.5123C52.6122 29.447 52.5167 29.3989 52.4145 29.3709L40.1141 25.9259V25.8597C40.1225 25.3888 40.0276 24.9219 39.8362 24.4916C39.6448 24.0614 39.3614 23.6783 39.006 23.3693C38.6507 23.0603 38.2319 22.8329 37.7793 22.7031C37.3266 22.5732 36.851 22.5442 36.3859 22.6179C35.9208 22.6916 35.4774 22.8662 35.0871 23.1296C34.6967 23.393 34.3688 23.7387 34.1263 24.1425C33.8839 24.5462 33.7329 24.9981 33.6838 25.4665C33.6348 25.9348 33.6889 26.4082 33.8424 26.8534L23.0768 33.7324C22.7635 33.4263 22.3904 33.1882 21.9807 33.033C21.5711 32.8779 21.1339 32.8091 20.6964 32.8308C20.2589 32.8526 19.8307 32.9645 19.4385 33.1596C19.0463 33.3546 18.6986 33.6286 18.4172 33.9643L15.5464 32.5068C15.6043 32.2794 15.6339 32.0458 15.6347 31.8111C15.6347 30.956 15.295 30.136 14.6904 29.5313C14.0857 28.9267 13.2657 28.587 12.4106 28.587C11.5555 28.587 10.7354 28.9267 10.1307 29.5313C9.52608 30.136 9.18639 30.956 9.18639 31.8111C9.1947 32.2649 9.29618 32.7122 9.48452 33.1251L0.297855 40.6776C0.139866 40.8109 0.0391594 40.9999 0.0165538 41.2054C-0.00605175 41.4109 0.0511725 41.6173 0.176396 41.7818C0.31125 41.9375 0.499928 42.0365 0.704665 42.059C0.909402 42.0815 1.11509 42.0259 1.28056 41.9032L10.4783 34.3838C11.0256 34.7954 11.6926 35.0164 12.3774 35.0132C12.8338 35.0094 13.2843 34.909 13.6991 34.7187C14.114 34.5284 14.4839 34.2525 14.7845 33.9091L17.6664 35.3997C17.622 35.614 17.5998 35.8323 17.6001 36.0511C17.6001 36.9062 17.9398 37.7263 18.5445 38.331C19.1491 38.9356 19.9692 39.2753 20.8243 39.2753C21.6794 39.2753 22.4995 38.9356 23.1041 38.331C23.7088 37.7263 24.0485 36.9062 24.0485 36.0511C24.0434 35.7288 23.9914 35.4089 23.8939 35.1016L34.6816 28.2116C35.2768 28.7775 36.0686 29.0903 36.8899 29.0838C37.4542 29.0821 38.0082 28.9324 38.4965 28.6495C38.9848 28.3666 39.3903 27.9605 39.6724 27.4718ZM12.4106 33.4343C12.0891 33.4364 11.7742 33.3431 11.5058 33.1661C11.2374 32.9891 11.0277 32.7364 10.9031 32.44C10.7786 32.1436 10.7449 31.8169 10.8062 31.5013C10.8676 31.1857 11.0213 30.8955 11.2479 30.6674C11.4744 30.4393 11.7636 30.2836 12.0788 30.2201C12.3939 30.1565 12.7209 30.188 13.0181 30.3105C13.3153 30.4331 13.5695 30.6411 13.7483 30.9082C13.9272 31.1754 14.0226 31.4896 14.0226 31.8111C14.0227 32.2397 13.8532 32.6509 13.5512 32.955C13.2491 33.2591 12.8391 33.4313 12.4106 33.4343ZM20.8464 37.6743C20.5254 37.6743 20.2116 37.5791 19.9446 37.4007C19.6777 37.2224 19.4697 36.9689 19.3468 36.6723C19.224 36.3757 19.1918 36.0493 19.2545 35.7345C19.3171 35.4196 19.4717 35.1304 19.6987 34.9034C19.9257 34.6764 20.2149 34.5218 20.5297 34.4592C20.8446 34.3966 21.1709 34.4287 21.4675 34.5516C21.7641 34.6744 22.0176 34.8825 22.196 35.1494C22.3743 35.4163 22.4695 35.7301 22.4695 36.0511C22.4695 36.4816 22.2985 36.8945 21.9941 37.1989C21.6897 37.5033 21.2769 37.6743 20.8464 37.6743ZM35.3331 25.8597C35.3666 25.4537 35.5516 25.0753 35.8512 24.7994C36.1509 24.5235 36.5433 24.3703 36.9507 24.3703C37.358 24.3703 37.7504 24.5235 38.0501 24.7994C38.3497 25.0753 38.5347 25.4537 38.5683 25.8597C38.5868 26.0833 38.5587 26.3084 38.4858 26.5207C38.4129 26.7329 38.2968 26.9277 38.1447 27.0929C37.9927 27.258 37.8081 27.3897 37.6026 27.4799C37.3971 27.57 37.1751 27.6166 36.9507 27.6166C36.7262 27.6166 36.5042 27.57 36.2987 27.4799C36.0932 27.3897 35.9086 27.258 35.7566 27.0929C35.6046 26.9277 35.4884 26.7329 35.4156 26.5207C35.3427 26.3084 35.3146 26.0833 35.3331 25.8597Z" fill="#00E3CF"/>
<path d="M0.806042 44.9727C0.592266 44.9727 0.387246 45.0576 0.236084 45.2087C0.084922 45.3599 0 45.5649 0 45.7787L0 52.1939C0 52.4077 0.084922 52.6127 0.236084 52.7639C0.387246 52.915 0.592266 52.9999 0.806042 52.9999C1.0179 52.997 1.22009 52.9108 1.36887 52.76C1.51766 52.6091 1.60106 52.4058 1.60104 52.1939V45.7787C1.6025 45.6734 1.58302 45.5688 1.54372 45.4711C1.50443 45.3733 1.4461 45.2844 1.37213 45.2094C1.29816 45.1344 1.21003 45.0749 1.11285 45.0342C1.01567 44.9936 0.911378 44.9726 0.806042 44.9727Z" fill="#00E3CF"/>
<path d="M7.23246 40.9314C7.01869 40.9314 6.81367 41.0163 6.6625 41.1675C6.51134 41.3186 6.42642 41.5237 6.42642 41.7374V52.1939C6.41312 52.3069 6.42391 52.4215 6.45807 52.53C6.49223 52.6386 6.54898 52.7387 6.62461 52.8237C6.70023 52.9087 6.793 52.9768 6.89681 53.0234C7.00063 53.07 7.11314 53.0941 7.22694 53.0941C7.34074 53.0941 7.45325 53.07 7.55707 53.0234C7.66088 52.9768 7.75365 52.9087 7.82927 52.8237C7.9049 52.7387 7.96165 52.6386 7.99581 52.53C8.02997 52.4215 8.04076 52.3069 8.02746 52.1939V41.7374C8.02748 41.5256 7.94408 41.3222 7.79529 41.1713C7.64651 41.0205 7.44432 40.9343 7.23246 40.9314Z" fill="#00E3CF"/>
<path d="M13.6472 37.7074C13.5419 37.7073 13.4376 37.7283 13.3404 37.7689C13.2432 37.8095 13.1551 37.8691 13.0811 37.9441C13.0071 38.0191 12.9488 38.108 12.9095 38.2058C12.8702 38.3035 12.8507 38.4081 12.8522 38.5134V52.194C12.8389 52.307 12.8497 52.4216 12.8838 52.5301C12.918 52.6387 12.9748 52.7388 13.0504 52.8238C13.126 52.9089 13.2188 52.9769 13.3226 53.0235C13.4264 53.0701 13.5389 53.0942 13.6527 53.0942C13.7665 53.0942 13.879 53.0701 13.9828 53.0235C14.0867 52.9769 14.1794 52.9089 14.2551 52.8238C14.3307 52.7388 14.3874 52.6387 14.4216 52.5301C14.4558 52.4216 14.4665 52.307 14.4532 52.194V38.5134C14.4547 38.4071 14.4349 38.3016 14.3949 38.2032C14.3549 38.1047 14.2956 38.0153 14.2205 37.9401C14.1453 37.865 14.0559 37.8057 13.9574 37.7657C13.8589 37.7257 13.7535 37.7059 13.6472 37.7074Z" fill="#00E3CF"/>
<path d="M20.0736 41.7375C19.8598 41.7375 19.6548 41.8225 19.5037 41.9736C19.3525 42.1248 19.2676 42.3298 19.2676 42.5436V52.194C19.2676 52.4078 19.3525 52.6128 19.5037 52.764C19.6548 52.9151 19.8598 53 20.0736 53C20.2874 53 20.4924 52.9151 20.6436 52.764C20.7947 52.6128 20.8797 52.4078 20.8797 52.194V42.5436C20.8797 42.4377 20.8588 42.3329 20.8183 42.2351C20.7778 42.1373 20.7184 42.0485 20.6436 41.9736C20.5687 41.8988 20.4799 41.8394 20.3821 41.7989C20.2843 41.7584 20.1795 41.7375 20.0736 41.7375Z" fill="#00E3CF"/>
<path d="M26.5004 37.7073C26.2866 37.7073 26.0816 37.7922 25.9304 37.9434C25.7793 38.0945 25.6943 38.2995 25.6943 38.5133V52.1939C25.6943 52.4077 25.7793 52.6127 25.9304 52.7639C26.0816 52.9151 26.2866 53 26.5004 53C26.7142 53 26.9192 52.9151 27.0703 52.7639C27.2215 52.6127 27.3064 52.4077 27.3064 52.1939V38.5133C27.3064 38.4075 27.2856 38.3026 27.2451 38.2049C27.2046 38.1071 27.1452 38.0182 27.0703 37.9434C26.9955 37.8685 26.9066 37.8091 26.8088 37.7686C26.711 37.7281 26.6062 37.7073 26.5004 37.7073Z" fill="#00E3CF"/>
<path d="M32.9262 33.666C32.8203 33.666 32.7155 33.6869 32.6177 33.7274C32.5199 33.7679 32.431 33.8273 32.3562 33.9021C32.2814 33.9769 32.222 34.0658 32.1815 34.1636C32.141 34.2614 32.1201 34.3662 32.1201 34.4721V52.1939C32.1201 52.4077 32.205 52.6127 32.3562 52.7639C32.5074 52.9151 32.7124 53 32.9262 53C33.1399 53 33.345 52.9151 33.4961 52.7639C33.6473 52.6127 33.7322 52.4077 33.7322 52.1939V34.4721C33.7322 34.3662 33.7114 34.2614 33.6708 34.1636C33.6303 34.0658 33.571 33.9769 33.4961 33.9021C33.4213 33.8273 33.3324 33.7679 33.2346 33.7274C33.1368 33.6869 33.032 33.666 32.9262 33.666Z" fill="#00E3CF"/>
<path d="M39.3526 31.2479C39.2463 31.2464 39.1408 31.2662 39.0424 31.3062C38.9439 31.3462 38.8545 31.4055 38.7793 31.4807C38.7042 31.5558 38.6448 31.6452 38.6049 31.7437C38.5649 31.8422 38.545 31.9477 38.5465 32.0539V52.1939C38.5332 52.3069 38.544 52.4215 38.5782 52.5301C38.6123 52.6386 38.6691 52.7387 38.7447 52.8237C38.8203 52.9088 38.9131 52.9768 39.0169 53.0234C39.1207 53.07 39.2333 53.0941 39.3471 53.0941C39.4609 53.0941 39.5734 53.07 39.6772 53.0234C39.781 52.9768 39.8738 52.9088 39.9494 52.8237C40.025 52.7387 40.0818 52.6386 40.1159 52.5301C40.1501 52.4215 40.1609 52.3069 40.1476 52.1939V32.0208C40.1418 31.8138 40.0555 31.6172 39.9071 31.4729C39.7586 31.3285 39.5597 31.2478 39.3526 31.2479Z" fill="#00E3CF"/>
<path d="M45.7673 32.8601C45.5555 32.863 45.3533 32.9492 45.2045 33.1001C45.0557 33.2509 44.9723 33.4543 44.9723 33.6661V52.1941C44.959 52.3071 44.9698 52.4216 45.004 52.5302C45.0381 52.6387 45.0949 52.7388 45.1705 52.8239C45.2461 52.9089 45.3389 52.977 45.4427 53.0236C45.5465 53.0702 45.659 53.0943 45.7728 53.0943C45.8866 53.0943 45.9991 53.0702 46.103 53.0236C46.2068 52.977 46.2996 52.9089 46.3752 52.8239C46.4508 52.7388 46.5076 52.6387 46.5417 52.5302C46.5759 52.4216 46.5867 52.3071 46.5734 52.1941V33.6661C46.5734 33.5603 46.5525 33.4555 46.512 33.3577C46.4715 33.2599 46.4121 33.171 46.3373 33.0962C46.2624 33.0213 46.1736 32.962 46.0758 32.9215C45.978 32.881 45.8732 32.8601 45.7673 32.8601Z" fill="#00E3CF"/>
<path d="M52.1944 34.4722C51.9826 34.4751 51.7804 34.5613 51.6316 34.7121C51.4828 34.863 51.3994 35.0663 51.3994 35.2782V52.194C51.3994 52.4059 51.4828 52.6093 51.6316 52.7601C51.7804 52.911 51.9826 52.9972 52.1944 53.0001C52.4082 53.0001 52.6132 52.9152 52.7644 52.764C52.9155 52.6128 53.0005 52.4078 53.0005 52.194V35.3334C53.008 35.223 52.9928 35.1122 52.9557 35.008C52.9186 34.9037 52.8604 34.8082 52.7848 34.7274C52.7092 34.6466 52.6178 34.5823 52.5162 34.5384C52.4146 34.4944 52.3051 34.4719 52.1944 34.4722Z" fill="#00E3CF"/>
<path d="M0.806042 36.0511C1.0179 36.0482 1.22009 35.962 1.36887 35.8111C1.51766 35.6603 1.60106 35.4569 1.60104 35.245V25.5946C1.6025 25.4893 1.58302 25.3847 1.54372 25.287C1.50443 25.1893 1.4461 25.1003 1.37213 25.0253C1.29816 24.9503 1.21003 24.8908 1.11285 24.8501C1.01567 24.8095 0.911378 24.7886 0.806042 24.7886C0.592266 24.7886 0.387246 24.8735 0.236084 25.0247C0.084922 25.1758 0 25.3808 0 25.5946L0 35.245C0 35.4588 0.084922 35.6638 0.236084 35.815C0.387246 35.9662 0.592266 36.0511 0.806042 36.0511Z" fill="#00E3CF"/>
<path d="M6.42642 19.9412V27.9796C6.44949 28.1757 6.54375 28.3565 6.69131 28.4877C6.83888 28.6189 7.02947 28.6914 7.22694 28.6914C7.42441 28.6914 7.615 28.6189 7.76257 28.4877C7.91013 28.3565 8.00439 28.1757 8.02746 27.9796V19.9412C8.04076 19.8282 8.02997 19.7137 7.99581 19.6051C7.96165 19.4966 7.9049 19.3965 7.82927 19.3114C7.75365 19.2264 7.66088 19.1583 7.55707 19.1117C7.45325 19.0651 7.34074 19.041 7.22694 19.041C7.11314 19.041 7.00063 19.0651 6.89681 19.1117C6.793 19.1583 6.70023 19.2264 6.62461 19.3114C6.54898 19.3965 6.49223 19.4966 6.45807 19.6051C6.42391 19.7137 6.41312 19.8282 6.42642 19.9412Z" fill="#00E3CF"/>
<path d="M12.8522 15.9001V25.5505C12.8389 25.6635 12.8497 25.7781 12.8838 25.8866C12.918 25.9952 12.9748 26.0953 13.0504 26.1803C13.126 26.2654 13.2188 26.3334 13.3226 26.38C13.4264 26.4266 13.5389 26.4507 13.6527 26.4507C13.7665 26.4507 13.879 26.4266 13.9828 26.38C14.0867 26.3334 14.1794 26.2654 14.2551 26.1803C14.3307 26.0953 14.3874 25.9952 14.4216 25.8866C14.4558 25.7781 14.4665 25.6635 14.4532 25.5505V15.9001C14.4302 15.704 14.3359 15.5232 14.1883 15.3919C14.0408 15.2607 13.8502 15.1882 13.6527 15.1882C13.4553 15.1882 13.2647 15.2607 13.1171 15.3919C12.9695 15.5232 12.8753 15.704 12.8522 15.9001Z" fill="#00E3CF"/>
<path d="M19.2676 19.9413V29.5917C19.2676 29.8055 19.3525 30.0105 19.5037 30.1617C19.6548 30.3128 19.8598 30.3978 20.0736 30.3978C20.2874 30.3978 20.4924 30.3128 20.6436 30.1617C20.7947 30.0105 20.8797 29.8055 20.8797 29.5917V19.9413C20.8797 19.7275 20.7947 19.5225 20.6436 19.3713C20.4924 19.2202 20.2874 19.1353 20.0736 19.1353C19.8598 19.1353 19.6548 19.2202 19.5037 19.3713C19.3525 19.5225 19.2676 19.7275 19.2676 19.9413Z" fill="#00E3CF"/>
<path d="M25.6943 15.0939V27.1735C25.6943 27.3872 25.7793 27.5923 25.9304 27.7434C26.0816 27.8946 26.2866 27.9795 26.5004 27.9795C26.7142 27.9795 26.9192 27.8946 27.0703 27.7434C27.2215 27.5923 27.3064 27.3872 27.3064 27.1735V15.0939C27.3064 14.8801 27.2215 14.6751 27.0703 14.5239C26.9192 14.3728 26.7142 14.2878 26.5004 14.2878C26.2866 14.2878 26.0816 14.3728 25.9304 14.5239C25.7793 14.6751 25.6943 14.8801 25.6943 15.0939Z" fill="#00E3CF"/>
<path d="M32.1201 10.2577V20.7142C32.1201 20.9279 32.205 21.133 32.3562 21.2841C32.5074 21.4353 32.7124 21.5202 32.9262 21.5202C33.1399 21.5202 33.345 21.4353 33.4961 21.2841C33.6473 21.133 33.7322 20.9279 33.7322 20.7142V10.2577C33.7322 10.0439 33.6473 9.83891 33.4961 9.68774C33.345 9.53658 33.1399 9.45166 32.9262 9.45166C32.7124 9.45166 32.5074 9.53658 32.3562 9.68774C32.205 9.83891 32.1201 10.0439 32.1201 10.2577Z" fill="#00E3CF"/>
<path d="M38.5469 15.9001V19.8751C38.5699 20.0712 38.6642 20.252 38.8118 20.3833C38.9593 20.5145 39.1499 20.587 39.3474 20.587C39.5449 20.587 39.7355 20.5145 39.883 20.3833C40.0306 20.252 40.1248 20.0712 40.1479 19.8751V15.9001C40.1248 15.704 40.0306 15.5232 39.883 15.3919C39.7355 15.2607 39.5449 15.1882 39.3474 15.1882C39.1499 15.1882 38.9593 15.2607 38.8118 15.3919C38.6642 15.5232 38.5699 15.704 38.5469 15.9001Z" fill="#00E3CF"/>
<path d="M44.9723 17.523V23.1874C44.959 23.3004 44.9698 23.415 45.004 23.5235C45.0381 23.6321 45.0949 23.7322 45.1705 23.8172C45.2461 23.9022 45.3389 23.9703 45.4427 24.0169C45.5465 24.0635 45.659 24.0876 45.7728 24.0876C45.8866 24.0876 45.9991 24.0635 46.103 24.0169C46.2068 23.9703 46.2996 23.9022 46.3752 23.8172C46.4508 23.7322 46.5076 23.6321 46.5417 23.5235C46.5759 23.415 46.5867 23.3004 46.5734 23.1874V17.523C46.5867 17.41 46.5759 17.2954 46.5417 17.1869C46.5076 17.0783 46.4508 16.9783 46.3752 16.8932C46.2996 16.8082 46.2068 16.7401 46.103 16.6935C45.9991 16.6469 45.8866 16.6228 45.7728 16.6228C45.659 16.6228 45.5465 16.6469 45.4427 16.6935C45.3389 16.7401 45.2461 16.8082 45.1705 16.8932C45.0949 16.9783 45.0381 17.0783 45.004 17.1869C44.9698 17.2954 44.959 17.41 44.9723 17.523Z" fill="#00E3CF"/>
<path d="M52.1935 11.0417C51.9817 11.0447 51.7795 11.1309 51.6307 11.2817C51.4819 11.4325 51.3985 11.6359 51.3985 11.8478V24.7445C51.3971 24.8498 51.4165 24.9543 51.4558 25.0521C51.4951 25.1498 51.5535 25.2388 51.6274 25.3138C51.7014 25.3888 51.7895 25.4483 51.8867 25.4889C51.9839 25.5296 52.0882 25.5505 52.1935 25.5505C52.4073 25.5505 52.6123 25.4656 52.7635 25.3144C52.9146 25.1633 52.9996 24.9582 52.9996 24.7445V11.8699C53.0025 11.7622 52.9838 11.655 52.9447 11.5546C52.9055 11.4543 52.8466 11.3628 52.7714 11.2856C52.6963 11.2084 52.6064 11.147 52.5072 11.1051C52.4079 11.0633 52.3013 11.0417 52.1935 11.0417Z" fill="#00E3CF"/>
</svg>
