<svg width="61" height="55" viewBox="0 0 61 55" fill="none" xmlns="http://www.w3.org/2000/svg">
<path d="M57.3019 2.82798H52.9175V1.0361C52.9175 0.790059 52.8198 0.554092 52.6458 0.380113C52.4718 0.206134 52.2358 0.108394 51.9898 0.108394C51.7437 0.108394 51.5078 0.206134 51.3338 0.380113C51.1598 0.554092 51.0621 0.790059 51.0621 1.0361V2.82798H44.225V1.0361C44.2403 0.906023 44.2279 0.774177 44.1886 0.649241C44.1493 0.524304 44.0839 0.409108 43.9969 0.311233C43.9099 0.213357 43.8031 0.135021 43.6836 0.0813773C43.5641 0.027734 43.4346 0 43.3036 0C43.1727 0 43.0432 0.027734 42.9237 0.0813773C42.8042 0.135021 42.6974 0.213357 42.6104 0.311233C42.5234 0.409108 42.458 0.524304 42.4187 0.649241C42.3794 0.774177 42.367 0.906023 42.3823 1.0361V2.82798H35.5833V1.0361C35.5834 0.910998 35.5582 0.787165 35.5093 0.672051C35.4603 0.556937 35.3885 0.452921 35.2983 0.366257C35.208 0.279594 35.1012 0.212075 34.9842 0.167761C34.8672 0.123446 34.7425 0.103253 34.6175 0.108394C34.3715 0.108394 34.1355 0.206134 33.9615 0.380113C33.7875 0.554092 33.6898 0.790059 33.6898 1.0361V2.82798H26.8527V1.0361C26.8527 0.790059 26.755 0.554092 26.581 0.380113C26.407 0.206134 26.171 0.108394 25.925 0.108394C25.679 0.108394 25.443 0.206134 25.269 0.380113C25.095 0.554092 24.9973 0.790059 24.9973 1.0361V2.82798H18.1602V1.0361C18.1755 0.906023 18.1631 0.774177 18.1238 0.649241C18.0845 0.524304 18.0191 0.409108 17.9321 0.311233C17.8451 0.213357 17.7383 0.135021 17.6188 0.0813773C17.4993 0.027734 17.3698 0 17.2389 0C17.1079 0 16.9784 0.027734 16.8589 0.0813773C16.7394 0.135021 16.6326 0.213357 16.5456 0.311233C16.4586 0.409108 16.3932 0.524304 16.3539 0.649241C16.3146 0.774177 16.3022 0.906023 16.3175 1.0361V2.82798H9.48042V1.0361C9.48042 0.790059 9.38268 0.554092 9.2087 0.380113C9.03472 0.206134 8.79875 0.108394 8.55271 0.108394C8.30667 0.108394 8.0707 0.206134 7.89672 0.380113C7.72274 0.554092 7.625 0.790059 7.625 1.0361V2.82798H3.69813C2.71732 2.82798 1.77669 3.2176 1.08316 3.91113C0.389623 4.60467 0 5.5453 0 6.5261L0 51.1196C0 52.1004 0.389623 53.0411 1.08316 53.7346C1.77669 54.4281 2.71732 54.8178 3.69813 54.8178H57.3019C58.2817 54.8144 59.2203 54.4237 59.9131 53.7309C60.606 53.0381 60.9967 52.0994 61 51.1196V6.5261C61 5.5453 60.6104 4.60467 59.9168 3.91113C59.2233 3.2176 58.2827 2.82798 57.3019 2.82798ZM57.3019 52.9623H3.69813C3.20823 52.9624 2.73822 52.7686 2.39062 52.4234C2.04303 52.0782 1.84606 51.6095 1.84271 51.1196V12.8803H2.31292C2.55896 12.8803 2.79493 12.7825 2.96891 12.6085C3.14288 12.4346 3.24063 12.1986 3.24063 11.9526C3.24063 11.7065 3.14288 11.4706 2.96891 11.2966C2.79493 11.1226 2.55896 11.0249 2.31292 11.0249H1.84271V6.5261C1.84271 6.03402 2.03819 5.56208 2.38615 5.21412C2.73411 4.86617 3.20604 4.67069 3.69813 4.67069H7.625V6.46256C7.625 6.7086 7.72274 6.94457 7.89672 7.11855C8.0707 7.29253 8.30667 7.39027 8.55271 7.39027C8.79875 7.39027 9.03472 7.29253 9.2087 7.11855C9.38268 6.94457 9.48042 6.7086 9.48042 6.46256V4.67069H16.3175V6.46256C16.3022 6.59264 16.3146 6.72449 16.3539 6.84942C16.3932 6.97436 16.4586 7.08955 16.5456 7.18743C16.6326 7.28531 16.7394 7.36364 16.8589 7.41728C16.9784 7.47093 17.1079 7.49866 17.2389 7.49866C17.3698 7.49866 17.4993 7.47093 17.6188 7.41728C17.7383 7.36364 17.8451 7.28531 17.9321 7.18743C18.0191 7.08955 18.0845 6.97436 18.1238 6.84942C18.1631 6.72449 18.1755 6.59264 18.1602 6.46256V4.67069H24.9973V6.46256C24.9973 6.7086 25.095 6.94457 25.269 7.11855C25.443 7.29253 25.679 7.39027 25.925 7.39027C26.171 7.39027 26.407 7.29253 26.581 7.11855C26.755 6.94457 26.8527 6.7086 26.8527 6.46256V4.67069H33.6898V6.46256C33.6898 6.7086 33.7875 6.94457 33.9615 7.11855C34.1355 7.29253 34.3715 7.39027 34.6175 7.39027C34.7425 7.39541 34.8672 7.37522 34.9842 7.3309C35.1012 7.28659 35.208 7.21907 35.2983 7.13241C35.3885 7.04574 35.4603 6.94173 35.5093 6.82661C35.5582 6.7115 35.5834 6.58766 35.5833 6.46256V4.67069H42.4331V6.46256C42.3962 6.60004 42.3914 6.74417 42.4191 6.8838C42.4468 7.02343 42.5063 7.15481 42.5929 7.26777C42.6795 7.38074 42.791 7.47225 42.9186 7.53523C43.0463 7.59821 43.1867 7.63097 43.3291 7.63097C43.4714 7.63097 43.6119 7.59821 43.7395 7.53523C43.8672 7.47225 43.9786 7.38074 44.0653 7.26777C44.1519 7.15481 44.2113 7.02343 44.239 6.8838C44.2667 6.74417 44.2619 6.60004 44.225 6.46256V4.67069H51.0621V6.46256C51.0621 6.7086 51.1598 6.94457 51.3338 7.11855C51.5078 7.29253 51.7437 7.39027 51.9898 7.39027C52.2358 7.39027 52.4718 7.29253 52.6458 7.11855C52.8198 6.94457 52.9175 6.7086 52.9175 6.46256V4.67069H57.3019C57.794 4.67069 58.2659 4.86617 58.6139 5.21412C58.9618 5.56208 59.1573 6.03402 59.1573 6.5261V11.0249H58.6871C58.441 11.0249 58.2051 11.1226 58.0311 11.2966C57.8571 11.4706 57.7594 11.7065 57.7594 11.9526C57.7594 12.1986 57.8571 12.4346 58.0311 12.6085C58.2051 12.7825 58.441 12.8803 58.6871 12.8803H59.1573V51.1196C59.1539 51.6095 58.957 52.0782 58.6094 52.4234C58.2618 52.7686 57.7918 52.9624 57.3019 52.9623Z" fill="#FF566D"/>
<path d="M10.6239 11.9525C10.6239 11.7086 10.5279 11.4746 10.3567 11.301C10.1854 11.1273 9.95271 11.0281 9.70888 11.0248H6.92576C6.67971 11.0248 6.44375 11.1225 6.26977 11.2965C6.09579 11.4705 5.99805 11.7064 5.99805 11.9525C5.99805 12.1985 6.09579 12.4345 6.26977 12.6085C6.44375 12.7825 6.67971 12.8802 6.92576 12.8802H9.70888C9.95271 12.8769 10.1854 12.7776 10.3567 12.604C10.5279 12.4304 10.6239 12.1963 10.6239 11.9525Z" fill="#FF566D"/>
<path d="M29.1152 12.8802H31.8856C32.1317 12.8802 32.3676 12.7825 32.5416 12.6085C32.7156 12.4345 32.8133 12.1985 32.8133 11.9525C32.8133 11.7064 32.7156 11.4705 32.5416 11.2965C32.3676 11.1225 32.1317 11.0248 31.8856 11.0248H29.1152C28.8692 11.0248 28.6332 11.1225 28.4592 11.2965C28.2852 11.4705 28.1875 11.7064 28.1875 11.9525C28.1875 12.1985 28.2852 12.4345 28.4592 12.6085C28.6332 12.7825 28.8692 12.8802 29.1152 12.8802Z" fill="#FF566D"/>
<path d="M14.3222 12.8802H17.0927C17.3387 12.8802 17.5747 12.7825 17.7486 12.6085C17.9226 12.4345 18.0204 12.1985 18.0204 11.9525C18.0204 11.7064 17.9226 11.4705 17.7486 11.2965C17.5747 11.1225 17.3387 11.0248 17.0927 11.0248H14.3222C14.0762 11.0248 13.8402 11.1225 13.6663 11.2965C13.4923 11.4705 13.3945 11.7064 13.3945 11.9525C13.3945 12.1985 13.4923 12.4345 13.6663 12.6085C13.8402 12.7825 14.0762 12.8802 14.3222 12.8802Z" fill="#FF566D"/>
<path d="M43.9062 12.8802H46.6766C46.9227 12.8802 47.1587 12.7825 47.3326 12.6085C47.5066 12.4345 47.6043 12.1985 47.6043 11.9525C47.6043 11.7064 47.5066 11.4705 47.3326 11.2965C47.1587 11.1225 46.9227 11.0248 46.6766 11.0248H43.9062C43.6602 11.0248 43.4242 11.1225 43.2502 11.2965C43.0763 11.4705 42.9785 11.7064 42.9785 11.9525C42.9785 12.1985 43.0763 12.4345 43.2502 12.6085C43.4242 12.7825 43.6602 12.8802 43.9062 12.8802Z" fill="#FF566D"/>
<path d="M39.2802 11.0248H36.5097C36.2637 11.0248 36.0277 11.1225 35.8538 11.2965C35.6798 11.4705 35.582 11.7064 35.582 11.9525C35.582 12.1985 35.6798 12.4345 35.8538 12.6085C36.0277 12.7825 36.2637 12.8802 36.5097 12.8802H39.2802C39.5262 12.8802 39.7622 12.7825 39.9361 12.6085C40.1101 12.4345 40.2079 12.1985 40.2079 11.9525C40.2079 11.7064 40.1101 11.4705 39.9361 11.2965C39.7622 11.1225 39.5262 11.0248 39.2802 11.0248Z" fill="#FF566D"/>
<path d="M54.0741 11.0248H51.291C51.0449 11.0248 50.809 11.1225 50.635 11.2965C50.461 11.4705 50.3633 11.7064 50.3633 11.9525C50.3633 12.1985 50.461 12.4345 50.635 12.6085C50.809 12.7825 51.0449 12.8802 51.291 12.8802H54.0741C54.3202 12.8802 54.5561 12.7825 54.7301 12.6085C54.9041 12.4345 55.0018 12.1985 55.0018 11.9525C55.0018 11.7064 54.9041 11.4705 54.7301 11.2965C54.5561 11.1225 54.3202 11.0248 54.0741 11.0248Z" fill="#FF566D"/>
<path d="M24.4891 11.0248H21.7187C21.4727 11.0248 21.2367 11.1225 21.0627 11.2965C20.8888 11.4705 20.791 11.7064 20.791 11.9525C20.791 12.1985 20.8888 12.4345 21.0627 12.6085C21.2367 12.7825 21.4727 12.8802 21.7187 12.8802H24.4891C24.7352 12.8802 24.9711 12.7825 25.1451 12.6085C25.3191 12.4345 25.4168 12.1985 25.4168 11.9525C25.4168 11.7064 25.3191 11.4705 25.1451 11.2965C24.9711 11.1225 24.7352 11.0248 24.4891 11.0248Z" fill="#FF566D"/>
<path d="M26.4219 29.7062H34.5806C34.8266 29.7062 35.0626 29.6084 35.2366 29.4345C35.4106 29.2605 35.5083 29.0245 35.5083 28.7785V20.6197C35.5083 20.3737 35.4106 20.1377 35.2366 19.9637C35.0626 19.7898 34.8266 19.692 34.5806 19.692H26.4219C26.1758 19.692 25.9398 19.7898 25.7659 19.9637C25.5919 20.1377 25.4941 20.3737 25.4941 20.6197V28.7785C25.4941 29.0245 25.5919 29.2605 25.7659 29.4345C25.9398 29.6084 26.1758 29.7062 26.4219 29.7062ZM27.3496 21.5347H33.7037V27.8889H27.3496V21.5347Z" fill="#FF566D"/>
<path d="M50.2994 19.692H42.1279C41.8841 19.6954 41.6513 19.7946 41.4801 19.9682C41.3089 20.1418 41.2129 20.3759 41.2129 20.6197V28.7785C41.2129 29.0223 41.3089 29.2564 41.4801 29.43C41.6513 29.6036 41.8841 29.7028 42.1279 29.7062H50.2994C50.5432 29.7028 50.7759 29.6036 50.9471 29.43C51.1184 29.2564 51.2144 29.0223 51.2143 28.7785V20.6197C51.2144 20.3759 51.1184 20.1418 50.9471 19.9682C50.7759 19.7946 50.5432 19.6954 50.2994 19.692ZM49.3716 27.8508H43.0175V21.4966H49.3716V27.8508Z" fill="#FF566D"/>
<path d="M18.8716 36.327H10.7002C10.4563 36.3304 10.2236 36.4296 10.0524 36.6032C9.88113 36.7768 9.78513 37.0109 9.78516 37.2547V45.4135C9.78513 45.6573 9.88113 45.8914 10.0524 46.065C10.2236 46.2386 10.4563 46.3379 10.7002 46.3412H18.8716C19.1154 46.3379 19.3482 46.2386 19.5194 46.065C19.6906 45.8914 19.7866 45.6573 19.7866 45.4135V37.2547C19.7866 37.0109 19.6906 36.7768 19.5194 36.6032C19.3482 36.4296 19.1154 36.3304 18.8716 36.327ZM17.9439 44.4858H11.5897V38.2333H17.9439V44.4858Z" fill="#FF566D"/>
<path d="M50.2994 36.327H42.1279C41.8841 36.3304 41.6513 36.4296 41.4801 36.6032C41.3089 36.7768 41.2129 37.0109 41.2129 37.2547V45.4135C41.2129 45.6573 41.3089 45.8914 41.4801 46.065C41.6513 46.2386 41.8841 46.3379 42.1279 46.3412H50.2994C50.5432 46.3379 50.7759 46.2386 50.9471 46.065C51.1184 45.8914 51.2144 45.6573 51.2143 45.4135V37.2547C51.2144 37.0109 51.1184 36.7768 50.9471 36.6032C50.7759 36.4296 50.5432 36.3304 50.2994 36.327ZM49.3716 44.4858H43.0175V38.2333H49.3716V44.4858Z" fill="#FF566D"/>
<path d="M36.0039 34.7514C35.7999 34.6227 35.5543 34.5773 35.3177 34.6246C35.0812 34.6719 34.8719 34.8083 34.7331 35.0055L33.8689 36.2764H26.4219C26.1758 36.2764 25.9398 36.3741 25.7659 36.5481C25.5919 36.7221 25.4941 36.958 25.4941 37.2041V45.3628C25.4941 45.6089 25.5919 45.8448 25.7659 46.0188C25.9398 46.1928 26.1758 46.2905 26.4219 46.2905H34.5806C34.8266 46.2905 35.0626 46.1928 35.2366 46.0188C35.4106 45.8448 35.5083 45.6089 35.5083 45.3628V37.2549L36.2835 36.073C36.3576 35.9697 36.4093 35.8521 36.4354 35.7278C36.4615 35.6034 36.4613 35.4749 36.435 35.3506C36.4087 35.2262 36.3568 35.1087 36.2826 35.0056C36.2084 34.9024 36.1135 34.8158 36.0039 34.7514ZM33.6529 44.4859H27.2987V38.2334H32.5854L30.8189 40.9149L29.9929 39.7712C29.9235 39.6735 29.8353 39.5907 29.7335 39.5275C29.6317 39.4643 29.5184 39.422 29.4001 39.4031C29.2818 39.3841 29.1609 39.389 29.0445 39.4173C28.9281 39.4455 28.8185 39.4967 28.7221 39.5678C28.5257 39.7083 28.3927 39.9207 28.3523 40.1587C28.3118 40.3968 28.3671 40.6412 28.506 40.8387L30.12 43.0626C30.2061 43.1807 30.3189 43.2768 30.4492 43.3431C30.5795 43.4094 30.7236 43.4439 30.8698 43.4439C31.0203 43.443 31.1684 43.4056 31.3013 43.3347C31.4341 43.2639 31.5477 43.1618 31.6323 43.0372L33.6021 40.0253L33.6529 44.4859Z" fill="#FF566D"/>
</svg>
