<svg width="56" height="55" viewBox="0 0 56 55" fill="none" xmlns="http://www.w3.org/2000/svg">
<path d="M38.3224 3.89221C38.5483 3.89205 38.7652 3.8041 38.9267 3.64715C39.0818 3.48615 39.1684 3.27183 39.1684 3.0489C39.1684 2.82598 39.0818 2.61166 38.9267 2.45066C38.7617 2.3004 38.5462 2.21704 38.3224 2.21704C38.0987 2.21704 37.8831 2.3004 37.7182 2.45066C37.5616 2.61205 37.4734 2.82708 37.4717 3.05131C37.4754 3.27399 37.5664 3.48643 37.7253 3.64347C37.8842 3.8005 38.0984 3.88974 38.3224 3.89221Z" fill="#00E3CF"/>
<path d="M18.7115 3.16662C18.8098 3.16603 18.9074 3.15147 19.0015 3.12337C19.1114 3.09035 19.2134 3.03558 19.3014 2.96235C19.3894 2.88912 19.4616 2.79895 19.5136 2.69726C19.5657 2.59557 19.5965 2.48446 19.6042 2.37063C19.6119 2.2568 19.5963 2.1426 19.5585 2.0349C19.5206 1.92719 19.4612 1.82822 19.3839 1.74393C19.3066 1.65964 19.2129 1.59177 19.1084 1.54442C19.004 1.49707 18.891 1.47121 18.7763 1.4684C18.6616 1.46558 18.5475 1.48588 18.4408 1.52805C18.2549 1.59655 18.0989 1.72745 17.9998 1.89813C17.9006 2.06881 17.8645 2.26855 17.8978 2.46285C17.931 2.65715 18.0315 2.83381 18.1818 2.96231C18.3322 3.0908 18.5229 3.16307 18.7212 3.16662H18.7115Z" fill="#00E3CF"/>
<path d="M14.1585 5.25199C14.3107 5.25253 14.4604 5.21449 14.5936 5.14147C14.7844 5.02561 14.9227 4.84081 14.9795 4.62581C15.0363 4.41082 15.0071 4.18232 14.8981 3.98823C14.8421 3.89184 14.7675 3.80741 14.6785 3.73976C14.5896 3.67211 14.4881 3.62258 14.3799 3.594C14.2717 3.56543 14.1588 3.55838 14.0478 3.57326C13.9369 3.58814 13.8299 3.62465 13.7332 3.68069C13.5743 3.77522 13.4508 3.91868 13.3814 4.0893C13.312 4.25993 13.3005 4.4484 13.3486 4.62613C13.3967 4.80385 13.5018 4.96112 13.648 5.07407C13.7942 5.18702 13.9734 5.24949 14.1585 5.25199Z" fill="#00E3CF"/>
<path d="M23.58 1.97001C23.6217 1.97495 23.6639 1.97495 23.7056 1.97001C23.9239 1.95385 24.1274 1.85419 24.2734 1.69198C24.4193 1.52977 24.4963 1.31764 24.4881 1.10018C24.48 0.882717 24.3874 0.67686 24.2297 0.525873C24.0721 0.374886 23.8617 0.290527 23.6428 0.290527C23.4239 0.290527 23.2135 0.374886 23.0559 0.525873C22.8982 0.67686 22.8056 0.882717 22.7975 1.10018C22.7893 1.31764 22.8663 1.52977 23.0122 1.69198C23.1582 1.85419 23.3617 1.95385 23.58 1.97001Z" fill="#00E3CF"/>
<path d="M10.0788 8.16873C10.2871 8.16602 10.4863 8.08338 10.6347 7.93808C10.7807 7.80841 10.8762 7.63196 10.9048 7.43945C10.9333 7.24693 10.893 7.05057 10.7909 6.88456C10.6888 6.71855 10.5313 6.59341 10.3459 6.53094C10.1605 6.46847 9.95897 6.47263 9.77635 6.5427C9.59373 6.61277 9.44162 6.7443 9.34653 6.91438C9.25143 7.08447 9.21937 7.28233 9.25593 7.47349C9.29249 7.66466 9.39535 7.83702 9.5466 7.96055C9.69785 8.08408 9.8879 8.15094 10.0836 8.14951L10.0788 8.16873Z" fill="#00E3CF"/>
<path d="M33.3536 2.31131C33.4163 2.33024 33.4814 2.33996 33.5469 2.34014C33.7716 2.34853 33.991 2.27108 34.1601 2.12369C34.3291 1.9763 34.435 1.77017 34.4559 1.54762C34.4768 1.32507 34.4112 1.10301 34.2726 0.927026C34.134 0.751045 33.9328 0.63451 33.7105 0.601353C33.4881 0.568197 33.2614 0.620935 33.0769 0.748738C32.8925 0.876541 32.7642 1.06971 32.7185 1.28856C32.6729 1.50742 32.7132 1.73536 32.8313 1.92556C32.9494 2.11577 33.1363 2.2538 33.3536 2.31131Z" fill="#00E3CF"/>
<path d="M28.5583 1.69143H28.5922C28.8111 1.69152 29.0215 1.60673 29.1785 1.45509C29.3356 1.30345 29.427 1.09691 29.4333 0.879353C29.4399 0.711851 29.3963 0.546167 29.308 0.403341C29.2198 0.260515 29.0908 0.146991 28.9375 0.077184C28.7841 0.00737728 28.6134 -0.0155625 28.447 0.0112777C28.2805 0.0381179 28.1258 0.113527 28.0026 0.22793C27.8793 0.342332 27.793 0.490567 27.7547 0.653809C27.7164 0.817051 27.7277 0.987937 27.7872 1.14477C27.8468 1.30159 27.9519 1.43729 28.0892 1.53462C28.2265 1.63196 28.3898 1.68654 28.5583 1.69143Z" fill="#00E3CF"/>
<path d="M0.840895 25.3953H0.937572C1.14839 25.3828 1.34602 25.2892 1.48853 25.1343C1.63105 24.9793 1.70725 24.7753 1.70096 24.5655C1.69467 24.3556 1.60639 24.1565 1.45485 24.0102C1.30331 23.864 1.10042 23.7822 0.889233 23.7822C0.678042 23.7822 0.475158 23.864 0.323616 24.0102C0.172075 24.1565 0.0837971 24.3556 0.0775089 24.5655C0.0712206 24.7753 0.147416 24.9793 0.289934 25.1343C0.432451 25.2892 0.630078 25.3828 0.840895 25.3953Z" fill="#00E3CF"/>
<path d="M1.70151 29.4749C1.66914 29.2626 1.55721 29.0703 1.38817 28.9367C1.21913 28.8031 1.0055 28.7379 0.790154 28.7543C0.574804 28.7707 0.37367 28.8675 0.227114 29.0252C0.0805591 29.1829 -0.000571866 29.3899 3.03455e-06 29.6046C0.0181434 29.8166 0.115578 30.0142 0.273077 30.1583C0.430576 30.3024 0.636697 30.3826 0.850758 30.383H0.908764C1.13453 30.3658 1.34437 30.2608 1.49277 30.0908C1.64117 29.9208 1.71617 29.6995 1.70151 29.4749Z" fill="#00E3CF"/>
<path d="M1.4746 33.6361C1.2782 33.6925 1.1086 33.817 0.996516 33.9869C0.884429 34.1569 0.837261 34.3611 0.863552 34.5626C0.889843 34.7642 0.987856 34.9497 1.13984 35.0856C1.29183 35.2215 1.48775 35.2988 1.69212 35.3035C1.77379 35.3025 1.85501 35.2912 1.93382 35.2699C2.13688 35.197 2.30469 35.0504 2.40359 34.8596C2.50248 34.6688 2.52515 34.4479 2.46705 34.2411C2.40894 34.0344 2.27436 33.8572 2.0903 33.745C1.90623 33.6328 1.6863 33.5939 1.4746 33.6361Z" fill="#00E3CF"/>
<path d="M6.60275 11.7389C6.77814 11.7375 6.94879 11.6822 7.09134 11.5806C7.23388 11.479 7.34136 11.3361 7.39904 11.1714C7.45672 11.0067 7.4618 10.8284 7.41357 10.6607C7.36535 10.4931 7.26618 10.3444 7.12964 10.2349C6.95425 10.1308 6.74705 10.093 6.54588 10.1282C6.34472 10.1634 6.16302 10.2694 6.03399 10.4269C5.90497 10.5843 5.83722 10.7826 5.84313 10.9855C5.84904 11.1885 5.92822 11.3826 6.06619 11.5323C6.21569 11.6607 6.40527 11.7337 6.60275 11.7389Z" fill="#00E3CF"/>
<path d="M1.69163 20.4844C1.77036 20.5061 1.85162 20.5174 1.93332 20.5181C2.14383 20.5131 2.3447 20.4293 2.49581 20.2836C2.64692 20.1378 2.73714 19.9407 2.74845 19.7317C2.75976 19.5227 2.69133 19.3171 2.55683 19.156C2.42233 18.995 2.23166 18.8903 2.0229 18.8629C1.81414 18.8355 1.60267 18.8874 1.43072 19.0082C1.25876 19.129 1.13899 19.3099 1.09533 19.5146C1.05166 19.7194 1.08732 19.933 1.19517 20.1128C1.30302 20.2926 1.47513 20.4253 1.67712 20.4844H1.69163Z" fill="#00E3CF"/>
<path d="M3.46128 15.809C3.5817 15.8784 3.71846 15.9149 3.85766 15.9147C4.04616 15.9122 4.22849 15.8476 4.37601 15.7309C4.52353 15.6142 4.62789 15.4522 4.6727 15.2701C4.71751 15.0881 4.70023 14.8964 4.62358 14.7252C4.54693 14.554 4.41524 14.413 4.2492 14.3242C4.05091 14.2202 3.81933 14.1982 3.6048 14.263C3.39027 14.3277 3.21015 14.4741 3.10358 14.6702C3.05082 14.7681 3.01821 14.8755 3.00766 14.986C2.99711 15.0966 3.00883 15.2082 3.04213 15.3142C3.07543 15.4202 3.12965 15.5186 3.20162 15.6035C3.27358 15.6885 3.36186 15.7584 3.46128 15.809Z" fill="#00E3CF"/>
<path d="M52.4615 16.6499H43.6881C43.4633 16.6499 43.2476 16.7383 43.0882 16.8959C42.9288 17.0535 42.8386 17.2673 42.8373 17.4908V28.3121H32.9618C32.7362 28.3121 32.5198 28.4012 32.3602 28.5598C32.2007 28.7184 32.1111 28.9335 32.1111 29.1578V31.6468H22.2355C22.1238 31.6468 22.0132 31.6687 21.91 31.7112C21.8067 31.7537 21.713 31.816 21.634 31.8945C21.555 31.9731 21.4923 32.0663 21.4495 32.1689C21.4068 32.2715 21.3848 32.3815 21.3848 32.4926V34.9816H11.4996C11.3869 34.9791 11.2748 34.9989 11.1699 35.04C11.065 35.0812 10.9695 35.1427 10.8889 35.221C10.8083 35.2994 10.7442 35.3929 10.7005 35.4962C10.6568 35.5995 10.6343 35.7105 10.6343 35.8225V38.3116H3.47058C3.32645 38.3118 3.18474 38.3484 3.05874 38.418C2.93275 38.4876 2.82659 38.5878 2.75025 38.7094C2.67391 38.8309 2.62987 38.9697 2.62228 39.1128C2.61468 39.2558 2.64378 39.3985 2.70683 39.5273C4.6401 43.4518 7.47898 46.8666 10.992 49.4933C14.2619 51.9472 18.045 53.6387 22.0615 54.4426C25.7141 55.1793 29.4784 55.1793 33.131 54.4426C39.3804 53.1733 44.997 49.797 49.0303 44.8848C53.0636 39.9727 55.2661 33.8263 55.2651 27.4856C55.2696 23.9511 54.585 20.4493 53.2494 17.1737C53.1846 17.0189 53.0753 16.8866 52.9351 16.7934C52.7949 16.7002 52.6302 16.6503 52.4615 16.6499ZM4.87239 40.003H10.6343V47.057C8.31321 45.059 6.36297 42.6714 4.87239 40.003ZM12.3503 39.1573V36.6682H21.3799V52.5686C18.1257 51.7757 15.0584 50.3589 12.3503 48.3977V39.1573ZM23.0815 52.9193V33.3383H32.1111V52.9193C29.1238 53.4383 26.0687 53.4383 23.0815 52.9193ZM33.8077 32.4926V30.0035H42.8373V48.3977C40.1292 50.3589 37.062 51.7757 33.8077 52.5686V32.4926ZM44.5389 47.0618V18.3365H51.8815C53.7725 23.2947 54.0822 28.7113 52.7686 33.8506C51.4549 38.9898 48.5815 43.6025 44.5389 47.0618Z" fill="#00E3CF"/>
<path d="M55.9617 5.37689C55.9133 5.22638 55.8233 5.09246 55.7019 4.99048C55.5805 4.8885 55.4326 4.82258 55.2753 4.80027L51.1182 4.19963L49.2572 0.480423C49.1789 0.348939 49.0676 0.23999 48.9341 0.16431C48.8006 0.0886291 48.6495 0.0488281 48.4958 0.0488281C48.3422 0.0488281 48.1911 0.0886291 48.0576 0.16431C47.9241 0.23999 47.8128 0.348939 47.7345 0.480423L45.8783 4.19963L41.7212 4.80508C41.5623 4.82431 41.4122 4.88797 41.2882 4.98866C41.1642 5.08935 41.0716 5.22294 41.021 5.3739C40.9703 5.52486 40.9638 5.68701 41.0022 5.84149C41.0406 5.99598 41.1223 6.13647 41.2378 6.24663L44.2445 9.16337L43.5339 13.2766C43.5078 13.432 43.5256 13.5916 43.5853 13.7375C43.645 13.8834 43.7444 14.01 43.8723 14.1031C44.0132 14.2046 44.1817 14.2616 44.3557 14.2665C44.4942 14.2662 44.6304 14.2315 44.752 14.1656L48.4693 12.2435L52.1865 14.1656C52.326 14.2412 52.4843 14.2755 52.6428 14.2644C52.8013 14.2533 52.9533 14.1973 53.0807 14.1031C53.2086 14.01 53.308 13.8834 53.3677 13.7375C53.4275 13.5916 53.4452 13.432 53.4191 13.2766L52.7085 9.16337L55.7442 6.24663C55.8592 6.1368 55.9407 5.99686 55.9792 5.84297C56.0177 5.68908 56.0116 5.5275 55.9617 5.37689ZM51.2294 8.26C51.1314 8.35537 51.0582 8.47299 51.0161 8.60275C50.974 8.73249 50.9642 8.87048 50.9877 9.0048L51.4711 11.8879L48.885 10.5328C48.7628 10.4689 48.6267 10.4354 48.4886 10.4354C48.3505 10.4354 48.2144 10.4689 48.0922 10.5328L45.5158 11.8687L45.9992 8.98558C46.0233 8.85085 46.0134 8.71226 45.9704 8.58227C45.9274 8.45227 45.8525 8.33493 45.7526 8.24078L43.6693 6.24663L46.5696 5.82858C46.7078 5.80791 46.8387 5.75309 46.9502 5.66915C47.0617 5.5852 47.1502 5.4748 47.2076 5.34806L48.5031 2.74366L49.7889 5.34326C49.8463 5.47 49.9349 5.58039 50.0463 5.66434C50.1578 5.74829 50.2887 5.8031 50.427 5.82377L53.3273 6.24182L51.2294 8.26Z" fill="#00E3CF"/>
<path d="M6.31257 28.9031C6.37015 29.0703 6.47898 29.2154 6.62377 29.3179C6.76856 29.4205 6.94204 29.4754 7.11982 29.4749C7.21174 29.4742 7.30302 29.4597 7.39052 29.4316L33.2322 20.6622C33.4221 20.5973 33.5829 20.468 33.6866 20.297L38.7331 12.0129L39.8159 12.6616L39.8981 8.45227L36.1905 10.4897L37.2781 11.1384L32.3863 19.1678L6.83946 27.8171C6.73259 27.8533 6.63403 27.9102 6.54951 27.9846C6.46499 28.0589 6.3962 28.1493 6.34716 28.2504C6.29813 28.3514 6.26981 28.4612 6.26387 28.5733C6.25793 28.6853 6.27449 28.7974 6.31257 28.9031Z" fill="#00E3CF"/>
</svg>
