<svg width="58" height="55" viewBox="0 0 58 55" fill="none" xmlns="http://www.w3.org/2000/svg">
<g clip-path="url(#clip0)">
<path d="M45.8402 4.76825C45.6773 4.93714 45.5861 5.16245 45.5859 5.39693C45.5859 5.62905 45.6783 5.85166 45.8428 6.01579C46.0072 6.17992 46.2302 6.27212 46.4628 6.27212C46.6954 6.27212 46.9184 6.17992 47.0828 6.01579C47.2473 5.85166 47.3397 5.62905 47.3397 5.39693C47.338 5.16418 47.2464 4.94104 47.0839 4.77409C46.9153 4.61716 46.6937 4.52941 46.4632 4.52833C46.2327 4.52725 46.0103 4.61292 45.8402 4.76825Z" fill="#FFC33A"/>
<path d="M41.9433 4.51309C41.7698 4.51309 41.6003 4.56442 41.4561 4.66059C41.3119 4.75676 41.1995 4.89344 41.1332 5.05336C41.0668 5.21328 41.0494 5.38926 41.0833 5.55903C41.1171 5.7288 41.2006 5.88474 41.3232 6.00714C41.4459 6.12954 41.6021 6.21289 41.7722 6.24666C41.9423 6.28043 42.1186 6.2631 42.2788 6.19686C42.4391 6.13062 42.576 6.01844 42.6724 5.87452C42.7687 5.73059 42.8201 5.56138 42.8201 5.38828C42.8211 5.27308 42.7991 5.15884 42.7554 5.05222C42.7116 4.94559 42.6471 4.84873 42.5655 4.76726C42.4839 4.6858 42.3868 4.62137 42.28 4.57773C42.1731 4.53409 42.0587 4.51212 41.9433 4.51309Z" fill="#FFC33A"/>
<path d="M36.7973 4.76838C36.6357 4.93818 36.5448 5.1629 36.543 5.39706C36.543 5.62918 36.6354 5.85179 36.7998 6.01592C36.9642 6.18005 37.1873 6.27226 37.4198 6.27226C37.6524 6.27226 37.8754 6.18005 38.0399 6.01592C38.2043 5.85179 38.2967 5.62918 38.2967 5.39706C38.2986 5.2225 38.2481 5.05135 38.1518 4.90563C38.0555 4.7599 37.9178 4.64625 37.7562 4.57928C37.5947 4.51231 37.4168 4.49509 37.2454 4.52983C37.074 4.56457 36.9169 4.64968 36.7943 4.77422L36.7973 4.76838Z" fill="#FFC33A"/>
<path d="M57.8295 33.5242C57.748 33.4129 57.6413 33.3224 57.5181 33.2601C57.395 33.1977 57.2588 33.1653 57.1207 33.1654H51.6695V0.875192C51.6695 0.643077 51.5771 0.420468 51.4127 0.256338C51.2482 0.0922075 51.0252 0 50.7926 0L5.58167 0C5.34912 0 5.12608 0.0922075 4.96164 0.256338C4.7972 0.420468 4.70481 0.643077 4.70481 0.875192V39.4828H0.875851C0.735161 39.4821 0.59635 39.5151 0.471138 39.5791C0.345926 39.6432 0.237991 39.7363 0.156446 39.8508C0.0749013 39.9652 0.0221413 40.0975 0.00262137 40.2366C-0.0168986 40.3757 -0.00260539 40.5174 0.0442941 40.6498L4.75012 54.4078C4.80911 54.5811 4.92107 54.7316 5.07024 54.8381C5.21941 54.9446 5.39827 55.0017 5.58167 55.0015H50.7912C50.9784 55.0019 51.1608 54.9425 51.3117 54.832C51.4627 54.7215 51.5742 54.5657 51.6301 54.3874L57.9581 34.3075C58 34.1761 58.0102 34.0366 57.9879 33.9005C57.9655 33.7644 57.9112 33.6354 57.8295 33.5242ZM6.46 1.75038H49.9114V9.02469H6.46V1.75038ZM6.46 10.7751H49.9114V33.1654H40.2659C39.2033 33.1609 38.1712 33.5205 37.3424 34.1843C36.5135 34.848 35.938 35.7756 35.7121 36.812C35.5458 37.5726 35.123 38.2532 34.5145 38.7401C33.9059 39.227 33.1483 39.4908 32.3683 39.4872H31.2839L34.6014 25.2712H43.6798L41.0039 29.0856C40.9377 29.1799 40.8908 29.2863 40.8658 29.3988C40.8408 29.5112 40.8382 29.6275 40.8582 29.7409C40.8783 29.8544 40.9205 29.9628 40.9825 30.0599C41.0444 30.1571 41.125 30.2411 41.2195 30.3072C41.314 30.3733 41.4207 30.4201 41.5333 30.4451C41.646 30.47 41.7625 30.4726 41.8761 30.4526C41.9898 30.4326 42.0984 30.3905 42.1957 30.3286C42.2931 30.2668 42.3773 30.1864 42.4435 30.092L46.0883 24.8963C46.0979 24.8797 46.1067 24.8627 46.1146 24.8453C46.1266 24.8303 46.1378 24.8147 46.1482 24.7986C46.1584 24.7796 46.1614 24.7592 46.1701 24.7388C46.2009 24.666 46.2221 24.5895 46.233 24.5112C46.2381 24.472 46.2411 24.4326 46.2417 24.3931C46.2411 24.354 46.2381 24.3151 46.233 24.2764C46.2221 24.1981 46.2009 24.1216 46.1701 24.0488C46.1614 24.0284 46.1584 24.008 46.1482 23.989C46.138 23.9701 46.1248 23.9584 46.1146 23.9409C46.1044 23.9234 46.1 23.9073 46.0883 23.8913L40.3565 15.7228C40.3492 15.7141 40.3375 15.7112 40.3317 15.7024C40.2509 15.594 40.1461 15.5057 40.0254 15.4444C39.9047 15.3832 39.7714 15.3507 39.636 15.3494H16.7047C16.5438 15.3489 16.3859 15.3926 16.2483 15.4757C16.1106 15.5588 15.9985 15.6781 15.9243 15.8206C15.9147 15.8449 15.9064 15.8697 15.8994 15.895L10.286 23.8869C10.2743 23.903 10.27 23.9205 10.2597 23.9365C10.2495 23.9526 10.2349 23.9671 10.2261 23.9846C10.2173 24.0021 10.2144 24.024 10.2057 24.0444C10.189 24.0812 10.1753 24.1193 10.1647 24.1582C10.1547 24.1957 10.1469 24.2336 10.1414 24.272C10.1355 24.3106 10.1325 24.3496 10.1326 24.3887C10.1325 24.4282 10.1355 24.4677 10.1414 24.5068C10.1469 24.5452 10.1547 24.5832 10.1647 24.6206C10.1753 24.6596 10.189 24.6976 10.2057 24.7344C10.2144 24.7548 10.2159 24.7752 10.2261 24.7942C10.2365 24.8103 10.2477 24.8259 10.2597 24.8409C10.2676 24.8583 10.2764 24.8754 10.286 24.8919L20.5234 39.4785H6.46V10.7751ZM22.6702 39.4828L12.6945 25.2668H21.7393L25.0787 39.4828H22.6702ZM33.9014 22.8542L29.8576 17.0954H37.9452L33.9014 22.8542ZM39.6331 17.7489L43.6769 23.5135H35.5893L39.6331 17.7489ZM32.212 23.5135H24.1244L28.1696 17.7504L32.212 23.5135ZM22.4539 22.8367L18.4262 17.0954H26.4802L22.4539 22.8367ZM20.7514 23.512H12.6945L16.7207 17.7722L20.7514 23.512ZM26.8894 39.4828L23.5515 25.2668H32.7936L29.4761 39.4828H26.8894ZM50.1452 53.2409H6.21009L2.10492 41.2376H32.3654C33.5448 41.2435 34.6906 40.8455 35.6114 40.1098C36.5322 39.3742 37.1724 38.3456 37.4249 37.1957C37.5661 36.5502 37.925 35.9727 38.4415 35.5596C38.9581 35.1465 39.6011 34.9228 40.263 34.926H55.9223L50.1452 53.2409Z" fill="#FFC33A"/>
<path d="M41.3915 41.2376H49.0845C49.3171 41.2376 49.5401 41.1454 49.7045 40.9812C49.869 40.8171 49.9614 40.5945 49.9614 40.3624C49.9614 40.1303 49.869 39.9077 49.7045 39.7435C49.5401 39.5794 49.3171 39.4872 49.0845 39.4872H41.3915C41.159 39.4872 40.9359 39.5794 40.7715 39.7435C40.607 39.9077 40.5146 40.1303 40.5146 40.3624C40.5146 40.5945 40.607 40.8171 40.7715 40.9812C40.9359 41.1454 41.159 41.2376 41.3915 41.2376Z" fill="#FFC33A"/>
</g>
<defs>
<clipPath id="clip0">
<rect width="58" height="55" fill="white"/>
</clipPath>
</defs>
</svg>
