<svg width="56" height="58" viewBox="0 0 56 58" fill="none" xmlns="http://www.w3.org/2000/svg">
<path d="M48.9529 0H7.00587C5.21992 0.0104523 3.50455 0.698623 2.20656 1.92539C0.908569 3.15215 0.124786 4.82599 0.0136635 6.60852C-0.0974587 8.39104 0.472371 10.1493 1.60795 11.5277C2.74353 12.9062 4.36015 13.8021 6.13097 14.0343V56.6525C6.13097 56.8845 6.22315 57.107 6.38722 57.2711C6.5513 57.4352 6.77383 57.5274 7.00587 57.5274H55.1371C55.367 57.5242 55.5865 57.4306 55.748 57.2669C55.9095 57.1032 56 56.8824 56 56.6525V7.0471C55.9968 5.17907 55.2534 3.38845 53.9325 2.06755C52.6116 0.746647 50.8209 0.00316885 48.9529 0V0ZM1.66062 7.0471C1.66378 5.63996 2.22417 4.29136 3.21917 3.29636C4.21417 2.30136 5.56277 1.74097 6.96991 1.73781H44.2668C43.5107 2.40035 42.9048 3.21675 42.4897 4.13239C42.0746 5.04802 41.8598 6.04176 41.8598 7.0471C41.8598 8.05244 42.0746 9.04618 42.4897 9.96181C42.9048 10.8774 43.5107 11.6939 44.2668 12.3564H6.96991C5.56277 12.3532 4.21417 11.7928 3.21917 10.7978C2.22417 9.80284 1.66378 8.45424 1.66062 7.0471ZM54.2622 55.7776H7.84481V14.0942H48.9529C49.0756 14.1086 49.1999 14.0969 49.3177 14.0599C49.4356 14.0228 49.5442 13.9612 49.6365 13.8791C49.7288 13.797 49.8027 13.6963 49.8533 13.5836C49.9039 13.4709 49.93 13.3488 49.93 13.2253C49.93 13.1018 49.9039 12.9797 49.8533 12.867C49.8027 12.7543 49.7288 12.6536 49.6365 12.5715C49.5442 12.4894 49.4356 12.4278 49.3177 12.3907C49.1999 12.3537 49.0756 12.342 48.9529 12.3564C47.9028 12.3564 46.8763 12.045 46.0032 11.4616C45.1301 10.8782 44.4496 10.049 44.0478 9.07888C43.6459 8.10873 43.5408 7.04121 43.7456 6.01131C43.9505 4.98141 44.4561 4.03538 45.1987 3.29286C45.9412 2.55034 46.8872 2.04468 47.9171 1.83982C48.947 1.63496 50.0145 1.7401 50.9847 2.14195C51.9548 2.5438 52.784 3.22431 53.3674 4.09741C53.9508 4.97052 54.2622 5.99702 54.2622 7.0471V55.7776Z" fill="#FF566D"/>
<path d="M15.0835 28.7637H14.2086V27.8888C14.2086 27.6568 14.1164 27.4343 13.9523 27.2702C13.7883 27.1061 13.5657 27.0139 13.3337 27.0139C13.1037 27.0171 12.8843 27.1106 12.7228 27.2744C12.5613 27.4381 12.4708 27.6589 12.4708 27.8888V29.6266C12.4692 29.741 12.4903 29.8545 12.533 29.9605C12.5757 30.0666 12.639 30.1632 12.7192 30.2446C12.7995 30.326 12.8952 30.3906 13.0007 30.4347C13.1062 30.4788 13.2194 30.5015 13.3337 30.5015H15.0835C15.2062 30.516 15.3305 30.5043 15.4483 30.4672C15.5661 30.4301 15.6748 30.3685 15.7671 30.2864C15.8594 30.2043 15.9333 30.1036 15.9839 29.9909C16.0345 29.8783 16.0606 29.7561 16.0606 29.6326C16.0606 29.5091 16.0345 29.387 15.9839 29.2743C15.9333 29.1616 15.8594 29.0609 15.7671 28.9788C15.6748 28.8968 15.5661 28.8352 15.4483 28.7981C15.3305 28.761 15.2062 28.7493 15.0835 28.7637Z" fill="#FF566D"/>
<path d="M24.0594 28.7638H20.2961C20.0832 28.7889 19.887 28.8912 19.7445 29.0513C19.6021 29.2115 19.5234 29.4184 19.5234 29.6327C19.5234 29.8471 19.6021 30.0539 19.7445 30.2141C19.887 30.3743 20.0832 30.4766 20.2961 30.5016H24.0833C24.206 30.5161 24.3303 30.5044 24.4482 30.4673C24.566 30.4302 24.6746 30.3686 24.7669 30.2865C24.8592 30.2044 24.9331 30.1037 24.9837 29.991C25.0343 29.8784 25.0604 29.7562 25.0604 29.6327C25.0604 29.5092 25.0343 29.3871 24.9837 29.2744C24.9331 29.1617 24.8592 29.061 24.7669 28.9789C24.6746 28.8969 24.566 28.8352 24.4482 28.7982C24.3303 28.7611 24.206 28.7494 24.0833 28.7638H24.0594Z" fill="#FF566D"/>
<path d="M33.0356 30.4536C33.1582 30.4681 33.2826 30.4564 33.4004 30.4193C33.5182 30.3822 33.6269 30.3206 33.7192 30.2385C33.8115 30.1564 33.8853 30.0557 33.9359 29.9431C33.9865 29.8304 34.0127 29.7083 34.0127 29.5847C34.0127 29.4612 33.9865 29.3391 33.9359 29.2264C33.8853 29.1137 33.8115 29.013 33.7192 28.9309C33.6269 28.8489 33.5182 28.7873 33.4004 28.7502C33.2826 28.7131 33.1582 28.7014 33.0356 28.7158H29.2603C29.1376 28.7014 29.0133 28.7131 28.8955 28.7502C28.7777 28.7873 28.669 28.8489 28.5767 28.9309C28.4844 29.013 28.4105 29.1137 28.3599 29.2264C28.3094 29.3391 28.2832 29.4612 28.2832 29.5847C28.2832 29.7083 28.3094 29.8304 28.3599 29.9431C28.4105 30.0557 28.4844 30.1564 28.5767 30.2385C28.669 30.3206 28.7777 30.3822 28.8955 30.4193C29.0133 30.4564 29.1376 30.4681 29.2603 30.4536H33.0356Z" fill="#FF566D"/>
<path d="M38.2759 30.4536H42.0512C42.1739 30.4681 42.2982 30.4564 42.416 30.4193C42.5338 30.3822 42.6425 30.3206 42.7348 30.2385C42.8271 30.1564 42.901 30.0557 42.9516 29.9431C43.0021 29.8304 43.0283 29.7083 43.0283 29.5847C43.0283 29.4612 43.0021 29.3391 42.9516 29.2264C42.901 29.1137 42.8271 29.013 42.7348 28.9309C42.6425 28.8489 42.5338 28.7873 42.416 28.7502C42.2982 28.7131 42.1739 28.7014 42.0512 28.7158H38.2759C38.1533 28.7014 38.0289 28.7131 37.9111 28.7502C37.7933 28.7873 37.6846 28.8489 37.5923 28.9309C37.5 29.013 37.4262 29.1137 37.3756 29.2264C37.325 29.3391 37.2988 29.4612 37.2988 29.5847C37.2988 29.7083 37.325 29.8304 37.3756 29.9431C37.4262 30.0557 37.5 30.1564 37.5923 30.2385C37.6846 30.3206 37.7933 30.3822 37.9111 30.4193C38.0289 30.4564 38.1533 30.4681 38.2759 30.4536Z" fill="#FF566D"/>
<path d="M47.2134 30.4535H48.9513C49.1833 30.4535 49.4058 30.3614 49.5699 30.1973C49.734 30.0332 49.8261 29.8107 49.8261 29.5786V27.8408C49.8261 27.6088 49.734 27.3863 49.5699 27.2222C49.4058 27.0581 49.1833 26.9659 48.9513 26.9659C48.7192 26.9659 48.4967 27.0581 48.3326 27.2222C48.1685 27.3863 48.0764 27.6088 48.0764 27.8408V28.7637H47.2134C47.0908 28.7492 46.9664 28.7609 46.8486 28.798C46.7308 28.8351 46.6221 28.8967 46.5298 28.9788C46.4375 29.0609 46.3637 29.1616 46.3131 29.2742C46.2625 29.3869 46.2363 29.5091 46.2363 29.6326C46.2363 29.7561 46.2625 29.8782 46.3131 29.9909C46.3637 30.1036 46.4375 30.2043 46.5298 30.2864C46.6221 30.3684 46.7308 30.43 46.8486 30.4671C46.9664 30.5042 47.0908 30.5159 47.2134 30.5015V30.4535Z" fill="#FF566D"/>
<path d="M47.2167 20.518H48.0796V21.3929C48.0796 21.6249 48.1718 21.8475 48.3359 22.0115C48.4999 22.1756 48.7225 22.2678 48.9545 22.2678C49.1865 22.2678 49.4091 22.1756 49.5731 22.0115C49.7372 21.8475 49.8294 21.6249 49.8294 21.3929V19.6431C49.8262 19.4131 49.7327 19.1937 49.5689 19.0322C49.4052 18.8707 49.1845 18.7802 48.9545 18.7802H47.2167C46.9867 18.7802 46.766 18.8707 46.6022 19.0322C46.4385 19.1937 46.3449 19.4131 46.3418 19.6431C46.3418 19.758 46.3644 19.8718 46.4084 19.9779C46.4524 20.084 46.5168 20.1805 46.598 20.2617C46.6793 20.343 46.7757 20.4074 46.8819 20.4514C46.988 20.4954 47.1018 20.518 47.2167 20.518Z" fill="#FF566D"/>
<path d="M38.2733 20.5181H42.0486C42.1635 20.5181 42.2772 20.4954 42.3834 20.4515C42.4895 20.4075 42.586 20.3431 42.6672 20.2618C42.7484 20.1806 42.8129 20.0841 42.8569 19.978C42.9008 19.8718 42.9235 19.7581 42.9235 19.6432C42.9203 19.4132 42.8267 19.1938 42.663 19.0323C42.4993 18.8708 42.2785 18.7802 42.0486 18.7803H38.2733C38.159 18.7787 38.0455 18.7998 37.9394 18.8425C37.8333 18.8851 37.7368 18.9484 37.6554 19.0287C37.574 19.109 37.5094 19.2047 37.4652 19.3102C37.4211 19.4156 37.3984 19.5288 37.3984 19.6432C37.3984 19.7581 37.4211 19.8718 37.465 19.978C37.509 20.0841 37.5734 20.1806 37.6547 20.2618C37.7359 20.3431 37.8324 20.4075 37.9385 20.4515C38.0447 20.4954 38.1584 20.5181 38.2733 20.5181Z" fill="#FF566D"/>
<path d="M24.0598 18.7802H20.2965C20.0676 18.7802 19.8482 18.8711 19.6863 19.033C19.5245 19.1948 19.4336 19.4143 19.4336 19.6431C19.4336 19.8731 19.5241 20.0938 19.6856 20.2576C19.8471 20.4213 20.0665 20.5149 20.2965 20.518H24.0837C24.1986 20.518 24.3124 20.4954 24.4185 20.4514C24.5247 20.4075 24.6211 20.343 24.7024 20.2618C24.7836 20.1805 24.8481 20.0841 24.892 19.9779C24.936 19.8718 24.9586 19.758 24.9586 19.6431C24.9571 19.5272 24.9325 19.4127 24.8863 19.3064C24.8402 19.2 24.7733 19.1039 24.6897 19.0236C24.6061 18.9434 24.5073 18.8805 24.3992 18.8387C24.291 18.7969 24.1756 18.777 24.0598 18.7802Z" fill="#FF566D"/>
<path d="M29.2616 20.5181H33.0368C33.1517 20.5181 33.2655 20.4954 33.3717 20.4515C33.4778 20.4075 33.5743 20.3431 33.6555 20.2618C33.7367 20.1806 33.8012 20.0841 33.8451 19.978C33.8891 19.8718 33.9117 19.7581 33.9117 19.6432C33.9086 19.4132 33.815 19.1938 33.6513 19.0323C33.4876 18.8708 33.2668 18.7802 33.0368 18.7803H29.2616C29.1473 18.7787 29.0338 18.7998 28.9277 18.8425C28.8216 18.8851 28.7251 18.9484 28.6437 19.0287C28.5623 19.109 28.4976 19.2047 28.4535 19.3102C28.4094 19.4156 28.3867 19.5288 28.3867 19.6432C28.3867 19.7581 28.4093 19.8718 28.4533 19.978C28.4973 20.0841 28.5617 20.1806 28.643 20.2618C28.7242 20.3431 28.8207 20.4075 28.9268 20.4515C29.033 20.4954 29.1467 20.5181 29.2616 20.5181Z" fill="#FF566D"/>
<path d="M15.0834 18.7802H13.3336C13.2203 18.7802 13.1081 18.8025 13.0034 18.8459C12.8987 18.8892 12.8036 18.9528 12.7234 19.0329C12.6433 19.1131 12.5798 19.2082 12.5364 19.3129C12.493 19.4176 12.4707 19.5298 12.4707 19.6431V21.3929C12.4707 21.6229 12.5612 21.8436 12.7227 22.0073C12.8842 22.1711 13.1037 22.2646 13.3336 22.2678C13.5656 22.2678 13.7882 22.1756 13.9523 22.0115C14.1163 21.8475 14.2085 21.6249 14.2085 21.3929V20.518H15.0834C15.1983 20.518 15.3121 20.4954 15.4182 20.4514C15.5244 20.4074 15.6208 20.343 15.702 20.2617C15.7833 20.1805 15.8477 20.084 15.8917 19.9779C15.9357 19.8718 15.9583 19.758 15.9583 19.6431C15.9551 19.4131 15.8616 19.1937 15.6978 19.0322C15.5341 18.8707 15.3134 18.7802 15.0834 18.7802Z" fill="#FF566D"/>
<path d="M48.9548 34.3605H29.6112C29.3792 34.3605 29.1567 34.4527 28.9926 34.6168C28.8285 34.7808 28.7363 35.0034 28.7363 35.2354C28.7363 35.4675 28.8285 35.69 28.9926 35.8541C29.1567 36.0181 29.3792 36.1103 29.6112 36.1103H48.9548C49.1868 36.1103 49.4094 36.0181 49.5734 35.8541C49.7375 35.69 49.8297 35.4675 49.8297 35.2354C49.8297 35.0034 49.7375 34.7808 49.5734 34.6168C49.4094 34.4527 49.1868 34.3605 48.9548 34.3605Z" fill="#FF566D"/>
<path d="M15.0834 49.2697H14.2085V48.3948C14.2054 48.1648 14.1118 47.9454 13.9481 47.7839C13.7843 47.6224 13.5636 47.5319 13.3336 47.5319C13.2203 47.5319 13.1081 47.5542 13.0034 47.5976C12.8987 47.6409 12.8036 47.7045 12.7234 47.7846C12.6433 47.8647 12.5798 47.9599 12.5364 48.0646C12.493 48.1693 12.4707 48.2815 12.4707 48.3948V50.1446C12.4707 50.3746 12.5612 50.5953 12.7227 50.759C12.8842 50.9228 13.1037 51.0163 13.3336 51.0195H15.0834C15.3154 51.0195 15.538 50.9273 15.702 50.7632C15.8661 50.5991 15.9583 50.3766 15.9583 50.1446C15.9583 49.9125 15.8661 49.69 15.702 49.5259C15.538 49.3619 15.3154 49.2697 15.0834 49.2697Z" fill="#FF566D"/>
<path d="M24.0365 47.532C23.8077 47.532 23.5882 47.6229 23.4264 47.7847C23.2645 47.9465 23.1736 48.166 23.1736 48.3949V49.2698H22.2987C22.0667 49.2698 21.8442 49.3619 21.6801 49.526C21.516 49.6901 21.4238 49.9126 21.4238 50.1447C21.4238 50.3767 21.516 50.5992 21.6801 50.7633C21.8442 50.9274 22.0667 51.0196 22.2987 51.0196H24.0365C24.2686 51.0196 24.4911 50.9274 24.6552 50.7633C24.8192 50.5992 24.9114 50.3767 24.9114 50.1447V48.3949C24.9114 48.2805 24.8887 48.1673 24.8446 48.0619C24.8005 47.9564 24.7359 47.8607 24.6545 47.7804C24.5731 47.7001 24.4765 47.6368 24.3704 47.5942C24.2644 47.5515 24.1509 47.5304 24.0365 47.532Z" fill="#FF566D"/>
<path d="M24.0349 40.5449C23.805 40.548 23.5855 40.6416 23.424 40.8053C23.2625 40.9691 23.172 41.1898 23.172 41.4198V43.9606C23.1576 44.0833 23.1693 44.2076 23.2064 44.3254C23.2434 44.4432 23.305 44.5519 23.3871 44.6442C23.4692 44.7365 23.5699 44.8104 23.6826 44.8609C23.7953 44.9115 23.9174 44.9377 24.0409 44.9377C24.1644 44.9377 24.2866 44.9115 24.3992 44.8609C24.5119 44.8104 24.6126 44.7365 24.6947 44.6442C24.7768 44.5519 24.8384 44.4432 24.8755 44.3254C24.9125 44.2076 24.9242 44.0833 24.9098 43.9606V41.4198C24.9098 41.1877 24.8176 40.9652 24.6536 40.8011C24.4895 40.6371 24.267 40.5449 24.0349 40.5449Z" fill="#FF566D"/>
<path d="M24.0365 34.3605H22.2987C22.0667 34.3605 21.8442 34.4527 21.6801 34.6168C21.516 34.7808 21.4238 35.0034 21.4238 35.2354C21.4238 35.4675 21.516 35.69 21.6801 35.8541C21.8442 36.0181 22.0667 36.1103 22.2987 36.1103H23.1736V36.9852C23.1987 37.1981 23.301 37.3943 23.4611 37.5368C23.6213 37.6792 23.8282 37.7579 24.0425 37.7579C24.2569 37.7579 24.4637 37.6792 24.6239 37.5368C24.7841 37.3943 24.8864 37.1981 24.9114 36.9852V35.2354C24.9114 35.0034 24.8192 34.7808 24.6552 34.6168C24.4911 34.4527 24.2686 34.3605 24.0365 34.3605Z" fill="#FF566D"/>
<path d="M15.0834 34.3605H13.3336C13.1037 34.3637 12.8842 34.4572 12.7227 34.621C12.5612 34.7847 12.4707 35.0054 12.4707 35.2354V36.9852C12.4707 37.0985 12.493 37.2107 12.5364 37.3154C12.5798 37.4201 12.6433 37.5152 12.7234 37.5954C12.8036 37.6755 12.8987 37.7391 13.0034 37.7824C13.1081 37.8258 13.2203 37.8481 13.3336 37.8481C13.5636 37.8481 13.7843 37.7576 13.9481 37.5961C14.1118 37.4346 14.2054 37.2152 14.2085 36.9852V36.1103H15.0834C15.3154 36.1103 15.538 36.0181 15.702 35.8541C15.8661 35.69 15.9583 35.4675 15.9583 35.2354C15.9583 35.0034 15.8661 34.7808 15.702 34.6168C15.538 34.4527 15.3154 34.3605 15.0834 34.3605Z" fill="#FF566D"/>
<path d="M13.3336 44.8355C13.5656 44.8355 13.7882 44.7433 13.9523 44.5792C14.1163 44.4151 14.2085 44.1926 14.2085 43.9606V41.4198C14.2085 41.1877 14.1163 40.9652 13.9523 40.8011C13.7882 40.6371 13.5656 40.5449 13.3336 40.5449C13.1037 40.548 12.8842 40.6416 12.7227 40.8053C12.5612 40.9691 12.4707 41.1898 12.4707 41.4198V43.9606C12.4707 44.1906 12.5612 44.4113 12.7227 44.575C12.8842 44.7388 13.1037 44.8323 13.3336 44.8355Z" fill="#FF566D"/>
<path d="M44.6043 39.3344H29.6112C29.3792 39.3344 29.1567 39.4266 28.9926 39.5907C28.8285 39.7547 28.7363 39.9773 28.7363 40.2093C28.7395 40.4393 28.833 40.6587 28.9968 40.8202C29.1605 40.9817 29.3812 41.0722 29.6112 41.0722H44.6043C44.8331 41.0722 45.0526 40.9813 45.2145 40.8195C45.3763 40.6576 45.4672 40.4382 45.4672 40.2093C45.4672 39.9793 45.3767 39.7586 45.2152 39.5949C45.0537 39.4311 44.8342 39.3376 44.6043 39.3344Z" fill="#FF566D"/>
<path d="M48.3402 49.5214C48.1928 49.6862 48.1113 49.8995 48.1113 50.1206C48.1113 50.3417 48.1928 50.5551 48.3402 50.7199C48.5046 50.8783 48.7231 50.9683 48.9514 50.9715C49.1859 50.9695 49.4099 50.8747 49.5747 50.7079C49.7342 50.5442 49.8243 50.3252 49.8263 50.0966C49.8226 49.8649 49.7329 49.6428 49.5747 49.4734C49.3994 49.3274 49.1762 49.2515 48.9482 49.2604C48.7203 49.2692 48.5037 49.3622 48.3402 49.5214Z" fill="#FF566D"/>
<path d="M44.1232 49.2697C43.9497 49.2673 43.7794 49.3166 43.6339 49.4113C43.4885 49.506 43.3745 49.6418 43.3064 49.8014C43.2384 49.961 43.2193 50.1373 43.2517 50.3078C43.2841 50.4783 43.3665 50.6353 43.4883 50.7589C43.6102 50.8824 43.7661 50.967 43.9361 51.0017C44.1061 51.0364 44.2826 51.0198 44.4432 50.954C44.6038 50.8881 44.7411 50.776 44.8378 50.6319C44.9345 50.4878 44.9861 50.3181 44.9861 50.1446C44.9877 50.0303 44.9666 49.9168 44.9239 49.8107C44.8813 49.7046 44.8179 49.6081 44.7377 49.5267C44.6574 49.4453 44.5617 49.3806 44.4562 49.3365C44.3507 49.2924 44.2375 49.2697 44.1232 49.2697Z" fill="#FF566D"/>
<path d="M39.2792 49.2699C39.1062 49.2699 38.937 49.3212 38.7931 49.4173C38.6492 49.5135 38.5371 49.6501 38.4709 49.81C38.4047 49.9699 38.3873 50.1458 38.4211 50.3155C38.4549 50.4852 38.5382 50.6411 38.6605 50.7634C38.7829 50.8858 38.9388 50.9691 39.1085 51.0029C39.2782 51.0366 39.4541 51.0193 39.614 50.9531C39.7739 50.8869 39.9105 50.7747 40.0066 50.6309C40.1028 50.487 40.1541 50.3178 40.1541 50.1448C40.1541 49.9128 40.0619 49.6902 39.8978 49.5261C39.7338 49.3621 39.5112 49.2699 39.2792 49.2699Z" fill="#FF566D"/>
<path d="M34.4393 49.2699C34.2073 49.2699 33.9848 49.3621 33.8207 49.5261C33.6566 49.6902 33.5645 49.9128 33.5645 50.1448C33.5645 50.3768 33.6566 50.5994 33.8207 50.7634C33.9848 50.9275 34.2073 51.0197 34.4393 51.0197C34.6714 51.0197 34.8939 50.9275 35.058 50.7634C35.2221 50.5994 35.3142 50.3768 35.3142 50.1448C35.3142 49.9128 35.2221 49.6902 35.058 49.5261C34.8939 49.3621 34.6714 49.2699 34.4393 49.2699Z" fill="#FF566D"/>
<path d="M29 49.5215C28.8332 49.6863 28.7384 49.9103 28.7363 50.1448C28.7383 50.3733 28.8285 50.5923 28.988 50.756C29.0692 50.8391 29.1661 50.9052 29.2731 50.9505C29.3801 50.9958 29.495 51.0193 29.6112 51.0197C29.7257 51.0197 29.839 50.9964 29.9441 50.951C30.0492 50.9057 30.1439 50.8393 30.2225 50.756C30.3042 50.6769 30.3687 50.5818 30.412 50.4766C30.4553 50.3714 30.4765 50.2585 30.4741 50.1448C30.4753 50.0294 30.4537 49.915 30.4105 49.808C30.3673 49.7011 30.3034 49.6037 30.2225 49.5215C30.055 49.37 29.8371 49.286 29.6112 49.286C29.3853 49.286 29.1675 49.37 29 49.5215Z" fill="#FF566D"/>
<path d="M28.9961 44.5597C28.9119 44.64 28.845 44.7368 28.7997 44.844C28.7543 44.9512 28.7314 45.0665 28.7325 45.1829C28.7324 45.2972 28.7552 45.4104 28.7993 45.5159C28.8434 45.6214 28.908 45.7171 28.9894 45.7974C29.0708 45.8776 29.1674 45.941 29.2734 45.9836C29.3795 46.0263 29.493 46.0474 29.6073 46.0458C29.8359 46.0438 30.0549 45.9537 30.2186 45.7941C30.3685 45.6306 30.4516 45.4168 30.4516 45.1949C30.4516 44.973 30.3685 44.7592 30.2186 44.5957C30.0584 44.4339 29.8421 44.34 29.6145 44.3333C29.387 44.3266 29.1656 44.4076 28.9961 44.5597Z" fill="#FF566D"/>
<path d="M44.1217 44.3442C43.999 44.3297 43.8746 44.3414 43.7568 44.3785C43.639 44.4156 43.5304 44.4772 43.438 44.5593C43.3457 44.6414 43.2719 44.742 43.2213 44.8547C43.1707 44.9674 43.1445 45.0895 43.1445 45.2131C43.1445 45.3366 43.1707 45.4587 43.2213 45.5714C43.2719 45.6841 43.3457 45.7848 43.438 45.8668C43.5304 45.9489 43.639 46.0105 43.7568 46.0476C43.8746 46.0847 43.999 46.0964 44.1217 46.082C44.3345 46.0569 44.5308 45.9546 44.6732 45.7944C44.8156 45.6343 44.8943 45.4274 44.8943 45.2131C44.8943 44.9987 44.8156 44.7918 44.6732 44.6317C44.5308 44.4715 44.3345 44.3692 44.1217 44.3442Z" fill="#FF566D"/>
<path d="M39.2792 44.344C39.1062 44.344 38.937 44.3953 38.7931 44.4915C38.6492 44.5876 38.5371 44.7242 38.4709 44.8841C38.4047 45.044 38.3873 45.2199 38.4211 45.3896C38.4549 45.5593 38.5382 45.7152 38.6605 45.8376C38.7829 45.9599 38.9388 46.0432 39.1085 46.077C39.2782 46.1107 39.4541 46.0934 39.614 46.0272C39.7739 45.961 39.9105 45.8488 40.0066 45.705C40.1028 45.5611 40.1541 45.3919 40.1541 45.2189C40.1541 44.9869 40.0619 44.7643 39.8978 44.6003C39.7338 44.4362 39.5112 44.344 39.2792 44.344Z" fill="#FF566D"/>
<path d="M34.4393 44.344C34.2663 44.344 34.0972 44.3953 33.9533 44.4915C33.8094 44.5876 33.6973 44.7242 33.6311 44.8841C33.5648 45.044 33.5475 45.2199 33.5813 45.3896C33.615 45.5593 33.6983 45.7152 33.8207 45.8376C33.9431 45.9599 34.099 46.0432 34.2687 46.077C34.4384 46.1107 34.6143 46.0934 34.7742 46.0272C34.934 45.961 35.0707 45.8488 35.1668 45.705C35.2629 45.5611 35.3142 45.3919 35.3142 45.2189C35.3142 44.9869 35.2221 44.7643 35.058 44.6003C34.8939 44.4362 34.6714 44.344 34.4393 44.344Z" fill="#FF566D"/>
<path d="M48.3419 44.5598C48.2592 44.6408 48.1942 44.7379 48.1509 44.8451C48.1076 44.9524 48.0869 45.0674 48.0902 45.1831C48.0909 45.4119 48.1813 45.6313 48.3419 45.7943C48.5062 45.9528 48.7248 46.0427 48.9531 46.046C49.0674 46.0476 49.1809 46.0264 49.287 45.9838C49.3931 45.9411 49.4896 45.8778 49.571 45.7975C49.6524 45.7172 49.7171 45.6216 49.7612 45.5161C49.8053 45.4106 49.828 45.2974 49.828 45.1831C49.8291 44.9503 49.7387 44.7265 49.5763 44.5598C49.4081 44.4049 49.1878 44.3188 48.9591 44.3188C48.7304 44.3188 48.5101 44.4049 48.3419 44.5598Z" fill="#FF566D"/>
</svg>
