<svg width="63" height="52" viewBox="0 0 63 52" fill="none" xmlns="http://www.w3.org/2000/svg">
<path d="M61.7398 1.25244H1.25977V41.9557H61.7398V1.25244Z" stroke="#01C2E6" stroke-width="2"/>
<path d="M56.6998 6.26208H6.2998V36.9461H56.6998V6.26208Z" stroke="#01C2E6" stroke-width="2"/>
<path d="M35.3937 21.604L31.5003 23.8396L27.6006 26.0751V21.604V17.1329L31.5003 19.3685L35.3937 21.604Z" stroke="#01C2E6" stroke-width="2"/>
<path d="M9.76465 48.0612H15.3023" stroke="#01C2E6" stroke-width="2"/>
<path d="M22.5225 48.0612H56.2527" stroke="#01C2E6" stroke-width="2"/>
<path d="M59.4277 48.0612H62.9998" stroke="#01C2E6" stroke-width="2"/>
<path d="M1.25977 45.7881V50.3281" stroke="#01C2E6" stroke-width="2"/>
<path d="M5.04004 45.7881V50.3281" stroke="#01C2E6" stroke-width="2"/>
<path d="M21.13 48.0612C21.1288 48.5923 20.9692 49.111 20.6715 49.552C20.3737 49.993 19.9512 50.3363 19.4572 50.5387C18.9633 50.741 18.42 50.7933 17.8962 50.689C17.3723 50.5846 16.8913 50.3283 16.514 49.9523C16.1366 49.5764 15.8799 49.0977 15.7761 48.5767C15.6723 48.0558 15.7262 47.516 15.9309 47.0255C16.1357 46.5349 16.4821 46.1158 16.9264 45.8208C17.3707 45.5259 17.893 45.3685 18.4273 45.3685C19.1447 45.3702 19.8321 45.6546 20.3388 46.1594C20.8455 46.6642 21.13 47.3482 21.13 48.0612V48.0612Z" stroke="#01C2E6" stroke-width="2"/>
</svg>
