<svg width="56" height="56" viewBox="0 0 56 56" fill="none" xmlns="http://www.w3.org/2000/svg">
<g clip-path="url(#clip0_1826_1050)">
<path d="M20.5321 26.1333C23.6277 26.1311 26.1353 23.6239 26.133 20.5345C26.1353 17.4428 23.6277 14.9356 20.5321 14.9333M20.5321 26.1333V25.3833H20.5316M20.5321 26.1333L20.5316 25.3833M20.5321 26.1333H5.59863M20.5316 25.3833C23.2142 25.3814 25.385 23.209 25.383 20.535V20.5339C25.385 17.8575 23.214 15.6853 20.5316 15.6833M20.5316 25.3833H5.59974M20.5316 15.6833H20.5321V14.9333M20.5316 15.6833L20.5321 14.9333M20.5316 15.6833H5.60147M20.5321 14.9333H5.60092M5.60092 14.9333L5.60147 15.6833M5.60092 14.9333V15.6833H5.60147M5.60092 14.9333L5.59974 25.3833M5.60147 15.6833C2.91882 15.6853 0.748026 17.8577 0.750006 20.5316L0.750007 20.5333C0.746046 23.2066 2.91644 25.3794 5.59974 25.3833M5.59974 25.3833L5.59863 26.1333M5.59974 25.3833H5.59863V26.1333M5.59974 25.3833L6.2527e-06 20.5322C-0.00456966 23.6216 2.50303 26.1288 5.59863 26.1333M15.6835 5.5983C15.6815 2.92423 17.85 0.752417 20.5318 0.75C23.2171 0.754415 25.3873 2.92723 25.3853 5.60059V5.60114V10.4477H20.5349C17.8523 10.4457 15.6815 8.27336 15.6835 5.59941L15.6835 5.5983Z" stroke="#FFC33A" stroke-width="1.5"/>
<path d="M44.7984 25.3833V26.1333H45.5484V25.3833H44.7984ZM50.3988 15.6833C50.399 15.6833 50.3992 15.6833 50.3993 15.6833C50.3995 15.6833 50.3997 15.6833 50.3999 15.6833L50.3993 14.9333L50.3988 15.6833ZM50.3988 25.3833L50.3993 26.1333V25.3833H50.3988ZM40.3168 20.5322V20.5327C40.3187 23.2088 38.1483 25.3808 35.4663 25.3833C32.7833 25.3791 30.6132 23.2064 30.6172 20.5333V20.5322L30.6172 5.59886L30.6172 5.5983C30.6152 2.92463 32.7856 0.752417 35.4679 0.75C38.1505 0.754414 40.3187 2.92683 40.3168 5.5983V5.59886V20.5322ZM29.8672 5.59886V20.5322V5.59886ZM41.0668 20.5322V5.59886V20.5322Z" stroke="#FFC33A" stroke-width="1.5"/>
<path d="M50.3996 41.0645C53.4952 41.0622 56.0028 38.5551 56.0005 35.4656C56.0051 32.3762 53.4975 29.8691 50.4019 29.8645M50.3996 41.0645V40.3145H50.3991M50.3996 41.0645L50.3991 40.3145M50.3996 41.0645H35.4661L35.4684 29.8645M50.3991 40.3145C53.0817 40.3125 55.2525 38.1401 55.2505 35.4662L55.2505 35.4645C55.2545 32.7914 53.0844 30.6188 50.4014 30.6145M50.3991 40.3145H35.4667C32.7846 40.3125 30.6155 38.1407 30.6175 35.4639L30.6175 35.4628C30.6155 32.7889 32.7862 30.6166 35.4688 30.6145M50.4014 30.6145H50.4019V29.8645M50.4014 30.6145C50.4012 30.6145 50.401 30.6145 50.4008 30.6145L50.4019 29.8645M50.4014 30.6145H35.4688M50.4019 29.8645H35.4684M35.4684 29.8645L35.469 30.6145C35.4689 30.6145 35.4688 30.6145 35.4688 30.6145M35.4684 29.8645V30.6145H35.4688M30.6152 50.4013V45.5524H35.4656C38.1482 45.5544 40.319 47.7268 40.3171 50.4007L40.3171 50.4018C40.319 53.0754 38.1488 55.2476 35.4667 55.2501C32.7835 55.2458 30.6133 53.073 30.6152 50.4018V50.4013ZM41.0671 50.4013C41.0693 47.3118 38.5617 44.8047 35.4661 44.8024L29.8652 50.4013C29.8629 53.4884 32.3705 55.9955 35.4661 56.0001C38.5617 55.9978 41.0693 53.4907 41.0671 50.4013Z" stroke="#FFC33A" stroke-width="1.5"/>
<mask id="path-4-inside-1_1826_1050" fill="white">
<path fill-rule="evenodd" clip-rule="evenodd" d="M1.56442e-06 35.4656C-0.00228639 38.555 2.50531 41.0621 5.60092 41.0644C8.69653 41.0621 11.2041 38.555 11.2018 35.4656V29.8667H5.60092C2.50531 29.869 -0.00228639 32.3761 1.56442e-06 35.4656ZM14.9335 35.4656V50.3989C14.9289 53.4883 17.4365 55.9955 20.5321 56.0001C23.6277 55.9978 26.1353 53.4906 26.133 50.4012V35.4701C26.1376 32.3807 23.63 29.8735 20.5344 29.869C17.4365 29.869 14.9312 32.3761 14.9335 35.4656C14.9335 35.4678 14.9335 35.4656 14.9335 35.4656Z"/>
</mask>
<path d="M1.56442e-06 35.4656L1.5 35.4667L1.5 35.4645L1.56442e-06 35.4656ZM5.60092 41.0644L5.59981 42.5644L5.60203 42.5644L5.60092 41.0644ZM11.2018 35.4656H9.70184L9.70184 35.4667L11.2018 35.4656ZM11.2018 29.8667H12.7018V28.3667H11.2018V29.8667ZM5.60092 29.8667V28.3667L5.59981 28.3667L5.60092 29.8667ZM14.9335 35.4656H16.4335V35.4645L14.9335 35.4656ZM14.9335 50.3989L16.4335 50.4011V50.3989H14.9335ZM20.5321 56.0001L20.5299 57.5001L20.5332 57.5001L20.5321 56.0001ZM26.133 50.4012H24.633V50.4023L26.133 50.4012ZM26.133 35.4701L24.633 35.4679V35.4701H26.133ZM20.5344 29.869L20.5366 28.369H20.5344V29.869ZM-1.5 35.4645C-1.5029 39.3848 1.67831 42.5615 5.59981 42.5644L5.60203 39.5644C3.33232 39.5628 1.49833 37.7251 1.5 35.4667L-1.5 35.4645ZM5.60203 42.5644C9.52354 42.5615 12.7047 39.3848 12.7018 35.4645L9.70184 35.4667C9.70351 37.7251 7.86952 39.5628 5.59981 39.5644L5.60203 42.5644ZM12.7018 35.4656V29.8667H9.70184V35.4656H12.7018ZM11.2018 28.3667H5.60092V31.3667H11.2018V28.3667ZM5.59981 28.3667C1.67831 28.3696 -1.5029 31.5463 -1.5 35.4667L1.5 35.4645C1.49833 33.206 3.33232 31.3684 5.60203 31.3667L5.59981 28.3667ZM13.4335 35.4656V50.3989H16.4335V35.4656H13.4335ZM13.4335 50.3967C13.4277 54.3184 16.6097 57.4943 20.5299 57.5001L20.5343 54.5001C18.2633 54.4967 16.4302 52.6583 16.4335 50.4011L13.4335 50.3967ZM20.5332 57.5001C24.4547 57.4972 27.636 54.3205 27.633 50.4001L24.633 50.4023C24.6347 52.6608 22.8007 54.4984 20.531 54.5001L20.5332 57.5001ZM27.633 50.4012V35.4701H24.633V50.4012H27.633ZM27.633 35.4724C27.6389 31.5507 24.4568 28.3748 20.5366 28.369L20.5322 31.369C22.8032 31.3723 24.6364 33.2107 24.6331 35.4679L27.633 35.4724ZM20.5344 28.369C16.6091 28.369 13.4306 31.5469 13.4335 35.4667L16.4335 35.4645C16.4318 33.2054 18.2639 31.369 20.5344 31.369V28.369ZM14.9335 35.4656C13.4335 35.4656 13.4335 35.4656 13.4335 35.4656C13.4335 35.4656 13.4335 35.4656 13.4335 35.4656C13.4335 35.4656 13.4335 35.4656 13.4335 35.4656C13.4335 35.4656 13.4335 35.4656 13.4335 35.4656V35.4656V35.4656V35.4656C13.4335 35.4656 13.4335 35.4656 13.4335 35.4656C13.4335 35.4656 13.4335 35.4656 13.4335 35.4656V35.4656C13.4335 35.4656 13.4335 35.4656 13.4335 35.4656V35.4656C13.4335 35.4656 13.4335 35.4656 13.4335 35.4656C13.4335 35.4656 13.4335 35.4656 13.4335 35.4656C13.4335 35.4656 13.4335 35.4656 13.4335 35.4656C13.4335 35.4656 13.4335 35.4656 13.4335 35.4656C13.4335 35.4656 13.4335 35.4656 13.4335 35.4656C13.4335 35.4656 13.4335 35.4656 13.4335 35.4656C13.4335 35.4656 13.4335 35.4656 13.4335 35.4656C13.4335 35.4656 13.4335 35.4656 13.4335 35.4656C13.4335 35.4656 13.4335 35.4656 13.4335 35.4656C13.4335 35.4656 13.4335 35.4656 13.4335 35.4656C13.4335 35.4656 13.4335 35.4656 13.4335 35.4656C13.4335 35.4656 13.4335 35.4656 13.4335 35.4656C13.4335 35.4656 13.4335 35.4656 13.4335 35.4656C13.4335 35.4656 13.4335 35.4656 13.4335 35.4656C13.4335 35.4656 13.4335 35.4656 13.4335 35.4656C13.4335 35.4656 13.4335 35.4656 13.4335 35.4656C13.4335 35.4656 13.4335 35.4656 13.4335 35.4656C13.4335 35.4656 13.4335 35.4656 13.4335 35.4656C13.4335 35.4656 13.4335 35.4656 13.4335 35.4656C13.4335 35.4656 13.4335 35.4656 13.4335 35.4656C13.4335 35.4656 13.4335 35.4656 13.4335 35.4656C13.4335 35.4656 13.4335 35.4656 13.4335 35.4656C13.4335 35.4656 13.4335 35.4656 13.4335 35.4656C13.4335 35.4656 13.4335 35.4656 13.4335 35.4656C13.4335 35.4656 13.4335 35.4656 13.4335 35.4656C13.4335 35.4656 13.4335 35.4656 13.4335 35.4656C13.4335 35.4656 13.4335 35.4656 13.4335 35.4656C13.4335 35.4656 13.4335 35.4656 13.4335 35.4656C13.4335 35.4656 13.4335 35.4656 13.4335 35.4656C13.4335 35.4656 13.4335 35.4656 13.4335 35.4656C13.4335 35.4656 13.4335 35.4656 13.4335 35.4656C13.4335 35.4656 13.4335 35.4656 13.4335 35.4656C13.4335 35.4656 13.4335 35.4656 13.4335 35.4656C13.4335 35.4656 13.4335 35.4656 13.4335 35.4656C13.4335 35.4656 13.4335 35.4656 13.4335 35.4656C13.4335 35.4656 13.4335 35.4656 13.4335 35.4656C13.4335 35.4656 13.4335 35.4656 13.4335 35.4656C13.4335 35.4656 13.4335 35.4656 13.4335 35.4656C13.4335 35.4656 13.4335 35.4656 13.4335 35.4656C13.4335 35.4656 13.4335 35.4656 13.4335 35.4656C13.4335 35.4656 13.4335 35.4656 13.4335 35.4656C13.4335 35.4656 13.4335 35.4656 13.4335 35.4656C13.4335 35.4656 13.4335 35.4656 13.4335 35.4656C13.4335 35.4656 13.4335 35.4656 13.4335 35.4656C13.4335 35.4656 13.4335 35.4656 13.4335 35.4657C13.4335 35.4657 13.4335 35.4657 13.4335 35.4657C13.4335 35.4657 13.4335 35.4657 13.4335 35.4657C13.4335 35.4657 13.4335 35.4657 13.4335 35.4657C13.4335 35.4657 13.4335 35.4657 13.4335 35.4657C13.4335 35.4657 13.4335 35.4657 13.4335 35.4657C13.4335 35.4657 13.4335 35.4657 13.4335 35.4657C13.4335 35.4657 13.4335 35.4657 13.4335 35.4657C13.4335 35.4657 13.4335 35.4657 13.4335 35.4657C13.4335 35.4657 13.4335 35.4657 13.4335 35.4657C13.4335 35.4657 13.4335 35.4657 13.4335 35.4657C13.4335 35.4657 13.4335 35.4657 13.4335 35.4657C13.4335 35.4657 13.4335 35.4657 13.4335 35.4657C13.4335 35.4657 13.4335 35.4657 13.4335 35.4657C13.4335 35.4657 13.4335 35.4657 13.4335 35.4657C13.4335 35.4657 13.4335 35.4657 13.4335 35.4657C13.4335 35.4657 13.4335 35.4657 13.4335 35.4657C13.4335 35.4657 13.4335 35.4657 13.4335 35.4657C13.4335 35.4657 13.4335 35.4657 13.4335 35.4657C13.4335 35.4657 13.4335 35.4657 13.4335 35.4657C13.4335 35.4657 13.4335 35.4657 13.4335 35.4657C13.4335 35.4657 13.4335 35.4657 13.4335 35.4657C13.4335 35.4657 13.4335 35.4657 13.4335 35.4657C13.4335 35.4657 13.4335 35.4657 13.4335 35.4657C13.4335 35.4657 13.4335 35.4657 13.4335 35.4657C13.4335 35.4657 13.4335 35.4657 13.4335 35.4657C13.4335 35.4657 13.4335 35.4657 13.4335 35.4657C13.4335 35.4657 13.4335 35.4657 13.4335 35.4657C13.4335 35.4657 13.4335 35.4657 13.4335 35.4657C13.4335 35.4657 13.4335 35.4657 13.4335 35.4657C13.4335 35.4657 13.4335 35.4657 13.4335 35.4657C13.4335 35.4657 13.4335 35.4657 13.4335 35.4657C13.4335 35.4657 13.4335 35.4657 13.4335 35.4657C13.4335 35.4658 13.4335 35.4658 13.4335 35.4658C13.4335 35.4658 13.4335 35.4658 13.4335 35.4658C13.4335 35.4658 13.4335 35.4658 13.4335 35.4658C13.4335 35.4658 13.4335 35.4658 13.4335 35.4658C13.4335 35.4658 13.4335 35.4658 13.4335 35.4658C13.4335 35.4658 13.4335 35.4658 13.4335 35.4658C13.4335 35.4658 13.4335 35.4658 13.4335 35.4658C13.4335 35.4658 13.4335 35.4658 13.4335 35.4658C13.4335 35.4658 13.4335 35.4658 13.4335 35.4658C13.4335 35.4658 13.4335 35.4658 13.4335 35.4658C13.4335 35.4658 13.4335 35.4658 13.4335 35.4658C13.4335 35.4658 13.4335 35.4658 13.4335 35.4658C13.4335 35.4658 13.4335 35.4658 13.4335 35.4658C13.4335 35.4658 13.4335 35.4658 13.4335 35.4658C13.4335 35.4658 13.4335 35.4658 13.4335 35.4658C13.4335 35.4658 13.4335 35.4658 13.4335 35.4658C13.4335 35.4658 13.4335 35.4658 13.4335 35.4658C13.4335 35.4658 13.4335 35.4658 13.4335 35.4658C13.4335 35.4658 13.4335 35.4658 13.4335 35.4658C13.4335 35.4658 13.4335 35.4658 13.4335 35.4658C13.4335 35.4658 13.4335 35.4658 13.4335 35.4658C13.4335 35.4658 13.4335 35.4658 13.4335 35.4658C13.4335 35.4658 13.4335 35.4658 13.4335 35.4658C13.4335 35.4658 13.4335 35.4658 13.4335 35.4658C13.4335 35.4658 13.4335 35.4658 13.4335 35.4658C13.4335 35.4658 13.4335 35.4658 13.4335 35.4658C13.4335 35.4658 13.4335 35.4659 13.4335 35.4659C13.4335 35.4659 13.4335 35.4659 13.4335 35.4659C13.4335 35.4659 13.4335 35.4659 13.4335 35.4659C13.4335 35.4659 13.4335 35.4659 13.4335 35.4659C13.4335 35.4659 13.4335 35.4659 13.4335 35.4659C13.4335 35.4659 13.4335 35.4659 13.4335 35.4659C13.4335 35.4659 13.4335 35.4659 13.4335 35.4659C13.4335 35.4659 13.4335 35.4659 13.4335 35.4659C13.4335 35.4659 13.4335 35.4659 13.4335 35.4659C13.4335 35.4659 13.4335 35.4659 13.4335 35.4659C13.4335 35.4659 13.4335 35.4659 13.4335 35.4659C13.4335 35.4659 13.4335 35.4659 13.4335 35.4659C13.4335 35.4659 13.4335 35.4659 13.4335 35.4659C13.4335 35.4659 13.4335 35.4659 13.4335 35.4659C13.4335 35.4659 13.4335 35.4659 13.4335 35.4659C13.4335 35.4659 13.4335 35.4659 13.4335 35.4659C13.4335 35.4659 13.4335 35.4659 13.4335 35.4659C13.4335 35.4659 13.4335 35.4659 13.4335 35.4659C13.4335 35.4659 13.4335 35.4659 13.4335 35.4659C13.4335 35.4659 13.4335 35.4659 13.4335 35.4659C13.4335 35.4659 13.4335 35.4659 13.4335 35.4659C13.4335 35.4659 13.4335 35.4659 13.4335 35.4659C13.4335 35.4659 13.4335 35.4659 13.4335 35.4659C13.4335 35.4659 13.4335 35.4659 13.4335 35.4659C13.4335 35.466 13.4335 35.466 13.4335 35.466C13.4335 35.466 13.4335 35.466 13.4335 35.466C13.4335 35.466 13.4335 35.466 13.4335 35.466C13.4335 35.466 13.4335 35.466 13.4335 35.466C13.4335 35.466 13.4335 35.466 13.4335 35.466C13.4335 35.466 13.4335 35.466 13.4335 35.466C13.4335 35.466 13.4335 35.466 13.4335 35.466C13.4335 35.466 13.4335 35.466 13.4335 35.466C13.4335 35.466 13.4335 35.466 13.4335 35.466C13.4335 35.466 13.4335 35.466 13.4335 35.466C13.4335 35.466 13.4335 35.466 13.4335 35.466C13.4335 35.466 13.4335 35.466 13.4335 35.466C13.4335 35.466 13.4335 35.466 13.4335 35.466C13.4335 35.466 13.4335 35.466 13.4335 35.466C13.4335 35.466 13.4335 35.466 13.4335 35.466C13.4335 35.466 13.4335 35.466 13.4335 35.466C13.4335 35.466 13.4335 35.466 13.4335 35.466C13.4335 35.466 13.4335 35.466 13.4335 35.466C13.4335 35.466 13.4335 35.466 13.4335 35.466C13.4335 35.466 13.4335 35.466 13.4335 35.466C13.4335 35.466 13.4335 35.466 13.4335 35.466C13.4335 35.466 13.4335 35.466 13.4335 35.466C13.4335 35.466 13.4335 35.466 13.4335 35.4661C13.4335 35.4661 13.4335 35.4661 13.4335 35.4661C13.4335 35.4661 13.4335 35.4661 13.4335 35.4661C13.4335 35.4661 13.4335 35.4661 13.4335 35.4661C13.4335 35.4661 13.4335 35.4661 13.4335 35.4661C13.4335 35.4661 13.4335 35.4661 13.4335 35.4661C13.4335 35.4661 13.4335 35.4661 13.4335 35.4661C13.4335 35.4661 13.4335 35.4661 13.4335 35.4661C13.4335 35.4661 13.4335 35.4661 13.4335 35.4661C13.4335 35.4661 13.4335 35.4661 13.4335 35.4661C13.4335 35.4661 13.4335 35.4661 13.4335 35.4661C13.4335 35.4661 13.4335 35.4661 13.4335 35.4661C13.4335 35.4661 13.4335 35.4661 13.4335 35.4661C13.4335 35.4661 13.4335 35.4661 13.4335 35.4661C13.4335 35.4661 13.4335 35.4661 13.4335 35.4661C13.4335 35.4661 13.4335 35.4661 13.4335 35.4661C13.4335 35.4661 13.4335 35.4661 13.4335 35.4661C13.4335 35.4661 13.4335 35.4661 13.4335 35.4661C13.4335 35.4661 13.4335 35.4661 13.4335 35.4661C13.4335 35.4661 13.4335 35.4661 13.4335 35.4661C13.4335 35.4661 13.4335 35.4661 13.4335 35.4661C13.4335 35.4661 13.4335 35.4661 13.4335 35.4661C13.4335 35.4661 13.4335 35.4661 13.4335 35.4661C13.4335 35.4662 13.4335 35.4662 13.4335 35.4662C13.4335 35.4662 13.4335 35.4662 13.4335 35.4662C13.4335 35.4662 13.4335 35.4662 13.4335 35.4662C13.4335 35.4662 13.4335 35.4662 13.4335 35.4662C13.4335 35.4662 13.4335 35.4662 13.4335 35.4662C13.4335 35.4662 13.4335 35.4662 13.4335 35.4662C13.4335 35.4662 13.4335 35.4662 13.4335 35.4662C13.4335 35.4662 13.4335 35.4662 13.4335 35.4662C13.4335 35.4662 13.4335 35.4662 13.4335 35.4662C13.4335 35.4662 13.4335 35.4662 13.4335 35.4662C13.4335 35.4662 13.4335 35.4662 13.4335 35.4662C13.4335 35.4662 13.4335 35.4662 13.4335 35.4662C13.4335 35.4662 13.4335 35.4662 13.4335 35.4662C13.4335 35.4662 13.4335 35.4662 13.4335 35.4662C13.4335 35.4662 13.4335 35.4662 13.4335 35.4662C13.4335 35.4662 13.4335 35.4662 13.4335 35.4662C13.4335 35.4662 13.4335 35.4662 13.4335 35.4662C13.4335 35.4662 13.4335 35.4662 13.4335 35.4662C13.4335 35.4662 13.4335 35.4662 13.4335 35.4662C13.4335 35.4662 13.4335 35.4662 13.4335 35.4662C13.4335 35.4662 13.4335 35.4662 13.4335 35.4662C13.4335 35.4662 13.4335 35.4662 13.4335 35.4662C13.4335 35.4662 13.4335 35.4662 13.4335 35.4662C13.4335 35.4662 13.4335 35.4663 13.4335 35.4663C13.4335 35.4663 13.4335 35.4663 13.4335 35.4663C13.4335 35.4663 13.4335 35.4663 13.4335 35.4663C13.4335 35.4663 13.4335 35.4663 13.4335 35.4663C13.4335 35.4663 13.4335 35.4663 13.4335 35.4663C13.4335 35.4663 13.4335 35.4663 13.4335 35.4663C13.4335 35.4663 13.4335 35.4663 13.4335 35.4663C13.4335 35.4663 13.4335 35.4663 13.4335 35.4663C13.4335 35.4663 13.4335 35.4663 13.4335 35.4663C13.4335 35.4663 13.4335 35.4663 13.4335 35.4663C13.4335 35.4663 13.4335 35.4663 13.4335 35.4663C13.4335 35.4663 13.4335 35.4663 13.4335 35.4663C13.4335 35.4663 13.4335 35.4663 13.4335 35.4663C13.4335 35.4663 13.4335 35.4663 13.4335 35.4663C13.4335 35.4663 13.4335 35.4663 13.4335 35.4663C13.4335 35.4663 13.4335 35.4663 13.4335 35.4663C13.4335 35.4663 13.4335 35.4663 13.4335 35.4663C13.4335 35.4663 13.4335 35.4663 13.4335 35.4663C13.4335 35.4663 13.4335 35.4663 13.4335 35.4663C13.4335 35.4663 13.4335 35.4663 13.4335 35.4663C13.4335 35.4663 13.4335 35.4663 13.4335 35.4663C13.4335 35.4663 13.4335 35.4663 13.4335 35.4663C13.4335 35.4663 13.4335 35.4663 13.4335 35.4663C13.4335 35.4663 13.4335 35.4663 13.4335 35.4663C13.4335 35.4663 13.4335 35.4663 13.4335 35.4663C13.4335 35.4664 13.4335 35.4664 13.4335 35.4664C13.4335 35.4664 13.4335 35.4664 13.4335 35.4664C13.4335 35.4664 13.4335 35.4664 13.4335 35.4664C13.4335 35.4664 13.4335 35.4664 13.4335 35.4664C13.4335 35.4664 13.4335 35.4664 13.4335 35.4664C13.4335 35.4664 13.4335 35.4664 13.4335 35.4664C13.4335 35.4664 13.4335 35.4664 13.4335 35.4664C13.4335 35.4664 13.4335 35.4664 13.4335 35.4664C13.4335 35.4664 13.4335 35.4664 13.4335 35.4664C13.4335 35.4664 13.4335 35.4664 13.4335 35.4664C13.4335 35.4664 13.4335 35.4664 13.4335 35.4664C13.4335 35.4664 13.4335 35.4664 13.4335 35.4664C13.4335 35.4664 13.4335 35.4664 13.4335 35.4664C13.4335 35.4664 13.4335 35.4664 13.4335 35.4664C13.4335 35.4664 13.4335 35.4664 13.4335 35.4664C13.4335 35.4664 13.4335 35.4664 13.4335 35.4664C13.4335 35.4664 13.4335 35.4664 13.4335 35.4664C13.4335 35.4664 13.4335 35.4664 13.4335 35.4664C13.4335 35.4664 13.4335 35.4664 13.4335 35.4664C13.4335 35.4664 13.4335 35.4664 13.4335 35.4664C13.4335 35.4664 13.4335 35.4664 13.4335 35.4664C13.4335 35.4664 13.4335 35.4664 13.4335 35.4664C13.4335 35.4664 13.4335 35.4664 13.4335 35.4664C13.4335 35.4664 13.4335 35.4664 13.4335 35.4664C13.4335 35.4664 13.4335 35.4664 13.4335 35.4664C13.4335 35.4664 13.4335 35.4664 13.4335 35.4664C13.4335 35.4664 13.4335 35.4664 13.4335 35.4664C13.4335 35.4664 13.4335 35.4664 13.4335 35.4664C13.4335 35.4664 13.4335 35.4664 13.4335 35.4664C13.4335 35.4665 13.4335 35.4665 13.4335 35.4665C13.4335 35.4665 13.4335 35.4665 13.4335 35.4665C13.4335 35.4665 13.4335 35.4665 13.4335 35.4665C13.4335 35.4665 13.4335 35.4665 13.4335 35.4665C13.4335 35.4665 13.4335 35.4665 13.4335 35.4665C13.4335 35.4665 13.4335 35.4665 13.4335 35.4665C13.4335 35.4665 13.4335 35.4665 13.4335 35.4665C13.4335 35.4665 13.4335 35.4665 13.4335 35.4665C13.4335 35.4665 13.4335 35.4665 13.4335 35.4665C13.4335 35.4665 13.4335 35.4665 13.4335 35.4665C13.4335 35.4665 13.4335 35.4665 13.4335 35.4665C13.4335 35.4665 13.4335 35.4665 13.4335 35.4665C13.4335 35.4665 13.4335 35.4665 13.4335 35.4665C13.4335 35.4665 13.4335 35.4665 13.4335 35.4665C13.4335 35.4665 13.4335 35.4665 13.4335 35.4665C13.4335 35.4665 13.4335 35.4665 13.4335 35.4665C13.4335 35.4665 13.4335 35.4665 13.4335 35.4665C13.4335 35.4665 13.4335 35.4665 13.4335 35.4665C13.4335 35.4665 13.4335 35.4665 13.4335 35.4665C13.4335 35.4665 13.4335 35.4665 13.4335 35.4665C13.4335 35.4665 13.4335 35.4665 13.4335 35.4665C13.4335 35.4665 13.4335 35.4665 13.4335 35.4665C13.4335 35.4665 13.4335 35.4665 13.4335 35.4665C13.4335 35.4665 13.4335 35.4665 13.4335 35.4665C13.4335 35.4665 13.4335 35.4665 13.4335 35.4665C13.4335 35.4665 13.4335 35.4665 13.4335 35.4665C13.4335 35.4665 13.4335 35.4665 13.4335 35.4665C13.4335 35.4665 13.4335 35.4665 13.4335 35.4665C13.4335 35.4665 13.4335 35.4665 13.4335 35.4665C13.4335 35.4665 13.4335 35.4665 13.4335 35.4665C13.4335 35.4665 13.4335 35.4665 13.4335 35.4665C13.4335 35.4665 13.4335 35.4665 13.4335 35.4665C13.4335 35.4665 13.4335 35.4665 13.4335 35.4665C13.4335 35.4665 13.4335 35.4665 13.4335 35.4665C13.4335 35.4665 13.4335 35.4665 13.4335 35.4665C13.4335 35.4665 13.4335 35.4665 13.4335 35.4665C13.4335 35.4665 13.4335 35.4665 13.4335 35.4665C13.4335 35.4665 13.4335 35.4665 13.4335 35.4665C13.4335 35.4665 13.4335 35.4665 13.4335 35.4665C13.4335 35.4665 13.4335 35.4665 13.4335 35.4665C13.4335 35.4665 13.4335 35.4665 13.4335 35.4665C13.4335 35.4665 13.4335 35.4666 13.4335 35.4666C13.4335 35.4666 13.4335 35.4666 13.4335 35.4666C13.4335 35.4666 13.4335 35.4666 13.4335 35.4666C13.4335 35.4666 13.4335 35.4666 13.4335 35.4666C13.4335 35.4666 13.4335 35.4666 13.4335 35.4666C13.4335 35.4666 13.4335 35.4666 13.4335 35.4666C13.4335 35.4666 13.4335 35.4666 13.4335 35.4666C13.4335 35.4666 13.4335 35.4666 13.4335 35.4666C13.4335 35.4666 13.4335 35.4666 13.4335 35.4666C13.4335 35.4666 13.4335 35.4666 13.4335 35.4666C13.4335 35.4666 13.4335 35.4666 13.4335 35.4666C13.4335 35.4666 13.4335 35.4666 13.4335 35.4666C13.4335 35.4666 13.4335 35.4666 13.4335 35.4666C13.4335 35.4666 13.4335 35.4666 13.4335 35.4666C13.4335 35.4666 13.4335 35.4666 13.4335 35.4666C13.4335 35.4666 13.4335 35.4666 13.4335 35.4666C13.4335 35.4666 13.4335 35.4666 13.4335 35.4666C13.4335 35.4666 13.4335 35.4666 13.4335 35.4666C13.4335 35.4666 13.4335 35.4666 13.4335 35.4666V35.4666C13.4335 35.4666 13.4335 35.4666 13.4335 35.4666C13.4335 35.4666 13.4335 35.4666 13.4335 35.4666C13.4335 35.4666 13.4335 35.4666 13.4335 35.4666V35.4666V35.4666C13.4335 35.4666 13.4335 35.4666 13.4335 35.4666C13.4335 35.4666 13.4335 35.4666 13.4335 35.4666C13.4335 35.4666 13.4335 35.4666 13.4335 35.4666V35.4666C13.4335 35.4666 13.4335 35.4666 13.4335 35.4666V35.4666C14.9335 35.4666 16.4335 35.4666 16.4335 35.4666C16.4335 35.4666 16.4335 35.4666 16.4335 35.4666V35.4666C16.4335 35.4666 16.4335 35.4666 16.4335 35.4666C16.4335 35.4666 16.4335 35.4666 16.4335 35.4666C16.4335 35.4666 16.4335 35.4666 16.4335 35.4666C16.4335 35.4666 16.4335 35.4666 16.4335 35.4666C16.4335 35.4666 16.4335 35.4666 16.4335 35.4666V35.4666C16.4335 35.4666 16.4335 35.4666 16.4335 35.4666V35.4666C16.4335 35.4666 16.4335 35.4666 16.4335 35.4666C16.4335 35.4666 16.4335 35.4666 16.4335 35.4666C16.4335 35.4666 16.4335 35.4666 16.4335 35.4666C16.4335 35.4666 16.4335 35.4666 16.4335 35.4666C16.4335 35.4666 16.4335 35.4666 16.4335 35.4666C16.4335 35.4666 16.4335 35.4666 16.4335 35.4666C16.4335 35.4666 16.4335 35.4666 16.4335 35.4666C16.4335 35.4666 16.4335 35.4666 16.4335 35.4666C16.4335 35.4666 16.4335 35.4666 16.4335 35.4666C16.4335 35.4666 16.4335 35.4666 16.4335 35.4666C16.4335 35.4666 16.4335 35.4666 16.4335 35.4666C16.4335 35.4666 16.4335 35.4666 16.4335 35.4666C16.4335 35.4666 16.4335 35.4666 16.4335 35.4666C16.4335 35.4666 16.4335 35.4666 16.4335 35.4666C16.4335 35.4666 16.4335 35.4666 16.4335 35.4666C16.4335 35.4666 16.4335 35.4666 16.4335 35.4666C16.4335 35.4666 16.4335 35.4666 16.4335 35.4666C16.4335 35.4666 16.4335 35.4666 16.4335 35.4665C16.4335 35.4665 16.4335 35.4665 16.4335 35.4665C16.4335 35.4665 16.4335 35.4665 16.4335 35.4665C16.4335 35.4665 16.4335 35.4665 16.4335 35.4665C16.4335 35.4665 16.4335 35.4665 16.4335 35.4665C16.4335 35.4665 16.4335 35.4665 16.4335 35.4665C16.4335 35.4665 16.4335 35.4665 16.4335 35.4665C16.4335 35.4665 16.4335 35.4665 16.4335 35.4665C16.4335 35.4665 16.4335 35.4665 16.4335 35.4665C16.4335 35.4665 16.4335 35.4665 16.4335 35.4665C16.4335 35.4665 16.4335 35.4665 16.4335 35.4665C16.4335 35.4665 16.4335 35.4665 16.4335 35.4665C16.4335 35.4665 16.4335 35.4665 16.4335 35.4665C16.4335 35.4665 16.4335 35.4665 16.4335 35.4665C16.4335 35.4665 16.4335 35.4665 16.4335 35.4665C16.4335 35.4665 16.4335 35.4665 16.4335 35.4665C16.4335 35.4665 16.4335 35.4665 16.4335 35.4665C16.4335 35.4665 16.4335 35.4665 16.4335 35.4665C16.4335 35.4665 16.4335 35.4665 16.4335 35.4665C16.4335 35.4665 16.4335 35.4665 16.4335 35.4665C16.4335 35.4665 16.4335 35.4665 16.4335 35.4665C16.4335 35.4665 16.4335 35.4665 16.4335 35.4665C16.4335 35.4665 16.4335 35.4665 16.4335 35.4665C16.4335 35.4665 16.4335 35.4665 16.4335 35.4665C16.4335 35.4665 16.4335 35.4665 16.4335 35.4665C16.4335 35.4665 16.4335 35.4665 16.4335 35.4665C16.4335 35.4665 16.4335 35.4665 16.4335 35.4665C16.4335 35.4665 16.4335 35.4665 16.4335 35.4665C16.4335 35.4665 16.4335 35.4665 16.4335 35.4665C16.4335 35.4665 16.4335 35.4665 16.4335 35.4665C16.4335 35.4665 16.4335 35.4665 16.4335 35.4665C16.4335 35.4665 16.4335 35.4665 16.4335 35.4665C16.4335 35.4665 16.4335 35.4665 16.4335 35.4665C16.4335 35.4665 16.4335 35.4665 16.4335 35.4665C16.4335 35.4665 16.4335 35.4664 16.4335 35.4664C16.4335 35.4664 16.4335 35.4664 16.4335 35.4664C16.4335 35.4664 16.4335 35.4664 16.4335 35.4664C16.4335 35.4664 16.4335 35.4664 16.4335 35.4664C16.4335 35.4664 16.4335 35.4664 16.4335 35.4664C16.4335 35.4664 16.4335 35.4664 16.4335 35.4664C16.4335 35.4664 16.4335 35.4664 16.4335 35.4664C16.4335 35.4664 16.4335 35.4664 16.4335 35.4664C16.4335 35.4664 16.4335 35.4664 16.4335 35.4664C16.4335 35.4664 16.4335 35.4664 16.4335 35.4664C16.4335 35.4664 16.4335 35.4664 16.4335 35.4664C16.4335 35.4664 16.4335 35.4664 16.4335 35.4664C16.4335 35.4664 16.4335 35.4664 16.4335 35.4664C16.4335 35.4664 16.4335 35.4664 16.4335 35.4664C16.4335 35.4664 16.4335 35.4664 16.4335 35.4664C16.4335 35.4664 16.4335 35.4664 16.4335 35.4664C16.4335 35.4664 16.4335 35.4664 16.4335 35.4664C16.4335 35.4664 16.4335 35.4664 16.4335 35.4664C16.4335 35.4664 16.4335 35.4664 16.4335 35.4664C16.4335 35.4664 16.4335 35.4664 16.4335 35.4664C16.4335 35.4664 16.4335 35.4664 16.4335 35.4664C16.4335 35.4663 16.4335 35.4663 16.4335 35.4663C16.4335 35.4663 16.4335 35.4663 16.4335 35.4663C16.4335 35.4663 16.4335 35.4663 16.4335 35.4663C16.4335 35.4663 16.4335 35.4663 16.4335 35.4663C16.4335 35.4663 16.4335 35.4663 16.4335 35.4663C16.4335 35.4663 16.4335 35.4663 16.4335 35.4663C16.4335 35.4663 16.4335 35.4663 16.4335 35.4663C16.4335 35.4663 16.4335 35.4663 16.4335 35.4663C16.4335 35.4663 16.4335 35.4663 16.4335 35.4663C16.4335 35.4663 16.4335 35.4663 16.4335 35.4663C16.4335 35.4663 16.4335 35.4663 16.4335 35.4663C16.4335 35.4663 16.4335 35.4663 16.4335 35.4663C16.4335 35.4663 16.4335 35.4663 16.4335 35.4663C16.4335 35.4663 16.4335 35.4663 16.4335 35.4663C16.4335 35.4663 16.4335 35.4663 16.4335 35.4663C16.4335 35.4663 16.4335 35.4663 16.4335 35.4662C16.4335 35.4662 16.4335 35.4662 16.4335 35.4662C16.4335 35.4662 16.4335 35.4662 16.4335 35.4662C16.4335 35.4662 16.4335 35.4662 16.4335 35.4662C16.4335 35.4662 16.4335 35.4662 16.4335 35.4662C16.4335 35.4662 16.4335 35.4662 16.4335 35.4662C16.4335 35.4662 16.4335 35.4662 16.4335 35.4662C16.4335 35.4662 16.4335 35.4662 16.4335 35.4662C16.4335 35.4662 16.4335 35.4662 16.4335 35.4662C16.4335 35.4662 16.4335 35.4662 16.4335 35.4662C16.4335 35.4662 16.4335 35.4662 16.4335 35.4662C16.4335 35.4662 16.4335 35.4662 16.4335 35.4662C16.4335 35.4662 16.4335 35.4662 16.4335 35.4662C16.4335 35.4662 16.4335 35.4662 16.4335 35.4662C16.4335 35.4661 16.4335 35.4661 16.4335 35.4661C16.4335 35.4661 16.4335 35.4661 16.4335 35.4661C16.4335 35.4661 16.4335 35.4661 16.4335 35.4661C16.4335 35.4661 16.4335 35.4661 16.4335 35.4661C16.4335 35.4661 16.4335 35.4661 16.4335 35.4661C16.4335 35.4661 16.4335 35.4661 16.4335 35.4661C16.4335 35.4661 16.4335 35.4661 16.4335 35.4661C16.4335 35.4661 16.4335 35.4661 16.4335 35.4661C16.4335 35.4661 16.4335 35.4661 16.4335 35.4661C16.4335 35.4661 16.4335 35.4661 16.4335 35.4661C16.4335 35.4661 16.4335 35.4661 16.4335 35.4661C16.4335 35.4661 16.4335 35.4661 16.4335 35.466C16.4335 35.466 16.4335 35.466 16.4335 35.466C16.4335 35.466 16.4335 35.466 16.4335 35.466C16.4335 35.466 16.4335 35.466 16.4335 35.466C16.4335 35.466 16.4335 35.466 16.4335 35.466C16.4335 35.466 16.4335 35.466 16.4335 35.466C16.4335 35.466 16.4335 35.466 16.4335 35.466C16.4335 35.466 16.4335 35.466 16.4335 35.466C16.4335 35.466 16.4335 35.466 16.4335 35.466C16.4335 35.466 16.4335 35.466 16.4335 35.466C16.4335 35.466 16.4335 35.466 16.4335 35.466C16.4335 35.4659 16.4335 35.4659 16.4335 35.4659C16.4335 35.4659 16.4335 35.4659 16.4335 35.4659C16.4335 35.4659 16.4335 35.4659 16.4335 35.4659C16.4335 35.4659 16.4335 35.4659 16.4335 35.4659C16.4335 35.4659 16.4335 35.4659 16.4335 35.4659C16.4335 35.4659 16.4335 35.4659 16.4335 35.4659C16.4335 35.4659 16.4335 35.4659 16.4335 35.4659C16.4335 35.4659 16.4335 35.4659 16.4335 35.4659C16.4335 35.4659 16.4335 35.4659 16.4335 35.4659C16.4335 35.4659 16.4335 35.4658 16.4335 35.4658C16.4335 35.4658 16.4335 35.4658 16.4335 35.4658C16.4335 35.4658 16.4335 35.4658 16.4335 35.4658C16.4335 35.4658 16.4335 35.4658 16.4335 35.4658C16.4335 35.4658 16.4335 35.4658 16.4335 35.4658C16.4335 35.4658 16.4335 35.4658 16.4335 35.4658C16.4335 35.4658 16.4335 35.4658 16.4335 35.4658C16.4335 35.4658 16.4335 35.4658 16.4335 35.4658C16.4335 35.4658 16.4335 35.4658 16.4335 35.4658C16.4335 35.4657 16.4335 35.4657 16.4335 35.4657C16.4335 35.4657 16.4335 35.4657 16.4335 35.4657C16.4335 35.4657 16.4335 35.4657 16.4335 35.4657C16.4335 35.4657 16.4335 35.4657 16.4335 35.4657C16.4335 35.4657 16.4335 35.4657 16.4335 35.4657C16.4335 35.4657 16.4335 35.4657 16.4335 35.4657C16.4335 35.4657 16.4335 35.4657 16.4335 35.4657C16.4335 35.4657 16.4335 35.4657 16.4335 35.4657C16.4335 35.4657 16.4335 35.4656 16.4335 35.4656C16.4335 35.4656 16.4335 35.4656 16.4335 35.4656C16.4335 35.4656 16.4335 35.4656 16.4335 35.4656C16.4335 35.4656 16.4335 35.4656 16.4335 35.4656C16.4335 35.4656 16.4335 35.4656 16.4335 35.4656C16.4335 35.4656 16.4335 35.4656 16.4335 35.4656C16.4335 35.4656 16.4335 35.4656 16.4335 35.4656H13.4335C13.4335 35.4656 13.4335 35.4656 13.4335 35.4656C13.4335 35.4656 13.4335 35.4656 13.4335 35.4656C13.4335 35.4656 13.4335 35.4656 13.4335 35.4656C13.4335 35.4656 13.4335 35.4656 13.4335 35.4656C13.4335 35.4656 13.4335 35.4656 13.4335 35.4656C13.4335 35.4656 13.4335 35.4656 13.4335 35.4656C13.4335 35.4656 13.4335 35.4657 13.4335 35.4657C13.4335 35.4657 13.4335 35.4657 13.4335 35.4657C13.4335 35.4657 13.4335 35.4657 13.4335 35.4657C13.4335 35.4657 13.4335 35.4657 13.4335 35.4657C13.4335 35.4657 13.4335 35.4657 13.4335 35.4657C13.4335 35.4657 13.4335 35.4657 13.4335 35.4657C13.4335 35.4657 13.4335 35.4657 13.4335 35.4657C13.4335 35.4657 13.4335 35.4657 13.4335 35.4657C13.4335 35.4657 13.4335 35.4657 13.4335 35.4658C13.4335 35.4658 13.4335 35.4658 13.4335 35.4658C13.4335 35.4658 13.4335 35.4658 13.4335 35.4658C13.4335 35.4658 13.4335 35.4658 13.4335 35.4658C13.4335 35.4658 13.4335 35.4658 13.4335 35.4658C13.4335 35.4658 13.4335 35.4658 13.4335 35.4658C13.4335 35.4658 13.4335 35.4658 13.4335 35.4658C13.4335 35.4658 13.4335 35.4658 13.4335 35.4658C13.4335 35.4658 13.4335 35.4658 13.4335 35.4658C13.4335 35.4658 13.4335 35.4659 13.4335 35.4659C13.4335 35.4659 13.4335 35.4659 13.4335 35.4659C13.4335 35.4659 13.4335 35.4659 13.4335 35.4659C13.4335 35.4659 13.4335 35.4659 13.4335 35.4659C13.4335 35.4659 13.4335 35.4659 13.4335 35.4659C13.4335 35.4659 13.4335 35.4659 13.4335 35.4659C13.4335 35.4659 13.4335 35.4659 13.4335 35.4659C13.4335 35.4659 13.4335 35.4659 13.4335 35.4659C13.4335 35.4659 13.4335 35.4659 13.4335 35.4659C13.4335 35.4659 13.4335 35.4659 13.4335 35.466C13.4335 35.466 13.4335 35.466 13.4335 35.466C13.4335 35.466 13.4335 35.466 13.4335 35.466C13.4335 35.466 13.4335 35.466 13.4335 35.466C13.4335 35.466 13.4335 35.466 13.4335 35.466C13.4335 35.466 13.4335 35.466 13.4335 35.466C13.4335 35.466 13.4335 35.466 13.4335 35.466C13.4335 35.466 13.4335 35.466 13.4335 35.466C13.4335 35.466 13.4335 35.466 13.4335 35.466C13.4335 35.466 13.4335 35.466 13.4335 35.466C13.4335 35.466 13.4335 35.466 13.4335 35.466C13.4335 35.4661 13.4335 35.4661 13.4335 35.4661C13.4335 35.4661 13.4335 35.4661 13.4335 35.4661C13.4335 35.4661 13.4335 35.4661 13.4335 35.4661C13.4335 35.4661 13.4335 35.4661 13.4335 35.4661C13.4335 35.4661 13.4335 35.4661 13.4335 35.4661C13.4335 35.4661 13.4335 35.4661 13.4335 35.4661C13.4335 35.4661 13.4335 35.4661 13.4335 35.4661C13.4335 35.4661 13.4335 35.4661 13.4335 35.4661C13.4335 35.4661 13.4335 35.4661 13.4335 35.4661C13.4335 35.4661 13.4335 35.4661 13.4335 35.4661C13.4335 35.4661 13.4335 35.4661 13.4335 35.4661C13.4335 35.4661 13.4335 35.4661 13.4335 35.4662C13.4335 35.4662 13.4335 35.4662 13.4335 35.4662C13.4335 35.4662 13.4335 35.4662 13.4335 35.4662C13.4335 35.4662 13.4335 35.4662 13.4335 35.4662C13.4335 35.4662 13.4335 35.4662 13.4335 35.4662C13.4335 35.4662 13.4335 35.4662 13.4335 35.4662C13.4335 35.4662 13.4335 35.4662 13.4335 35.4662C13.4335 35.4662 13.4335 35.4662 13.4335 35.4662C13.4335 35.4662 13.4335 35.4662 13.4335 35.4662C13.4335 35.4662 13.4335 35.4662 13.4335 35.4662C13.4335 35.4662 13.4335 35.4662 13.4335 35.4662C13.4335 35.4662 13.4335 35.4662 13.4335 35.4662C13.4335 35.4662 13.4335 35.4662 13.4335 35.4662C13.4335 35.4662 13.4335 35.4662 13.4335 35.4662C13.4335 35.4663 13.4335 35.4663 13.4335 35.4663C13.4335 35.4663 13.4335 35.4663 13.4335 35.4663C13.4335 35.4663 13.4335 35.4663 13.4335 35.4663C13.4335 35.4663 13.4335 35.4663 13.4335 35.4663C13.4335 35.4663 13.4335 35.4663 13.4335 35.4663C13.4335 35.4663 13.4335 35.4663 13.4335 35.4663C13.4335 35.4663 13.4335 35.4663 13.4335 35.4663C13.4335 35.4663 13.4335 35.4663 13.4335 35.4663C13.4335 35.4663 13.4335 35.4663 13.4335 35.4663C13.4335 35.4663 13.4335 35.4663 13.4335 35.4663C13.4335 35.4663 13.4335 35.4663 13.4335 35.4663C13.4335 35.4663 13.4335 35.4663 13.4335 35.4663C13.4335 35.4663 13.4335 35.4663 13.4335 35.4663C13.4335 35.4663 13.4335 35.4663 13.4335 35.4663C13.4335 35.4663 13.4335 35.4663 13.4335 35.4663C13.4335 35.4663 13.4335 35.4663 13.4335 35.4664C13.4335 35.4664 13.4335 35.4664 13.4335 35.4664C13.4335 35.4664 13.4335 35.4664 13.4335 35.4664C13.4335 35.4664 13.4335 35.4664 13.4335 35.4664C13.4335 35.4664 13.4335 35.4664 13.4335 35.4664C13.4335 35.4664 13.4335 35.4664 13.4335 35.4664C13.4335 35.4664 13.4335 35.4664 13.4335 35.4664C13.4335 35.4664 13.4335 35.4664 13.4335 35.4664C13.4335 35.4664 13.4335 35.4664 13.4335 35.4664C13.4335 35.4664 13.4335 35.4664 13.4335 35.4664C13.4335 35.4664 13.4335 35.4664 13.4335 35.4664C13.4335 35.4664 13.4335 35.4664 13.4335 35.4664C13.4335 35.4664 13.4335 35.4664 13.4335 35.4664C13.4335 35.4664 13.4335 35.4664 13.4335 35.4664C13.4335 35.4664 13.4335 35.4664 13.4335 35.4664C13.4335 35.4664 13.4335 35.4664 13.4335 35.4664C13.4335 35.4664 13.4335 35.4664 13.4335 35.4664C13.4335 35.4664 13.4335 35.4664 13.4335 35.4664C13.4335 35.4664 13.4335 35.4664 13.4335 35.4664C13.4335 35.4664 13.4335 35.4664 13.4335 35.4664C13.4335 35.4664 13.4335 35.4664 13.4335 35.4664C13.4335 35.4664 13.4335 35.4665 13.4335 35.4665C13.4335 35.4665 13.4335 35.4665 13.4335 35.4665C13.4335 35.4665 13.4335 35.4665 13.4335 35.4665C13.4335 35.4665 13.4335 35.4665 13.4335 35.4665C13.4335 35.4665 13.4335 35.4665 13.4335 35.4665C13.4335 35.4665 13.4335 35.4665 13.4335 35.4665C13.4335 35.4665 13.4335 35.4665 13.4335 35.4665C13.4335 35.4665 13.4335 35.4665 13.4335 35.4665C13.4335 35.4665 13.4335 35.4665 13.4335 35.4665C13.4335 35.4665 13.4335 35.4665 13.4335 35.4665C13.4335 35.4665 13.4335 35.4665 13.4335 35.4665C13.4335 35.4665 13.4335 35.4665 13.4335 35.4665C13.4335 35.4665 13.4335 35.4665 13.4335 35.4665C13.4335 35.4665 13.4335 35.4665 13.4335 35.4665C13.4335 35.4665 13.4335 35.4665 13.4335 35.4665C13.4335 35.4665 13.4335 35.4665 13.4335 35.4665C13.4335 35.4665 13.4335 35.4665 13.4335 35.4665C13.4335 35.4665 13.4335 35.4665 13.4335 35.4665C13.4335 35.4665 13.4335 35.4665 13.4335 35.4665C13.4335 35.4665 13.4335 35.4665 13.4335 35.4665C13.4335 35.4665 13.4335 35.4665 13.4335 35.4665C13.4335 35.4665 13.4335 35.4665 13.4335 35.4665C13.4335 35.4665 13.4335 35.4665 13.4335 35.4665C13.4335 35.4665 13.4335 35.4665 13.4335 35.4665C13.4335 35.4665 13.4335 35.4665 13.4335 35.4665C13.4335 35.4665 13.4335 35.4665 13.4335 35.4665C13.4335 35.4665 13.4335 35.4665 13.4335 35.4665C13.4335 35.4665 13.4335 35.4665 13.4335 35.4665C13.4335 35.4665 13.4335 35.4665 13.4335 35.4665C13.4335 35.4665 13.4335 35.4665 13.4335 35.4665C13.4335 35.4665 13.4335 35.4665 13.4335 35.4665C13.4335 35.4665 13.4335 35.4665 13.4335 35.4665C13.4335 35.4665 13.4335 35.4665 13.4335 35.4665C13.4335 35.4665 13.4335 35.4665 13.4335 35.4665C13.4335 35.4666 13.4335 35.4666 13.4335 35.4666C13.4335 35.4666 13.4335 35.4666 13.4335 35.4666C13.4335 35.4666 13.4335 35.4666 13.4335 35.4666C13.4335 35.4666 13.4335 35.4666 13.4335 35.4666C13.4335 35.4666 13.4335 35.4666 13.4335 35.4666C13.4335 35.4666 13.4335 35.4666 13.4335 35.4666C13.4335 35.4666 13.4335 35.4666 13.4335 35.4666C13.4335 35.4666 13.4335 35.4666 13.4335 35.4666C13.4335 35.4666 13.4335 35.4666 13.4335 35.4666C13.4335 35.4666 13.4335 35.4666 13.4335 35.4666C13.4335 35.4666 13.4335 35.4666 13.4335 35.4666C13.4335 35.4666 13.4335 35.4666 13.4335 35.4666C13.4335 35.4666 13.4335 35.4666 13.4335 35.4666C13.4335 35.4666 13.4335 35.4666 13.4335 35.4666C13.4335 35.4666 13.4335 35.4666 13.4335 35.4666C13.4335 35.4666 13.4335 35.4666 13.4335 35.4666C13.4335 35.4666 13.4335 35.4666 13.4335 35.4666C13.4335 35.4666 13.4335 35.4666 13.4335 35.4666V35.4666C13.4335 35.4666 13.4335 35.4666 13.4335 35.4666V35.4666C13.4335 35.4666 13.4335 35.4666 13.4335 35.4666C13.4335 35.4666 13.4335 35.4666 13.4335 35.4666C13.4335 35.4666 13.4335 35.4666 13.4335 35.4666C13.4335 35.4666 13.4335 35.4666 13.4335 35.4666C13.4335 35.4666 13.4335 35.4666 13.4335 35.4666V35.4666C13.4335 35.4666 13.4335 35.4666 13.4335 35.4666C13.4335 35.4666 14.9335 35.4666 16.4335 35.4666V35.4666C16.4335 35.4666 16.4335 35.4666 16.4335 35.4666V35.4666C16.4335 35.4666 16.4335 35.4666 16.4335 35.4666C16.4335 35.4666 16.4335 35.4666 16.4335 35.4666C16.4335 35.4666 16.4335 35.4666 16.4335 35.4666V35.4666V35.4666C16.4335 35.4666 16.4335 35.4666 16.4335 35.4666C16.4335 35.4666 16.4335 35.4666 16.4335 35.4666C16.4335 35.4666 16.4335 35.4666 16.4335 35.4666V35.4666C16.4335 35.4666 16.4335 35.4666 16.4335 35.4666C16.4335 35.4666 16.4335 35.4666 16.4335 35.4666C16.4335 35.4666 16.4335 35.4666 16.4335 35.4666C16.4335 35.4666 16.4335 35.4666 16.4335 35.4666C16.4335 35.4666 16.4335 35.4666 16.4335 35.4666C16.4335 35.4666 16.4335 35.4666 16.4335 35.4666C16.4335 35.4666 16.4335 35.4666 16.4335 35.4666C16.4335 35.4666 16.4335 35.4666 16.4335 35.4666C16.4335 35.4666 16.4335 35.4666 16.4335 35.4666C16.4335 35.4666 16.4335 35.4666 16.4335 35.4666C16.4335 35.4666 16.4335 35.4666 16.4335 35.4666C16.4335 35.4666 16.4335 35.4666 16.4335 35.4666C16.4335 35.4666 16.4335 35.4666 16.4335 35.4666C16.4335 35.4666 16.4335 35.4666 16.4335 35.4666C16.4335 35.4666 16.4335 35.4666 16.4335 35.4666C16.4335 35.4666 16.4335 35.4666 16.4335 35.4666C16.4335 35.4666 16.4335 35.4666 16.4335 35.4666C16.4335 35.4666 16.4335 35.4666 16.4335 35.4666C16.4335 35.4666 16.4335 35.4665 16.4335 35.4665C16.4335 35.4665 16.4335 35.4665 16.4335 35.4665C16.4335 35.4665 16.4335 35.4665 16.4335 35.4665C16.4335 35.4665 16.4335 35.4665 16.4335 35.4665C16.4335 35.4665 16.4335 35.4665 16.4335 35.4665C16.4335 35.4665 16.4335 35.4665 16.4335 35.4665C16.4335 35.4665 16.4335 35.4665 16.4335 35.4665C16.4335 35.4665 16.4335 35.4665 16.4335 35.4665C16.4335 35.4665 16.4335 35.4665 16.4335 35.4665C16.4335 35.4665 16.4335 35.4665 16.4335 35.4665C16.4335 35.4665 16.4335 35.4665 16.4335 35.4665C16.4335 35.4665 16.4335 35.4665 16.4335 35.4665C16.4335 35.4665 16.4335 35.4665 16.4335 35.4665C16.4335 35.4665 16.4335 35.4665 16.4335 35.4665C16.4335 35.4665 16.4335 35.4665 16.4335 35.4665C16.4335 35.4665 16.4335 35.4665 16.4335 35.4665C16.4335 35.4665 16.4335 35.4665 16.4335 35.4665C16.4335 35.4665 16.4335 35.4665 16.4335 35.4665C16.4335 35.4665 16.4335 35.4665 16.4335 35.4665C16.4335 35.4665 16.4335 35.4665 16.4335 35.4665C16.4335 35.4665 16.4335 35.4665 16.4335 35.4665C16.4335 35.4665 16.4335 35.4665 16.4335 35.4665C16.4335 35.4665 16.4335 35.4665 16.4335 35.4665C16.4335 35.4665 16.4335 35.4665 16.4335 35.4665C16.4335 35.4665 16.4335 35.4665 16.4335 35.4665C16.4335 35.4665 16.4335 35.4665 16.4335 35.4665C16.4335 35.4665 16.4335 35.4665 16.4335 35.4665C16.4335 35.4665 16.4335 35.4665 16.4335 35.4665C16.4335 35.4665 16.4335 35.4665 16.4335 35.4665C16.4335 35.4665 16.4335 35.4665 16.4335 35.4665C16.4335 35.4665 16.4335 35.4665 16.4335 35.4665C16.4335 35.4665 16.4335 35.4665 16.4335 35.4665C16.4335 35.4665 16.4335 35.4665 16.4335 35.4665C16.4335 35.4665 16.4335 35.4665 16.4335 35.4665C16.4335 35.4665 16.4335 35.4665 16.4335 35.4665C16.4335 35.4665 16.4335 35.4665 16.4335 35.4665C16.4335 35.4665 16.4335 35.4665 16.4335 35.4665C16.4335 35.4665 16.4335 35.4665 16.4335 35.4665C16.4335 35.4665 16.4335 35.4665 16.4335 35.4665C16.4335 35.4665 16.4335 35.4665 16.4335 35.4665C16.4335 35.4665 16.4335 35.4665 16.4335 35.4665C16.4335 35.4665 16.4335 35.4665 16.4335 35.4664C16.4335 35.4664 16.4335 35.4664 16.4335 35.4664C16.4335 35.4664 16.4335 35.4664 16.4335 35.4664C16.4335 35.4664 16.4335 35.4664 16.4335 35.4664C16.4335 35.4664 16.4335 35.4664 16.4335 35.4664C16.4335 35.4664 16.4335 35.4664 16.4335 35.4664C16.4335 35.4664 16.4335 35.4664 16.4335 35.4664C16.4335 35.4664 16.4335 35.4664 16.4335 35.4664C16.4335 35.4664 16.4335 35.4664 16.4335 35.4664C16.4335 35.4664 16.4335 35.4664 16.4335 35.4664C16.4335 35.4664 16.4335 35.4664 16.4335 35.4664C16.4335 35.4664 16.4335 35.4664 16.4335 35.4664C16.4335 35.4664 16.4335 35.4664 16.4335 35.4664C16.4335 35.4664 16.4335 35.4664 16.4335 35.4664C16.4335 35.4664 16.4335 35.4664 16.4335 35.4664C16.4335 35.4664 16.4335 35.4664 16.4335 35.4664C16.4335 35.4664 16.4335 35.4664 16.4335 35.4664C16.4335 35.4664 16.4335 35.4664 16.4335 35.4664C16.4335 35.4664 16.4335 35.4664 16.4335 35.4664C16.4335 35.4664 16.4335 35.4664 16.4335 35.4664C16.4335 35.4664 16.4335 35.4664 16.4335 35.4664C16.4335 35.4664 16.4335 35.4664 16.4335 35.4664C16.4335 35.4664 16.4335 35.4664 16.4335 35.4664C16.4335 35.4664 16.4335 35.4664 16.4335 35.4664C16.4335 35.4664 16.4335 35.4664 16.4335 35.4664C16.4335 35.4664 16.4335 35.4664 16.4335 35.4664C16.4335 35.4664 16.4335 35.4664 16.4335 35.4664C16.4335 35.4664 16.4335 35.4664 16.4335 35.4664C16.4335 35.4664 16.4335 35.4664 16.4335 35.4664C16.4335 35.4664 16.4335 35.4664 16.4335 35.4663C16.4335 35.4663 16.4335 35.4663 16.4335 35.4663C16.4335 35.4663 16.4335 35.4663 16.4335 35.4663C16.4335 35.4663 16.4335 35.4663 16.4335 35.4663C16.4335 35.4663 16.4335 35.4663 16.4335 35.4663C16.4335 35.4663 16.4335 35.4663 16.4335 35.4663C16.4335 35.4663 16.4335 35.4663 16.4335 35.4663C16.4335 35.4663 16.4335 35.4663 16.4335 35.4663C16.4335 35.4663 16.4335 35.4663 16.4335 35.4663C16.4335 35.4663 16.4335 35.4663 16.4335 35.4663C16.4335 35.4663 16.4335 35.4663 16.4335 35.4663C16.4335 35.4663 16.4335 35.4663 16.4335 35.4663C16.4335 35.4663 16.4335 35.4663 16.4335 35.4663C16.4335 35.4663 16.4335 35.4663 16.4335 35.4663C16.4335 35.4663 16.4335 35.4663 16.4335 35.4663C16.4335 35.4663 16.4335 35.4663 16.4335 35.4663C16.4335 35.4663 16.4335 35.4663 16.4335 35.4663C16.4335 35.4663 16.4335 35.4663 16.4335 35.4663C16.4335 35.4663 16.4335 35.4663 16.4335 35.4663C16.4335 35.4663 16.4335 35.4663 16.4335 35.4663C16.4335 35.4663 16.4335 35.4663 16.4335 35.4663C16.4335 35.4663 16.4335 35.4663 16.4335 35.4663C16.4335 35.4663 16.4335 35.4663 16.4335 35.4663C16.4335 35.4663 16.4335 35.4663 16.4335 35.4663C16.4335 35.4663 16.4335 35.4663 16.4335 35.4663C16.4335 35.4663 16.4335 35.4662 16.4335 35.4662C16.4335 35.4662 16.4335 35.4662 16.4335 35.4662C16.4335 35.4662 16.4335 35.4662 16.4335 35.4662C16.4335 35.4662 16.4335 35.4662 16.4335 35.4662C16.4335 35.4662 16.4335 35.4662 16.4335 35.4662C16.4335 35.4662 16.4335 35.4662 16.4335 35.4662C16.4335 35.4662 16.4335 35.4662 16.4335 35.4662C16.4335 35.4662 16.4335 35.4662 16.4335 35.4662C16.4335 35.4662 16.4335 35.4662 16.4335 35.4662C16.4335 35.4662 16.4335 35.4662 16.4335 35.4662C16.4335 35.4662 16.4335 35.4662 16.4335 35.4662C16.4335 35.4662 16.4335 35.4662 16.4335 35.4662C16.4335 35.4662 16.4335 35.4662 16.4335 35.4662C16.4335 35.4662 16.4335 35.4662 16.4335 35.4662C16.4335 35.4662 16.4335 35.4662 16.4335 35.4662C16.4335 35.4662 16.4335 35.4662 16.4335 35.4662C16.4335 35.4662 16.4335 35.4662 16.4335 35.4662C16.4335 35.4662 16.4335 35.4662 16.4335 35.4662C16.4335 35.4662 16.4335 35.4662 16.4335 35.4662C16.4335 35.4662 16.4335 35.4662 16.4335 35.4662C16.4335 35.4662 16.4335 35.4662 16.4335 35.4662C16.4335 35.4662 16.4335 35.4662 16.4335 35.4662C16.4335 35.4662 16.4335 35.4662 16.4335 35.4662C16.4335 35.4662 16.4335 35.4662 16.4335 35.4661C16.4335 35.4661 16.4335 35.4661 16.4335 35.4661C16.4335 35.4661 16.4335 35.4661 16.4335 35.4661C16.4335 35.4661 16.4335 35.4661 16.4335 35.4661C16.4335 35.4661 16.4335 35.4661 16.4335 35.4661C16.4335 35.4661 16.4335 35.4661 16.4335 35.4661C16.4335 35.4661 16.4335 35.4661 16.4335 35.4661C16.4335 35.4661 16.4335 35.4661 16.4335 35.4661C16.4335 35.4661 16.4335 35.4661 16.4335 35.4661C16.4335 35.4661 16.4335 35.4661 16.4335 35.4661C16.4335 35.4661 16.4335 35.4661 16.4335 35.4661C16.4335 35.4661 16.4335 35.4661 16.4335 35.4661C16.4335 35.4661 16.4335 35.4661 16.4335 35.4661C16.4335 35.4661 16.4335 35.4661 16.4335 35.4661C16.4335 35.4661 16.4335 35.4661 16.4335 35.4661C16.4335 35.4661 16.4335 35.4661 16.4335 35.4661C16.4335 35.4661 16.4335 35.4661 16.4335 35.4661C16.4335 35.4661 16.4335 35.4661 16.4335 35.4661C16.4335 35.4661 16.4335 35.4661 16.4335 35.4661C16.4335 35.4661 16.4335 35.4661 16.4335 35.4661C16.4335 35.4661 16.4335 35.4661 16.4335 35.4661C16.4335 35.4661 16.4335 35.4661 16.4335 35.4661C16.4335 35.4661 16.4335 35.4661 16.4335 35.4661C16.4335 35.466 16.4335 35.466 16.4335 35.466C16.4335 35.466 16.4335 35.466 16.4335 35.466C16.4335 35.466 16.4335 35.466 16.4335 35.466C16.4335 35.466 16.4335 35.466 16.4335 35.466C16.4335 35.466 16.4335 35.466 16.4335 35.466C16.4335 35.466 16.4335 35.466 16.4335 35.466C16.4335 35.466 16.4335 35.466 16.4335 35.466C16.4335 35.466 16.4335 35.466 16.4335 35.466C16.4335 35.466 16.4335 35.466 16.4335 35.466C16.4335 35.466 16.4335 35.466 16.4335 35.466C16.4335 35.466 16.4335 35.466 16.4335 35.466C16.4335 35.466 16.4335 35.466 16.4335 35.466C16.4335 35.466 16.4335 35.466 16.4335 35.466C16.4335 35.466 16.4335 35.466 16.4335 35.466C16.4335 35.466 16.4335 35.466 16.4335 35.466C16.4335 35.466 16.4335 35.466 16.4335 35.466C16.4335 35.466 16.4335 35.466 16.4335 35.466C16.4335 35.466 16.4335 35.466 16.4335 35.466C16.4335 35.466 16.4335 35.466 16.4335 35.466C16.4335 35.466 16.4335 35.466 16.4335 35.466C16.4335 35.466 16.4335 35.466 16.4335 35.466C16.4335 35.466 16.4335 35.466 16.4335 35.466C16.4335 35.466 16.4335 35.466 16.4335 35.4659C16.4335 35.4659 16.4335 35.4659 16.4335 35.4659C16.4335 35.4659 16.4335 35.4659 16.4335 35.4659C16.4335 35.4659 16.4335 35.4659 16.4335 35.4659C16.4335 35.4659 16.4335 35.4659 16.4335 35.4659C16.4335 35.4659 16.4335 35.4659 16.4335 35.4659C16.4335 35.4659 16.4335 35.4659 16.4335 35.4659C16.4335 35.4659 16.4335 35.4659 16.4335 35.4659C16.4335 35.4659 16.4335 35.4659 16.4335 35.4659C16.4335 35.4659 16.4335 35.4659 16.4335 35.4659C16.4335 35.4659 16.4335 35.4659 16.4335 35.4659C16.4335 35.4659 16.4335 35.4659 16.4335 35.4659C16.4335 35.4659 16.4335 35.4659 16.4335 35.4659C16.4335 35.4659 16.4335 35.4659 16.4335 35.4659C16.4335 35.4659 16.4335 35.4659 16.4335 35.4659C16.4335 35.4659 16.4335 35.4659 16.4335 35.4659C16.4335 35.4659 16.4335 35.4659 16.4335 35.4659C16.4335 35.4659 16.4335 35.4659 16.4335 35.4659C16.4335 35.4659 16.4335 35.4659 16.4335 35.4659C16.4335 35.4659 16.4335 35.4659 16.4335 35.4659C16.4335 35.4659 16.4335 35.4659 16.4335 35.4659C16.4335 35.4659 16.4335 35.4659 16.4335 35.4659C16.4335 35.4659 16.4335 35.4659 16.4335 35.4659C16.4335 35.4659 16.4335 35.4659 16.4335 35.4659C16.4335 35.4659 16.4335 35.4658 16.4335 35.4658C16.4335 35.4658 16.4335 35.4658 16.4335 35.4658C16.4335 35.4658 16.4335 35.4658 16.4335 35.4658C16.4335 35.4658 16.4335 35.4658 16.4335 35.4658C16.4335 35.4658 16.4335 35.4658 16.4335 35.4658C16.4335 35.4658 16.4335 35.4658 16.4335 35.4658C16.4335 35.4658 16.4335 35.4658 16.4335 35.4658C16.4335 35.4658 16.4335 35.4658 16.4335 35.4658C16.4335 35.4658 16.4335 35.4658 16.4335 35.4658C16.4335 35.4658 16.4335 35.4658 16.4335 35.4658C16.4335 35.4658 16.4335 35.4658 16.4335 35.4658C16.4335 35.4658 16.4335 35.4658 16.4335 35.4658C16.4335 35.4658 16.4335 35.4658 16.4335 35.4658C16.4335 35.4658 16.4335 35.4658 16.4335 35.4658C16.4335 35.4658 16.4335 35.4658 16.4335 35.4658C16.4335 35.4658 16.4335 35.4658 16.4335 35.4658C16.4335 35.4658 16.4335 35.4658 16.4335 35.4658C16.4335 35.4658 16.4335 35.4658 16.4335 35.4658C16.4335 35.4658 16.4335 35.4658 16.4335 35.4658C16.4335 35.4658 16.4335 35.4658 16.4335 35.4658C16.4335 35.4658 16.4335 35.4658 16.4335 35.4658C16.4335 35.4658 16.4335 35.4658 16.4335 35.4658C16.4335 35.4658 16.4335 35.4658 16.4335 35.4658C16.4335 35.4658 16.4335 35.4658 16.4335 35.4658C16.4335 35.4658 16.4335 35.4658 16.4335 35.4658C16.4335 35.4658 16.4335 35.4658 16.4335 35.4658C16.4335 35.4658 16.4335 35.4658 16.4335 35.4657C16.4335 35.4657 16.4335 35.4657 16.4335 35.4657C16.4335 35.4657 16.4335 35.4657 16.4335 35.4657C16.4335 35.4657 16.4335 35.4657 16.4335 35.4657C16.4335 35.4657 16.4335 35.4657 16.4335 35.4657C16.4335 35.4657 16.4335 35.4657 16.4335 35.4657C16.4335 35.4657 16.4335 35.4657 16.4335 35.4657C16.4335 35.4657 16.4335 35.4657 16.4335 35.4657C16.4335 35.4657 16.4335 35.4657 16.4335 35.4657C16.4335 35.4657 16.4335 35.4657 16.4335 35.4657C16.4335 35.4657 16.4335 35.4657 16.4335 35.4657C16.4335 35.4657 16.4335 35.4657 16.4335 35.4657C16.4335 35.4657 16.4335 35.4657 16.4335 35.4657C16.4335 35.4657 16.4335 35.4657 16.4335 35.4657C16.4335 35.4657 16.4335 35.4657 16.4335 35.4657C16.4335 35.4657 16.4335 35.4657 16.4335 35.4657C16.4335 35.4657 16.4335 35.4657 16.4335 35.4657C16.4335 35.4657 16.4335 35.4657 16.4335 35.4657C16.4335 35.4657 16.4335 35.4657 16.4335 35.4657C16.4335 35.4657 16.4335 35.4657 16.4335 35.4657C16.4335 35.4657 16.4335 35.4657 16.4335 35.4657C16.4335 35.4657 16.4335 35.4657 16.4335 35.4657C16.4335 35.4657 16.4335 35.4657 16.4335 35.4657C16.4335 35.4657 16.4335 35.4657 16.4335 35.4657C16.4335 35.4657 16.4335 35.4657 16.4335 35.4657C16.4335 35.4657 16.4335 35.4657 16.4335 35.4657C16.4335 35.4657 16.4335 35.4657 16.4335 35.4657C16.4335 35.4657 16.4335 35.4657 16.4335 35.4657C16.4335 35.4657 16.4335 35.4657 16.4335 35.4657C16.4335 35.4657 16.4335 35.4657 16.4335 35.4657C16.4335 35.4657 16.4335 35.4657 16.4335 35.4657C16.4335 35.4657 16.4335 35.4657 16.4335 35.4657C16.4335 35.4657 16.4335 35.4657 16.4335 35.4657C16.4335 35.4656 16.4335 35.4656 16.4335 35.4656C16.4335 35.4656 16.4335 35.4656 16.4335 35.4656C16.4335 35.4656 16.4335 35.4656 16.4335 35.4656C16.4335 35.4656 16.4335 35.4656 16.4335 35.4656C16.4335 35.4656 16.4335 35.4656 16.4335 35.4656C16.4335 35.4656 16.4335 35.4656 16.4335 35.4656C16.4335 35.4656 16.4335 35.4656 16.4335 35.4656C16.4335 35.4656 16.4335 35.4656 16.4335 35.4656C16.4335 35.4656 16.4335 35.4656 16.4335 35.4656C16.4335 35.4656 16.4335 35.4656 16.4335 35.4656C16.4335 35.4656 16.4335 35.4656 16.4335 35.4656C16.4335 35.4656 16.4335 35.4656 16.4335 35.4656C16.4335 35.4656 16.4335 35.4656 16.4335 35.4656C16.4335 35.4656 16.4335 35.4656 16.4335 35.4656C16.4335 35.4656 16.4335 35.4656 16.4335 35.4656C16.4335 35.4656 16.4335 35.4656 16.4335 35.4656C16.4335 35.4656 16.4335 35.4656 16.4335 35.4656C16.4335 35.4656 16.4335 35.4656 16.4335 35.4656C16.4335 35.4656 16.4335 35.4656 16.4335 35.4656C16.4335 35.4656 16.4335 35.4656 16.4335 35.4656C16.4335 35.4656 16.4335 35.4656 16.4335 35.4656C16.4335 35.4656 16.4335 35.4656 16.4335 35.4656C16.4335 35.4656 16.4335 35.4656 16.4335 35.4656C16.4335 35.4656 16.4335 35.4656 16.4335 35.4656C16.4335 35.4656 16.4335 35.4656 16.4335 35.4656C16.4335 35.4656 16.4335 35.4656 16.4335 35.4656C16.4335 35.4656 16.4335 35.4656 16.4335 35.4656C16.4335 35.4656 16.4335 35.4656 16.4335 35.4656C16.4335 35.4656 16.4335 35.4656 16.4335 35.4656C16.4335 35.4656 16.4335 35.4656 16.4335 35.4656C16.4335 35.4656 16.4335 35.4656 16.4335 35.4656C16.4335 35.4656 16.4335 35.4656 16.4335 35.4656C16.4335 35.4656 16.4335 35.4656 16.4335 35.4656C16.4335 35.4656 16.4335 35.4656 16.4335 35.4656C16.4335 35.4656 16.4335 35.4656 16.4335 35.4656C16.4335 35.4656 16.4335 35.4656 16.4335 35.4656C16.4335 35.4656 16.4335 35.4656 16.4335 35.4656C16.4335 35.4656 16.4335 35.4656 16.4335 35.4656C16.4335 35.4656 16.4335 35.4656 16.4335 35.4656C16.4335 35.4656 16.4335 35.4656 16.4335 35.4656C16.4335 35.4656 16.4335 35.4656 16.4335 35.4656C16.4335 35.4656 16.4335 35.4656 16.4335 35.4656C16.4335 35.4656 16.4335 35.4656 16.4335 35.4656C16.4335 35.4656 16.4335 35.4656 16.4335 35.4656C16.4335 35.4656 16.4335 35.4656 16.4335 35.4656V35.4656C16.4335 35.4656 16.4335 35.4656 16.4335 35.4656V35.4656C16.4335 35.4656 16.4335 35.4656 16.4335 35.4656C16.4335 35.4656 16.4335 35.4656 16.4335 35.4656V35.4656V35.4656V35.4656C16.4335 35.4656 16.4335 35.4656 16.4335 35.4656C16.4335 35.4656 16.4335 35.4656 16.4335 35.4656C16.4335 35.4656 16.4335 35.4656 16.4335 35.4656C16.4335 35.4656 16.4335 35.4656 14.9335 35.4656Z" fill="#FFC33A" mask="url(#path-4-inside-1_1826_1050)"/>
</g>
<defs>
<clipPath id="clip0_1826_1050">
<rect width="56" height="56" fill="white"/>
</clipPath>
</defs>
</svg>
