<svg width="58" height="55" viewBox="0 0 58 55" fill="none" xmlns="http://www.w3.org/2000/svg">
<path d="M30.9645 41.1118H24.0547V54.3043H30.9645V41.1118Z" stroke="#01C2E6" stroke-width="2"/>
<path d="M29.541 40.1367V36.6521" stroke="#01C2E6" stroke-width="2"/>
<path d="M25.4795 40.1367V36.6521" stroke="#01C2E6" stroke-width="2"/>
<path d="M42.6353 21.5349C42.63 18.0209 41.4143 14.6174 39.1951 11.9039C36.9759 9.19049 33.8906 7.33493 30.4644 6.65322C27.0383 5.97151 23.4832 6.5058 20.4046 8.16512C17.326 9.82444 14.9142 12.5062 13.5799 15.7537C12.2457 19.0012 12.0715 22.6136 13.087 25.9758C14.1025 29.338 16.2449 32.242 19.1494 34.1935C22.0539 36.1449 25.5408 37.023 29.0165 36.6782C32.4921 36.3334 35.7416 34.7871 38.2114 32.3026C39.6208 30.8921 40.7377 29.2138 41.4971 27.3654C42.2566 25.5169 42.6435 23.5351 42.6353 21.5349V21.5349Z" stroke="#01C2E6" stroke-width="2"/>
<path d="M35.2877 29.3182C33.4985 31.1253 31.1418 32.252 28.6194 32.5064C26.0969 32.7609 23.5648 32.1271 21.4548 30.7133C19.3448 29.2994 17.7874 27.193 17.0483 24.7531C16.3091 22.3132 16.4339 19.6909 17.4013 17.3332C18.3687 14.9755 20.1189 13.0284 22.3535 11.8238C24.5881 10.6193 27.1687 10.2318 29.6555 10.7274C32.1423 11.2231 34.3812 12.5712 35.9906 14.542C37.6 16.5128 38.4803 18.9842 38.4813 21.5349C38.4847 22.9799 38.2042 24.4114 37.6562 25.7471C37.1081 27.0828 36.3032 28.2964 35.2877 29.3182V29.3182Z" stroke="#01C2E6" stroke-width="2"/>
<path d="M27.6699 1C38.8267 1 49.343 7.16387 57.264 18.3555" stroke="#01C2E6" stroke-width="2"/>
<path d="M42.2311 32.5146C47.0135 29.5326 51.1329 25.5899 54.3317 20.9329C47.4135 11.1742 38.0179 5.16293 27.6701 5.16293C17.3222 5.16293 7.9182 11.1742 1 20.9329C4.14194 25.5076 8.16867 29.3977 12.8393 32.3704" stroke="#01C2E6" stroke-width="2"/>
</svg>
