<svg width="57" height="56" viewBox="0 0 57 56" fill="none" xmlns="http://www.w3.org/2000/svg">
<path d="M54.3649 18.7795H50.1138V3.95912C50.0587 2.94476 49.617 1.99008 48.8795 1.2915C48.1419 0.592929 47.1647 0.203589 46.1488 0.203589C45.133 0.203589 44.1558 0.592929 43.4182 1.2915C42.6807 1.99008 42.239 2.94476 42.1839 3.95912V11.6087C42.1839 12.2096 41.9452 12.7859 41.5203 13.2108C41.0954 13.6357 40.5191 13.8744 39.9182 13.8744C39.3173 13.8744 38.741 13.6357 38.3161 13.2108C37.8912 12.7859 37.6525 12.2096 37.6525 11.6087V3.95912C37.6525 2.9091 37.2354 1.90208 36.4929 1.1596C35.7504 0.41712 34.7434 0 33.6934 0C32.6434 0 31.6363 0.41712 30.8939 1.1596C30.1514 1.90208 29.7343 2.9091 29.7343 3.95912V18.7795H26.3357V15.2759C26.3357 12.5718 25.2616 9.97856 23.3495 8.06651C21.4375 6.15446 18.8442 5.08029 16.1401 5.08029C13.4361 5.08029 10.8428 6.15446 8.93074 8.06651C7.01869 9.97856 5.94452 12.5718 5.94452 15.2759V18.7795H1.69343C1.47104 18.7795 1.25084 18.8233 1.04538 18.9084C0.839925 18.9935 0.653243 19.1183 0.495994 19.2755C0.338744 19.4328 0.214007 19.6195 0.128905 19.8249C0.0438018 20.0304 0 20.2506 0 20.473L0 24.7241C0 25.1732 0.178414 25.6039 0.495994 25.9215C0.813573 26.2391 1.2443 26.4175 1.69343 26.4175V50.943C1.75614 52.2528 2.32061 53.4882 3.26976 54.393C4.21891 55.2978 5.47992 55.8026 6.79123 55.8026C8.10255 55.8026 9.36355 55.2978 10.3127 54.393C11.2619 53.4882 11.8263 52.2528 11.889 50.943V26.4175C12.3392 26.4175 12.7712 26.2395 13.0906 25.9222C13.4101 25.605 13.5911 25.1743 13.5941 24.7241V20.473C13.5911 20.0228 13.4101 19.5921 13.0906 19.2748C12.7712 18.9576 12.3392 18.7795 11.889 18.7795H7.64962V15.2759C7.64962 13.0241 8.54416 10.8645 10.1364 9.2722C11.7287 7.67993 13.8883 6.78539 16.1401 6.78539C18.3919 6.78539 20.5515 7.67993 22.1438 9.2722C23.7361 10.8645 24.6306 13.0241 24.6306 15.2759V18.7795H22.9372C22.7138 18.778 22.4924 18.8207 22.2856 18.9051C22.0788 18.9895 21.8907 19.114 21.7322 19.2714C21.5737 19.4288 21.4479 19.616 21.3621 19.8222C21.2763 20.0284 21.2321 20.2496 21.2321 20.473V24.7241C21.2321 24.9474 21.2763 25.1686 21.3621 25.3748C21.4479 25.581 21.5737 25.7682 21.7322 25.9256C21.8907 26.083 22.0788 26.2075 22.2856 26.2919C22.4924 26.3764 22.7138 26.419 22.9372 26.4175H23.2175V33.0043L19.527 41.4131L14.7036 52.4379C14.5318 52.8252 14.4598 53.2494 14.4942 53.6718C14.5287 54.0941 14.6685 54.5011 14.9009 54.8554C15.1332 55.2097 15.4507 55.5002 15.8243 55.7001C16.1979 55.9001 16.6157 56.0031 17.0394 55.9999H39.0189C39.4426 56.0031 39.8604 55.9001 40.234 55.7001C40.6076 55.5002 40.9251 55.2097 41.1575 54.8554C41.3898 54.5011 41.5296 54.0941 41.5641 53.6718C41.5985 53.2494 41.5265 52.8252 41.3547 52.4379L32.8408 33.0043V26.4175H33.1211C33.3445 26.419 33.566 26.3764 33.7728 26.2919C33.9796 26.2075 34.1676 26.083 34.3261 25.9256C34.4846 25.7682 34.6104 25.581 34.6962 25.3748C34.7821 25.1686 34.8262 24.9474 34.8262 24.7241V20.473C34.8262 20.2496 34.7821 20.0284 34.6962 19.8222C34.6104 19.616 34.4846 19.4288 34.3261 19.2714C34.1676 19.114 33.9796 18.9895 33.7728 18.9051C33.566 18.8207 33.3445 18.778 33.1211 18.7795H31.4277V3.95912C31.4277 3.66158 31.4863 3.36696 31.6002 3.09208C31.714 2.81719 31.8809 2.56742 32.0913 2.35703C32.3017 2.14665 32.5515 1.97976 32.8263 1.86589C33.1012 1.75203 33.3959 1.69343 33.6934 1.69343C33.9909 1.69343 34.2855 1.75203 34.5604 1.86589C34.8353 1.97976 35.0851 2.14665 35.2955 2.35703C35.5059 2.56742 35.6727 2.81719 35.7866 3.09208C35.9005 3.36696 35.9591 3.66158 35.9591 3.95912V11.6087C36.0141 12.6231 36.4559 13.5778 37.1934 14.2764C37.931 14.9749 38.9082 15.3643 39.924 15.3643C40.9399 15.3643 41.9171 14.9749 42.6546 14.2764C43.3922 13.5778 43.8339 12.6231 43.889 11.6087V3.95912C43.8667 3.64869 43.9085 3.33699 44.012 3.04346C44.1154 2.74992 44.2782 2.48085 44.4903 2.25302C44.7023 2.02518 44.959 1.84348 45.2444 1.71923C45.5297 1.59499 45.8376 1.53087 46.1488 1.53087C46.4601 1.53087 46.768 1.59499 47.0533 1.71923C47.3387 1.84348 47.5954 2.02518 47.8074 2.25302C48.0194 2.48085 48.1823 2.74992 48.2857 3.04346C48.3892 3.33699 48.431 3.64869 48.4087 3.95912V18.7795H44.1693C43.7191 18.7795 43.2871 18.9576 42.9677 19.2748C42.6483 19.5921 42.4673 20.0228 42.4642 20.473V24.7241C42.4673 25.1743 42.6483 25.605 42.9677 25.9222C43.2871 26.2395 43.7191 26.4175 44.1693 26.4175V50.943C44.232 52.2528 44.7965 53.4882 45.7456 54.393C46.6948 55.2978 47.9558 55.8026 49.2671 55.8026C50.5784 55.8026 51.8394 55.2978 52.7886 54.393C53.7377 53.4882 54.3022 52.2528 54.3649 50.943V26.4175C54.814 26.4175 55.2447 26.2391 55.5623 25.9215C55.8799 25.6039 56.0583 25.1732 56.0583 24.7241V20.473C56.0583 20.2506 56.0145 20.0304 55.9294 19.8249C55.8443 19.6195 55.7196 19.4328 55.5623 19.2755C55.4051 19.1183 55.2184 18.9935 55.0129 18.9084C54.8075 18.8233 54.5873 18.7795 54.3649 18.7795ZM10.1956 50.908C10.1956 51.8093 9.83755 52.6737 9.2002 53.3111C8.56285 53.9484 7.69842 54.3065 6.79707 54.3065C5.89572 54.3065 5.03129 53.9484 4.39394 53.3111C3.75659 52.6737 3.39854 51.8093 3.39854 50.908V33.2146H10.1956V50.908ZM10.1956 31.5211H3.39854V26.4175H10.1956V31.5211ZM11.889 24.7241H1.69343V20.473H11.889V24.7241ZM39.708 53.9211C39.6313 54.0401 39.5258 54.1379 39.4012 54.2052C39.2767 54.2726 39.1372 54.3074 38.9956 54.3065H17.0394C16.8978 54.3074 16.7583 54.2726 16.6337 54.2052C16.5092 54.1379 16.4037 54.0401 16.327 53.9211C16.2475 53.8039 16.1993 53.6684 16.187 53.5273C16.1748 53.3862 16.1988 53.2444 16.2569 53.1153L20.9284 42.6043H35.1883L39.8014 53.1153C39.8562 53.2463 39.8763 53.3893 39.86 53.5304C39.8436 53.6715 39.7913 53.806 39.708 53.9211ZM31.2175 33.5182L34.4525 40.8759H21.6058L24.8292 33.4949C24.8757 33.388 24.8996 33.2727 24.8992 33.1562V26.4175H31.1357V33.1795C31.139 33.2969 31.1669 33.4123 31.2175 33.5182ZM33.1211 24.7241H22.9372V20.473H33.1211V24.7241ZM52.6598 50.908C52.6598 51.8093 52.3017 52.6737 51.6644 53.3111C51.027 53.9484 50.1626 54.3065 49.2612 54.3065C48.3599 54.3065 47.4955 53.9484 46.8581 53.3111C46.2208 52.6737 45.8627 51.8093 45.8627 50.908V47.5094H52.6598V50.908ZM52.6598 45.816H45.8627V26.4175H52.6598V45.816ZM54.3649 24.7241H44.1693V20.473H54.3649V24.7241Z" fill="#FF566D"/>
</svg>
