<svg width="59" height="59" viewBox="0 0 59 59" fill="none" xmlns="http://www.w3.org/2000/svg">
<path d="M58.4713 57.2851C54.0611 55.3575 49.4343 53.9738 44.6923 53.1642V49.7836C45.2631 50.0642 45.8883 50.2158 46.5238 50.2278C46.8644 50.2305 47.2038 50.1848 47.5317 50.0921C50.7029 49.2408 52.35 44.4413 52.4483 44.2316C52.4993 44.1192 52.5257 43.9972 52.5257 43.8738C52.5257 43.7503 52.4993 43.6283 52.4483 43.516C52.3877 43.406 52.3051 43.3098 52.2057 43.2334C52.1063 43.1569 51.9922 43.1019 51.8706 43.0718C48.724 42.3192 46.3517 42.5906 44.7906 43.8614V37.199C46.2318 37.0865 47.6353 36.6825 48.9169 36.0115C50.1985 35.3404 51.3316 34.4161 52.2481 33.2941C53.1645 32.1721 53.8455 30.8756 54.2499 29.4826C54.6543 28.0896 54.7738 26.6289 54.6012 25.1884C54.4287 23.7478 53.9676 22.3572 53.2458 21.1002C52.524 19.8431 51.5563 18.7456 50.401 17.8736C49.2457 17.0016 47.9266 16.3733 46.5231 16.0262C45.1195 15.6792 43.6606 15.6207 42.234 15.8543C42.4515 14.9199 42.5629 13.9638 42.5658 13.0043C42.568 10.472 41.8341 7.99402 40.4543 5.87405C39.0745 3.75408 37.1086 2.08414 34.7974 1.06884C32.4862 0.0535396 29.9302 -0.263032 27.4425 0.157912C24.9548 0.578856 22.6434 1.71903 20.7916 3.43875C18.9398 5.15847 17.6279 7.38304 17.0167 9.83991C16.4055 12.2968 16.5216 14.8793 17.3507 17.2709C18.1797 19.6626 19.6858 21.7596 21.6843 23.3049C23.6829 24.8503 26.0871 25.777 28.6025 25.9714V38.2477C28.3755 37.9827 28.1289 37.7353 27.865 37.5074C26.1731 36.2178 24.1354 35.4658 22.0142 35.3483C22.2318 34.5102 22.3433 33.648 22.346 32.782C22.3485 30.689 21.7434 28.6406 20.6047 26.8873C19.466 25.1339 17.8431 23.7516 15.9343 22.9092C14.0255 22.0668 11.9135 21.8009 9.85658 22.144C7.79964 22.487 5.88684 23.4242 4.352 24.8409C2.81716 26.2576 1.72678 28.0925 1.21415 30.1213C0.701518 32.15 0.788851 34.2847 1.46547 36.2645C2.14209 38.2442 3.37868 39.9832 5.02408 41.2688C6.66947 42.5544 8.65239 43.331 10.7304 43.5036V45.9712L10.5092 45.7985C7.71896 43.8244 3.13417 45.4654 2.90063 45.5394C2.7842 45.5838 2.67809 45.6517 2.58888 45.7389C2.49967 45.8262 2.42925 45.9309 2.38201 46.0466C2.33476 46.1622 2.31168 46.2864 2.3142 46.4114C2.31673 46.5364 2.3448 46.6595 2.39667 46.7732C4.01917 50.0304 5.93667 51.8564 8.07542 52.2389C8.33936 52.2835 8.60676 52.3041 8.87438 52.3006C9.5111 52.299 10.1415 52.1733 10.7304 51.9305V53.8675C7.2293 54.6623 3.81277 55.7944 0.528338 57.2481C0.415049 57.2959 0.31274 57.3665 0.227753 57.4556C0.142765 57.5446 0.076911 57.6503 0.0342717 57.766C-0.00836749 57.8816 -0.026883 58.0049 -0.0201271 58.128C-0.0133711 58.2512 0.0185122 58.3716 0.0735467 58.4819C0.122544 58.5944 0.193661 58.6959 0.28264 58.7802C0.37162 58.8645 0.476633 58.93 0.591393 58.9726C0.706153 59.0152 0.828301 59.0341 0.950525 59.0283C1.07275 59.0224 1.19253 58.9918 1.30271 58.9384C16.8271 51.8194 42.1725 51.8194 57.7706 58.9261C57.8877 58.9743 58.0129 58.9995 58.1394 59.0001C58.3127 58.9996 58.4824 58.9495 58.6283 58.8555C58.7742 58.7615 58.8903 58.6276 58.9629 58.4696C59.009 58.3595 59.0329 58.2413 59.0331 58.1219C59.0333 58.0025 59.0098 57.8843 58.964 57.774C58.9183 57.6638 58.8512 57.5638 58.7666 57.4799C58.682 57.396 58.5816 57.3298 58.4713 57.2851ZM30.3971 44.9472C31.3172 45.3817 32.3181 45.6171 33.3348 45.6381C33.921 45.6348 34.504 45.5518 35.0679 45.3913C38.6202 44.3303 40.4148 40.3205 40.4885 40.1477C40.54 40.0312 40.5667 39.9051 40.5667 39.7776C40.5667 39.6501 40.54 39.524 40.4885 39.4074C40.4352 39.2927 40.3584 39.1906 40.2631 39.1077C40.1678 39.0248 40.0561 38.9629 39.9354 38.9263C36.0021 37.7788 32.9783 37.9269 30.9502 39.3704C30.7569 39.5017 30.5759 39.6504 30.4094 39.8146V25.9714C31.3504 25.9162 32.2822 25.7548 33.1873 25.4903C33.1685 25.819 33.1685 26.1485 33.1873 26.4773C33.1958 29.1744 34.2098 31.7706 36.0297 33.7549C37.8496 35.7391 40.3435 36.9678 43.0206 37.199V47.6245C43.0206 47.8713 43.0206 48.0563 43.0206 48.1427V52.8681C38.8444 52.2057 34.625 51.8552 30.3971 51.8194V44.9472ZM30.4831 42.9978C30.7248 42.1515 31.2447 41.4123 31.9581 40.9003C33.3225 39.9256 35.5227 39.7652 38.3252 40.4315C37.4849 41.9394 36.1456 43.1047 34.5394 43.7257C33.8541 43.9016 33.1399 43.9332 32.4418 43.8186C31.7437 43.7039 31.0768 43.4455 30.4831 43.0595V42.9978ZM45.7371 45.2433C46.6713 44.429 48.1954 44.1946 50.3342 44.5524C49.7073 45.9342 48.5273 47.9083 47.0646 48.2537C46.6439 48.3386 46.2091 48.3213 45.7964 48.2033C45.3838 48.0852 45.0052 47.8699 44.6923 47.5752C44.7447 46.7137 45.1176 45.9035 45.7371 45.305V45.2433ZM43.8073 17.4953C45.5771 17.4953 47.3072 18.0221 48.7787 19.009C50.2503 19.996 51.3972 21.3988 52.0745 23.04C52.7518 24.6813 52.929 26.4873 52.5837 28.2296C52.2384 29.9719 51.3862 31.5724 50.1347 32.8285C48.8833 34.0847 47.2888 34.9401 45.553 35.2867C43.8172 35.6333 42.018 35.4554 40.3829 34.7756C38.7478 34.0958 37.3503 32.9445 36.367 31.4674C35.3838 29.9903 34.859 28.2538 34.859 26.4773C34.8637 25.8968 34.9254 25.3183 35.0433 24.75C37.9979 23.3395 40.315 20.8639 41.5333 17.8161C42.2738 17.6085 43.0385 17.5006 43.8073 17.4953ZM18.3267 13.0043C18.3291 10.7866 18.9865 8.61951 20.2157 6.77681C21.4448 4.93411 23.1907 3.49855 25.2325 2.65159C27.2744 1.80463 29.5205 1.58429 31.6871 2.01842C33.8537 2.45256 35.8434 3.52167 37.4047 5.09063C38.9661 6.65959 40.029 8.65797 40.4591 10.8332C40.8892 13.0084 40.6673 15.2627 39.8212 17.3113C38.9752 19.3599 37.5431 21.1107 35.706 22.3425C33.8688 23.5743 31.7091 24.2318 29.4998 24.2318C26.5354 24.2285 23.6935 23.0442 21.5985 20.939C19.5034 18.8337 18.3267 15.9799 18.3267 13.0043ZM28.5902 42.9608C27.1461 43.6273 25.5051 43.7242 23.9931 43.2322C21.9035 42.4673 20.1827 40.4068 18.8798 37.0632C20.7113 36.9152 24.4479 36.9028 26.7096 38.8276C27.3032 39.3381 27.7789 39.9724 28.1037 40.6861C28.4285 41.3999 28.5945 42.1761 28.5902 42.9608ZM2.67938 32.7573C2.6348 31.5506 2.83309 30.3472 3.2624 29.2192C3.69171 28.0911 4.34321 27.0615 5.17797 26.192C6.01273 25.3225 7.0136 24.6308 8.12073 24.1584C9.22787 23.6859 10.4185 23.4424 11.6216 23.4424C12.8246 23.4424 14.0153 23.6859 15.1224 24.1584C16.2295 24.6308 17.2304 25.3225 18.0652 26.192C18.8999 27.0615 19.5514 28.0911 19.9807 29.2192C20.41 30.3472 20.6083 31.5506 20.5638 32.7573C20.5588 33.5933 20.4346 34.4242 20.195 35.2249C19.2936 35.2244 18.3936 35.2945 17.5031 35.4346C17.377 35.4572 17.2571 35.5062 17.1512 35.5785C17.0453 35.6508 16.9558 35.7447 16.8885 35.8541C16.8226 35.9667 16.7819 36.0923 16.7692 36.2223C16.7564 36.3522 16.772 36.4834 16.8148 36.6067C17.1064 37.4745 17.4513 38.3233 17.8473 39.1483C16.591 40.3834 14.9992 41.2184 13.2718 41.5485C11.5444 41.8785 9.75827 41.6889 8.13781 41.0035C6.51735 40.3181 5.13475 39.1674 4.16363 37.6959C3.1925 36.2244 2.67614 34.4977 2.67938 32.7326V32.7573ZM8.35813 50.4992C7.03063 50.2648 5.71542 49.0434 4.51084 46.9583C5.94896 46.6128 8.19834 46.366 9.48896 47.2914C9.88669 47.6086 10.205 48.0148 10.4184 48.4776C10.6318 48.9403 10.7345 49.4467 10.7181 49.9564C10.0334 50.4423 9.18532 50.6373 8.35813 50.4992ZM12.5127 50.6843C13.3022 50.9673 14.1328 51.1174 14.971 51.1285C15.7386 51.1301 16.499 50.9792 17.2081 50.6843C19.1181 49.7337 20.5794 48.0675 21.2767 46.0453C21.3155 45.926 21.33 45.8001 21.3195 45.675C21.3089 45.55 21.2735 45.4283 21.2152 45.3173C21.1539 45.2092 21.0709 45.115 20.9714 45.0407C20.872 44.9663 20.7583 44.9135 20.6375 44.8855C17.0483 44.0342 14.3565 44.3056 12.611 45.6875H12.5496V43.4666C14.8536 43.2753 17.0328 42.3354 18.7569 40.7893C19.8025 42.6676 21.4606 44.1271 23.4523 44.9225C24.2414 45.2056 25.0727 45.3516 25.9106 45.3543C26.8365 45.3474 27.7548 45.1848 28.6271 44.8731V51.8194C23.2236 51.854 17.8357 52.4076 12.5373 53.4727L12.5127 50.6843ZM12.5988 48.809C12.7657 48.1352 13.1451 47.5336 13.6804 47.094C14.799 46.2056 16.6673 45.9836 19.1256 46.4154C18.5607 47.5592 17.6303 48.4801 16.4829 49.031C15.8545 49.2612 15.1859 49.3602 14.518 49.322C13.8502 49.2838 13.1971 49.1093 12.5988 48.809Z" fill="#FF566D"/>
<path d="M28.8945 12.1777H29.7676C30.0879 12.1777 30.3359 12.2109 30.5117 12.2773C30.6875 12.3398 30.7754 12.4902 30.7754 12.7285C30.7754 12.8926 30.7168 13.0254 30.5996 13.127C30.4824 13.2285 30.3301 13.2793 30.1426 13.2793H29.1055V13.3789C29.1055 13.7734 29.0156 14.1367 28.8359 14.4688C28.6602 14.7969 28.3516 15.209 27.9102 15.7051C28.0391 15.6738 28.166 15.6445 28.291 15.6172C28.4199 15.5898 28.5625 15.5664 28.7188 15.5469C28.8789 15.5234 29.0527 15.5117 29.2402 15.5117C29.502 15.5117 29.8672 15.543 30.3359 15.6055C30.8047 15.6641 31.1152 15.6934 31.2676 15.6934C31.4902 15.6934 31.7285 15.6543 31.9824 15.5762C32.2402 15.4941 32.4023 15.4531 32.4688 15.4531C32.6445 15.4531 32.8008 15.5234 32.9375 15.6641C33.0742 15.8047 33.1426 15.9707 33.1426 16.1621C33.1426 16.4863 32.959 16.7363 32.5918 16.9121C32.2285 17.084 31.8398 17.1699 31.4258 17.1699C31.1719 17.1699 30.4512 17.0332 29.2637 16.7598C29.2324 16.752 29.1797 16.7363 29.1055 16.7129C29.0312 16.6895 28.9395 16.6699 28.8301 16.6543C28.7207 16.6387 28.5898 16.6309 28.4375 16.6309C28.2734 16.6309 28.1289 16.6543 28.0039 16.7012C27.8789 16.748 27.6621 16.834 27.3535 16.959C27.0488 17.084 26.8418 17.1465 26.7324 17.1465C26.584 17.1465 26.4375 17.0801 26.293 16.9473C26.1523 16.8105 26.082 16.6328 26.082 16.4141C26.082 16.332 26.1074 16.2461 26.1582 16.1562C26.209 16.0664 26.2891 15.9648 26.3984 15.8516C26.5078 15.7344 26.6719 15.582 26.8906 15.3945C27.0898 15.2266 27.2559 14.9922 27.3887 14.6914C27.5254 14.3867 27.5938 14.0879 27.5938 13.7949C27.5938 13.6934 27.5742 13.5215 27.5352 13.2793H27.043C26.7539 13.2793 26.5352 13.2441 26.3867 13.1738C26.2422 13.1035 26.1699 12.9629 26.1699 12.752C26.1699 12.3691 26.418 12.1777 26.9141 12.1777H27.2598C27.0684 11.5684 26.9727 11.0879 26.9727 10.7363C26.9727 10.2559 27.0859 9.82812 27.3125 9.45312C27.5391 9.07812 27.8633 8.78516 28.2852 8.57422C28.707 8.35938 29.1895 8.25195 29.7324 8.25195C30.2129 8.25195 30.625 8.3125 30.9688 8.43359C31.3125 8.55078 31.6172 8.74609 31.8828 9.01953C32.3359 9.49219 32.5625 9.99609 32.5625 10.5312C32.5625 10.7227 32.4883 10.8926 32.3398 11.041C32.1914 11.1895 32.0098 11.2637 31.7949 11.2637C31.416 11.2637 31.1641 11.0527 31.0391 10.6309C30.9258 10.2246 30.7695 9.92578 30.5703 9.73438C30.375 9.53906 30.1113 9.44141 29.7793 9.44141C29.4199 9.44141 29.1289 9.55859 28.9062 9.79297C28.6875 10.0234 28.5781 10.3223 28.5781 10.6895C28.5781 10.9121 28.6016 11.1211 28.6484 11.3164C28.6953 11.5078 28.7773 11.7949 28.8945 12.1777Z" fill="#FF566D"/>
<path d="M43.7271 26.1227H44.248C44.4391 26.1227 44.5871 26.1425 44.692 26.1821C44.7969 26.2194 44.8493 26.3092 44.8493 26.4513C44.8493 26.5492 44.8144 26.6285 44.7444 26.6891C44.6745 26.7497 44.5836 26.78 44.4717 26.78H43.8529V26.8394C43.8529 27.0748 43.7993 27.2916 43.6921 27.4897C43.5872 27.6855 43.4031 27.9314 43.1397 28.2274C43.2166 28.2087 43.2924 28.1912 43.367 28.1749C43.4439 28.1586 43.529 28.1446 43.6222 28.133C43.7177 28.119 43.8215 28.112 43.9333 28.112C44.0895 28.112 44.3074 28.1306 44.5871 28.1679C44.8668 28.2029 45.0521 28.2204 45.143 28.2204C45.2758 28.2204 45.418 28.1971 45.5695 28.1504C45.7233 28.1015 45.8201 28.077 45.8597 28.077C45.9646 28.077 46.0578 28.119 46.1394 28.2029C46.221 28.2868 46.2617 28.3859 46.2617 28.5001C46.2617 28.6935 46.1522 28.8427 45.9331 28.9476C45.7163 29.0501 45.4844 29.1014 45.2374 29.1014C45.0859 29.1014 44.6559 29.0198 43.9473 28.8567C43.9287 28.852 43.8972 28.8427 43.8529 28.8287C43.8086 28.8147 43.7539 28.8031 43.6886 28.7937C43.6234 28.7844 43.5453 28.7797 43.4544 28.7797C43.3565 28.7797 43.2702 28.7937 43.1957 28.8217C43.1211 28.8497 42.9917 28.9009 42.8076 28.9755C42.6258 29.0501 42.5023 29.0874 42.437 29.0874C42.3484 29.0874 42.261 29.0478 42.1748 28.9685C42.0909 28.887 42.0489 28.7809 42.0489 28.6504C42.0489 28.6014 42.0641 28.5502 42.0944 28.4966C42.1247 28.443 42.1725 28.3824 42.2377 28.3148C42.303 28.2448 42.4009 28.1539 42.5314 28.0421C42.6503 27.9418 42.7493 27.802 42.8286 27.6225C42.9101 27.4407 42.9509 27.2624 42.9509 27.0876C42.9509 27.027 42.9393 26.9245 42.916 26.78H42.6223C42.4498 26.78 42.3193 26.759 42.2307 26.7171C42.1445 26.6751 42.1014 26.5912 42.1014 26.4653C42.1014 26.2369 42.2494 26.1227 42.5454 26.1227H42.7517C42.6375 25.7591 42.5804 25.4724 42.5804 25.2627C42.5804 24.976 42.6479 24.7208 42.7831 24.497C42.9183 24.2733 43.1118 24.0985 43.3635 23.9726C43.6152 23.8444 43.903 23.7803 44.227 23.7803C44.5137 23.7803 44.7596 23.8165 44.9647 23.8887C45.1698 23.9586 45.3516 24.0752 45.5101 24.2383C45.7804 24.5203 45.9156 24.821 45.9156 25.1403C45.9156 25.2545 45.8713 25.3559 45.7828 25.4445C45.6942 25.533 45.5858 25.5773 45.4576 25.5773C45.2316 25.5773 45.0812 25.4515 45.0066 25.1997C44.939 24.9574 44.8458 24.779 44.727 24.6648C44.6104 24.5483 44.4531 24.49 44.255 24.49C44.0406 24.49 43.8669 24.56 43.7341 24.6998C43.6035 24.8373 43.5383 25.0156 43.5383 25.2347C43.5383 25.3676 43.5523 25.4923 43.5802 25.6088C43.6082 25.723 43.6571 25.8943 43.7271 26.1227Z" fill="#FF566D"/>
<path d="M10.7271 32.1227H11.248C11.4391 32.1227 11.5871 32.1425 11.692 32.1821C11.7969 32.2194 11.8493 32.3092 11.8493 32.4513C11.8493 32.5492 11.8144 32.6285 11.7444 32.6891C11.6745 32.7497 11.5836 32.78 11.4717 32.78H10.8529V32.8394C10.8529 33.0748 10.7993 33.2916 10.6921 33.4897C10.5872 33.6855 10.4031 33.9314 10.1397 34.2274C10.2166 34.2087 10.2924 34.1912 10.367 34.1749C10.4439 34.1586 10.529 34.1446 10.6222 34.133C10.7177 34.119 10.8215 34.112 10.9333 34.112C11.0895 34.112 11.3074 34.1306 11.5871 34.1679C11.8668 34.2029 12.0521 34.2204 12.143 34.2204C12.2758 34.2204 12.418 34.1971 12.5695 34.1504C12.7233 34.1015 12.8201 34.077 12.8597 34.077C12.9646 34.077 13.0578 34.119 13.1394 34.2029C13.221 34.2868 13.2617 34.3859 13.2617 34.5001C13.2617 34.6935 13.1522 34.8427 12.9331 34.9476C12.7163 35.0501 12.4844 35.1014 12.2374 35.1014C12.0859 35.1014 11.6559 35.0198 10.9473 34.8567C10.9287 34.852 10.8972 34.8427 10.8529 34.8287C10.8086 34.8147 10.7539 34.8031 10.6886 34.7937C10.6234 34.7844 10.5453 34.7797 10.4544 34.7797C10.3565 34.7797 10.2702 34.7937 10.1957 34.8217C10.1211 34.8497 9.99173 34.9009 9.8076 34.9755C9.6258 35.0501 9.50227 35.0874 9.43701 35.0874C9.34844 35.0874 9.26104 35.0478 9.1748 34.9685C9.0909 34.887 9.04895 34.7809 9.04895 34.6504C9.04895 34.6014 9.0641 34.5502 9.09439 34.4966C9.12469 34.443 9.17247 34.3824 9.23773 34.3148C9.30299 34.2448 9.40089 34.1539 9.53141 34.0421C9.65027 33.9418 9.74933 33.802 9.82857 33.6225C9.91015 33.4407 9.95094 33.2624 9.95094 33.0876C9.95094 33.027 9.93928 32.9245 9.91598 32.78H9.6223C9.44983 32.78 9.31931 32.759 9.23074 32.7171C9.14451 32.6751 9.10139 32.5912 9.10139 32.4653C9.10139 32.2369 9.24939 32.1227 9.54539 32.1227H9.75166C9.63745 31.7591 9.58035 31.4724 9.58035 31.2627C9.58035 30.976 9.64794 30.7208 9.78312 30.497C9.91831 30.2733 10.1118 30.0985 10.3635 29.9726C10.6152 29.8444 10.903 29.7803 11.227 29.7803C11.5137 29.7803 11.7596 29.8165 11.9647 29.8887C12.1698 29.9586 12.3516 30.0752 12.5101 30.2383C12.7804 30.5203 12.9156 30.821 12.9156 31.1403C12.9156 31.2545 12.8713 31.3559 12.7828 31.4445C12.6942 31.533 12.5858 31.5773 12.4576 31.5773C12.2316 31.5773 12.0812 31.4515 12.0066 31.1997C11.939 30.9574 11.8458 30.779 11.727 30.6648C11.6104 30.5483 11.4531 30.49 11.255 30.49C11.0406 30.49 10.8669 30.56 10.7341 30.6998C10.6035 30.8373 10.5383 31.0156 10.5383 31.2347C10.5383 31.3676 10.5523 31.4923 10.5802 31.6088C10.6082 31.723 10.6571 31.8943 10.7271 32.1227Z" fill="#FF566D"/>
</svg>
