<svg width="53" height="56" viewBox="0 0 53 56" fill="none" xmlns="http://www.w3.org/2000/svg">
<path d="M49.2178 32.8534C48.3436 32.8581 47.4978 33.1672 46.8234 33.7284L43.6309 31.2434C44.4336 29.5592 45.1291 27.8252 45.713 26.0517H45.8518C46.7939 26.0566 47.7039 25.7066 48.4037 25.0704C49.1034 24.4341 49.5426 23.5574 49.6352 22.6117C49.7278 21.6661 49.4672 20.7197 48.9043 19.9576C48.3415 19.1956 47.5169 18.6729 46.5921 18.4917C46.3305 15.3804 45.4032 12.3633 43.8738 9.6484L45.9212 8.16673C46.5768 8.72813 47.4029 9.04665 48.2626 9.06948C49.1222 9.09231 49.9638 8.81808 50.6478 8.29225C51.3317 7.76643 51.8169 7.02061 52.0229 6.17847C52.2289 5.33634 52.1433 4.44848 51.7803 3.66215C51.4173 2.87582 50.7987 2.23824 50.0272 1.85516C49.2556 1.47208 48.3774 1.36651 47.5382 1.55596C46.699 1.7454 45.9492 2.21848 45.4132 2.89674C44.8771 3.575 44.587 4.41769 44.591 5.28507C44.5928 5.80667 44.699 6.32254 44.9033 6.80173L42.9832 8.22507C41.3657 5.7463 39.1701 3.70557 36.5888 2.28175C34.0075 0.857932 31.1193 0.0945082 28.1774 0.0584C25.7412 0.0604566 23.3343 0.593751 21.1216 1.62173C20.8494 1.17532 20.4887 0.790443 20.0621 0.49126C19.6355 0.192077 19.1523 -0.0149591 18.6426 -0.11686C18.1329 -0.218761 17.6079 -0.213327 17.1004 -0.1009C16.5929 0.0115272 16.1139 0.228522 15.6935 0.53647C15.2731 0.844418 14.9203 1.23667 14.6573 1.68863C14.3943 2.14059 14.2268 2.64249 14.1651 3.16285C14.1035 3.68321 14.1492 4.2108 14.2993 4.71251C14.4494 5.21423 14.7006 5.67925 15.0373 6.0784C11.7423 9.82539 9.85169 14.6175 9.69336 19.6234H7.46092C7.25476 18.7118 6.72289 17.9087 5.9669 17.3676C5.2109 16.8265 4.28377 16.5852 3.36256 16.6898C2.44136 16.7944 1.59064 17.2376 0.972898 17.9348C0.355154 18.632 0.0136719 19.5342 0.0136719 20.4692C0.0136719 21.4042 0.355154 22.3065 0.972898 23.0037C1.59064 23.7008 2.44136 24.1441 3.36256 24.2487C4.28377 24.3533 5.2109 24.112 5.9669 23.5709C6.72289 23.0297 7.25476 22.2267 7.46092 21.3151H9.67022C9.9247 25.5967 12.0646 30.0651 14.1467 34.3817L14.2161 34.5334L11.5672 37.5901C10.7634 37.1336 9.82123 36.9912 8.92006 37.1899C8.01888 37.3886 7.22159 37.9145 6.67994 38.6677C6.13829 39.4208 5.89009 40.3485 5.98258 41.2742C6.07507 42.2 6.50179 43.0591 7.18152 43.688C7.86126 44.317 8.74656 44.672 9.66893 44.6853C10.5913 44.6987 11.4863 44.3695 12.1837 43.7605C12.8811 43.1515 13.3321 42.3051 13.4509 41.3824C13.5697 40.4597 13.348 39.5252 12.828 38.7567L15.0373 36.1667C15.7545 37.6951 16.4485 39.2467 17.0268 40.7517H16.7724C16.5484 40.7517 16.3336 40.8415 16.1753 41.0012C16.0169 41.1609 15.928 41.3775 15.928 41.6034C15.928 41.8293 16.0169 42.0459 16.1753 42.2056C16.3336 42.3653 16.5484 42.4551 16.7724 42.4551H17.6862C18.0244 42.8869 18.2078 43.4214 18.2067 43.9717C18.2077 44.5256 18.0244 45.0638 17.6862 45.5001H16.7724C16.6615 45.5001 16.5517 45.5221 16.4492 45.5649C16.3468 45.6077 16.2537 45.6704 16.1753 45.7495C16.0969 45.8286 16.0347 45.9225 15.9922 46.0258C15.9498 46.1291 15.928 46.2399 15.928 46.3517C15.928 46.463 15.9499 46.5732 15.9925 46.6759C16.035 46.7786 16.0974 46.8717 16.176 46.9499C16.2545 47.028 16.3477 47.0896 16.4501 47.1312C16.5525 47.1727 16.662 47.1933 16.7724 47.1917H17.6862C18.0182 47.6308 18.1981 48.1678 18.1981 48.7201C18.1981 49.2723 18.0182 49.8093 17.6862 50.2484H16.7724C16.654 50.2343 16.534 50.2457 16.4202 50.2818C16.3065 50.3179 16.2017 50.3779 16.1126 50.4578C16.0235 50.5377 15.9522 50.6357 15.9034 50.7454C15.8546 50.8551 15.8293 50.974 15.8293 51.0942C15.8293 51.2145 15.8546 51.3334 15.9034 51.443C15.9522 51.5527 16.0235 51.6508 16.1126 51.7307C16.2017 51.8106 16.3065 51.8705 16.4202 51.9066C16.534 51.9427 16.654 51.9541 16.7724 51.9401H19.4212C19.6096 53.0724 20.189 54.1011 21.0569 54.8442C21.9248 55.5872 23.0253 55.9966 24.1637 56.0001H32.1796C33.313 55.998 34.4094 55.5935 35.2766 54.8575C36.1438 54.1215 36.7264 53.101 36.9221 51.9751H39.4784C39.5968 51.9891 39.7168 51.9777 39.8305 51.9416C39.9442 51.9055 40.0491 51.8456 40.1382 51.7657C40.2272 51.6858 40.2985 51.5877 40.3474 51.478C40.3962 51.3684 40.4214 51.2495 40.4214 51.1292C40.4214 51.009 40.3962 50.8901 40.3474 50.7804C40.2985 50.6707 40.2272 50.5727 40.1382 50.4928C40.0491 50.4129 39.9442 50.3529 39.8305 50.3168C39.7168 50.2807 39.5968 50.2693 39.4784 50.2834H38.6571C38.3251 49.8443 38.1452 49.3073 38.1452 48.7551C38.1452 48.2028 38.3251 47.6658 38.6571 47.2267H39.4784C39.5887 47.2283 39.6983 47.2077 39.8006 47.1662C39.903 47.1246 39.9962 47.063 40.0748 46.9849C40.1533 46.9067 40.2157 46.8136 40.2583 46.7109C40.3009 46.6082 40.3228 46.498 40.3228 46.3867C40.3228 46.1609 40.2338 45.9442 40.0755 45.7845C39.9171 45.6248 39.7023 45.5351 39.4784 45.5351H38.6571C38.3313 45.0942 38.1603 44.5565 38.1713 44.0067C38.1702 43.4564 38.3536 42.9219 38.6918 42.4901H39.5131C39.737 42.4901 39.9518 42.4003 40.1102 42.2406C40.2685 42.0809 40.3575 41.8643 40.3575 41.6384C40.3575 41.4125 40.2685 41.1959 40.1102 41.0362C39.9518 40.8765 39.737 40.7867 39.5131 40.7867H39.328C40.1493 38.5701 41.225 36.3067 42.3007 34.1134L42.9254 32.8067L45.8287 35.0701C45.5918 35.569 45.4692 36.1152 45.4701 36.6684C45.4701 37.4229 45.6919 38.1605 46.1075 38.7879C46.5232 39.4153 47.1139 39.9043 47.805 40.193C48.4962 40.4818 49.2567 40.5573 49.9904 40.4101C50.7241 40.2629 51.3981 39.8996 51.9271 39.366C52.456 38.8325 52.8163 38.1527 52.9622 37.4127C53.1082 36.6726 53.0333 35.9056 52.747 35.2085C52.4607 34.5114 51.9759 33.9155 51.3539 33.4963C50.7319 33.0771 50.0006 32.8534 49.2525 32.8534H49.2178ZM48.3734 3.15007C48.7898 3.15007 49.1968 3.2746 49.543 3.50791C49.8892 3.74123 50.159 4.07285 50.3184 4.46084C50.4777 4.84882 50.5194 5.27576 50.4382 5.68764C50.3569 6.09953 50.1564 6.47787 49.862 6.77482C49.5676 7.07178 49.1925 7.274 48.7841 7.35593C48.3757 7.43786 47.9525 7.39581 47.5678 7.2351C47.1831 7.07439 46.8543 6.80224 46.623 6.45306C46.3917 6.10388 46.2682 5.69336 46.2682 5.2734C46.2682 4.71026 46.49 4.17018 46.8848 3.77198C47.2796 3.37377 47.8151 3.15007 48.3734 3.15007ZM9.67022 43.0267C9.25336 43.0267 8.84589 42.9019 8.49944 42.6681C8.153 42.4342 7.88318 42.1019 7.72419 41.7132C7.5652 41.3246 7.52419 40.897 7.60636 40.4848C7.68854 40.0726 7.89019 39.6943 8.18576 39.3978C8.48134 39.1014 8.85753 38.9001 9.26665 38.8195C9.67578 38.7388 10.0994 38.7826 10.4839 38.9451C10.8684 39.1076 11.1963 39.3815 11.4263 39.7322C11.6562 40.083 11.7777 40.4946 11.7754 40.9151C11.7754 41.1934 11.7209 41.4689 11.6149 41.7259C11.509 41.9828 11.3538 42.2161 11.1581 42.4124C10.9625 42.6086 10.7303 42.7639 10.475 42.8694C10.2196 42.9748 9.94613 43.0283 9.67022 43.0267ZM42.266 30.1934L35.9736 25.2701C36.5802 24.3217 37.0113 23.2703 37.246 22.1667L42.1041 22.7151C42.1739 23.3328 42.3915 23.9242 42.738 24.4383C43.0846 24.9525 43.5498 25.374 44.0936 25.6667C43.5773 27.2083 42.9669 28.7162 42.266 30.1817V30.1934ZM20.6126 20.2767C20.6103 18.7644 21.053 17.2853 21.8846 16.0269C22.7163 14.7684 23.8994 13.7872 25.2843 13.2073C26.6692 12.6275 28.1935 12.4752 29.6642 12.7697C31.135 13.0642 32.486 13.7922 33.5463 14.8616C34.6066 15.931 35.3284 17.2937 35.6204 18.7771C35.9123 20.2605 35.7613 21.798 35.1864 23.1948C34.6116 24.5916 33.6387 25.785 32.391 26.6237C31.1433 27.4625 29.6769 27.909 28.1774 27.9067C26.17 27.9036 24.2459 27.0972 22.8276 25.6644C21.4092 24.2317 20.6126 22.2897 20.6126 20.2651V20.2767ZM47.957 22.2484C47.9593 22.6688 47.8378 23.0805 47.6078 23.4312C47.3779 23.7819 47.0499 24.0559 46.6655 24.2184C46.281 24.3809 45.8574 24.4246 45.4482 24.344C45.0391 24.2634 44.6629 24.0621 44.3673 23.7656C44.0718 23.4691 43.8701 23.0908 43.7879 22.6786C43.7058 22.2664 43.7468 21.8389 43.9058 21.4502C44.0648 21.0616 44.3346 20.7292 44.681 20.4954C45.0275 20.2616 45.4349 20.1367 45.8518 20.1367C46.4062 20.1367 46.9381 20.3572 47.3323 20.7504C47.7264 21.1435 47.9509 21.6776 47.957 22.2367V22.2484ZM44.8917 18.5734C44.2949 18.7337 43.7458 19.0385 43.2922 19.4614C42.8387 19.8843 42.4944 20.4125 42.2892 21.0001L37.4195 20.4517C37.4252 20.3935 37.4252 20.3349 37.4195 20.2767C37.419 18.5769 36.9548 16.9099 36.0777 15.4584L42.4974 10.6867C43.824 13.1177 44.6391 15.7986 44.8917 18.5617V18.5734ZM28.1774 1.69173C30.8633 1.73345 33.4974 2.44315 35.846 3.75786C38.1947 5.07258 40.1854 6.95165 41.6414 9.2284L35.1176 14.0817C33.7674 12.5475 31.9537 11.5048 29.957 11.1146C27.9602 10.7245 25.8917 11.0087 24.0711 11.9234L20.7398 6.5334C21.1024 6.18079 21.3914 5.75871 21.59 5.29191C21.7887 4.82512 21.8929 4.32302 21.8965 3.81507C21.8912 3.57642 21.868 3.33853 21.8271 3.1034C23.8202 2.18253 25.9852 1.70126 28.1774 1.69173ZM18.0794 1.69173C18.4963 1.68942 18.9044 1.81199 19.2522 2.04389C19.5999 2.2758 19.8715 2.60661 20.0326 2.99439C20.1937 3.38216 20.2371 3.80946 20.1571 4.22211C20.0772 4.63476 19.8776 5.01419 19.5837 5.31232C19.2897 5.61044 18.9147 5.81383 18.506 5.89671C18.0973 5.97959 17.6734 5.93822 17.2881 5.77786C16.9027 5.6175 16.5732 5.34536 16.3414 4.99593C16.1096 4.6465 15.9858 4.23552 15.9858 3.81507C15.9858 3.25394 16.206 2.71562 16.5983 2.31775C16.9906 1.91988 17.5231 1.69482 18.0794 1.69173ZM16.3212 7.17507C16.859 7.47749 17.4638 7.63801 18.0794 7.64173C18.4973 7.63461 18.9113 7.55977 19.3055 7.42007L22.6253 12.8334C21.5798 13.625 20.7124 14.6311 20.0804 15.7854C19.4484 16.9397 19.066 18.2159 18.9585 19.5301L11.3821 19.6234C11.5313 15.0184 13.2794 10.6125 16.3212 7.17507ZM3.78262 22.6684C3.36625 22.6684 2.95923 22.5439 2.61303 22.3106C2.26684 22.0772 1.99701 21.7456 1.83767 21.3576C1.67833 20.9696 1.63664 20.5427 1.71787 20.1308C1.7991 19.7189 1.9996 19.3406 2.29402 19.0436C2.58844 18.7467 2.96355 18.5445 3.37191 18.4625C3.78028 18.3806 4.20357 18.4227 4.58824 18.5834C4.97291 18.7441 5.3017 19.0162 5.53302 19.3654C5.76434 19.7146 5.88781 20.1251 5.88781 20.5451C5.88477 21.1073 5.662 21.6456 5.26786 22.0431C4.87371 22.4406 4.34001 22.6653 3.78262 22.6684ZM11.3821 21.3034L18.9701 21.2217C19.1824 23.2229 20.0304 25.1013 21.3876 26.5767L15.4653 33.1917C13.5452 29.1667 11.625 25.0834 11.3821 21.3034ZM19.5947 42.4901H36.7486C36.3664 43.4685 36.3664 44.5567 36.7486 45.5351H19.5947C19.9769 44.5567 19.9769 43.4685 19.5947 42.4901ZM32.1796 54.2967H24.1637C23.475 54.296 22.8055 54.0673 22.2581 53.6458C21.7106 53.2243 21.3154 52.6333 21.1331 51.9634H35.2102C35.0261 52.6323 34.6305 53.2222 34.0834 53.6434C33.5364 54.0646 32.8678 54.294 32.1796 54.2967ZM19.5947 50.2834C19.9765 49.3009 19.9765 48.2092 19.5947 47.2267H36.7486C36.3668 48.2092 36.3668 49.3009 36.7486 50.2834H19.5947ZM40.7508 33.3667C39.5231 35.7892 38.4378 38.2824 37.5004 40.8334H18.8082C18.1026 38.8617 17.1888 36.8551 16.2518 34.8834L22.6368 27.7667C24.4652 29.1495 26.7386 29.796 29.0138 29.5803C31.2891 29.3646 33.4032 28.3022 34.9441 26.6001L41.5257 31.7334L40.7508 33.3667ZM49.2178 38.7917C48.8014 38.7917 48.3944 38.6672 48.0482 38.4339C47.702 38.2006 47.4322 37.8689 47.2729 37.481C47.1135 37.093 47.0718 36.666 47.1531 36.2542C47.2343 35.8423 47.4348 35.4639 47.7292 35.167C48.0236 34.87 48.3987 34.6678 48.8071 34.5859C49.2155 34.5039 49.6387 34.546 50.0234 34.7067C50.4081 34.8674 50.7369 35.1396 50.9682 35.4887C51.1995 35.8379 51.323 36.2484 51.323 36.6684C51.32 37.2306 51.0972 37.7689 50.703 38.1664C50.3089 38.564 49.7752 38.7887 49.2178 38.7917Z" fill="#FF566D"/>
<path d="M28.5931 24.8499L32.3408 17.8499C32.438 17.6528 32.4558 17.4254 32.3904 17.2154C32.325 17.0053 32.1815 16.829 31.9899 16.7233C31.7984 16.6177 31.5738 16.591 31.3632 16.6488C31.1525 16.7065 30.9723 16.8444 30.8602 17.0333L27.6908 22.9599L25.4468 20.4399C25.3709 20.3564 25.2794 20.2889 25.1775 20.241C25.0757 20.1932 24.9655 20.1661 24.8533 20.1612C24.741 20.1563 24.6289 20.1738 24.5234 20.2126C24.4178 20.2514 24.3209 20.3108 24.2381 20.3874C24.1553 20.4641 24.0883 20.5564 24.0409 20.6591C23.9935 20.7618 23.9666 20.8729 23.9617 20.9862C23.9569 21.0994 23.9742 21.2124 24.0127 21.3189C24.0512 21.4253 24.1101 21.5231 24.186 21.6066L27.1819 25.1066C27.2635 25.1944 27.3621 25.2645 27.4714 25.3126C27.5808 25.3608 27.6988 25.3859 27.8181 25.3866H27.9106C28.0618 25.3676 28.205 25.3076 28.3252 25.2132C28.4453 25.1187 28.5379 24.9932 28.5931 24.8499Z" fill="#FF566D"/>
</svg>
