<svg width="53" height="55" viewBox="0 0 53 55" fill="none" xmlns="http://www.w3.org/2000/svg">
<path d="M52.0855 0.485419C52.0855 0.485419 52.0855 0.485419 52.0291 0.395108C51.9792 0.325504 51.9183 0.264501 51.8488 0.214487H51.7699L51.5783 0H51.443H51.3416H0.822818H0.721375H0.574845L0.38323 0.135466L0.30433 0.180621C0.235963 0.24174 0.17875 0.314321 0.135258 0.395108C0.131811 0.425113 0.131811 0.455414 0.135258 0.485419C0.06548 0.586771 0.0192621 0.702493 0 0.824083L0 12.4967C0.00194722 12.6139 0.0288462 12.7294 0.0789003 12.8354C0.0737372 12.8615 0.0737372 12.8883 0.0789003 12.9144C0.12134 12.983 0.170419 13.0473 0.22543 13.1063C0.22543 13.1063 0.22543 13.1063 0.30433 13.1063C0.363498 13.1455 0.428043 13.176 0.495945 13.1966H0.642474H0.743917H51.3416C51.4418 13.1954 51.5411 13.1762 51.6346 13.1402L51.7248 13.0837C51.7695 13.068 51.8114 13.0451 51.8488 13.016C51.9038 12.957 51.9529 12.8927 51.9953 12.8241C51.9953 12.8241 51.9953 12.8241 52.0517 12.7451C52.1017 12.6391 52.1286 12.5236 52.1306 12.4064V0.824083C52.1393 0.70928 52.124 0.593913 52.0855 0.485419ZM22.4302 6.6604L1.63436 11.4694V1.85136L22.4302 6.6604ZM26.0822 7.49577L44.1166 11.6726H8.04783L26.0822 7.49577ZM29.7229 6.6604L50.5188 1.85136V11.4694L29.7229 6.6604ZM26.0822 5.81374L8.04783 1.63688H44.1391L26.0822 5.81374Z" fill="#FF566D"/>
<path d="M13.2008 29.6443C13.1713 29.5829 13.1334 29.5259 13.0881 29.475V29.4185C13.027 29.356 12.9543 29.3061 12.874 29.2718C12.7825 29.2422 12.6879 29.2232 12.5922 29.2153H0.79093C0.695149 29.2232 0.600596 29.2422 0.509143 29.2718C0.427332 29.3033 0.354002 29.3536 0.294985 29.4185V29.475L0.170999 29.6443V29.7233C0.153938 29.8204 0.153938 29.9197 0.170999 30.0168V41.6895C0.172377 41.7862 0.19148 41.8819 0.227357 41.9717V42.0507C0.25932 42.1135 0.301187 42.1706 0.351343 42.22V42.2878C0.413285 42.3492 0.485845 42.399 0.565501 42.4345C0.65875 42.4505 0.754039 42.4505 0.847288 42.4345H12.4795C12.5882 42.4336 12.6955 42.4106 12.7951 42.3668C12.8731 42.3285 12.9453 42.279 13.0092 42.22V42.1523C13.0592 42.1052 13.0977 42.0473 13.1219 41.983C13.1278 41.957 13.1278 41.93 13.1219 41.9039C13.1578 41.8141 13.1769 41.7185 13.1783 41.6217V30.0168C13.177 29.9164 13.1579 29.817 13.1219 29.7233L13.2008 29.6443ZM5.49114 35.8532L1.63629 39.7026V31.9924L5.49114 35.8532ZM6.61828 36.982L10.4957 40.8654H2.79725L6.61828 36.982ZM7.74543 35.8532L11.589 31.9924V39.7026L7.74543 35.8532ZM6.61828 34.7243L2.79725 30.8296H10.4957L6.61828 34.7243Z" fill="#FF566D"/>
<path d="M32.6881 29.6557C32.6533 29.5877 32.6118 29.5234 32.5641 29.4638H32.5077C32.4451 29.3951 32.3681 29.3411 32.2823 29.3057C32.1908 29.2761 32.0963 29.2572 32.0005 29.2493H20.2218C20.126 29.2572 20.0315 29.2761 19.94 29.3057C19.8644 29.3375 19.7955 29.3835 19.7371 29.4412L19.6695 29.5089C19.6316 29.5628 19.5977 29.6194 19.5681 29.6782C19.5644 29.7045 19.5644 29.7311 19.5681 29.7573C19.5333 29.8435 19.5142 29.9352 19.5117 30.0282V41.6895C19.5129 41.7826 19.532 41.8746 19.5681 41.9605C19.5623 41.9865 19.5623 42.0135 19.5681 42.0395C19.5925 42.1011 19.6267 42.1583 19.6695 42.2088L19.7371 42.2766C19.7979 42.3344 19.8661 42.3837 19.94 42.4233C20.0333 42.4393 20.1286 42.4393 20.2218 42.4233H31.9103C32.019 42.4224 32.1264 42.3994 32.2259 42.3556C32.3072 42.3123 32.383 42.2592 32.4514 42.1975L32.5077 42.1411L32.6317 41.9605C32.6366 41.9382 32.6366 41.915 32.6317 41.8927C32.6767 41.8015 32.6999 41.701 32.6993 41.5992V30.0169C32.7012 29.915 32.678 29.8142 32.6317 29.7234C32.6565 29.7066 32.6761 29.6831 32.6881 29.6557ZM21.0785 31.9924L24.922 35.8532L21.0785 39.7027V31.9924ZM26.083 37.016L29.9378 40.8655H22.2281L26.083 37.016ZM31.0875 39.7027L27.244 35.8532L31.0875 31.9924V39.7027ZM26.083 34.6905L22.2281 30.8297H29.9378L26.083 34.6905Z" fill="#FF566D"/>
<path d="M52.0627 29.6443C52.0291 29.5853 51.9915 29.5287 51.95 29.475C51.95 29.475 51.95 29.475 51.8937 29.4185C51.8326 29.356 51.7598 29.3061 51.6795 29.2718C51.5881 29.2422 51.4935 29.2232 51.3977 29.2153H39.6528C39.5569 29.222 39.4622 29.241 39.3711 29.2718C39.2893 29.3033 39.2159 29.3536 39.1569 29.4185C39.1529 29.4371 39.1529 29.4564 39.1569 29.475C39.1084 29.5258 39.0668 29.5827 39.0329 29.6443V29.7233C38.9969 29.817 38.9778 29.9164 38.9766 30.0168V41.6895C38.9779 41.7862 38.997 41.8819 39.0329 41.9717V42.0507C39.0611 42.1157 39.1035 42.1736 39.1569 42.22V42.2878C39.2188 42.3493 39.2914 42.399 39.3711 42.4345C39.4642 42.4515 39.5597 42.4515 39.6528 42.4345H51.3414C51.4501 42.4337 51.5575 42.4106 51.657 42.3668C51.7351 42.3285 51.8072 42.279 51.8711 42.22L51.9275 42.1523C51.9739 42.1023 52.012 42.0451 52.0402 41.983C52.0423 41.9567 52.0423 41.9302 52.0402 41.904C52.0761 41.8141 52.0952 41.7185 52.0966 41.6217V30.0168C52.0953 29.9164 52.0762 29.817 52.0402 29.7233C52.0455 29.6964 52.053 29.67 52.0627 29.6443ZM44.3531 35.8532L40.4982 39.7026V31.9924L44.3531 35.8532ZM45.4802 36.982L49.3238 40.8315H41.7043L45.4802 36.982ZM46.6073 35.8532L50.4509 31.9924V39.7026L46.6073 35.8532ZM45.4802 34.7243L41.7043 30.8296H49.4027L45.4802 34.7243Z" fill="#FF566D"/>
<path d="M45.515 19.191C45.7332 19.191 45.9425 19.1042 46.0968 18.9496C46.2511 18.7951 46.3378 18.5855 46.3378 18.3669C46.3378 18.1484 46.2511 17.9388 46.0968 17.7842C45.9425 17.6297 45.7332 17.5428 45.515 17.5428H6.65094C6.43272 17.5428 6.22343 17.6297 6.06912 17.7842C5.91481 17.9388 5.82812 18.1484 5.82812 18.3669C5.82812 18.5855 5.91481 18.7951 6.06912 18.9496C6.22343 19.1042 6.43272 19.191 6.65094 19.191H45.515Z" fill="#FF566D"/>
<path d="M35.7983 23.3566H16.3662C16.2509 23.343 16.1339 23.354 16.0231 23.389C15.9123 23.4239 15.8101 23.4819 15.7233 23.5592C15.6365 23.6365 15.567 23.7314 15.5194 23.8375C15.4719 23.9437 15.4473 24.0587 15.4473 24.175C15.4473 24.2914 15.4719 24.4064 15.5194 24.5125C15.567 24.6187 15.6365 24.7135 15.7233 24.7908C15.8101 24.8682 15.9123 24.9262 16.0231 24.9611C16.1339 24.996 16.2509 25.0071 16.3662 24.9935H35.7983C35.9984 24.9699 36.183 24.8735 36.317 24.7226C36.4509 24.5718 36.5249 24.3769 36.5249 24.175C36.5249 23.9731 36.4509 23.7783 36.317 23.6274C36.183 23.4766 35.9984 23.3802 35.7983 23.3566Z" fill="#FF566D"/>
<path d="M12.4775 46.7018H0.822818C0.604593 46.7018 0.395306 46.7886 0.240998 46.9432C0.0866895 47.0977 0 47.3073 0 47.5259C0 47.7444 0.0866895 47.954 0.240998 48.1086C0.395306 48.2631 0.604593 48.35 0.822818 48.35H12.4775C12.6958 48.35 12.905 48.2631 13.0593 48.1086C13.2137 47.954 13.3003 47.7444 13.3003 47.5259C13.3003 47.3073 13.2137 47.0977 13.0593 46.9432C12.905 46.7886 12.6958 46.7018 12.4775 46.7018Z" fill="#FF566D"/>
<path d="M10.5388 52.5493H0.822818C0.606532 52.5493 0.398935 52.6346 0.244947 52.7867C0.0909585 52.9388 0.00296282 53.1455 0 53.3621C0 53.5807 0.0866895 53.7903 0.240998 53.9448C0.395306 54.0994 0.604593 54.1862 0.822818 54.1862H10.5388C10.7551 54.1832 10.9615 54.0951 11.1134 53.9409C11.2653 53.7866 11.3504 53.5787 11.3504 53.3621C11.3504 53.2554 11.3294 53.1497 11.2886 53.0511C11.2478 52.9525 11.188 52.8629 11.1127 52.7874C11.0373 52.7119 10.9479 52.652 10.8494 52.6112C10.7509 52.5703 10.6454 52.5493 10.5388 52.5493Z" fill="#FF566D"/>
<path d="M31.9105 46.7018H20.2896C20.0714 46.7018 19.8621 46.7886 19.7078 46.9432C19.5535 47.0977 19.4668 47.3073 19.4668 47.5259C19.4668 47.7444 19.5535 47.954 19.7078 48.1086C19.8621 48.2631 20.0714 48.35 20.2896 48.35H31.9105C32.1287 48.35 32.338 48.2631 32.4923 48.1086C32.6466 47.954 32.7333 47.7444 32.7333 47.5259C32.7333 47.3073 32.6466 47.0977 32.4923 46.9432C32.338 46.7886 32.1287 46.7018 31.9105 46.7018Z" fill="#FF566D"/>
<path d="M26.0832 52.5494H20.2896C20.0733 52.5494 19.8657 52.6347 19.7117 52.7868C19.5578 52.9389 19.4698 53.1456 19.4668 53.3622C19.4668 53.5808 19.5535 53.7904 19.7078 53.9449C19.8621 54.0995 20.0714 54.1863 20.2896 54.1863H26.117C26.3352 54.1863 26.5445 54.0995 26.6988 53.9449C26.8531 53.7904 26.9398 53.5808 26.9398 53.3622C26.9384 53.252 26.9149 53.1433 26.8708 53.0423C26.8267 52.9414 26.7628 52.8503 26.6829 52.7745C26.6031 52.6988 26.5088 52.6398 26.4058 52.6011C26.3028 52.5625 26.1931 52.5449 26.0832 52.5494Z" fill="#FF566D"/>
<path d="M51.3408 46.7018H39.6861C39.4679 46.7018 39.2586 46.7886 39.1043 46.9432C38.95 47.0977 38.8633 47.3073 38.8633 47.5259C38.8633 47.7444 38.95 47.954 39.1043 48.1086C39.2586 48.2631 39.4679 48.35 39.6861 48.35H51.3408C51.559 48.35 51.7683 48.2631 51.9226 48.1086C52.0769 47.954 52.1636 47.7444 52.1636 47.5259C52.1636 47.3073 52.0769 47.0977 51.9226 46.9432C51.7683 46.7886 51.559 46.7018 51.3408 46.7018Z" fill="#FF566D"/>
<path d="M51.3408 52.5494H39.6861C39.5786 52.5479 39.4718 52.5678 39.3721 52.608C39.2723 52.6482 39.1815 52.7078 39.1049 52.7834C39.0284 52.8591 38.9676 52.9492 38.9261 53.0485C38.8846 53.1479 38.8633 53.2545 38.8633 53.3622C38.8633 53.5807 38.95 53.7904 39.1043 53.9449C39.2586 54.0994 39.4679 54.1863 39.6861 54.1863H51.3408C51.559 54.1863 51.7683 54.0994 51.9226 53.9449C52.0769 53.7904 52.1636 53.5807 52.1636 53.3622C52.1607 53.1456 52.0727 52.9389 51.9187 52.7868C51.7647 52.6346 51.5571 52.5494 51.3408 52.5494Z" fill="#FF566D"/>
</svg>
