<svg width="65" height="58" viewBox="0 0 65 58" fill="none" xmlns="http://www.w3.org/2000/svg">
<path d="M63.8999 55.7624H60.7423L45.4809 26.8454C45.3888 26.6976 45.2606 26.5757 45.1083 26.4912C44.9561 26.4066 44.7848 26.3623 44.6106 26.3623C44.4364 26.3623 44.2652 26.4066 44.1129 26.4912C43.9606 26.5757 43.8324 26.6976 43.7403 26.8454L39.2469 35.4274L28.0876 14.3502V1.62567C28.0876 1.36442 27.9838 1.11387 27.799 0.929137C27.6143 0.744406 27.3638 0.640625 27.1025 0.640625L11.3149 0.640625C11.128 0.640858 10.945 0.69427 10.7873 0.794624C10.6296 0.894978 10.5037 1.03813 10.4243 1.20736C10.3435 1.37581 10.3145 1.56444 10.3409 1.74938C10.3673 1.93433 10.448 2.10728 10.5727 2.24638L12.9881 5.13403L10.5727 8.02169C10.4484 8.16374 10.3682 8.33893 10.3418 8.52584C10.3154 8.71276 10.3441 8.90331 10.4243 9.07419C10.505 9.24243 10.6312 9.3847 10.7886 9.48487C10.946 9.58504 11.1283 9.6391 11.3149 9.64093H26.158V14.3502L23.945 18.5468C23.7482 17.6347 23.269 16.8077 22.5755 16.1835C21.8819 15.5592 21.0093 15.1693 20.0816 15.0692C19.1539 14.9691 18.2182 15.1639 17.4075 15.6259C16.5968 16.0879 15.9522 16.7935 15.5654 17.6427C15.3417 17.5782 15.11 17.5464 14.8772 17.5482C14.1042 17.5482 13.3629 17.8553 12.8163 18.4019C12.2696 18.9485 11.9626 19.6899 11.9626 20.4629C11.9559 20.5842 11.9559 20.7059 11.9626 20.8272C11.3459 21.1881 10.8652 21.7421 10.5948 22.4035C10.3245 23.065 10.2795 23.7971 10.4669 24.4866C10.6543 25.1762 11.0635 25.7848 11.6314 26.2185C12.1993 26.6522 12.8943 26.8867 13.6088 26.8859H19.5191L4.25766 55.7624H1.10013C0.962015 55.7462 0.822022 55.7594 0.689364 55.8011C0.556706 55.8429 0.434391 55.9122 0.330467 56.0046C0.226543 56.097 0.143365 56.2104 0.0864064 56.3373C0.029448 56.4642 0 56.6017 0 56.7407C0 56.8798 0.029448 57.0173 0.0864064 57.1442C0.143365 57.271 0.226543 57.3844 0.330467 57.4768C0.434391 57.5692 0.556706 57.6386 0.689364 57.6803C0.822022 57.7221 0.962015 57.7353 1.10013 57.719H63.8999C64.038 57.7353 64.178 57.7221 64.3106 57.6803C64.4433 57.6386 64.5656 57.5692 64.6695 57.4768C64.7735 57.3844 64.8566 57.271 64.9136 57.1442C64.9706 57.0173 65 56.8798 65 56.7407C65 56.6017 64.9706 56.4642 64.9136 56.3373C64.8566 56.2104 64.7735 56.097 64.6695 56.0046C64.5656 55.9122 64.4433 55.8429 64.3106 55.8011C64.178 55.7594 64.038 55.7462 63.8999 55.7624ZM44.6443 29.4092L48.8544 37.357C48.5382 37.2989 48.2178 37.2673 47.8963 37.2626C47.1643 37.2612 46.4393 37.4048 45.763 37.685C45.0868 37.9652 44.4727 38.3766 43.9562 38.8953C43.3647 39.4847 42.5881 39.8521 41.7573 39.9357C40.9265 40.0193 40.0923 39.8139 39.3953 39.3541L44.6443 29.4092ZM13.4199 7.67085L14.9582 5.76824C15.1091 5.59405 15.1922 5.37128 15.1922 5.14078C15.1922 4.91028 15.1091 4.68751 14.9582 4.51332L13.4199 2.61071H26.1175V7.67085H13.4199ZM12.2594 23.5799C12.2722 23.2861 12.3806 23.0045 12.5682 22.778C12.7557 22.5514 13.0122 22.3924 13.2985 22.325C13.452 22.2936 13.5963 22.2274 13.7203 22.1315C13.8443 22.0356 13.9446 21.9125 14.0136 21.7718C14.0869 21.6324 14.1252 21.4772 14.1252 21.3197C14.1252 21.1622 14.0869 21.0071 14.0136 20.8677C13.933 20.7283 13.8911 20.5699 13.8922 20.4089C13.8918 20.2259 13.9447 20.0468 14.0443 19.8932C14.1438 19.7397 14.2859 19.6184 14.4531 19.5441C14.6203 19.4697 14.8056 19.4456 14.9862 19.4746C15.1669 19.5035 15.3353 19.5844 15.4709 19.7072C15.6039 19.8275 15.7667 19.9098 15.9424 19.9454C16.1181 19.981 16.3002 19.9686 16.4695 19.9096C16.6361 19.8448 16.7825 19.737 16.8939 19.5971C17.0053 19.4573 17.0777 19.2904 17.1037 19.1135C17.1677 18.4729 17.478 17.8823 17.9691 17.4661C18.4603 17.0499 19.0939 16.8408 19.7362 16.8828C20.3786 16.9248 20.9796 17.2147 21.4123 17.6913C21.8451 18.1679 22.0758 18.7939 22.0559 19.4374C22.0689 19.59 22.0689 19.7435 22.0559 19.8962C22.0229 20.0544 22.0317 20.2184 22.0814 20.3722C22.1311 20.526 22.2199 20.6642 22.3392 20.7732C22.4546 20.8868 22.5965 20.9697 22.752 21.0145C22.9075 21.0592 23.0718 21.0644 23.2298 21.0296C23.747 20.9831 24.2614 21.1439 24.6599 21.4767C25.0585 21.8094 25.3086 22.2869 25.3551 22.804C25.4016 23.3212 25.2408 23.8356 24.908 24.2342C24.5753 24.6327 24.0978 24.8828 23.5807 24.9293H13.6088C13.2509 24.9293 12.9077 24.7871 12.6547 24.5341C12.4016 24.281 12.2594 23.9378 12.2594 23.5799ZM23.5402 26.8319C24.3949 26.8299 25.2253 26.5471 25.9035 26.027C26.5818 25.507 27.0705 24.7785 27.2943 23.9536C27.5182 23.1287 27.4649 22.2531 27.1425 21.4615C26.8202 20.6699 26.2467 20.0062 25.5103 19.5723L27.1025 16.6981L32.0412 26.0628C31.0405 25.8424 30.0004 25.8777 29.017 26.1655C28.0336 26.4532 27.1385 26.984 26.4143 27.709C25.7136 28.4112 24.7861 28.8415 23.7974 28.9231C22.8087 29.0046 21.8232 28.7322 21.0169 28.1543L21.6915 26.8859L23.5402 26.8319ZM20.0858 29.8545C21.2629 30.6175 22.6663 30.9533 24.0613 30.806C25.4563 30.6586 26.7585 30.0369 27.7502 29.0449C28.5216 28.2662 29.5685 27.8225 30.6645 27.8099C31.7605 27.7972 32.8174 28.2167 33.6065 28.9774L38.0999 37.465L28.4519 55.7624H6.47063L20.0858 29.8545ZM45.5484 55.7624H30.7053L38.4372 41.1218C39.5038 41.7841 40.7631 42.0659 42.0102 41.9213C43.2573 41.7768 44.4188 41.2144 45.3055 40.3256C45.9802 39.6848 46.8717 39.3219 47.8022 39.3094C48.7326 39.2969 49.6335 39.6357 50.3252 40.2582L58.5294 55.8029L45.5484 55.7624Z" fill="#FFC33A"/>
<path d="M37.1285 18.7898H46.8575C47.3411 18.7961 47.8197 18.6912 48.2563 18.4833C48.693 18.2754 49.076 17.9699 49.3759 17.5905C49.6758 17.211 49.8845 16.7678 49.986 16.2949C50.0874 15.822 50.0789 15.3322 49.9611 14.8631H56.7079C57.4083 14.8612 58.0887 14.6295 58.6447 14.2034C59.2006 13.7774 59.6013 13.1806 59.7852 12.5048C59.9691 11.829 59.926 11.1115 59.6626 10.4625C59.3992 9.81348 58.93 9.26891 58.3272 8.9124C58.3848 8.50547 58.3523 8.09085 58.2321 7.69785C58.1118 7.30484 57.9067 6.94304 57.6313 6.638C57.3559 6.33297 57.0168 6.09214 56.6381 5.93254C56.2593 5.77295 55.8502 5.69848 55.4395 5.71439C55.2175 5.71615 54.9961 5.73873 54.7783 5.78186C54.3756 4.90976 53.6962 4.19511 52.8455 3.74899C51.9948 3.30287 51.0205 3.15028 50.0742 3.31493C49.1278 3.47958 48.2624 3.95225 47.6124 4.65947C46.9623 5.36669 46.5641 6.26883 46.4797 7.22568C45.5544 7.33273 44.7002 7.77423 44.0778 8.46711C43.6827 8.04965 43.2083 7.71526 42.6823 7.48355C42.1563 7.25184 41.5894 7.12747 41.0147 7.11774C39.9258 7.11671 38.876 7.52332 38.0718 8.25754C37.2677 8.99175 36.7675 10.0004 36.6697 11.0849C35.7014 11.2003 34.8135 11.6805 34.1869 12.4277C33.5603 13.1749 33.2421 14.1329 33.2971 15.1065C33.3522 16.0801 33.7763 16.9961 34.4832 17.6679C35.19 18.3397 36.1264 18.7168 37.1015 18.7223L37.1285 18.7898ZM46.9385 9.15529H47.3298C47.4845 9.19458 47.6467 9.19284 47.8006 9.15025C47.9544 9.10765 48.0944 9.02567 48.2069 8.9124C48.3262 8.8005 48.4149 8.6599 48.4645 8.504C48.5141 8.34811 48.523 8.1821 48.4902 8.02181C48.4763 7.87371 48.4763 7.72462 48.4902 7.57652C48.5017 6.97447 48.7389 6.3987 49.1548 5.96327C49.5708 5.52784 50.1351 5.26452 50.736 5.22548C51.3368 5.18644 51.9305 5.37453 52.3993 5.75248C52.868 6.13043 53.1777 6.67067 53.267 7.26617C53.2902 7.44386 53.3615 7.61185 53.4731 7.75205C53.5847 7.89225 53.7324 7.99935 53.9004 8.06182C54.0684 8.12428 54.2502 8.13974 54.4263 8.10654C54.6024 8.07334 54.7661 7.99272 54.8998 7.87338C55.0537 7.75051 55.2427 7.67965 55.4395 7.67098C55.6769 7.67452 55.9034 7.77133 56.0701 7.9405C56.2367 8.10966 56.3301 8.3376 56.3301 8.57506C56.3297 8.72736 56.2877 8.87666 56.2086 9.00685C56.1337 9.14387 56.0919 9.29657 56.0867 9.45267C56.0814 9.60877 56.1129 9.76392 56.1785 9.90565C56.2441 10.0474 56.3421 10.1718 56.4645 10.2688C56.5869 10.3658 56.7303 10.4327 56.8833 10.4642C57.1644 10.515 57.4186 10.6632 57.6013 10.8828C57.7839 11.1025 57.8832 11.3795 57.8819 11.6651C57.8819 11.9908 57.7525 12.3031 57.5222 12.5334C57.2919 12.7637 56.9796 12.893 56.6539 12.893H46.9385C46.4702 12.8532 46.034 12.6391 45.7161 12.293C45.3982 11.9469 45.2218 11.4941 45.2218 11.0242C45.2218 10.5542 45.3982 10.1014 45.7161 9.75534C46.034 9.40925 46.4702 9.19511 46.9385 9.15529ZM37.1285 13.082H37.5199C37.6765 13.1127 37.8382 13.1049 37.9911 13.0593C38.1441 13.0136 38.2836 12.9315 38.3978 12.82C38.512 12.7085 38.5973 12.5709 38.6465 12.4191C38.6958 12.2673 38.7073 12.1058 38.6803 11.9485C38.667 11.8004 38.667 11.6513 38.6803 11.5032C38.6907 10.8802 38.9429 10.2856 39.3835 9.84495C39.8241 9.40434 40.4187 9.15221 41.0417 9.14179C41.4857 9.1462 41.9195 9.27497 42.294 9.51349C42.6684 9.752 42.9685 10.0907 43.1602 10.4912C43.1463 10.6843 43.1463 10.8782 43.1602 11.0714C43.1638 12.0867 43.5687 13.0593 44.2866 13.7772C45.0045 14.4952 45.9772 14.9 46.9924 14.9036H47.8965C48.0565 15.1135 48.1462 15.3685 48.1529 15.6323C48.1493 15.9592 48.017 16.2715 47.7846 16.5014C47.5521 16.7313 47.2384 16.8602 46.9115 16.8602H37.1285C36.6603 16.8204 36.2241 16.6062 35.9062 16.2601C35.5883 15.9141 35.4119 15.4612 35.4119 14.9913C35.4119 14.5214 35.5883 14.0686 35.9062 13.7225C36.2241 13.3764 36.6603 13.1623 37.1285 13.1224V13.082Z" fill="#FFC33A"/>
</svg>
