<svg width="57" height="58" viewBox="0 0 57 58" fill="none" xmlns="http://www.w3.org/2000/svg">
<path d="M49.2074 32.2054V16.4754C49.1357 14.7577 48.4089 13.1344 47.1788 11.9446C45.9487 10.7548 44.3105 10.0906 42.6064 10.0906C40.9023 10.0906 39.2641 10.7548 38.0341 11.9446C36.804 13.1344 36.0772 14.7577 36.0054 16.4754V33.0209C36.0054 33.9612 35.6352 34.863 34.9761 35.5279C34.3171 36.1928 33.4232 36.5663 32.4911 36.5663C31.5591 36.5663 30.6652 36.1928 30.0062 35.5279C29.3471 34.863 28.9768 33.9612 28.9768 33.0209V26.1545C29.0074 25.5619 28.9181 24.9693 28.7144 24.4126C28.5107 23.856 28.1968 23.347 27.7919 22.9167C27.3869 22.4863 26.8994 22.1436 26.359 21.9095C25.8186 21.6753 25.2366 21.5545 24.6484 21.5545C24.0603 21.5545 23.4783 21.6753 22.9379 21.9095C22.3974 22.1436 21.9099 22.4863 21.505 22.9167C21.1001 23.347 20.7862 23.856 20.5824 24.4126C20.3787 24.9693 20.2894 25.5619 20.32 26.1545V44.0236C20.2013 45.6233 19.4877 47.1186 18.3222 48.2098C17.1566 49.3009 15.6253 49.9073 14.0353 49.9073C12.4452 49.9073 10.9139 49.3009 9.74839 48.2098C8.58285 47.1186 7.86922 45.6233 7.75057 44.0236V40.9154C8.29583 40.6361 8.73891 40.1891 9.01571 39.639C9.57976 38.5038 9.95193 37.2816 10.1169 36.0227C10.5818 31.3892 10.8047 26.7343 10.7846 22.0772C10.8549 20.4936 10.8549 19.2054 10.8549 18.4963C10.9486 16.6054 10.9954 15.4118 10.9954 15.2463C12.1652 14.468 13.0016 13.274 13.3383 11.9018C13.7834 9.95177 13.1977 7.65904 11.4289 5.08268C10.2849 3.40834 8.95227 1.87354 7.45771 0.50904C7.29912 0.358636 7.08965 0.274902 6.87199 0.274902C6.65434 0.274902 6.44487 0.358636 6.28628 0.50904C6.16914 0.674495 1.81142 4.53904 0.616566 8.65177C0.186016 9.83449 0.165925 11.1296 0.55958 12.3253C0.953234 13.521 1.73734 14.5467 2.78371 15.2345C2.78371 15.2345 2.78371 16.4163 2.92428 18.4727C2.92428 19.1818 2.92428 20.4818 3.00628 22.0181C2.98645 26.6713 3.20933 31.3223 3.67399 35.9518C3.83892 37.2107 4.21109 38.4329 4.77514 39.5681C5.05194 40.1182 5.49502 40.5652 6.04028 40.8445V44.0236C5.99907 45.1104 6.17565 46.1944 6.55946 47.2107C6.94327 48.227 7.52641 49.1547 8.27397 49.9383C9.02153 50.7219 9.91813 51.3452 10.9101 51.771C11.9021 52.1968 12.969 52.4162 14.047 52.4162C15.125 52.4162 16.1919 52.1968 17.1839 51.771C18.1759 51.3452 19.0725 50.7219 19.82 49.9383C20.5676 49.1547 21.1507 48.227 21.5345 47.2107C21.9183 46.1944 22.0949 45.1104 22.0537 44.0236V26.1545C22.0537 25.4524 22.3302 24.779 22.8223 24.2826C23.3144 23.7861 23.9818 23.5072 24.6777 23.5072C25.3736 23.5072 26.0411 23.7861 26.5332 24.2826C27.0253 24.779 27.3017 25.4524 27.3017 26.1545V32.9618C27.3017 34.3534 27.8497 35.6881 28.8251 36.6721C29.8005 37.6562 31.1234 38.209 32.5028 38.209C33.8823 38.209 35.2052 37.6562 36.1806 36.6721C37.156 35.6881 37.704 34.3534 37.704 32.9618V16.4754C37.704 15.1652 38.2199 13.9087 39.1382 12.9823C40.0564 12.0559 41.3019 11.5354 42.6006 11.5354C43.8992 11.5354 45.1447 12.0559 46.063 12.9823C46.9812 13.9087 47.4971 15.1652 47.4971 16.4754V32.2054C45.4897 32.4148 43.6293 33.3636 42.272 34.8703C40.9147 36.377 40.1558 38.3358 40.1406 40.3718V48.7509C40.1406 50.9449 41.0045 53.0491 42.5423 54.6006C44.0801 56.152 46.1658 57.0236 48.3406 57.0236C50.5153 57.0236 52.601 56.152 54.1388 54.6006C55.6766 53.0491 56.5406 50.9449 56.5406 48.7509V40.3718C56.5259 38.3395 55.7703 36.3837 54.4178 34.8776C53.0653 33.3714 51.2106 32.4202 49.2074 32.2054ZM8.68771 17.019L8.25428 16.9599H8.07857H7.59828H6.91885H6.33314H6.06371H5.72399L5.31399 17.019H5.09142L4.63457 17.1136H4.56428C4.56428 16.2863 4.56428 15.6836 4.49399 15.3881C6.06062 14.9151 7.73023 14.9151 9.29685 15.3881C9.29685 15.6836 9.29685 16.2863 9.22657 17.1136H9.12114L8.68771 17.019ZM2.25657 9.13631C3.07657 6.32359 5.77085 3.48722 6.94228 2.32904C8.08142 3.46767 9.10921 4.71433 10.0114 6.05177C11.4406 8.17904 12.0263 10.0699 11.6866 11.5236C11.4432 12.4962 10.8449 13.3403 10.0114 13.8872C9.02232 13.4822 7.96279 13.2813 6.89542 13.2963C5.84643 13.2799 4.80422 13.4686 3.82628 13.8518C3.05449 13.3797 2.47338 12.6471 2.18604 11.7839C1.89869 10.9207 1.92368 9.98269 2.25657 9.13631ZM4.70485 22.0654C4.70485 20.7654 4.70485 19.7018 4.70485 18.8981C5.1317 18.7643 5.57155 18.6772 6.01685 18.6381H6.16914C6.61397 18.6145 7.05973 18.6145 7.50457 18.6381H7.94971C8.34895 18.6781 8.74214 18.7653 9.12114 18.8981C9.12114 19.6545 9.12114 20.7536 9.12114 22.0418C9.13114 26.6206 8.90044 31.1967 8.42999 35.7509C8.2944 36.812 7.99395 37.845 7.53971 38.8118C7.37571 39.0836 7.14142 39.4145 6.89542 39.4145C6.64942 39.4145 6.41514 39.0836 6.25114 38.8118C5.79689 37.845 5.49645 36.812 5.36085 35.7509C4.90844 31.2035 4.68948 26.6356 4.70485 22.0654ZM48.3406 33.8363C50.0394 33.8361 51.6701 34.5104 52.8801 35.7135C54.0901 36.9165 54.7822 38.5517 54.8068 40.2654C53.0533 41.9017 50.7526 42.8105 48.364 42.8105C45.9754 42.8105 43.6747 41.9017 41.9211 40.2654C41.9456 38.5598 42.6312 36.9317 43.8312 35.73C45.0311 34.5283 46.6498 33.8485 48.3406 33.8363ZM48.3406 55.3099C46.6234 55.3006 44.98 54.605 43.7702 53.3756C42.5604 52.1462 41.8829 50.4832 41.886 48.7509V42.4754C43.7691 43.8223 46.0205 44.5457 48.3288 44.5457C50.6372 44.5457 52.8886 43.8223 54.7717 42.4754V48.7509C54.778 50.4801 54.1046 52.1414 52.8992 53.3707C51.6938 54.6001 50.0546 55.2974 48.3406 55.3099Z" fill="#00E3CF"/>
<path d="M48.3406 41.3527C48.5653 41.3496 48.7799 41.2574 48.9377 41.0959C49.0955 40.9345 49.184 40.7168 49.184 40.49V36.1882C49.1595 35.9783 49.0595 35.7847 48.903 35.6443C48.7464 35.5039 48.5442 35.4263 48.3347 35.4263C48.1252 35.4263 47.923 35.5039 47.7665 35.6443C47.6099 35.7847 47.5099 35.9783 47.4854 36.1882V40.4782C47.4839 40.5925 47.5049 40.7059 47.5471 40.812C47.5894 40.918 47.6522 41.0145 47.7317 41.0959C47.8113 41.1773 47.9061 41.2419 48.0106 41.286C48.1151 41.3301 48.2273 41.3528 48.3406 41.3527Z" fill="#00E3CF"/>
<path d="M5.2792 12.1736C5.39847 12.1787 5.51749 12.1586 5.62859 12.1145C5.7397 12.0704 5.84042 12.0034 5.92428 11.9177C6.00815 11.8319 6.07329 11.7295 6.11552 11.6168C6.15775 11.5041 6.17613 11.3838 6.16948 11.2636C6.13168 9.62845 6.48106 8.00784 7.18862 6.53629C7.29115 6.33412 7.30987 6.09914 7.24067 5.88305C7.17147 5.66696 7.02001 5.48745 6.81962 5.38401C6.61923 5.28058 6.38632 5.26169 6.17213 5.33151C5.95794 5.40132 5.78001 5.55412 5.67748 5.75629C4.83725 7.5067 4.43504 9.43819 4.50605 11.3817C4.51943 11.5853 4.60486 11.7773 4.74677 11.9226C4.88869 12.0679 5.07764 12.157 5.2792 12.1736Z" fill="#00E3CF"/>
</svg>
