<svg width="52" height="54" viewBox="0 0 52 54" fill="none" xmlns="http://www.w3.org/2000/svg">
<path d="M6.35059 39.9472C6.2279 39.7722 6.0418 39.652 5.83187 39.6121C5.62194 39.5723 5.40473 39.6158 5.22642 39.7336C5.05147 39.8563 4.93127 40.0424 4.89138 40.2523C4.85149 40.4622 4.89506 40.6795 5.01283 40.8578C5.62973 41.7566 6.30177 42.6164 7.02509 43.4321C7.16704 43.5871 7.36371 43.6808 7.57352 43.6934C7.78332 43.706 7.98979 43.6365 8.14925 43.4995C8.29938 43.3547 8.38964 43.1588 8.40213 42.9506C8.41462 42.7424 8.34844 42.5371 8.2167 42.3754C7.53822 41.611 6.91462 40.7995 6.35059 39.9472Z" fill="#FF566D"/>
<path d="M51.237 25.3891C51.237 25.0069 51.2145 24.6322 51.1695 24.265C51.1468 24.0481 51.0398 23.8489 50.8716 23.7101C50.7034 23.5713 50.4874 23.5042 50.2702 23.523C50.0563 23.5458 49.8599 23.6516 49.7232 23.8177C49.5866 23.9837 49.5206 24.1969 49.5395 24.4111C49.5395 24.7708 49.562 25.1456 49.6069 25.5353C49.8815 31.8079 47.6567 37.9334 43.4207 42.5677C39.1846 47.2021 33.2832 49.9669 27.0112 50.2557C26.6402 50.2557 26.2805 50.2557 25.887 50.2557C25.6694 50.2557 25.4607 50.3421 25.3068 50.496C25.1529 50.6499 25.0664 50.8587 25.0664 51.0763C25.0664 51.294 25.1529 51.5027 25.3068 51.6566C25.4607 51.8105 25.6694 51.8969 25.887 51.8969H27.0112C30.3447 51.7541 33.6172 50.9543 36.6408 49.5434C39.6644 48.1325 42.3796 46.1384 44.6305 43.6754C46.8815 41.2125 48.6238 38.3292 49.7575 35.1912C50.8912 32.0531 51.394 28.722 51.237 25.3891Z" fill="#FF566D"/>
<path d="M44.4262 11.7419C44.5035 11.838 44.6009 11.916 44.7117 11.9704C44.8224 12.0248 44.9437 12.0542 45.067 12.0566C45.2539 12.0519 45.4346 11.989 45.5841 11.8768C45.7426 11.7395 45.8434 11.5474 45.8664 11.3389C45.8893 11.1305 45.8327 10.9211 45.7078 10.7526C44.3898 9.12969 42.8799 7.67263 41.2111 6.41331C41.0396 6.28964 40.8269 6.23697 40.6174 6.26629C40.408 6.29561 40.218 6.40466 40.087 6.5707C39.9605 6.74127 39.9061 6.9547 39.9356 7.16499C39.965 7.37528 40.0759 7.56558 40.2443 7.69486C41.7989 8.86736 43.2034 10.2266 44.4262 11.7419Z" fill="#FF566D"/>
<path d="M1.3931 26.4124C1.50303 26.4232 1.61401 26.4114 1.71921 26.3777C1.8244 26.3441 1.92159 26.2892 2.00479 26.2165C2.08798 26.1439 2.15542 26.0549 2.20296 25.9552C2.2505 25.8555 2.27712 25.7471 2.28119 25.6367C2.49834 20.556 4.33498 15.678 7.52261 11.7157C10.7102 7.75341 15.0817 4.91463 19.998 3.61435C20.208 3.55889 20.3875 3.42244 20.4971 3.2349C20.6067 3.04736 20.6374 2.82402 20.5826 2.61384C20.5564 2.51029 20.51 2.41295 20.446 2.32742C20.382 2.2419 20.3017 2.1699 20.2097 2.11556C20.1177 2.06122 20.0159 2.02561 19.9101 2.01081C19.8044 1.996 19.6967 2.00228 19.5933 2.02928C14.3281 3.40842 9.64337 6.43845 6.22625 10.675C2.80913 14.9114 0.839476 20.1314 0.606184 25.5693C0.601673 25.6765 0.618533 25.7836 0.655781 25.8842C0.69303 25.9849 0.749924 26.0771 0.823152 26.1556C0.896381 26.234 0.984482 26.2971 1.08233 26.3412C1.18018 26.3853 1.28582 26.4095 1.3931 26.4124Z" fill="#FF566D"/>
<path d="M28.2274 17.7674C28.7722 17.8719 29.3252 17.9283 29.8799 17.9361C31.1694 17.955 32.4374 17.6039 33.5335 16.9243C35.7143 15.5528 37.2095 12.8548 38.0301 8.88653C38.5181 6.23313 38.6954 3.53192 38.5585 0.837503C38.5561 0.631199 38.4762 0.433346 38.3345 0.28335C38.1928 0.133354 37.9999 0.0422222 37.794 0.0281041C37.468 0.0281041 29.79 -0.421562 24.8549 2.27643C23.3632 2.96561 22.155 4.1483 21.4341 5.62491C20.7132 7.10152 20.5238 8.78162 20.8978 10.3817C19.4364 11.3934 -0.933444 25.7602 0.0333379 37.8113C0.0512998 38.0039 0.136723 38.184 0.274532 38.3197C0.41234 38.4555 0.593674 38.5382 0.786529 38.5532C1.07481 38.5703 1.36385 38.5703 1.65214 38.5532C13.5233 38.587 27.2606 19.1389 28.2274 17.7674ZM25.6418 3.71537C29.3178 1.70311 34.9499 1.63566 36.9509 1.68063C37.0098 3.97524 36.829 6.26974 36.4113 8.52679C35.7256 12.0342 34.4778 14.3725 32.6903 15.4966C31.4179 16.24 29.907 16.4615 28.4747 16.1149C27.7051 14.3495 26.5073 12.804 24.9898 11.6182C25.3495 10.2805 26.9683 6.18853 33.6234 4.98567C33.8011 4.9163 33.9491 4.78717 34.0419 4.6205C34.1347 4.45382 34.1666 4.26002 34.132 4.0724C34.0974 3.88479 33.9985 3.71509 33.8524 3.59248C33.7062 3.46988 33.5219 3.40203 33.3311 3.4006C26.5861 4.6147 24.3378 8.60548 23.5846 10.6402C23.2523 10.4283 22.8931 10.262 22.5166 10.1456C22.19 8.87726 22.3249 7.53409 22.8975 6.35612C23.47 5.17815 24.4427 4.24214 25.6418 3.71537ZM21.8421 11.7082C23.0056 12.1241 24.0376 12.8419 24.8324 13.7879C25.7776 14.5811 26.492 15.6139 26.9009 16.7782C26.9009 16.7782 26.024 18.0372 24.6526 19.8471C24.5963 19.7347 24.5514 19.6223 24.4839 19.5099C23.8247 18.4221 23.0316 17.4212 22.1232 16.5308C21.235 15.6232 20.2338 14.8335 19.1441 14.1813L18.8069 14.0127C20.5718 12.5963 21.7972 11.7419 21.8421 11.7082ZM1.70834 36.9569C1.70834 29.1889 11.3424 20.0945 17.3005 15.2156C17.6715 15.2156 19.1104 15.8339 20.9765 17.7C22.8426 19.5661 23.4497 20.9825 23.416 21.3872C18.5483 27.3116 9.47633 36.9569 1.70834 36.9569Z" fill="#FF566D"/>
<path d="M46.4939 26.1311C46.5187 26.1098 46.538 26.0828 46.5501 26.0524C46.5829 26.0075 46.6094 25.9583 46.6288 25.9063L50.8894 13.5404C50.9358 13.395 50.9413 13.2396 50.9053 13.0912C50.8693 12.9428 50.7931 12.8072 50.6851 12.6992C50.5772 12.5912 50.4416 12.5151 50.2932 12.4791C50.1448 12.443 49.9894 12.4485 49.8439 12.495L37.5568 16.7668C37.4819 16.8013 37.4104 16.8427 37.3432 16.8905L14.0392 40.1607L9.66624 44.5337C9.56131 44.6416 9.48721 44.7757 9.45162 44.922C9.41604 45.0683 9.42028 45.2215 9.46389 45.3656C10.0901 47.3855 11.1949 49.2242 12.6844 50.7254C14.1739 52.2266 16.0039 53.3459 18.0188 53.9879C18.1042 54.004 18.1919 54.004 18.2773 53.9879C18.4915 53.9849 18.6965 53.9005 18.8507 53.7518L23.2237 49.3788L46.4602 26.1761L46.4939 26.1311ZM44.9988 24.3999L44.5266 24.1863C44.2793 24.0626 44.032 23.939 43.7959 23.8041L43.38 23.5568C43.1214 23.3994 42.8853 23.2307 42.6493 23.0621L42.3232 22.826C41.9968 22.5706 41.6852 22.2966 41.3902 22.0054C41.0989 21.7065 40.8249 21.3912 40.5695 21.0611C40.4796 20.9599 40.4122 20.8475 40.3335 20.7463C40.1558 20.5117 39.9907 20.2678 39.8388 20.0156C39.7489 19.8807 39.6702 19.7346 39.5915 19.5997C39.5128 19.4648 39.333 19.1163 39.2093 18.869C39.0856 18.6217 39.0632 18.5542 38.9957 18.3968L38.8608 18.0596L42.8179 16.6881C43.6203 18.4123 45.0058 19.7978 46.73 20.6002L45.381 24.5348L44.9988 24.3999ZM17.6366 44.6349C17.5354 44.5112 17.423 44.41 17.3218 44.2751C17.2206 44.1402 17.1644 44.0503 17.0857 43.9491C17.007 43.8479 16.7372 43.4657 16.5799 43.2072L16.3213 42.7575C16.1976 42.5214 16.0627 42.2853 15.9503 42.0268C15.866 41.8587 15.7909 41.686 15.7255 41.5097L15.5231 40.9926L37.5006 19.0039L37.5793 19.1725L37.7816 19.5772C37.9278 19.892 38.0851 20.1843 38.2538 20.4765C38.4224 20.7688 38.4224 20.7688 38.5123 20.9037C38.6023 21.0386 38.8833 21.4658 39.0856 21.7244C39.288 21.9829 39.2543 21.9604 39.3442 22.0841C39.4341 22.2078 39.6028 22.3764 39.7264 22.5338L17.6366 44.6349ZM47.2471 19.0264C45.9886 18.4035 44.9696 17.3845 44.3467 16.126L48.8097 14.6421L47.2471 19.0264ZM18.0188 52.2342C16.4234 51.671 14.9743 50.7578 13.778 49.5614C12.5816 48.3651 11.6683 46.916 11.1052 45.3206L14.2191 42.2067L14.2978 42.3753L14.5002 42.7912C14.6463 43.0947 14.8037 43.387 14.9723 43.6793C15.1409 43.9716 15.1409 43.9716 15.2309 44.1065C15.3208 44.2414 15.6018 44.6686 15.7929 44.9271L16.0627 45.2869C16.6804 46.0109 17.3738 46.6667 18.1312 47.2429L18.4909 47.5015C18.7535 47.7079 19.0274 47.8993 19.3116 48.0748L19.7388 48.3334C20.0198 48.502 20.3233 48.6594 20.6269 48.8055L21.0428 49.0079L21.2002 49.0865L18.0188 52.2342ZM22.5155 47.85L22.0096 47.6476L21.4925 47.4228C21.242 47.3089 20.9981 47.1813 20.7618 47.0406L20.2671 46.7932C20.0086 46.6359 19.7725 46.4672 19.5252 46.2874C19.2779 46.1075 19.3003 46.1412 19.1879 46.0513L18.8394 45.7365L40.8843 23.6354C41.0305 23.7703 41.1766 23.9052 41.334 24.0289L41.6937 24.2875C41.9562 24.4939 42.2302 24.6853 42.5144 24.8608L42.9415 25.1193C43.2338 25.288 43.5261 25.4454 43.8296 25.5915L44.2456 25.7938L44.403 25.8725L22.5155 47.85Z" fill="#FF566D"/>
</svg>
