<svg width="76" height="57" viewBox="0 0 76 57" fill="none" xmlns="http://www.w3.org/2000/svg">
<path d="M74.8845 36.7793L69.5256 31.4204C70.7919 30.774 71.9669 29.9626 73.0199 29.0073C74.1669 27.8665 74.8137 26.3168 74.8181 24.6991C74.8225 23.0814 74.1841 21.5282 73.0434 20.3812C71.9026 19.2342 70.3529 18.5873 68.7352 18.5829C67.1175 18.5785 65.5643 19.2169 64.4173 20.3577C63.4727 21.4248 62.6623 22.6036 62.0042 23.8677L56.6452 18.5087L38.4059 0.316409C38.1956 0.113433 37.9148 0 37.6225 0C37.3302 0 37.0493 0.113433 36.839 0.316409L31.433 5.67538C30.7856 4.41347 29.98 3.23924 29.0356 2.18108C28.4719 1.61221 27.8005 1.16127 27.0607 0.854579C26.3208 0.547886 25.5273 0.391573 24.7265 0.394756C23.9172 0.381677 23.1137 0.533285 22.3649 0.840368C21.616 1.14745 20.9374 1.6036 20.3703 2.18108C19.8032 2.74467 19.3532 3.41483 19.0461 4.15302C18.739 4.8912 18.5809 5.68284 18.5809 6.48236C18.5809 7.28188 18.739 8.07351 19.0461 8.8117C19.3532 9.54988 19.8032 10.22 20.3703 10.7836C21.4312 11.729 22.6049 12.5395 23.8646 13.1967L18.5057 18.5557L12.1125 25.0585C11.9807 25.1851 11.8816 25.3417 11.8237 25.515C11.7658 25.6883 11.7508 25.873 11.7801 26.0534C11.8094 26.2337 11.882 26.4042 11.9918 26.5503C12.1016 26.6964 12.2452 26.8136 12.4102 26.8919C13.9604 27.5916 15.4054 28.504 16.7037 29.6027C17.2844 30.3371 17.5742 31.2596 17.5177 32.1941C17.4612 33.1287 17.0624 34.0096 16.3975 34.6687C15.7326 35.3278 14.8482 35.7188 13.9132 35.7671C12.9783 35.8153 12.0583 35.5175 11.329 34.9303C10.2393 33.6255 9.32772 32.1818 8.61823 30.6369C8.54071 30.4735 8.42507 30.3312 8.28104 30.2219C8.13702 30.1126 7.96884 30.0395 7.79067 30.0088C7.61249 29.9781 7.42955 29.9906 7.25724 30.0454C7.08493 30.1002 6.92831 30.1955 6.80056 30.3235L0.329059 36.7793C0.122151 37.0008 0.00487801 37.2911 0 37.5941C0.00260841 37.893 0.120491 38.1793 0.329059 38.3933L5.68803 43.7523C4.42825 44.4095 3.25458 45.22 2.19373 46.1654C1.05049 47.3081 0.407943 48.8581 0.407407 50.4745C0.411544 52.0857 1.05342 53.6297 2.1927 54.769C3.33198 55.9082 4.87599 56.5501 6.48717 56.5542C7.28389 56.5674 8.07525 56.4218 8.81509 56.1258C9.55492 55.8299 10.2284 55.3896 10.7963 54.8306C11.7416 53.7698 12.5521 52.5961 13.2094 51.3363L18.5684 56.6953C18.7822 56.8913 19.0618 57 19.3518 57C19.6419 57 19.9215 56.8913 20.1353 56.6953L37.6068 39.1611L42.1666 43.7053C40.9025 44.3633 39.7238 45.1737 38.6567 46.1184C37.5134 47.2611 36.8709 48.8111 36.8703 50.4275C36.8473 51.6409 37.188 52.8334 37.8485 53.8516C38.509 54.8697 39.4591 55.6669 40.5765 56.1405C41.6939 56.6141 42.9275 56.7424 44.1185 56.509C45.3094 56.2755 46.4033 55.691 47.2592 54.8306C48.2094 53.7736 49.0203 52.5993 49.6723 51.3363L55.0313 56.6953C55.2451 56.8913 55.5247 57 55.8148 57C56.1048 57 56.3844 56.8913 56.5982 56.6953L74.8845 38.3933C75.0931 38.1793 75.211 37.893 75.2136 37.5941C75.2087 37.2911 75.0914 37.0008 74.8845 36.7793ZM26.6381 13.6982C26.7677 13.5722 26.864 13.4161 26.9187 13.2439C26.9734 13.0717 26.9847 12.8886 26.9515 12.711C26.9269 12.5326 26.8581 12.3632 26.7514 12.2182C26.6446 12.0732 26.5034 11.9571 26.3404 11.8805C24.791 11.1704 23.3422 10.259 22.0313 9.16968C21.3204 8.45602 20.9212 7.48971 20.9212 6.48236C20.9212 5.475 21.3204 4.5087 22.0313 3.79504C22.7572 3.10156 23.7225 2.71458 24.7265 2.71458C25.7304 2.71458 26.6957 3.10156 27.4216 3.79504C28.5097 5.09797 29.4163 6.54224 30.1168 8.08848C30.1983 8.25232 30.3175 8.39452 30.4646 8.50346C30.6117 8.6124 30.7824 8.68498 30.9629 8.71526C31.1418 8.74503 31.3253 8.73061 31.4974 8.67326C31.6694 8.61591 31.8248 8.51736 31.9501 8.3862L37.6068 2.74518L54.2321 19.3548L48.8105 24.7765L48.5754 25.0585C48.4458 25.1877 48.3495 25.3465 48.2949 25.5213C48.2403 25.696 48.229 25.8814 48.2621 26.0614C48.2867 26.2398 48.3555 26.4091 48.4622 26.5542C48.569 26.6992 48.7102 26.8153 48.8732 26.8919C50.4258 27.596 51.8754 28.5079 53.1823 29.6027C53.8894 30.3184 54.286 31.2839 54.286 32.29C54.286 33.2961 53.8894 34.2617 53.1823 34.9773C52.4564 35.6708 51.4911 36.0578 50.4871 36.0578C49.4832 36.0578 48.5179 35.6708 47.792 34.9773C46.7082 33.6713 45.8019 32.2276 45.0968 30.6839C45.0153 30.5201 44.8961 30.3779 44.749 30.2689C44.6019 30.16 44.4312 30.0874 44.2507 30.0571H44.0626C43.9142 30.0559 43.767 30.0844 43.6298 30.1409C43.4926 30.1974 43.368 30.2808 43.2635 30.3862L42.7464 30.9033L37.6068 36.0272L33.047 31.4674C34.3202 30.8245 35.5008 30.0128 36.5569 29.0543C37.7102 27.9135 38.363 26.3613 38.3718 24.7392C38.3806 23.1171 37.7447 21.5579 36.604 20.4047C35.4632 19.2515 33.911 18.5986 32.2889 18.5898C30.6668 18.581 29.1076 19.2169 27.9544 20.3577C27.0098 21.4248 26.1994 22.6036 25.5413 23.8677L20.9815 19.3078L26.6381 13.6982ZM19.3675 54.2195L13.7108 48.5628C13.5848 48.4333 13.4288 48.3369 13.2565 48.2822C13.0843 48.2276 12.9013 48.2163 12.7236 48.2494C12.5453 48.2741 12.3759 48.3429 12.2309 48.4496C12.0858 48.5563 11.9697 48.6976 11.8932 48.8605C11.1831 50.4099 10.2716 51.8588 9.18233 53.1696C8.4554 53.855 7.49408 54.2367 6.49501 54.2367C5.49594 54.2367 4.53462 53.855 3.80769 53.1696C3.09578 52.4533 2.6962 51.4844 2.6962 50.4745C2.6962 49.4646 3.09578 48.4957 3.80769 47.7793C5.10725 46.6866 6.55218 45.7796 8.10113 45.0842C8.26348 45.0006 8.40444 44.8809 8.51313 44.7341C8.62181 44.5874 8.6953 44.4177 8.72791 44.238C8.75768 44.0591 8.74326 43.8756 8.68591 43.7036C8.62856 43.5315 8.53001 43.3761 8.39885 43.2508L2.75783 37.5941L7.30199 33.0343C7.96006 34.2984 8.77046 35.4772 9.71509 36.5443C10.2799 37.1091 10.9505 37.5572 11.6885 37.8629C12.4265 38.1686 13.2175 38.3259 14.0164 38.3259C14.8152 38.3259 15.6062 38.1686 16.3442 37.8629C17.0822 37.5572 17.7528 37.1091 18.3176 36.5443C18.8825 35.9794 19.3306 35.3089 19.6363 34.5709C19.942 33.8328 20.0993 33.0418 20.0993 32.243C20.0993 31.4442 19.942 30.6532 19.6363 29.9152C19.3306 29.1772 18.8825 28.5066 18.3176 27.9417C17.2606 26.9916 16.0863 26.1806 14.8233 25.5286L19.3675 20.9688L24.3661 25.9674L25.0712 26.6255C25.2012 26.7541 25.36 26.8496 25.5345 26.9041C25.709 26.9587 25.894 26.9706 26.074 26.9389C26.2545 26.9141 26.4256 26.8435 26.571 26.7338C26.7164 26.624 26.8312 26.4789 26.9045 26.3121C27.6121 24.7662 28.5238 23.3221 29.6154 22.0187C30.3495 21.4231 31.279 21.1219 32.223 21.1737C33.1669 21.2255 34.0578 21.6266 34.7224 22.299C35.387 22.9714 35.7776 23.8669 35.8184 24.8114C35.8592 25.7559 35.5471 26.6818 34.943 27.409C33.64 28.497 32.1958 29.4037 30.6495 30.1041C30.486 30.1836 30.3437 30.3009 30.2346 30.4463C30.1254 30.5917 30.0525 30.7611 30.0218 30.9403C29.9912 31.1195 30.0037 31.3035 30.0584 31.4769C30.1131 31.6503 30.2083 31.8082 30.3362 31.9375L36.0398 37.5941L19.3675 54.2195ZM55.8461 54.2195L50.1424 48.5628C50.0124 48.4342 49.8536 48.3387 49.6791 48.2841C49.5046 48.2296 49.3196 48.2177 49.1396 48.2494C48.9612 48.2741 48.7918 48.3429 48.6468 48.4496C48.5017 48.5563 48.3857 48.6976 48.3091 48.8605C47.605 50.4131 46.693 51.8628 45.5982 53.1696C44.8713 53.855 43.91 54.2367 42.9109 54.2367C41.9119 54.2367 40.9505 53.855 40.2236 53.1696C39.5117 52.4533 39.1121 51.4844 39.1121 50.4745C39.1121 49.4646 39.5117 48.4957 40.2236 47.7793C41.5257 46.6902 42.9702 45.7834 44.517 45.0842C44.6794 45.0006 44.8204 44.8809 44.929 44.7341C45.0377 44.5874 45.1112 44.4177 45.1438 44.238C45.1717 44.0604 45.1579 43.8788 45.1035 43.7075C45.0491 43.5362 44.9556 43.3798 44.8304 43.2508L39.1737 37.5941L43.7336 33.0343C44.3814 34.3008 45.187 35.4801 46.131 36.5443C47.2737 37.6875 48.8237 38.3301 50.4401 38.3306C51.6502 38.3459 52.8374 38.0006 53.8506 37.3388C54.8637 36.6769 55.6569 35.7285 56.1292 34.6143C56.6014 33.5001 56.7313 32.2705 56.5023 31.0822C56.2733 29.8939 55.6957 28.8007 54.8433 27.9417C53.7862 26.9916 52.6119 26.1806 51.3489 25.5286L55.9088 20.9688L61.5028 26.6255C61.6288 26.755 61.7848 26.8514 61.9571 26.906C62.1293 26.9607 62.3123 26.972 62.49 26.9389C62.6704 26.9141 62.8415 26.8435 62.9869 26.7338C63.1323 26.624 63.2471 26.4789 63.3204 26.3121C64.0338 24.7693 64.9451 23.326 66.0313 22.0187C66.7582 21.3333 67.7195 20.9516 68.7186 20.9516C69.7177 20.9516 70.679 21.3333 71.4059 22.0187C71.7603 22.3723 72.0415 22.7924 72.2333 23.2549C72.4251 23.7174 72.5239 24.2131 72.5239 24.7138C72.5239 25.2145 72.4251 25.7103 72.2333 26.1727C72.0415 26.6352 71.7603 27.0553 71.4059 27.409C70.103 28.497 68.6587 29.4037 67.1125 30.1041C66.9489 30.1836 66.8067 30.3009 66.6975 30.4463C66.5883 30.5917 66.5154 30.7611 66.4848 30.9403C66.4541 31.1195 66.4667 31.3035 66.5213 31.4769C66.576 31.6503 66.6712 31.8082 66.7991 31.9375L72.4558 37.5941L55.8461 54.2195Z" fill="#FF566D"/>
</svg>
