<svg width="55" height="55" viewBox="0 0 55 55" fill="none" xmlns="http://www.w3.org/2000/svg">
<g clip-path="url(#clip0)">
<path d="M44.0232 35.1781C43.8667 35.0222 43.6548 34.9346 43.4338 34.9346C43.2129 34.9346 43.001 35.0222 42.8445 35.1781L41.8361 36.1865L39.4628 33.8131C42.2788 29.6419 43.5618 24.6234 43.0934 19.6124C42.6249 14.6014 40.4339 9.90773 36.8936 6.33078C33.8702 3.31037 30.0194 1.25397 25.8277 0.421389C21.636 -0.411187 17.2917 0.0174307 13.3435 1.65309C9.39535 3.28874 6.02057 6.05803 3.64558 9.61105C1.27059 13.1641 0.00197681 17.3414 2.80197e-05 21.6152C-0.00710769 26.0309 1.34884 30.3413 3.88272 33.9576C2.41292 35.3277 1.30583 37.0409 0.660603 38.9438C0.0153758 40.8467 -0.147845 42.88 0.185557 44.8615C0.518959 46.843 1.33857 48.7109 2.571 50.2979C3.80343 51.8848 5.41019 53.1413 7.24739 53.9549C9.0846 54.7684 11.0949 55.1136 13.0982 54.9594C15.1015 54.8053 17.0353 54.1566 18.7265 53.0716C20.4176 51.9866 21.8133 50.4991 22.7884 48.7422C23.7636 46.9854 24.2879 45.0141 24.3142 43.0049C27.7187 42.6083 30.9774 41.3964 33.8138 39.4721L36.1871 41.8455L35.1787 42.854C35.0228 43.0105 34.9353 43.2224 34.9353 43.4433C34.9353 43.6642 35.0228 43.8762 35.1787 44.0327L39.0068 47.8546L44.4663 53.3144C45.0034 53.8539 45.6418 54.2819 46.3447 54.574C47.0477 54.866 47.8014 55.0164 48.5626 55.0164C49.3238 55.0164 50.0775 54.866 50.7805 54.574C51.4834 54.2819 52.1217 53.8539 52.6589 53.3144L53.3012 52.6721C53.8405 52.135 54.2686 51.4966 54.5606 50.7936C54.8526 50.0906 55.003 49.3368 55.003 48.5756C55.003 47.8143 54.8526 47.0606 54.5606 46.3576C54.2686 45.6546 53.8405 45.0162 53.3012 44.4791L44.0232 35.1781ZM12.1619 53.3337C10.0862 53.3337 8.05707 52.7181 6.33115 51.5648C4.60523 50.4116 3.26004 48.7723 2.46569 46.8545C1.67133 44.9366 1.4635 42.8263 1.86845 40.7903C2.27341 38.7543 3.27298 36.8842 4.74075 35.4163C6.20853 33.9484 8.07858 32.9488 10.1144 32.5438C12.1503 32.1389 14.2605 32.3467 16.1783 33.1411C18.096 33.9355 19.7351 35.2808 20.8883 37.0068C22.0416 38.7328 22.6571 40.7621 22.6571 42.8379C22.6537 45.6205 21.5469 48.2882 19.5794 50.2558C17.6119 52.2234 14.9444 53.3303 12.1619 53.3337ZM26.6104 18.6283L33.0784 13.3226C35.0476 16.0499 35.9832 19.3885 35.7178 22.742C35.4525 26.0956 34.0036 29.2455 31.63 31.6292C31.0738 32.1844 30.4734 32.6935 29.8348 33.1515L29.7802 33.1868L25.3708 26.0794C25.4961 25.9734 25.6245 25.861 25.7433 25.7582C26.6607 24.8358 27.244 23.6336 27.4011 22.3422C27.5582 21.0507 27.2799 19.7438 26.6104 18.6283ZM25.5539 17.3436C24.6921 16.5487 23.6091 16.0346 22.4484 15.8695V7.5191C25.9075 7.70246 29.1776 9.15466 31.6332 11.5979C31.7745 11.736 31.8933 11.887 32.0282 12.0347L25.5539 17.3436ZM24.5615 18.6925C25.2452 19.3751 25.671 20.2738 25.7664 21.2352C25.8617 22.1967 25.6207 23.1614 25.0844 23.965C24.5481 24.7687 23.7497 25.3614 22.8253 25.6422C21.9009 25.923 20.9077 25.8745 20.015 25.505C19.1224 25.1355 18.3855 24.4678 17.93 23.6157C17.4745 22.7637 17.3286 21.78 17.5172 20.8325C17.7057 19.8849 18.217 19.032 18.964 18.4192C19.7109 17.8065 20.6473 17.4717 21.6134 17.4721C22.7157 17.4665 23.7755 17.8972 24.5615 18.6701V18.6925ZM20.7816 15.847C19.3139 16.0557 17.9814 16.8174 17.0567 17.9762C16.132 19.135 15.6849 20.6033 15.807 22.0809L7.65622 23.9372C7.32449 21.979 7.4099 19.9729 7.90686 18.05C8.40381 16.1271 9.30112 14.3307 10.5401 12.7785C11.779 11.2263 13.3317 9.95322 15.0966 9.04247C16.8614 8.13171 18.7987 7.60385 20.7816 7.49341V15.847ZM16.1731 23.7092C16.5939 24.8105 17.3395 25.7579 18.3112 26.4255C19.2828 27.0932 20.4345 27.4497 21.6134 27.4476C22.4168 27.4459 23.2113 27.2797 23.9481 26.9594L28.3671 34.0765C26.4211 35.1344 24.2515 35.7145 22.0373 35.769C20.9154 34.1955 19.434 32.9127 17.7163 32.0273C15.9986 31.1419 14.0944 30.6795 12.1619 30.6785C11.7069 30.6792 11.2523 30.706 10.8003 30.7588C9.51982 29.2418 8.57524 27.4708 8.02876 25.5623L16.1731 23.7092ZM34.4947 37.7892C34.3541 37.6478 34.1673 37.5619 33.9685 37.5472C33.7697 37.5324 33.5723 37.5898 33.4124 37.7089C30.7083 39.6828 27.5442 40.9322 24.2211 41.3381C24.0498 39.9573 23.6413 38.6166 23.0136 37.3749C25.821 37.136 28.5128 36.1477 30.8079 34.5133C31.5211 34.0026 32.1914 33.4344 32.8118 32.8143C34.9666 30.6706 36.459 27.952 37.1108 24.9832C37.7627 22.0143 37.5464 18.9206 36.4879 16.0713C35.4294 13.222 33.5733 10.7376 31.1412 8.91454C28.7091 7.09152 25.8038 6.00694 22.7722 5.79029C19.7405 5.57364 16.7105 6.23408 14.044 7.69275C11.3774 9.15141 9.18692 11.3467 7.73403 14.0165C6.28113 16.6863 5.6272 19.7179 5.8503 22.7493C6.0734 25.7806 7.1641 28.6838 8.9922 31.1121C7.62946 31.4814 6.3416 32.0857 5.18659 32.8978C3.12936 29.904 1.92906 26.4051 1.7153 22.7788C1.50155 19.1526 2.28246 15.5369 3.97371 12.3221C5.66496 9.10737 8.20228 6.41576 11.3116 4.53799C14.421 2.66022 17.9843 1.66763 21.6166 1.66743C24.2366 1.66032 26.832 2.173 29.2526 3.17579C31.6731 4.17858 33.8708 5.65157 35.7182 7.50947C39.0631 10.8903 41.099 15.3489 41.4631 20.091C41.8271 24.833 40.4957 29.5502 37.7062 33.402C37.5882 33.5629 37.5314 33.7606 37.5461 33.9596C37.5608 34.1586 37.6461 34.3458 37.7864 34.4876L40.6575 37.3556L37.3657 40.6604L34.4947 37.7892ZM36.9322 43.4353L43.4194 36.9477L46.0721 39.5973L39.5817 46.0849L36.9322 43.4353ZM52.1097 51.4645L51.4674 52.1068C51.0846 52.4907 50.6299 52.7953 50.1292 53.0031C49.6286 53.2109 49.0918 53.3178 48.5498 53.3178C48.0077 53.3178 47.4709 53.2109 46.9703 53.0031C46.4696 52.7953 46.0149 52.4907 45.6321 52.1068L40.786 47.2636L47.2635 40.7889L52.1225 45.6385C52.8954 46.4129 53.3295 47.4622 53.3295 48.5563C53.3295 49.6504 52.8954 50.6998 52.1225 51.4741L52.1097 51.4645Z" fill="#FF566D"/>
<path d="M36.3955 1.66688H43.3291C43.4429 1.67395 43.557 1.65764 43.6642 1.61895C43.7715 1.58026 43.8696 1.52002 43.9527 1.44193C44.0358 1.36385 44.102 1.26958 44.1473 1.16493C44.1925 1.06028 44.2159 0.947468 44.2159 0.83345C44.2159 0.719431 44.1925 0.606621 44.1473 0.501971C44.102 0.397321 44.0358 0.303049 43.9527 0.224964C43.8696 0.14688 43.7715 0.0866378 43.6642 0.0479507C43.557 0.00926361 43.4429 -0.00704873 43.3291 1.89859e-05H36.3955C36.1834 0.0131917 35.9844 0.106732 35.8388 0.261583C35.6933 0.416434 35.6123 0.620945 35.6123 0.83345C35.6123 1.04595 35.6933 1.25047 35.8388 1.40532C35.9844 1.56017 36.1834 1.65371 36.3955 1.66688Z" fill="#FF566D"/>
<path d="M48.0664 1.66688H54.1683C54.2821 1.67395 54.3961 1.65764 54.5033 1.61895C54.6106 1.58026 54.7088 1.52002 54.7919 1.44193C54.8749 1.36385 54.9411 1.26958 54.9864 1.16493C55.0317 1.06028 55.055 0.947468 55.055 0.83345C55.055 0.719431 55.0317 0.606621 54.9864 0.501971C54.9411 0.397321 54.8749 0.303049 54.7919 0.224964C54.7088 0.14688 54.6106 0.0866378 54.5033 0.0479507C54.3961 0.00926361 54.2821 -0.00704873 54.1683 1.89859e-05H48.0664C47.8543 0.0131917 47.6553 0.106732 47.5097 0.261583C47.3642 0.416434 47.2832 0.620945 47.2832 0.83345C47.2832 1.04595 47.3642 1.25047 47.5097 1.40532C47.6553 1.56017 47.8543 1.65371 48.0664 1.66688Z" fill="#FF566D"/>
<path d="M54.1654 5.83559H42.2315C42.0194 5.84876 41.8203 5.9423 41.6748 6.09715C41.5293 6.25201 41.4482 6.45652 41.4482 6.66902C41.4482 6.88153 41.5293 7.08604 41.6748 7.24089C41.8203 7.39574 42.0194 7.48928 42.2315 7.50245H54.1654C54.2792 7.50952 54.3932 7.49321 54.5004 7.45452C54.6077 7.41583 54.7059 7.35559 54.789 7.27751C54.872 7.19942 54.9383 7.10515 54.9835 7.0005C55.0288 6.89585 55.0521 6.78304 55.0521 6.66902C55.0521 6.555 55.0288 6.44219 54.9835 6.33754C54.9383 6.23289 54.872 6.13862 54.789 6.06054C54.7059 5.98245 54.6077 5.92221 54.5004 5.88352C54.3932 5.84484 54.2792 5.82852 54.1654 5.83559Z" fill="#FF566D"/>
<path d="M54.1655 11.6681H45.5684C45.4546 11.661 45.3406 11.6774 45.2333 11.716C45.1261 11.7547 45.0279 11.815 44.9448 11.8931C44.8617 11.9711 44.7955 12.0654 44.7503 12.1701C44.705 12.2747 44.6816 12.3875 44.6816 12.5015C44.6816 12.6156 44.705 12.7284 44.7503 12.833C44.7955 12.9377 44.8617 13.0319 44.9448 13.11C45.0279 13.1881 45.1261 13.2484 45.2333 13.287C45.3406 13.3257 45.4546 13.342 45.5684 13.335H54.1655C54.2793 13.342 54.3934 13.3257 54.5006 13.287C54.6079 13.2484 54.7061 13.1881 54.7891 13.11C54.8722 13.0319 54.9384 12.9377 54.9837 12.833C55.0289 12.7284 55.0523 12.6156 55.0523 12.5015C55.0523 12.3875 55.0289 12.2747 54.9837 12.1701C54.9384 12.0654 54.8722 11.9711 54.7891 11.8931C54.7061 11.815 54.6079 11.7547 54.5006 11.716C54.3934 11.6774 54.2793 11.661 54.1655 11.6681Z" fill="#FF566D"/>
<path d="M54.1648 17.5037H47.2344C47.1206 17.4966 47.0066 17.5129 46.8993 17.5516C46.7921 17.5903 46.6939 17.6505 46.6108 17.7286C46.5277 17.8067 46.4615 17.901 46.4163 18.0056C46.371 18.1103 46.3477 18.2231 46.3477 18.3371C46.3477 18.4511 46.371 18.5639 46.4163 18.6686C46.4615 18.7732 46.5277 18.8675 46.6108 18.9456C46.6939 19.0237 46.7921 19.0839 46.8993 19.1226C47.0066 19.1613 47.1206 19.1776 47.2344 19.1705H54.1648C54.2786 19.1776 54.3926 19.1613 54.4999 19.1226C54.6071 19.0839 54.7053 19.0237 54.7884 18.9456C54.8715 18.8675 54.9377 18.7732 54.9829 18.6686C55.0282 18.5639 55.0515 18.4511 55.0515 18.3371C55.0515 18.2231 55.0282 18.1103 54.9829 18.0056C54.9377 17.901 54.8715 17.8067 54.7884 17.7286C54.7053 17.6505 54.6071 17.5903 54.4999 17.5516C54.3926 17.5129 54.2786 17.4966 54.1648 17.5037Z" fill="#FF566D"/>
<path d="M54.1648 23.3393H47.2344C47.1206 23.3322 47.0066 23.3485 46.8993 23.3872C46.7921 23.4259 46.6939 23.4861 46.6108 23.5642C46.5277 23.6423 46.4615 23.7366 46.4163 23.8412C46.371 23.9459 46.3477 24.0587 46.3477 24.1727C46.3477 24.2867 46.371 24.3995 46.4163 24.5042C46.4615 24.6088 46.5277 24.7031 46.6108 24.7812C46.6939 24.8593 46.7921 24.9195 46.8993 24.9582C47.0066 24.9969 47.1206 25.0132 47.2344 25.0061H54.1648C54.2786 25.0132 54.3926 24.9969 54.4999 24.9582C54.6071 24.9195 54.7053 24.8593 54.7884 24.7812C54.8715 24.7031 54.9377 24.6088 54.9829 24.5042C55.0282 24.3995 55.0515 24.2867 55.0515 24.1727C55.0515 24.0587 55.0282 23.9459 54.9829 23.8412C54.9377 23.7366 54.8715 23.6423 54.7884 23.5642C54.7053 23.4861 54.6071 23.4259 54.4999 23.3872C54.3926 23.3485 54.2786 23.3322 54.1648 23.3393Z" fill="#FF566D"/>
<path d="M15.7039 45.7504V47.2759H8.34961V45.7504H9.44794V43.438H8.55514V42.0505H9.44794V40.4286C9.44794 38.3924 10.9606 37.4707 12.4057 37.4707C13.0264 37.4499 13.6378 37.6247 14.1536 37.9706C14.6694 38.3164 15.0635 38.8156 15.28 39.3977L13.9312 40.1653C13.6711 39.4105 13.2311 38.9994 12.4475 38.9994C11.6639 38.9994 11.0312 39.4523 11.0312 40.4704V42.0377H13.9601V43.4251H11.0312V45.7375L15.7039 45.7504Z" fill="#FF566D"/>
</g>
<defs>
<clipPath id="clip0">
<rect width="55" height="55" fill="white"/>
</clipPath>
</defs>
</svg>
