<svg width="60" height="60" viewBox="0 0 60 60" fill="none" xmlns="http://www.w3.org/2000/svg">
<path d="M57.9876 48.1798L53.4867 43.6673L49.1983 39.3673C49.0277 39.2109 48.8046 39.1242 48.5732 39.1242C48.3417 39.1242 48.1186 39.2109 47.948 39.3673L46.7978 40.5173L44.0972 37.8298C47.2543 33.1515 48.6909 27.5233 48.1619 21.9046C47.633 16.2859 45.1714 11.0245 41.1966 7.0173C37.9448 3.7888 33.8418 1.55126 29.3662 0.565655C24.8907 -0.41995 20.2271 -0.112986 15.9195 1.45074C11.6118 3.01447 7.83767 5.7705 5.03722 9.39737C2.23677 13.0242 0.525477 17.3724 0.10295 21.9348C-0.319577 26.4971 0.564078 31.0855 2.65085 35.1648C4.73761 39.2441 7.94147 42.6461 11.8887 44.974C15.836 47.3019 20.3639 48.4598 24.9443 48.3125C29.5248 48.1653 33.9689 46.719 37.7584 44.1423L40.459 46.8423L39.3087 47.9923C39.2218 48.0742 39.1525 48.173 39.1052 48.2826C39.0579 48.3922 39.0336 48.5104 39.0337 48.6298C39.0358 48.8743 39.1347 49.108 39.3087 49.2798L48.0605 58.0298C48.6425 58.6232 49.337 59.0946 50.1034 59.4164C50.8698 59.7381 51.6927 59.9039 52.524 59.9039C53.3552 59.9039 54.1781 59.7381 54.9445 59.4164C55.7109 59.0946 56.4054 58.6232 56.9874 58.0298L57.9501 57.0673C58.5436 56.4854 59.0151 55.7911 59.3369 55.0248C59.6588 54.2586 59.8246 53.4359 59.8246 52.6048C59.8246 51.7737 59.6588 50.951 59.3369 50.1848C59.0151 49.4185 58.5436 48.7242 57.9501 48.1423L57.9876 48.1798ZM38.4961 42.3173C38.3448 42.1615 38.1416 42.0666 37.925 42.0504C37.7085 42.0343 37.4935 42.0981 37.3208 42.2298C32.7649 45.5909 27.1056 47.1039 21.4798 46.4648C15.854 45.8257 10.6784 43.0819 6.99288 38.7846C3.30731 34.4872 1.38475 28.9547 1.61141 23.2984C1.83806 17.6421 4.19714 12.2811 8.21474 8.2923C12.4184 4.09176 18.1185 1.73211 24.0618 1.73211C30.0051 1.73211 35.7052 4.09176 39.9088 8.2923C43.6755 12.0933 45.9684 17.1089 46.3783 22.4438C46.7883 27.7787 45.2885 33.0857 42.1468 37.4173C42.0151 37.5899 41.9513 37.8049 41.9674 38.0214C41.9835 38.2379 42.0785 38.4411 42.2343 38.5923L45.4725 41.8298L41.7217 45.5798L38.4961 42.3173ZM42.3469 47.4798L47.3479 42.4798L48.4981 41.3298L51.5113 44.3423L44.1972 51.6548L41.2341 48.6673L42.3469 47.4798ZM56.6623 55.8298L55.7121 56.7798C55.2951 57.1989 54.7992 57.5315 54.2532 57.7585C53.7071 57.9855 53.1216 58.1023 52.5302 58.1023C51.9389 58.1023 51.3533 57.9855 50.8073 57.7585C50.2612 57.5315 49.7654 57.1989 49.3483 56.7798L45.485 52.9298L52.8115 45.6048L56.6623 49.4673C57.084 49.8818 57.4196 50.3756 57.6499 50.9202C57.8801 51.4648 58.0004 52.0495 58.0039 52.6408C58.0074 53.232 57.894 53.8181 57.6702 54.3654C57.4464 54.9127 57.1166 55.4103 56.6998 55.8298H56.6623Z" fill="#00E3CF"/>
<path d="M26.4689 21.7423C25.8216 21.1212 24.9592 20.7744 24.0621 20.7744C23.165 20.7744 22.3026 21.1212 21.6554 21.7423C21.339 22.0581 21.0879 22.4332 20.9167 22.8461C20.7454 23.259 20.6572 23.7016 20.6572 24.1486C20.6572 24.5955 20.7454 25.0382 20.9167 25.451C21.0879 25.8639 21.339 26.239 21.6554 26.5548C22.2937 27.193 23.1594 27.5515 24.0621 27.5515C24.9648 27.5515 25.8306 27.193 26.4689 26.5548C27.1072 25.9166 27.4658 25.0511 27.4658 24.1486C27.4658 23.246 27.1072 22.3805 26.4689 21.7423ZM25.2186 25.2673C25.0721 25.4151 24.8978 25.5324 24.7058 25.6124C24.5137 25.6925 24.3077 25.7337 24.0996 25.7337C23.8915 25.7337 23.6855 25.6925 23.4935 25.6124C23.3014 25.5324 23.1271 25.4151 22.9806 25.2673C22.8309 25.1207 22.712 24.9456 22.6308 24.7524C22.5496 24.5593 22.5078 24.3518 22.5078 24.1423C22.5078 23.9328 22.5496 23.7253 22.6308 23.5322C22.712 23.339 22.8309 23.164 22.9806 23.0173C23.1258 22.8699 23.2991 22.753 23.4902 22.6735C23.6813 22.5941 23.8864 22.5537 24.0934 22.5548C24.4081 22.5538 24.7161 22.6464 24.9781 22.8208C25.2401 22.9951 25.4444 23.2434 25.565 23.5341C25.6856 23.8248 25.717 24.1448 25.6554 24.4534C25.5937 24.762 25.4417 25.0453 25.2186 25.2673Z" fill="#00E3CF"/>
<path d="M43.5968 24.1422C43.5935 23.9024 43.4959 23.6735 43.3251 23.505C43.1543 23.3366 42.924 23.2422 42.6841 23.2422H40.8212C40.6312 19.7797 39.3733 16.4611 37.2205 13.7422L38.4707 10.8922C38.545 10.7339 38.5716 10.5574 38.5472 10.3842C38.5227 10.2111 38.4484 10.0488 38.3332 9.91721C38.2074 9.78909 38.0475 9.69977 37.8724 9.65989C37.6973 9.62 37.5144 9.63122 37.3455 9.69221L34.5199 10.9422C31.7821 8.79902 28.4419 7.56639 24.9679 7.41721V5.56721C24.983 5.43927 24.9708 5.30958 24.9321 5.18669C24.8934 5.0638 24.8291 4.9505 24.7435 4.85423C24.6579 4.75796 24.5528 4.6809 24.4353 4.62814C24.3177 4.57537 24.1903 4.5481 24.0615 4.5481C23.9326 4.5481 23.8052 4.57537 23.6877 4.62814C23.5701 4.6809 23.4651 4.75796 23.3795 4.85423C23.2938 4.9505 23.2296 5.0638 23.1909 5.18669C23.1522 5.30958 23.14 5.43927 23.155 5.56721V7.41721C19.0287 7.63416 15.1289 9.37143 12.2082 12.2938C9.28753 15.2162 7.55298 19.1165 7.33925 23.2422H5.47636C5.34839 23.2272 5.21868 23.2394 5.09576 23.278C4.97285 23.3167 4.85952 23.381 4.76323 23.4666C4.66693 23.5522 4.58987 23.6572 4.53709 23.7747C4.48432 23.8923 4.45703 24.0196 4.45703 24.1485C4.45703 24.2773 4.48432 24.4047 4.53709 24.5222C4.58987 24.6397 4.66693 24.7447 4.76323 24.8304C4.85952 24.916 4.97285 24.9802 5.09576 25.0189C5.21868 25.0576 5.34839 25.0698 5.47636 25.0547H7.33925C7.51773 28.5234 8.77674 31.8495 10.94 34.5672L9.60222 37.4172C9.5279 37.5852 9.50603 37.7718 9.53949 37.9524C9.57296 38.1331 9.66018 38.2994 9.78976 38.4297C9.9616 38.6037 10.1953 38.7026 10.4399 38.7047C10.5701 38.7055 10.6986 38.6756 10.815 38.6172L13.6531 37.3672C16.3704 39.5232 19.691 40.7813 23.155 40.9672V42.7922C23.1812 43.0142 23.2879 43.2189 23.455 43.3675C23.6221 43.516 23.8379 43.5981 24.0615 43.5981C24.2851 43.5981 24.5009 43.516 24.668 43.3675C24.8351 43.2189 24.9418 43.0142 24.9679 42.7922V40.8922C29.1049 40.6895 33.0186 38.9562 35.9486 36.0292C38.8785 33.1022 40.6152 29.1906 40.8212 25.0547H42.6466C42.7696 25.0598 42.8923 25.0399 43.0074 24.9963C43.1225 24.9527 43.2276 24.8863 43.3164 24.8011C43.4051 24.7158 43.4757 24.6135 43.5239 24.5003C43.5721 24.3871 43.5969 24.2653 43.5968 24.1422ZM9.15213 25.0547H10.9275C11.0555 25.0698 11.1852 25.0576 11.3081 25.0189C11.431 24.9802 11.5443 24.916 11.6406 24.8304C11.7369 24.7447 11.814 24.6397 11.8668 24.5222C11.9195 24.4047 11.9468 24.2773 11.9468 24.1485C11.9468 24.0196 11.9195 23.8923 11.8668 23.7747C11.814 23.6572 11.7369 23.5522 11.6406 23.4666C11.5443 23.381 11.431 23.3167 11.3081 23.278C11.1852 23.2394 11.0555 23.2272 10.9275 23.2422H9.11462C9.34215 19.5937 10.8944 16.1539 13.4799 13.569C16.0653 10.9842 19.5058 9.43219 23.155 9.20471V11.0172C23.1812 11.2392 23.2879 11.4439 23.455 11.5925C23.6221 11.741 23.8379 11.8231 24.0615 11.8231C24.2851 11.8231 24.5009 11.741 24.668 11.5925C24.8351 11.4439 24.9418 11.2392 24.9679 11.0172V9.20471C27.7078 9.358 30.3518 10.2665 32.607 11.8297L21.0921 17.0797C19.2755 17.9013 17.8185 19.3535 16.9913 21.1672L11.7527 32.6922C10.18 30.4412 9.26643 27.7963 9.11462 25.0547H9.15213ZM18.6916 21.8922C19.326 20.4956 20.4454 19.3764 21.8423 18.7422L35.8577 12.4172L29.4689 26.3922C28.8351 27.7922 27.716 28.9155 26.3182 29.5547L12.2653 35.9422L18.6916 21.8922ZM34.6949 34.7422C32.1058 37.3262 28.6578 38.8698 25.0054 39.0797V37.2797C25.0205 37.1518 25.0083 37.0221 24.9696 36.8992C24.9309 36.7763 24.8666 36.663 24.781 36.5667C24.6954 36.4705 24.5903 36.3934 24.4728 36.3406C24.3552 36.2879 24.2278 36.2606 24.099 36.2606C23.9701 36.2606 23.8427 36.2879 23.7252 36.3406C23.6076 36.3934 23.5026 36.4705 23.417 36.5667C23.3313 36.663 23.2671 36.7763 23.2284 36.8992C23.1897 37.0221 23.1775 37.1518 23.1926 37.2797V39.0922C20.4584 38.9197 17.8224 38.0081 15.566 36.4547L27.0684 31.1672C28.8516 30.3607 30.282 28.9351 31.0942 27.1547L36.3453 15.6172C37.9116 17.8668 38.8247 20.5058 38.9833 23.2422H37.1955C37.0675 23.2272 36.9378 23.2394 36.8149 23.278C36.692 23.3167 36.5786 23.381 36.4823 23.4666C36.386 23.5522 36.309 23.6572 36.2562 23.7747C36.2034 23.8923 36.1761 24.0196 36.1761 24.1485C36.1761 24.2773 36.2034 24.4047 36.2562 24.5222C36.309 24.6397 36.386 24.7447 36.4823 24.8304C36.5786 24.916 36.692 24.9802 36.8149 25.0189C36.9378 25.0576 37.0675 25.0698 37.1955 25.0547H39.0083C38.7881 28.7063 37.2408 32.1515 34.6574 34.7422H34.6949Z" fill="#00E3CF"/>
</svg>
