<svg width="63" height="54" viewBox="0 0 63 54" fill="none" xmlns="http://www.w3.org/2000/svg">
<path d="M56.7153 19.4995L56.794 19.093C57.0772 17.3333 56.8242 15.529 56.0678 13.9151C55.3115 12.3012 54.0868 10.9523 52.5532 10.0441C51.0196 9.13579 49.2481 8.71019 47.4693 8.82265C45.6905 8.93511 43.9867 9.58042 42.5798 10.6746C42.0881 8.82894 41.0744 7.16433 39.6603 5.88045C38.2461 4.59656 36.4916 3.74793 34.6072 3.43635H34.0434L34.7908 1.29897C34.8347 1.18015 34.8548 1.05385 34.8499 0.927269C34.845 0.800692 34.8152 0.676319 34.7622 0.561253C34.7092 0.446187 34.6341 0.34268 34.5412 0.256642C34.4482 0.170604 34.3392 0.103721 34.2204 0.0598099C34.1016 0.0158991 33.9753 -0.00417885 33.8487 0.000722335C33.7221 0.00562352 33.5977 0.0354079 33.4827 0.0883749C33.3676 0.141342 33.2641 0.216454 33.1781 0.309423C33.092 0.402392 33.0251 0.511398 32.9812 0.630215L32.024 3.37078C30.1712 3.57112 28.4135 4.29376 26.9556 5.45453C25.4977 6.61529 24.3996 8.16639 23.7892 9.92716C22.4385 8.44252 20.6196 7.46595 18.6359 7.16037C16.3264 6.78409 13.9619 7.33479 12.0563 8.69272C10.1508 10.0506 8.85847 12.106 8.46036 14.4117C8.34282 15.1487 8.3164 15.8974 8.38168 16.6409C5.67672 17.7064 3.39802 19.6332 1.89777 22.1234C0.397512 24.6137 -0.240758 27.5288 0.0816043 30.4181C0.403967 33.3074 1.66901 36.0101 3.68122 38.1085C5.69343 40.2069 8.34076 41.5841 11.214 42.0272C11.5918 42.0903 11.9726 42.1341 12.3548 42.1583C12.8269 42.932 13.9022 45.2398 13.2334 49.4753C13.1404 49.9986 13.1651 50.5361 13.3057 51.0487C13.4464 51.5613 13.6994 52.0361 14.0464 52.4387C14.3701 52.8206 14.7714 53.1291 15.2236 53.3439C15.6757 53.5587 16.1684 53.6748 16.6689 53.6844C17.4768 53.6888 18.2607 53.4105 18.885 52.8977C25.166 47.7837 26.4904 42.7353 26.7527 40.4143L27.2116 40.5192C28.2217 40.703 29.2567 40.703 30.2669 40.5192C30.3906 40.4972 30.5087 40.4508 30.6143 40.3825C30.7198 40.3143 30.8106 40.2256 30.8815 40.1218C30.9523 40.018 31.0017 39.9011 31.0268 39.778C31.0518 39.6548 31.052 39.5279 31.0274 39.4046C30.9797 39.1564 30.8357 38.9371 30.6269 38.7946C30.4181 38.6521 30.1614 38.598 29.9128 38.6441C29.1195 38.7885 28.3066 38.7885 27.5132 38.6441C26.7272 38.5156 25.9689 38.254 25.2709 37.8705L25.1398 37.7918C24.8699 37.6353 24.6114 37.46 24.3661 37.2673L24.1432 37.0968C24.0514 37.0181 23.9728 36.9263 23.8941 36.8477C25.0507 35.3522 25.8734 33.6263 26.3068 31.7861C26.3574 31.5394 26.3087 31.2826 26.1713 31.0715C26.0338 30.8604 25.8187 30.712 25.5725 30.6584C25.4501 30.6297 25.3231 30.6261 25.1992 30.6478C25.0753 30.6694 24.9571 30.716 24.8518 30.7846C24.7464 30.8533 24.656 30.9425 24.586 31.047C24.5161 31.1516 24.4681 31.2692 24.4448 31.3928C24.0482 33.1839 23.225 34.8528 22.0452 36.2576C21.7305 36.6116 21.4027 36.9526 21.0748 37.2542L20.7339 37.5295C20.4979 37.7393 20.2487 37.936 19.9996 38.1196L19.58 38.395C19.3439 38.5523 19.0948 38.6966 18.8457 38.8408L18.3736 39.0768C18.126 39.1994 17.8722 39.3088 17.6131 39.4046C17.4557 39.4833 17.2852 39.5358 17.1148 39.6013L16.328 39.8243L15.7904 39.9685C15.5281 40.0209 15.2659 40.0603 15.0036 40.0865L14.4398 40.1652C14.1644 40.1652 13.9022 40.1652 13.6268 40.1652H12.9187C12.4597 40.1652 11.9877 40.0996 11.5156 40.0341C9.14254 39.6102 6.96682 38.4396 5.30549 36.6928C3.64417 34.946 2.58407 32.7144 2.27966 30.323C1.97526 27.9317 2.44245 25.5056 3.61317 23.3983C4.78389 21.291 6.59696 19.6127 8.78817 18.6078C9.41763 20.5245 10.674 22.1735 12.3548 23.2891C12.5103 23.3922 12.6928 23.4469 12.8794 23.4464C13.0852 23.4461 13.2855 23.3795 13.4505 23.2564C13.6155 23.1333 13.7364 22.9603 13.7953 22.763C13.8542 22.5657 13.8479 22.3547 13.7774 22.1613C13.7069 21.9679 13.5759 21.8024 13.4039 21.6893C12.6176 21.175 11.9438 20.5066 11.4232 19.7245C10.9026 18.9425 10.5459 18.063 10.3748 17.1392V17.0343C10.2437 16.2662 10.2437 15.4814 10.3748 14.7133C10.6744 12.8886 11.6835 11.2564 13.1821 10.173C14.6807 9.08963 16.5469 8.64299 18.3736 8.93059C19.3995 9.09457 20.3754 9.48734 21.2289 10.0798C22.0824 10.6722 22.7916 11.4492 23.304 12.353C23.1615 14.09 23.4875 15.8334 24.2481 17.4014C24.3026 17.5189 24.3803 17.6241 24.4766 17.7106C24.5729 17.7972 24.6858 17.8633 24.8084 17.9049C24.9309 17.9466 25.0607 17.963 25.1898 17.9531C25.3189 17.9432 25.4446 17.9072 25.5594 17.8473C25.6756 17.7914 25.7795 17.7129 25.865 17.6164C25.9505 17.5199 26.016 17.4073 26.0575 17.2852C26.099 17.1631 26.1157 17.034 26.1068 16.9053C26.0978 16.7767 26.0633 16.6511 26.0052 16.536C25.3455 15.186 25.0861 13.6753 25.2578 12.1826C25.2515 12.0646 25.2515 11.9464 25.2578 11.8285C25.5102 10.2672 26.2228 8.8167 27.3044 7.66272C28.386 6.50873 29.7873 5.70375 31.329 5.35081L29.3096 11.1204C29.2478 11.2667 29.2238 11.4263 29.2399 11.5843C29.2561 11.7423 29.3119 11.8937 29.4021 12.0244C29.4923 12.1552 29.614 12.261 29.756 12.3322C29.898 12.4034 30.0557 12.4376 30.2144 12.4317H34.581L31.3552 21.6106C31.3119 21.7276 31.2925 21.8521 31.2981 21.9767C31.3038 22.1013 31.3345 22.2235 31.3883 22.336C31.4421 22.4485 31.518 22.5491 31.6114 22.6317C31.7048 22.7143 31.8139 22.7774 31.9322 22.817C32.0497 22.8644 32.1758 22.887 32.3025 22.8833C32.4292 22.8796 32.5537 22.8497 32.6683 22.7955C32.7828 22.7413 32.8849 22.664 32.9681 22.5684C33.0513 22.4728 33.1138 22.361 33.1517 22.24L36.797 11.7892C36.8445 11.6447 36.8574 11.4912 36.8346 11.3408C36.8118 11.1905 36.754 11.0476 36.6659 10.9237C36.59 10.7944 36.4832 10.6859 36.355 10.6081C36.2269 10.5303 36.0813 10.4855 35.9316 10.4779H31.5519L33.3877 5.23279C33.6954 5.24322 34.002 5.27388 34.3056 5.32458C36.0306 5.60848 37.6145 6.45149 38.8134 7.72384C40.0123 8.99618 40.7597 10.6273 40.9407 12.3661C40.0652 13.5203 39.4846 14.8706 39.2491 16.3C39.2112 16.5483 39.2724 16.8016 39.4196 17.0053C39.5668 17.2089 39.7882 17.3465 40.0359 17.3883H40.1932C40.4198 17.3883 40.639 17.3079 40.8119 17.1614C40.9848 17.015 41.1001 16.8119 41.1374 16.5884C41.3315 15.3589 41.8523 14.2041 42.6453 13.2447L42.7109 13.166C43.7003 12.0141 45.0386 11.2164 46.5225 10.8942C48.0065 10.5719 49.555 10.7427 50.9331 11.3806C52.3112 12.0184 53.4435 13.0885 54.1581 14.4284C54.8727 15.7683 55.1306 17.3047 54.8926 18.8045C54.8783 18.9281 54.8564 19.0507 54.8271 19.1717C53.4469 19.0597 52.0597 19.2707 50.7752 19.788C50.575 19.8744 50.4103 20.0266 50.3083 20.2194C50.2064 20.4121 50.1733 20.634 50.2146 20.8481C50.2559 21.0623 50.3691 21.2559 50.5354 21.3969C50.7018 21.538 50.9113 21.618 51.1293 21.6237C51.2557 21.6227 51.3807 21.596 51.4964 21.5451C52.6802 21.0657 53.9729 20.9206 55.2336 21.1255H55.3647C56.8792 21.3972 58.2614 22.1619 59.2961 23.3008C60.3307 24.4396 60.9599 25.8885 61.0856 27.4221C61.2112 28.9556 60.8264 30.4876 59.9909 31.7797C59.1554 33.0718 57.9162 34.0514 56.4662 34.566C56.3474 34.6071 56.2381 34.6715 56.1445 34.7554C56.051 34.8392 55.9751 34.9409 55.9214 35.0545C55.8676 35.1681 55.8371 35.2913 55.8316 35.4168C55.8261 35.5423 55.8457 35.6677 55.8892 35.7855C55.9289 35.9038 55.9919 36.0129 56.0745 36.1063C56.1571 36.1998 56.2577 36.2756 56.3702 36.3294C56.4828 36.3833 56.6049 36.4139 56.7296 36.4196C56.8542 36.4253 56.9786 36.4059 57.0956 36.3625C58.8574 35.7363 60.3766 34.5698 61.4364 33.0293C62.4962 31.4889 63.0425 29.6531 62.9974 27.7838C62.9524 25.9145 62.3182 24.1072 61.1854 22.6196C60.0526 21.132 58.4791 20.04 56.6891 19.4995H56.7153ZM24.9955 39.7456C24.8775 41.3847 23.9859 46.302 17.7966 51.3635C17.4555 51.6288 17.0253 51.7523 16.5954 51.7084C16.1655 51.6644 15.7691 51.4563 15.4888 51.1275C15.3391 50.9465 15.2282 50.7368 15.1628 50.5112C15.0974 50.2857 15.0789 50.0491 15.1085 49.8162C15.6355 47.2535 15.4264 44.594 14.5053 42.1452L15.161 42.0534L15.8166 41.9485L16.4591 41.8043L17.0099 41.66C17.2189 41.6064 17.4247 41.5408 17.6262 41.4634L18.1769 41.2667L18.7539 41.0306L19.3046 40.7684L19.7504 40.5061L20.3012 40.1652L20.7864 39.8636L21.3764 39.4178L21.7698 39.1162C22.0452 38.8801 22.3205 38.6179 22.5959 38.3556L22.6746 38.277L22.8451 38.395C23.1155 38.6403 23.4049 38.8639 23.7105 39.0637C23.8788 39.1791 24.054 39.2842 24.235 39.3784C24.4317 39.4833 24.6284 39.6145 24.8382 39.7062L24.9955 39.7456Z" fill="#01C2E6"/>
<path d="M43.2616 23.7742C40.8058 23.7811 38.4233 24.6115 36.4952 26.1325C34.5671 27.6535 33.2048 29.7772 32.6263 32.1639C32.0478 34.5506 32.2864 37.0623 33.304 39.2974C34.3216 41.5324 36.0594 43.3616 38.2394 44.4923C38.3716 44.5656 38.5211 44.6019 38.6721 44.5972C38.8887 44.6035 39.1009 44.5352 39.273 44.4036C39.4451 44.272 39.5668 44.0852 39.6175 43.8746C39.6682 43.664 39.645 43.4423 39.5516 43.2468C39.4583 43.0512 39.3006 42.8938 39.1049 42.8008C37.3001 41.869 35.8608 40.3579 35.0178 38.51C34.1749 36.662 33.9773 34.5845 34.4567 32.6108C34.9362 30.6371 36.0648 28.8817 37.6616 27.6264C39.2583 26.3711 41.2305 25.6887 43.2616 25.6887C45.2927 25.6887 47.2649 26.3711 48.8616 27.6264C50.4584 28.8817 51.587 30.6371 52.0665 32.6108C52.5459 34.5845 52.3483 36.662 51.5054 38.51C50.6625 40.3579 49.2231 41.869 47.4184 42.8008C47.3043 42.8588 47.203 42.9391 47.1205 43.037C47.038 43.1349 46.976 43.2483 46.9381 43.3705C46.9002 43.4928 46.8872 43.6214 46.8998 43.7488C46.9125 43.8761 46.9506 43.9997 47.0119 44.1121C47.0923 44.2681 47.2147 44.3987 47.3653 44.489C47.5158 44.5793 47.6886 44.6259 47.8642 44.6235C48.015 44.6262 48.1641 44.5901 48.2969 44.5186C50.4779 43.3873 52.2163 41.557 53.2337 39.3206C54.2511 37.0843 54.4887 34.5712 53.9084 32.1838C53.3282 29.7964 51.9637 27.6727 50.0334 26.1527C48.103 24.6328 45.7185 23.8044 43.2616 23.8004V23.7742Z" fill="#01C2E6"/>
<path d="M48.4018 34.2513C48.437 33.5553 48.3303 32.8594 48.0882 32.206C47.8461 31.5525 47.4736 30.9551 46.9934 30.45C46.5133 29.945 45.9354 29.5428 45.295 29.2681C44.6546 28.9933 43.965 28.8516 43.2681 28.8516C42.5713 28.8516 41.8817 28.9933 41.2412 29.2681C40.6008 29.5428 40.023 29.945 39.5428 30.45C39.0627 30.9551 38.6902 31.5525 38.4481 32.206C38.206 32.8594 38.0993 33.5553 38.1345 34.2513C38.1345 34.5029 38.2335 34.7444 38.4102 34.9236C38.5869 35.1027 38.827 35.2051 39.0786 35.2085C39.3325 35.2085 39.576 35.1077 39.7555 34.9282C39.935 34.7487 40.0358 34.5052 40.0358 34.2513C40.0882 33.4296 40.4515 32.6587 41.0519 32.0954C41.6524 31.532 42.4448 31.2184 43.2681 31.2184C44.0915 31.2184 44.8839 31.532 45.4843 32.0954C46.0847 32.6587 46.4481 33.4296 46.5004 34.2513C46.5004 35.5626 45.8448 36.0346 44.8613 36.7427C44.0817 37.1787 43.4339 37.8168 42.9862 38.5898C42.5386 39.3629 42.3075 40.2423 42.3175 41.1355V41.7649C42.3017 41.8991 42.3145 42.0352 42.355 42.1641C42.3956 42.293 42.463 42.4119 42.5528 42.5128C42.6426 42.6138 42.7528 42.6947 42.8761 42.75C42.9994 42.8054 43.133 42.834 43.2681 42.834C43.4033 42.834 43.5369 42.8054 43.6602 42.75C43.7835 42.6947 43.8936 42.6138 43.9834 42.5128C44.0733 42.4119 44.1407 42.293 44.1812 42.1641C44.2218 42.0352 44.2346 41.8991 44.2188 41.7649V41.1355C44.2188 39.5751 44.9662 39.0375 45.989 38.29C46.7154 37.8939 47.3224 37.3103 47.7468 36.6C48.1711 35.8897 48.3973 35.0787 48.4018 34.2513Z" fill="#01C2E6"/>
<path d="M43.2625 45.8826C43.0109 45.886 42.7708 45.9884 42.5941 46.1675C42.4174 46.3467 42.3183 46.5882 42.3184 46.8398V47.0365C42.3458 47.2694 42.4577 47.4841 42.6329 47.64C42.8082 47.7958 43.0345 47.8819 43.269 47.8819C43.5035 47.8819 43.7299 47.7958 43.9051 47.64C44.0804 47.4841 44.1923 47.2694 44.2197 47.0365V46.8398C44.2197 46.5859 44.1189 46.3425 43.9393 46.1629C43.7598 45.9834 43.5164 45.8826 43.2625 45.8826Z" fill="#01C2E6"/>
</svg>
