<svg width="56" height="56" viewBox="0 0 56 56" fill="none" xmlns="http://www.w3.org/2000/svg">
<g clip-path="url(#clip0_1818_300)">
<path d="M15.6835 5.5983C15.6815 2.92423 17.85 0.752417 20.5318 0.75C23.2171 0.754415 25.3873 2.92723 25.3853 5.60059V5.60114V10.4477H20.5349C17.8523 10.4457 15.6815 8.27336 15.6835 5.59941L15.6835 5.5983ZM5.60147 15.6833H20.5316C23.214 15.6853 25.385 17.8575 25.383 20.5339V20.535C25.385 23.209 23.2142 25.3814 20.5316 25.3833H5.59974C2.91644 25.3794 0.746046 23.2066 0.750007 20.5333L0.750006 20.5316C0.748026 17.8577 2.91882 15.6853 5.60147 15.6833Z" stroke="#00E3CF" stroke-width="1.5"/>
<path d="M50.3988 25.3833H45.5484L45.5484 20.5322L45.5484 20.5316C45.5464 17.8579 47.7169 15.6856 50.3993 15.6833C53.0817 15.6856 55.2523 17.8579 55.2503 20.5316L55.2503 20.5327C55.2523 23.2092 53.0813 25.3814 50.3988 25.3833ZM40.3168 20.5322V20.5327C40.3187 23.2088 38.1483 25.3808 35.4663 25.3833C32.7833 25.3791 30.6132 23.2064 30.6172 20.5333V20.5322L30.6172 5.59886L30.6172 5.5983C30.6152 2.92463 32.7856 0.752417 35.4679 0.75C38.1505 0.754415 40.3187 2.92683 40.3168 5.5983V5.59886V20.5322Z" stroke="#00E3CF" stroke-width="1.5"/>
<path d="M40.3161 50.4007L40.3161 50.4018C40.3181 53.0754 38.1478 55.2476 35.4657 55.2501C32.7826 55.2458 30.6123 53.073 30.6143 50.4018V50.4013V45.5524H35.4646C38.1473 45.5544 40.3181 47.7268 40.3161 50.4007ZM50.3981 40.3145H35.4657C32.7837 40.3125 30.6146 38.1407 30.6165 35.4639L30.6165 35.4628C30.6146 32.7889 32.7852 30.6166 35.4678 30.6145H50.4004C53.0834 30.6188 55.2535 32.7914 55.2496 35.4645V35.4662C55.2515 38.1401 53.0807 40.3125 50.3981 40.3145ZM29.8667 35.4634L29.8665 35.4634L29.8667 35.4634Z" stroke="#00E3CF" stroke-width="1.5"/>
<mask id="path-4-inside-1_1818_300" fill="white">
<path fill-rule="evenodd" clip-rule="evenodd" d="M1.56442e-06 35.4656C-0.00228639 38.555 2.50531 41.0621 5.60092 41.0644C8.69653 41.0621 11.2041 38.555 11.2018 35.4656V29.8667H5.60092C2.50531 29.869 -0.00228639 32.3761 1.56442e-06 35.4656ZM14.9335 35.4656V50.3989C14.9289 53.4883 17.4365 55.9955 20.5321 56.0001C23.6277 55.9978 26.1353 53.4906 26.133 50.4012V35.4701C26.1376 32.3807 23.63 29.8735 20.5344 29.869C17.4365 29.869 14.9312 32.3761 14.9335 35.4656C14.9335 35.4678 14.9335 35.4656 14.9335 35.4656Z"/>
</mask>
<path d="M1.56442e-06 35.4656L1.5 35.4667L1.5 35.4645L1.56442e-06 35.4656ZM5.60092 41.0644L5.59981 42.5644L5.60203 42.5644L5.60092 41.0644ZM11.2018 35.4656H9.70184L9.70184 35.4667L11.2018 35.4656ZM11.2018 29.8667H12.7018V28.3667H11.2018V29.8667ZM5.60092 29.8667V28.3667L5.59981 28.3667L5.60092 29.8667ZM14.9335 35.4656H16.4335V35.4645L14.9335 35.4656ZM14.9335 50.3989L16.4335 50.4011V50.3989H14.9335ZM20.5321 56.0001L20.5299 57.5001L20.5332 57.5001L20.5321 56.0001ZM26.133 50.4012H24.633V50.4023L26.133 50.4012ZM26.133 35.4701L24.633 35.4679V35.4701H26.133ZM20.5344 29.869L20.5366 28.369H20.5344V29.869ZM-1.5 35.4645C-1.5029 39.3848 1.67831 42.5615 5.59981 42.5644L5.60203 39.5644C3.33232 39.5628 1.49833 37.7251 1.5 35.4667L-1.5 35.4645ZM5.60203 42.5644C9.52354 42.5615 12.7047 39.3848 12.7018 35.4645L9.70184 35.4667C9.70351 37.7251 7.86952 39.5628 5.59981 39.5644L5.60203 42.5644ZM12.7018 35.4656V29.8667H9.70184V35.4656H12.7018ZM11.2018 28.3667H5.60092V31.3667H11.2018V28.3667ZM5.59981 28.3667C1.67831 28.3696 -1.5029 31.5463 -1.5 35.4667L1.5 35.4645C1.49833 33.206 3.33232 31.3684 5.60203 31.3667L5.59981 28.3667ZM13.4335 35.4656V50.3989H16.4335V35.4656H13.4335ZM13.4335 50.3967C13.4277 54.3184 16.6097 57.4943 20.5299 57.5001L20.5343 54.5001C18.2633 54.4967 16.4302 52.6583 16.4335 50.4011L13.4335 50.3967ZM20.5332 57.5001C24.4547 57.4972 27.636 54.3205 27.633 50.4001L24.633 50.4023C24.6347 52.6608 22.8007 54.4984 20.531 54.5001L20.5332 57.5001ZM27.633 50.4012V35.4701H24.633V50.4012H27.633ZM27.633 35.4724C27.6389 31.5507 24.4568 28.3748 20.5366 28.369L20.5322 31.369C22.8032 31.3723 24.6364 33.2107 24.6331 35.4679L27.633 35.4724ZM20.5344 28.369C16.6091 28.369 13.4306 31.5469 13.4335 35.4667L16.4335 35.4645C16.4318 33.2054 18.2639 31.369 20.5344 31.369V28.369ZM14.9335 35.4656C13.4335 35.4656 13.4335 35.4656 13.4335 35.4656C13.4335 35.4656 13.4335 35.4656 13.4335 35.4656C13.4335 35.4656 13.4335 35.4656 13.4335 35.4656C13.4335 35.4656 13.4335 35.4656 13.4335 35.4656V35.4656V35.4656V35.4656C13.4335 35.4656 13.4335 35.4656 13.4335 35.4656C13.4335 35.4656 13.4335 35.4656 13.4335 35.4656V35.4656C13.4335 35.4656 13.4335 35.4656 13.4335 35.4656V35.4656C13.4335 35.4656 13.4335 35.4656 13.4335 35.4656C13.4335 35.4656 13.4335 35.4656 13.4335 35.4656C13.4335 35.4656 13.4335 35.4656 13.4335 35.4656C13.4335 35.4656 13.4335 35.4656 13.4335 35.4656C13.4335 35.4656 13.4335 35.4656 13.4335 35.4656C13.4335 35.4656 13.4335 35.4656 13.4335 35.4656C13.4335 35.4656 13.4335 35.4656 13.4335 35.4656C13.4335 35.4656 13.4335 35.4656 13.4335 35.4656C13.4335 35.4656 13.4335 35.4656 13.4335 35.4656C13.4335 35.4656 13.4335 35.4656 13.4335 35.4656C13.4335 35.4656 13.4335 35.4656 13.4335 35.4656C13.4335 35.4656 13.4335 35.4656 13.4335 35.4656C13.4335 35.4656 13.4335 35.4656 13.4335 35.4656C13.4335 35.4656 13.4335 35.4656 13.4335 35.4656C13.4335 35.4656 13.4335 35.4656 13.4335 35.4656C13.4335 35.4656 13.4335 35.4656 13.4335 35.4656C13.4335 35.4656 13.4335 35.4656 13.4335 35.4656C13.4335 35.4656 13.4335 35.4656 13.4335 35.4656C13.4335 35.4656 13.4335 35.4656 13.4335 35.4656C13.4335 35.4656 13.4335 35.4656 13.4335 35.4656C13.4335 35.4656 13.4335 35.4656 13.4335 35.4656C13.4335 35.4656 13.4335 35.4656 13.4335 35.4656C13.4335 35.4656 13.4335 35.4656 13.4335 35.4656C13.4335 35.4656 13.4335 35.4656 13.4335 35.4656C13.4335 35.4656 13.4335 35.4656 13.4335 35.4656C13.4335 35.4656 13.4335 35.4656 13.4335 35.4656C13.4335 35.4656 13.4335 35.4656 13.4335 35.4656C13.4335 35.4656 13.4335 35.4656 13.4335 35.4656C13.4335 35.4656 13.4335 35.4656 13.4335 35.4656C13.4335 35.4656 13.4335 35.4656 13.4335 35.4656C13.4335 35.4656 13.4335 35.4656 13.4335 35.4656C13.4335 35.4656 13.4335 35.4656 13.4335 35.4656C13.4335 35.4656 13.4335 35.4656 13.4335 35.4656C13.4335 35.4656 13.4335 35.4656 13.4335 35.4656C13.4335 35.4656 13.4335 35.4656 13.4335 35.4656C13.4335 35.4656 13.4335 35.4656 13.4335 35.4656C13.4335 35.4656 13.4335 35.4656 13.4335 35.4656C13.4335 35.4656 13.4335 35.4656 13.4335 35.4656C13.4335 35.4656 13.4335 35.4656 13.4335 35.4656C13.4335 35.4656 13.4335 35.4656 13.4335 35.4656C13.4335 35.4656 13.4335 35.4656 13.4335 35.4656C13.4335 35.4656 13.4335 35.4656 13.4335 35.4656C13.4335 35.4656 13.4335 35.4656 13.4335 35.4656C13.4335 35.4656 13.4335 35.4656 13.4335 35.4656C13.4335 35.4656 13.4335 35.4656 13.4335 35.4657C13.4335 35.4657 13.4335 35.4657 13.4335 35.4657C13.4335 35.4657 13.4335 35.4657 13.4335 35.4657C13.4335 35.4657 13.4335 35.4657 13.4335 35.4657C13.4335 35.4657 13.4335 35.4657 13.4335 35.4657C13.4335 35.4657 13.4335 35.4657 13.4335 35.4657C13.4335 35.4657 13.4335 35.4657 13.4335 35.4657C13.4335 35.4657 13.4335 35.4657 13.4335 35.4657C13.4335 35.4657 13.4335 35.4657 13.4335 35.4657C13.4335 35.4657 13.4335 35.4657 13.4335 35.4657C13.4335 35.4657 13.4335 35.4657 13.4335 35.4657C13.4335 35.4657 13.4335 35.4657 13.4335 35.4657C13.4335 35.4657 13.4335 35.4657 13.4335 35.4657C13.4335 35.4657 13.4335 35.4657 13.4335 35.4657C13.4335 35.4657 13.4335 35.4657 13.4335 35.4657C13.4335 35.4657 13.4335 35.4657 13.4335 35.4657C13.4335 35.4657 13.4335 35.4657 13.4335 35.4657C13.4335 35.4657 13.4335 35.4657 13.4335 35.4657C13.4335 35.4657 13.4335 35.4657 13.4335 35.4657C13.4335 35.4657 13.4335 35.4657 13.4335 35.4657C13.4335 35.4657 13.4335 35.4657 13.4335 35.4657C13.4335 35.4657 13.4335 35.4657 13.4335 35.4657C13.4335 35.4657 13.4335 35.4657 13.4335 35.4657C13.4335 35.4657 13.4335 35.4657 13.4335 35.4657C13.4335 35.4657 13.4335 35.4657 13.4335 35.4657C13.4335 35.4657 13.4335 35.4657 13.4335 35.4657C13.4335 35.4657 13.4335 35.4657 13.4335 35.4657C13.4335 35.4657 13.4335 35.4657 13.4335 35.4657C13.4335 35.4657 13.4335 35.4657 13.4335 35.4657C13.4335 35.4657 13.4335 35.4657 13.4335 35.4657C13.4335 35.4657 13.4335 35.4657 13.4335 35.4657C13.4335 35.4657 13.4335 35.4657 13.4335 35.4657C13.4335 35.4657 13.4335 35.4657 13.4335 35.4657C13.4335 35.4658 13.4335 35.4658 13.4335 35.4658C13.4335 35.4658 13.4335 35.4658 13.4335 35.4658C13.4335 35.4658 13.4335 35.4658 13.4335 35.4658C13.4335 35.4658 13.4335 35.4658 13.4335 35.4658C13.4335 35.4658 13.4335 35.4658 13.4335 35.4658C13.4335 35.4658 13.4335 35.4658 13.4335 35.4658C13.4335 35.4658 13.4335 35.4658 13.4335 35.4658C13.4335 35.4658 13.4335 35.4658 13.4335 35.4658C13.4335 35.4658 13.4335 35.4658 13.4335 35.4658C13.4335 35.4658 13.4335 35.4658 13.4335 35.4658C13.4335 35.4658 13.4335 35.4658 13.4335 35.4658C13.4335 35.4658 13.4335 35.4658 13.4335 35.4658C13.4335 35.4658 13.4335 35.4658 13.4335 35.4658C13.4335 35.4658 13.4335 35.4658 13.4335 35.4658C13.4335 35.4658 13.4335 35.4658 13.4335 35.4658C13.4335 35.4658 13.4335 35.4658 13.4335 35.4658C13.4335 35.4658 13.4335 35.4658 13.4335 35.4658C13.4335 35.4658 13.4335 35.4658 13.4335 35.4658C13.4335 35.4658 13.4335 35.4658 13.4335 35.4658C13.4335 35.4658 13.4335 35.4658 13.4335 35.4658C13.4335 35.4658 13.4335 35.4658 13.4335 35.4658C13.4335 35.4658 13.4335 35.4658 13.4335 35.4658C13.4335 35.4658 13.4335 35.4658 13.4335 35.4658C13.4335 35.4658 13.4335 35.4658 13.4335 35.4658C13.4335 35.4658 13.4335 35.4658 13.4335 35.4658C13.4335 35.4658 13.4335 35.4658 13.4335 35.4658C13.4335 35.4658 13.4335 35.4659 13.4335 35.4659C13.4335 35.4659 13.4335 35.4659 13.4335 35.4659C13.4335 35.4659 13.4335 35.4659 13.4335 35.4659C13.4335 35.4659 13.4335 35.4659 13.4335 35.4659C13.4335 35.4659 13.4335 35.4659 13.4335 35.4659C13.4335 35.4659 13.4335 35.4659 13.4335 35.4659C13.4335 35.4659 13.4335 35.4659 13.4335 35.4659C13.4335 35.4659 13.4335 35.4659 13.4335 35.4659C13.4335 35.4659 13.4335 35.4659 13.4335 35.4659C13.4335 35.4659 13.4335 35.4659 13.4335 35.4659C13.4335 35.4659 13.4335 35.4659 13.4335 35.4659C13.4335 35.4659 13.4335 35.4659 13.4335 35.4659C13.4335 35.4659 13.4335 35.4659 13.4335 35.4659C13.4335 35.4659 13.4335 35.4659 13.4335 35.4659C13.4335 35.4659 13.4335 35.4659 13.4335 35.4659C13.4335 35.4659 13.4335 35.4659 13.4335 35.4659C13.4335 35.4659 13.4335 35.4659 13.4335 35.4659C13.4335 35.4659 13.4335 35.4659 13.4335 35.4659C13.4335 35.4659 13.4335 35.4659 13.4335 35.4659C13.4335 35.4659 13.4335 35.4659 13.4335 35.4659C13.4335 35.4659 13.4335 35.4659 13.4335 35.4659C13.4335 35.4659 13.4335 35.4659 13.4335 35.4659C13.4335 35.4659 13.4335 35.4659 13.4335 35.4659C13.4335 35.4659 13.4335 35.4659 13.4335 35.4659C13.4335 35.466 13.4335 35.466 13.4335 35.466C13.4335 35.466 13.4335 35.466 13.4335 35.466C13.4335 35.466 13.4335 35.466 13.4335 35.466C13.4335 35.466 13.4335 35.466 13.4335 35.466C13.4335 35.466 13.4335 35.466 13.4335 35.466C13.4335 35.466 13.4335 35.466 13.4335 35.466C13.4335 35.466 13.4335 35.466 13.4335 35.466C13.4335 35.466 13.4335 35.466 13.4335 35.466C13.4335 35.466 13.4335 35.466 13.4335 35.466C13.4335 35.466 13.4335 35.466 13.4335 35.466C13.4335 35.466 13.4335 35.466 13.4335 35.466C13.4335 35.466 13.4335 35.466 13.4335 35.466C13.4335 35.466 13.4335 35.466 13.4335 35.466C13.4335 35.466 13.4335 35.466 13.4335 35.466C13.4335 35.466 13.4335 35.466 13.4335 35.466C13.4335 35.466 13.4335 35.466 13.4335 35.466C13.4335 35.466 13.4335 35.466 13.4335 35.466C13.4335 35.466 13.4335 35.466 13.4335 35.466C13.4335 35.466 13.4335 35.466 13.4335 35.466C13.4335 35.466 13.4335 35.466 13.4335 35.466C13.4335 35.466 13.4335 35.466 13.4335 35.466C13.4335 35.466 13.4335 35.466 13.4335 35.466C13.4335 35.466 13.4335 35.466 13.4335 35.4661C13.4335 35.4661 13.4335 35.4661 13.4335 35.4661C13.4335 35.4661 13.4335 35.4661 13.4335 35.4661C13.4335 35.4661 13.4335 35.4661 13.4335 35.4661C13.4335 35.4661 13.4335 35.4661 13.4335 35.4661C13.4335 35.4661 13.4335 35.4661 13.4335 35.4661C13.4335 35.4661 13.4335 35.4661 13.4335 35.4661C13.4335 35.4661 13.4335 35.4661 13.4335 35.4661C13.4335 35.4661 13.4335 35.4661 13.4335 35.4661C13.4335 35.4661 13.4335 35.4661 13.4335 35.4661C13.4335 35.4661 13.4335 35.4661 13.4335 35.4661C13.4335 35.4661 13.4335 35.4661 13.4335 35.4661C13.4335 35.4661 13.4335 35.4661 13.4335 35.4661C13.4335 35.4661 13.4335 35.4661 13.4335 35.4661C13.4335 35.4661 13.4335 35.4661 13.4335 35.4661C13.4335 35.4661 13.4335 35.4661 13.4335 35.4661C13.4335 35.4661 13.4335 35.4661 13.4335 35.4661C13.4335 35.4661 13.4335 35.4661 13.4335 35.4661C13.4335 35.4661 13.4335 35.4661 13.4335 35.4661C13.4335 35.4661 13.4335 35.4661 13.4335 35.4661C13.4335 35.4661 13.4335 35.4661 13.4335 35.4661C13.4335 35.4661 13.4335 35.4661 13.4335 35.4661C13.4335 35.4661 13.4335 35.4661 13.4335 35.4661C13.4335 35.4662 13.4335 35.4662 13.4335 35.4662C13.4335 35.4662 13.4335 35.4662 13.4335 35.4662C13.4335 35.4662 13.4335 35.4662 13.4335 35.4662C13.4335 35.4662 13.4335 35.4662 13.4335 35.4662C13.4335 35.4662 13.4335 35.4662 13.4335 35.4662C13.4335 35.4662 13.4335 35.4662 13.4335 35.4662C13.4335 35.4662 13.4335 35.4662 13.4335 35.4662C13.4335 35.4662 13.4335 35.4662 13.4335 35.4662C13.4335 35.4662 13.4335 35.4662 13.4335 35.4662C13.4335 35.4662 13.4335 35.4662 13.4335 35.4662C13.4335 35.4662 13.4335 35.4662 13.4335 35.4662C13.4335 35.4662 13.4335 35.4662 13.4335 35.4662C13.4335 35.4662 13.4335 35.4662 13.4335 35.4662C13.4335 35.4662 13.4335 35.4662 13.4335 35.4662C13.4335 35.4662 13.4335 35.4662 13.4335 35.4662C13.4335 35.4662 13.4335 35.4662 13.4335 35.4662C13.4335 35.4662 13.4335 35.4662 13.4335 35.4662C13.4335 35.4662 13.4335 35.4662 13.4335 35.4662C13.4335 35.4662 13.4335 35.4662 13.4335 35.4662C13.4335 35.4662 13.4335 35.4662 13.4335 35.4662C13.4335 35.4662 13.4335 35.4662 13.4335 35.4662C13.4335 35.4662 13.4335 35.4662 13.4335 35.4662C13.4335 35.4662 13.4335 35.4662 13.4335 35.4662C13.4335 35.4662 13.4335 35.4663 13.4335 35.4663C13.4335 35.4663 13.4335 35.4663 13.4335 35.4663C13.4335 35.4663 13.4335 35.4663 13.4335 35.4663C13.4335 35.4663 13.4335 35.4663 13.4335 35.4663C13.4335 35.4663 13.4335 35.4663 13.4335 35.4663C13.4335 35.4663 13.4335 35.4663 13.4335 35.4663C13.4335 35.4663 13.4335 35.4663 13.4335 35.4663C13.4335 35.4663 13.4335 35.4663 13.4335 35.4663C13.4335 35.4663 13.4335 35.4663 13.4335 35.4663C13.4335 35.4663 13.4335 35.4663 13.4335 35.4663C13.4335 35.4663 13.4335 35.4663 13.4335 35.4663C13.4335 35.4663 13.4335 35.4663 13.4335 35.4663C13.4335 35.4663 13.4335 35.4663 13.4335 35.4663C13.4335 35.4663 13.4335 35.4663 13.4335 35.4663C13.4335 35.4663 13.4335 35.4663 13.4335 35.4663C13.4335 35.4663 13.4335 35.4663 13.4335 35.4663C13.4335 35.4663 13.4335 35.4663 13.4335 35.4663C13.4335 35.4663 13.4335 35.4663 13.4335 35.4663C13.4335 35.4663 13.4335 35.4663 13.4335 35.4663C13.4335 35.4663 13.4335 35.4663 13.4335 35.4663C13.4335 35.4663 13.4335 35.4663 13.4335 35.4663C13.4335 35.4663 13.4335 35.4663 13.4335 35.4663C13.4335 35.4663 13.4335 35.4663 13.4335 35.4663C13.4335 35.4663 13.4335 35.4663 13.4335 35.4663C13.4335 35.4663 13.4335 35.4663 13.4335 35.4663C13.4335 35.4664 13.4335 35.4664 13.4335 35.4664C13.4335 35.4664 13.4335 35.4664 13.4335 35.4664C13.4335 35.4664 13.4335 35.4664 13.4335 35.4664C13.4335 35.4664 13.4335 35.4664 13.4335 35.4664C13.4335 35.4664 13.4335 35.4664 13.4335 35.4664C13.4335 35.4664 13.4335 35.4664 13.4335 35.4664C13.4335 35.4664 13.4335 35.4664 13.4335 35.4664C13.4335 35.4664 13.4335 35.4664 13.4335 35.4664C13.4335 35.4664 13.4335 35.4664 13.4335 35.4664C13.4335 35.4664 13.4335 35.4664 13.4335 35.4664C13.4335 35.4664 13.4335 35.4664 13.4335 35.4664C13.4335 35.4664 13.4335 35.4664 13.4335 35.4664C13.4335 35.4664 13.4335 35.4664 13.4335 35.4664C13.4335 35.4664 13.4335 35.4664 13.4335 35.4664C13.4335 35.4664 13.4335 35.4664 13.4335 35.4664C13.4335 35.4664 13.4335 35.4664 13.4335 35.4664C13.4335 35.4664 13.4335 35.4664 13.4335 35.4664C13.4335 35.4664 13.4335 35.4664 13.4335 35.4664C13.4335 35.4664 13.4335 35.4664 13.4335 35.4664C13.4335 35.4664 13.4335 35.4664 13.4335 35.4664C13.4335 35.4664 13.4335 35.4664 13.4335 35.4664C13.4335 35.4664 13.4335 35.4664 13.4335 35.4664C13.4335 35.4664 13.4335 35.4664 13.4335 35.4664C13.4335 35.4664 13.4335 35.4664 13.4335 35.4664C13.4335 35.4664 13.4335 35.4664 13.4335 35.4664C13.4335 35.4664 13.4335 35.4664 13.4335 35.4664C13.4335 35.4664 13.4335 35.4664 13.4335 35.4664C13.4335 35.4664 13.4335 35.4664 13.4335 35.4664C13.4335 35.4664 13.4335 35.4664 13.4335 35.4664C13.4335 35.4665 13.4335 35.4665 13.4335 35.4665C13.4335 35.4665 13.4335 35.4665 13.4335 35.4665C13.4335 35.4665 13.4335 35.4665 13.4335 35.4665C13.4335 35.4665 13.4335 35.4665 13.4335 35.4665C13.4335 35.4665 13.4335 35.4665 13.4335 35.4665C13.4335 35.4665 13.4335 35.4665 13.4335 35.4665C13.4335 35.4665 13.4335 35.4665 13.4335 35.4665C13.4335 35.4665 13.4335 35.4665 13.4335 35.4665C13.4335 35.4665 13.4335 35.4665 13.4335 35.4665C13.4335 35.4665 13.4335 35.4665 13.4335 35.4665C13.4335 35.4665 13.4335 35.4665 13.4335 35.4665C13.4335 35.4665 13.4335 35.4665 13.4335 35.4665C13.4335 35.4665 13.4335 35.4665 13.4335 35.4665C13.4335 35.4665 13.4335 35.4665 13.4335 35.4665C13.4335 35.4665 13.4335 35.4665 13.4335 35.4665C13.4335 35.4665 13.4335 35.4665 13.4335 35.4665C13.4335 35.4665 13.4335 35.4665 13.4335 35.4665C13.4335 35.4665 13.4335 35.4665 13.4335 35.4665C13.4335 35.4665 13.4335 35.4665 13.4335 35.4665C13.4335 35.4665 13.4335 35.4665 13.4335 35.4665C13.4335 35.4665 13.4335 35.4665 13.4335 35.4665C13.4335 35.4665 13.4335 35.4665 13.4335 35.4665C13.4335 35.4665 13.4335 35.4665 13.4335 35.4665C13.4335 35.4665 13.4335 35.4665 13.4335 35.4665C13.4335 35.4665 13.4335 35.4665 13.4335 35.4665C13.4335 35.4665 13.4335 35.4665 13.4335 35.4665C13.4335 35.4665 13.4335 35.4665 13.4335 35.4665C13.4335 35.4665 13.4335 35.4665 13.4335 35.4665C13.4335 35.4665 13.4335 35.4665 13.4335 35.4665C13.4335 35.4665 13.4335 35.4665 13.4335 35.4665C13.4335 35.4665 13.4335 35.4665 13.4335 35.4665C13.4335 35.4665 13.4335 35.4665 13.4335 35.4665C13.4335 35.4665 13.4335 35.4665 13.4335 35.4665C13.4335 35.4665 13.4335 35.4665 13.4335 35.4665C13.4335 35.4665 13.4335 35.4665 13.4335 35.4665C13.4335 35.4665 13.4335 35.4665 13.4335 35.4665C13.4335 35.4665 13.4335 35.4665 13.4335 35.4665C13.4335 35.4665 13.4335 35.4665 13.4335 35.4665C13.4335 35.4665 13.4335 35.4665 13.4335 35.4665C13.4335 35.4665 13.4335 35.4665 13.4335 35.4665C13.4335 35.4665 13.4335 35.4665 13.4335 35.4665C13.4335 35.4665 13.4335 35.4666 13.4335 35.4666C13.4335 35.4666 13.4335 35.4666 13.4335 35.4666C13.4335 35.4666 13.4335 35.4666 13.4335 35.4666C13.4335 35.4666 13.4335 35.4666 13.4335 35.4666C13.4335 35.4666 13.4335 35.4666 13.4335 35.4666C13.4335 35.4666 13.4335 35.4666 13.4335 35.4666C13.4335 35.4666 13.4335 35.4666 13.4335 35.4666C13.4335 35.4666 13.4335 35.4666 13.4335 35.4666C13.4335 35.4666 13.4335 35.4666 13.4335 35.4666C13.4335 35.4666 13.4335 35.4666 13.4335 35.4666C13.4335 35.4666 13.4335 35.4666 13.4335 35.4666C13.4335 35.4666 13.4335 35.4666 13.4335 35.4666C13.4335 35.4666 13.4335 35.4666 13.4335 35.4666C13.4335 35.4666 13.4335 35.4666 13.4335 35.4666C13.4335 35.4666 13.4335 35.4666 13.4335 35.4666C13.4335 35.4666 13.4335 35.4666 13.4335 35.4666C13.4335 35.4666 13.4335 35.4666 13.4335 35.4666C13.4335 35.4666 13.4335 35.4666 13.4335 35.4666C13.4335 35.4666 13.4335 35.4666 13.4335 35.4666V35.4666C13.4335 35.4666 13.4335 35.4666 13.4335 35.4666C13.4335 35.4666 13.4335 35.4666 13.4335 35.4666C13.4335 35.4666 13.4335 35.4666 13.4335 35.4666V35.4666V35.4666C13.4335 35.4666 13.4335 35.4666 13.4335 35.4666C13.4335 35.4666 13.4335 35.4666 13.4335 35.4666C13.4335 35.4666 13.4335 35.4666 13.4335 35.4666V35.4666C13.4335 35.4666 13.4335 35.4666 13.4335 35.4666V35.4666C14.9335 35.4666 16.4335 35.4666 16.4335 35.4666C16.4335 35.4666 16.4335 35.4666 16.4335 35.4666V35.4666C16.4335 35.4666 16.4335 35.4666 16.4335 35.4666C16.4335 35.4666 16.4335 35.4666 16.4335 35.4666C16.4335 35.4666 16.4335 35.4666 16.4335 35.4666C16.4335 35.4666 16.4335 35.4666 16.4335 35.4666C16.4335 35.4666 16.4335 35.4666 16.4335 35.4666V35.4666C16.4335 35.4666 16.4335 35.4666 16.4335 35.4666V35.4666C16.4335 35.4666 16.4335 35.4666 16.4335 35.4666C16.4335 35.4666 16.4335 35.4666 16.4335 35.4666C16.4335 35.4666 16.4335 35.4666 16.4335 35.4666C16.4335 35.4666 16.4335 35.4666 16.4335 35.4666C16.4335 35.4666 16.4335 35.4666 16.4335 35.4666C16.4335 35.4666 16.4335 35.4666 16.4335 35.4666C16.4335 35.4666 16.4335 35.4666 16.4335 35.4666C16.4335 35.4666 16.4335 35.4666 16.4335 35.4666C16.4335 35.4666 16.4335 35.4666 16.4335 35.4666C16.4335 35.4666 16.4335 35.4666 16.4335 35.4666C16.4335 35.4666 16.4335 35.4666 16.4335 35.4666C16.4335 35.4666 16.4335 35.4666 16.4335 35.4666C16.4335 35.4666 16.4335 35.4666 16.4335 35.4666C16.4335 35.4666 16.4335 35.4666 16.4335 35.4666C16.4335 35.4666 16.4335 35.4666 16.4335 35.4666C16.4335 35.4666 16.4335 35.4666 16.4335 35.4666C16.4335 35.4666 16.4335 35.4666 16.4335 35.4666C16.4335 35.4666 16.4335 35.4666 16.4335 35.4665C16.4335 35.4665 16.4335 35.4665 16.4335 35.4665C16.4335 35.4665 16.4335 35.4665 16.4335 35.4665C16.4335 35.4665 16.4335 35.4665 16.4335 35.4665C16.4335 35.4665 16.4335 35.4665 16.4335 35.4665C16.4335 35.4665 16.4335 35.4665 16.4335 35.4665C16.4335 35.4665 16.4335 35.4665 16.4335 35.4665C16.4335 35.4665 16.4335 35.4665 16.4335 35.4665C16.4335 35.4665 16.4335 35.4665 16.4335 35.4665C16.4335 35.4665 16.4335 35.4665 16.4335 35.4665C16.4335 35.4665 16.4335 35.4665 16.4335 35.4665C16.4335 35.4665 16.4335 35.4665 16.4335 35.4665C16.4335 35.4665 16.4335 35.4665 16.4335 35.4665C16.4335 35.4665 16.4335 35.4665 16.4335 35.4665C16.4335 35.4665 16.4335 35.4665 16.4335 35.4665C16.4335 35.4665 16.4335 35.4665 16.4335 35.4665C16.4335 35.4665 16.4335 35.4665 16.4335 35.4665C16.4335 35.4665 16.4335 35.4665 16.4335 35.4665C16.4335 35.4665 16.4335 35.4665 16.4335 35.4665C16.4335 35.4665 16.4335 35.4665 16.4335 35.4665C16.4335 35.4665 16.4335 35.4665 16.4335 35.4665C16.4335 35.4665 16.4335 35.4665 16.4335 35.4665C16.4335 35.4665 16.4335 35.4665 16.4335 35.4665C16.4335 35.4665 16.4335 35.4665 16.4335 35.4665C16.4335 35.4665 16.4335 35.4665 16.4335 35.4665C16.4335 35.4665 16.4335 35.4665 16.4335 35.4665C16.4335 35.4665 16.4335 35.4665 16.4335 35.4665C16.4335 35.4665 16.4335 35.4665 16.4335 35.4665C16.4335 35.4665 16.4335 35.4665 16.4335 35.4665C16.4335 35.4665 16.4335 35.4665 16.4335 35.4665C16.4335 35.4665 16.4335 35.4665 16.4335 35.4665C16.4335 35.4665 16.4335 35.4665 16.4335 35.4665C16.4335 35.4665 16.4335 35.4665 16.4335 35.4665C16.4335 35.4665 16.4335 35.4665 16.4335 35.4665C16.4335 35.4665 16.4335 35.4664 16.4335 35.4664C16.4335 35.4664 16.4335 35.4664 16.4335 35.4664C16.4335 35.4664 16.4335 35.4664 16.4335 35.4664C16.4335 35.4664 16.4335 35.4664 16.4335 35.4664C16.4335 35.4664 16.4335 35.4664 16.4335 35.4664C16.4335 35.4664 16.4335 35.4664 16.4335 35.4664C16.4335 35.4664 16.4335 35.4664 16.4335 35.4664C16.4335 35.4664 16.4335 35.4664 16.4335 35.4664C16.4335 35.4664 16.4335 35.4664 16.4335 35.4664C16.4335 35.4664 16.4335 35.4664 16.4335 35.4664C16.4335 35.4664 16.4335 35.4664 16.4335 35.4664C16.4335 35.4664 16.4335 35.4664 16.4335 35.4664C16.4335 35.4664 16.4335 35.4664 16.4335 35.4664C16.4335 35.4664 16.4335 35.4664 16.4335 35.4664C16.4335 35.4664 16.4335 35.4664 16.4335 35.4664C16.4335 35.4664 16.4335 35.4664 16.4335 35.4664C16.4335 35.4664 16.4335 35.4664 16.4335 35.4664C16.4335 35.4664 16.4335 35.4664 16.4335 35.4664C16.4335 35.4664 16.4335 35.4664 16.4335 35.4664C16.4335 35.4664 16.4335 35.4664 16.4335 35.4664C16.4335 35.4664 16.4335 35.4664 16.4335 35.4664C16.4335 35.4663 16.4335 35.4663 16.4335 35.4663C16.4335 35.4663 16.4335 35.4663 16.4335 35.4663C16.4335 35.4663 16.4335 35.4663 16.4335 35.4663C16.4335 35.4663 16.4335 35.4663 16.4335 35.4663C16.4335 35.4663 16.4335 35.4663 16.4335 35.4663C16.4335 35.4663 16.4335 35.4663 16.4335 35.4663C16.4335 35.4663 16.4335 35.4663 16.4335 35.4663C16.4335 35.4663 16.4335 35.4663 16.4335 35.4663C16.4335 35.4663 16.4335 35.4663 16.4335 35.4663C16.4335 35.4663 16.4335 35.4663 16.4335 35.4663C16.4335 35.4663 16.4335 35.4663 16.4335 35.4663C16.4335 35.4663 16.4335 35.4663 16.4335 35.4663C16.4335 35.4663 16.4335 35.4663 16.4335 35.4663C16.4335 35.4663 16.4335 35.4663 16.4335 35.4663C16.4335 35.4663 16.4335 35.4663 16.4335 35.4663C16.4335 35.4663 16.4335 35.4663 16.4335 35.4662C16.4335 35.4662 16.4335 35.4662 16.4335 35.4662C16.4335 35.4662 16.4335 35.4662 16.4335 35.4662C16.4335 35.4662 16.4335 35.4662 16.4335 35.4662C16.4335 35.4662 16.4335 35.4662 16.4335 35.4662C16.4335 35.4662 16.4335 35.4662 16.4335 35.4662C16.4335 35.4662 16.4335 35.4662 16.4335 35.4662C16.4335 35.4662 16.4335 35.4662 16.4335 35.4662C16.4335 35.4662 16.4335 35.4662 16.4335 35.4662C16.4335 35.4662 16.4335 35.4662 16.4335 35.4662C16.4335 35.4662 16.4335 35.4662 16.4335 35.4662C16.4335 35.4662 16.4335 35.4662 16.4335 35.4662C16.4335 35.4662 16.4335 35.4662 16.4335 35.4662C16.4335 35.4662 16.4335 35.4662 16.4335 35.4662C16.4335 35.4661 16.4335 35.4661 16.4335 35.4661C16.4335 35.4661 16.4335 35.4661 16.4335 35.4661C16.4335 35.4661 16.4335 35.4661 16.4335 35.4661C16.4335 35.4661 16.4335 35.4661 16.4335 35.4661C16.4335 35.4661 16.4335 35.4661 16.4335 35.4661C16.4335 35.4661 16.4335 35.4661 16.4335 35.4661C16.4335 35.4661 16.4335 35.4661 16.4335 35.4661C16.4335 35.4661 16.4335 35.4661 16.4335 35.4661C16.4335 35.4661 16.4335 35.4661 16.4335 35.4661C16.4335 35.4661 16.4335 35.4661 16.4335 35.4661C16.4335 35.4661 16.4335 35.4661 16.4335 35.4661C16.4335 35.4661 16.4335 35.4661 16.4335 35.466C16.4335 35.466 16.4335 35.466 16.4335 35.466C16.4335 35.466 16.4335 35.466 16.4335 35.466C16.4335 35.466 16.4335 35.466 16.4335 35.466C16.4335 35.466 16.4335 35.466 16.4335 35.466C16.4335 35.466 16.4335 35.466 16.4335 35.466C16.4335 35.466 16.4335 35.466 16.4335 35.466C16.4335 35.466 16.4335 35.466 16.4335 35.466C16.4335 35.466 16.4335 35.466 16.4335 35.466C16.4335 35.466 16.4335 35.466 16.4335 35.466C16.4335 35.466 16.4335 35.466 16.4335 35.466C16.4335 35.4659 16.4335 35.4659 16.4335 35.4659C16.4335 35.4659 16.4335 35.4659 16.4335 35.4659C16.4335 35.4659 16.4335 35.4659 16.4335 35.4659C16.4335 35.4659 16.4335 35.4659 16.4335 35.4659C16.4335 35.4659 16.4335 35.4659 16.4335 35.4659C16.4335 35.4659 16.4335 35.4659 16.4335 35.4659C16.4335 35.4659 16.4335 35.4659 16.4335 35.4659C16.4335 35.4659 16.4335 35.4659 16.4335 35.4659C16.4335 35.4659 16.4335 35.4659 16.4335 35.4659C16.4335 35.4659 16.4335 35.4658 16.4335 35.4658C16.4335 35.4658 16.4335 35.4658 16.4335 35.4658C16.4335 35.4658 16.4335 35.4658 16.4335 35.4658C16.4335 35.4658 16.4335 35.4658 16.4335 35.4658C16.4335 35.4658 16.4335 35.4658 16.4335 35.4658C16.4335 35.4658 16.4335 35.4658 16.4335 35.4658C16.4335 35.4658 16.4335 35.4658 16.4335 35.4658C16.4335 35.4658 16.4335 35.4658 16.4335 35.4658C16.4335 35.4658 16.4335 35.4658 16.4335 35.4658C16.4335 35.4657 16.4335 35.4657 16.4335 35.4657C16.4335 35.4657 16.4335 35.4657 16.4335 35.4657C16.4335 35.4657 16.4335 35.4657 16.4335 35.4657C16.4335 35.4657 16.4335 35.4657 16.4335 35.4657C16.4335 35.4657 16.4335 35.4657 16.4335 35.4657C16.4335 35.4657 16.4335 35.4657 16.4335 35.4657C16.4335 35.4657 16.4335 35.4657 16.4335 35.4657C16.4335 35.4657 16.4335 35.4657 16.4335 35.4657C16.4335 35.4657 16.4335 35.4656 16.4335 35.4656C16.4335 35.4656 16.4335 35.4656 16.4335 35.4656C16.4335 35.4656 16.4335 35.4656 16.4335 35.4656C16.4335 35.4656 16.4335 35.4656 16.4335 35.4656C16.4335 35.4656 16.4335 35.4656 16.4335 35.4656C16.4335 35.4656 16.4335 35.4656 16.4335 35.4656C16.4335 35.4656 16.4335 35.4656 16.4335 35.4656H13.4335C13.4335 35.4656 13.4335 35.4656 13.4335 35.4656C13.4335 35.4656 13.4335 35.4656 13.4335 35.4656C13.4335 35.4656 13.4335 35.4656 13.4335 35.4656C13.4335 35.4656 13.4335 35.4656 13.4335 35.4656C13.4335 35.4656 13.4335 35.4656 13.4335 35.4656C13.4335 35.4656 13.4335 35.4656 13.4335 35.4656C13.4335 35.4656 13.4335 35.4657 13.4335 35.4657C13.4335 35.4657 13.4335 35.4657 13.4335 35.4657C13.4335 35.4657 13.4335 35.4657 13.4335 35.4657C13.4335 35.4657 13.4335 35.4657 13.4335 35.4657C13.4335 35.4657 13.4335 35.4657 13.4335 35.4657C13.4335 35.4657 13.4335 35.4657 13.4335 35.4657C13.4335 35.4657 13.4335 35.4657 13.4335 35.4657C13.4335 35.4657 13.4335 35.4657 13.4335 35.4657C13.4335 35.4657 13.4335 35.4657 13.4335 35.4658C13.4335 35.4658 13.4335 35.4658 13.4335 35.4658C13.4335 35.4658 13.4335 35.4658 13.4335 35.4658C13.4335 35.4658 13.4335 35.4658 13.4335 35.4658C13.4335 35.4658 13.4335 35.4658 13.4335 35.4658C13.4335 35.4658 13.4335 35.4658 13.4335 35.4658C13.4335 35.4658 13.4335 35.4658 13.4335 35.4658C13.4335 35.4658 13.4335 35.4658 13.4335 35.4658C13.4335 35.4658 13.4335 35.4658 13.4335 35.4658C13.4335 35.4658 13.4335 35.4659 13.4335 35.4659C13.4335 35.4659 13.4335 35.4659 13.4335 35.4659C13.4335 35.4659 13.4335 35.4659 13.4335 35.4659C13.4335 35.4659 13.4335 35.4659 13.4335 35.4659C13.4335 35.4659 13.4335 35.4659 13.4335 35.4659C13.4335 35.4659 13.4335 35.4659 13.4335 35.4659C13.4335 35.4659 13.4335 35.4659 13.4335 35.4659C13.4335 35.4659 13.4335 35.4659 13.4335 35.4659C13.4335 35.4659 13.4335 35.4659 13.4335 35.4659C13.4335 35.4659 13.4335 35.4659 13.4335 35.466C13.4335 35.466 13.4335 35.466 13.4335 35.466C13.4335 35.466 13.4335 35.466 13.4335 35.466C13.4335 35.466 13.4335 35.466 13.4335 35.466C13.4335 35.466 13.4335 35.466 13.4335 35.466C13.4335 35.466 13.4335 35.466 13.4335 35.466C13.4335 35.466 13.4335 35.466 13.4335 35.466C13.4335 35.466 13.4335 35.466 13.4335 35.466C13.4335 35.466 13.4335 35.466 13.4335 35.466C13.4335 35.466 13.4335 35.466 13.4335 35.466C13.4335 35.466 13.4335 35.466 13.4335 35.466C13.4335 35.4661 13.4335 35.4661 13.4335 35.4661C13.4335 35.4661 13.4335 35.4661 13.4335 35.4661C13.4335 35.4661 13.4335 35.4661 13.4335 35.4661C13.4335 35.4661 13.4335 35.4661 13.4335 35.4661C13.4335 35.4661 13.4335 35.4661 13.4335 35.4661C13.4335 35.4661 13.4335 35.4661 13.4335 35.4661C13.4335 35.4661 13.4335 35.4661 13.4335 35.4661C13.4335 35.4661 13.4335 35.4661 13.4335 35.4661C13.4335 35.4661 13.4335 35.4661 13.4335 35.4661C13.4335 35.4661 13.4335 35.4661 13.4335 35.4661C13.4335 35.4661 13.4335 35.4661 13.4335 35.4661C13.4335 35.4661 13.4335 35.4661 13.4335 35.4662C13.4335 35.4662 13.4335 35.4662 13.4335 35.4662C13.4335 35.4662 13.4335 35.4662 13.4335 35.4662C13.4335 35.4662 13.4335 35.4662 13.4335 35.4662C13.4335 35.4662 13.4335 35.4662 13.4335 35.4662C13.4335 35.4662 13.4335 35.4662 13.4335 35.4662C13.4335 35.4662 13.4335 35.4662 13.4335 35.4662C13.4335 35.4662 13.4335 35.4662 13.4335 35.4662C13.4335 35.4662 13.4335 35.4662 13.4335 35.4662C13.4335 35.4662 13.4335 35.4662 13.4335 35.4662C13.4335 35.4662 13.4335 35.4662 13.4335 35.4662C13.4335 35.4662 13.4335 35.4662 13.4335 35.4662C13.4335 35.4662 13.4335 35.4662 13.4335 35.4662C13.4335 35.4662 13.4335 35.4662 13.4335 35.4662C13.4335 35.4663 13.4335 35.4663 13.4335 35.4663C13.4335 35.4663 13.4335 35.4663 13.4335 35.4663C13.4335 35.4663 13.4335 35.4663 13.4335 35.4663C13.4335 35.4663 13.4335 35.4663 13.4335 35.4663C13.4335 35.4663 13.4335 35.4663 13.4335 35.4663C13.4335 35.4663 13.4335 35.4663 13.4335 35.4663C13.4335 35.4663 13.4335 35.4663 13.4335 35.4663C13.4335 35.4663 13.4335 35.4663 13.4335 35.4663C13.4335 35.4663 13.4335 35.4663 13.4335 35.4663C13.4335 35.4663 13.4335 35.4663 13.4335 35.4663C13.4335 35.4663 13.4335 35.4663 13.4335 35.4663C13.4335 35.4663 13.4335 35.4663 13.4335 35.4663C13.4335 35.4663 13.4335 35.4663 13.4335 35.4663C13.4335 35.4663 13.4335 35.4663 13.4335 35.4663C13.4335 35.4663 13.4335 35.4663 13.4335 35.4663C13.4335 35.4663 13.4335 35.4663 13.4335 35.4664C13.4335 35.4664 13.4335 35.4664 13.4335 35.4664C13.4335 35.4664 13.4335 35.4664 13.4335 35.4664C13.4335 35.4664 13.4335 35.4664 13.4335 35.4664C13.4335 35.4664 13.4335 35.4664 13.4335 35.4664C13.4335 35.4664 13.4335 35.4664 13.4335 35.4664C13.4335 35.4664 13.4335 35.4664 13.4335 35.4664C13.4335 35.4664 13.4335 35.4664 13.4335 35.4664C13.4335 35.4664 13.4335 35.4664 13.4335 35.4664C13.4335 35.4664 13.4335 35.4664 13.4335 35.4664C13.4335 35.4664 13.4335 35.4664 13.4335 35.4664C13.4335 35.4664 13.4335 35.4664 13.4335 35.4664C13.4335 35.4664 13.4335 35.4664 13.4335 35.4664C13.4335 35.4664 13.4335 35.4664 13.4335 35.4664C13.4335 35.4664 13.4335 35.4664 13.4335 35.4664C13.4335 35.4664 13.4335 35.4664 13.4335 35.4664C13.4335 35.4664 13.4335 35.4664 13.4335 35.4664C13.4335 35.4664 13.4335 35.4664 13.4335 35.4664C13.4335 35.4664 13.4335 35.4664 13.4335 35.4664C13.4335 35.4664 13.4335 35.4664 13.4335 35.4664C13.4335 35.4664 13.4335 35.4664 13.4335 35.4664C13.4335 35.4664 13.4335 35.4665 13.4335 35.4665C13.4335 35.4665 13.4335 35.4665 13.4335 35.4665C13.4335 35.4665 13.4335 35.4665 13.4335 35.4665C13.4335 35.4665 13.4335 35.4665 13.4335 35.4665C13.4335 35.4665 13.4335 35.4665 13.4335 35.4665C13.4335 35.4665 13.4335 35.4665 13.4335 35.4665C13.4335 35.4665 13.4335 35.4665 13.4335 35.4665C13.4335 35.4665 13.4335 35.4665 13.4335 35.4665C13.4335 35.4665 13.4335 35.4665 13.4335 35.4665C13.4335 35.4665 13.4335 35.4665 13.4335 35.4665C13.4335 35.4665 13.4335 35.4665 13.4335 35.4665C13.4335 35.4665 13.4335 35.4665 13.4335 35.4665C13.4335 35.4665 13.4335 35.4665 13.4335 35.4665C13.4335 35.4665 13.4335 35.4665 13.4335 35.4665C13.4335 35.4665 13.4335 35.4665 13.4335 35.4665C13.4335 35.4665 13.4335 35.4665 13.4335 35.4665C13.4335 35.4665 13.4335 35.4665 13.4335 35.4665C13.4335 35.4665 13.4335 35.4665 13.4335 35.4665C13.4335 35.4665 13.4335 35.4665 13.4335 35.4665C13.4335 35.4665 13.4335 35.4665 13.4335 35.4665C13.4335 35.4665 13.4335 35.4665 13.4335 35.4665C13.4335 35.4665 13.4335 35.4665 13.4335 35.4665C13.4335 35.4665 13.4335 35.4665 13.4335 35.4665C13.4335 35.4665 13.4335 35.4665 13.4335 35.4665C13.4335 35.4665 13.4335 35.4665 13.4335 35.4665C13.4335 35.4665 13.4335 35.4665 13.4335 35.4665C13.4335 35.4665 13.4335 35.4665 13.4335 35.4665C13.4335 35.4665 13.4335 35.4665 13.4335 35.4665C13.4335 35.4665 13.4335 35.4665 13.4335 35.4665C13.4335 35.4665 13.4335 35.4665 13.4335 35.4665C13.4335 35.4665 13.4335 35.4665 13.4335 35.4665C13.4335 35.4665 13.4335 35.4665 13.4335 35.4665C13.4335 35.4665 13.4335 35.4665 13.4335 35.4665C13.4335 35.4665 13.4335 35.4665 13.4335 35.4665C13.4335 35.4666 13.4335 35.4666 13.4335 35.4666C13.4335 35.4666 13.4335 35.4666 13.4335 35.4666C13.4335 35.4666 13.4335 35.4666 13.4335 35.4666C13.4335 35.4666 13.4335 35.4666 13.4335 35.4666C13.4335 35.4666 13.4335 35.4666 13.4335 35.4666C13.4335 35.4666 13.4335 35.4666 13.4335 35.4666C13.4335 35.4666 13.4335 35.4666 13.4335 35.4666C13.4335 35.4666 13.4335 35.4666 13.4335 35.4666C13.4335 35.4666 13.4335 35.4666 13.4335 35.4666C13.4335 35.4666 13.4335 35.4666 13.4335 35.4666C13.4335 35.4666 13.4335 35.4666 13.4335 35.4666C13.4335 35.4666 13.4335 35.4666 13.4335 35.4666C13.4335 35.4666 13.4335 35.4666 13.4335 35.4666C13.4335 35.4666 13.4335 35.4666 13.4335 35.4666C13.4335 35.4666 13.4335 35.4666 13.4335 35.4666C13.4335 35.4666 13.4335 35.4666 13.4335 35.4666C13.4335 35.4666 13.4335 35.4666 13.4335 35.4666C13.4335 35.4666 13.4335 35.4666 13.4335 35.4666V35.4666C13.4335 35.4666 13.4335 35.4666 13.4335 35.4666V35.4666C13.4335 35.4666 13.4335 35.4666 13.4335 35.4666C13.4335 35.4666 13.4335 35.4666 13.4335 35.4666C13.4335 35.4666 13.4335 35.4666 13.4335 35.4666C13.4335 35.4666 13.4335 35.4666 13.4335 35.4666C13.4335 35.4666 13.4335 35.4666 13.4335 35.4666V35.4666C13.4335 35.4666 13.4335 35.4666 13.4335 35.4666C13.4335 35.4666 14.9335 35.4666 16.4335 35.4666V35.4666C16.4335 35.4666 16.4335 35.4666 16.4335 35.4666V35.4666C16.4335 35.4666 16.4335 35.4666 16.4335 35.4666C16.4335 35.4666 16.4335 35.4666 16.4335 35.4666C16.4335 35.4666 16.4335 35.4666 16.4335 35.4666V35.4666V35.4666C16.4335 35.4666 16.4335 35.4666 16.4335 35.4666C16.4335 35.4666 16.4335 35.4666 16.4335 35.4666C16.4335 35.4666 16.4335 35.4666 16.4335 35.4666V35.4666C16.4335 35.4666 16.4335 35.4666 16.4335 35.4666C16.4335 35.4666 16.4335 35.4666 16.4335 35.4666C16.4335 35.4666 16.4335 35.4666 16.4335 35.4666C16.4335 35.4666 16.4335 35.4666 16.4335 35.4666C16.4335 35.4666 16.4335 35.4666 16.4335 35.4666C16.4335 35.4666 16.4335 35.4666 16.4335 35.4666C16.4335 35.4666 16.4335 35.4666 16.4335 35.4666C16.4335 35.4666 16.4335 35.4666 16.4335 35.4666C16.4335 35.4666 16.4335 35.4666 16.4335 35.4666C16.4335 35.4666 16.4335 35.4666 16.4335 35.4666C16.4335 35.4666 16.4335 35.4666 16.4335 35.4666C16.4335 35.4666 16.4335 35.4666 16.4335 35.4666C16.4335 35.4666 16.4335 35.4666 16.4335 35.4666C16.4335 35.4666 16.4335 35.4666 16.4335 35.4666C16.4335 35.4666 16.4335 35.4666 16.4335 35.4666C16.4335 35.4666 16.4335 35.4666 16.4335 35.4666C16.4335 35.4666 16.4335 35.4666 16.4335 35.4666C16.4335 35.4666 16.4335 35.4666 16.4335 35.4666C16.4335 35.4666 16.4335 35.4665 16.4335 35.4665C16.4335 35.4665 16.4335 35.4665 16.4335 35.4665C16.4335 35.4665 16.4335 35.4665 16.4335 35.4665C16.4335 35.4665 16.4335 35.4665 16.4335 35.4665C16.4335 35.4665 16.4335 35.4665 16.4335 35.4665C16.4335 35.4665 16.4335 35.4665 16.4335 35.4665C16.4335 35.4665 16.4335 35.4665 16.4335 35.4665C16.4335 35.4665 16.4335 35.4665 16.4335 35.4665C16.4335 35.4665 16.4335 35.4665 16.4335 35.4665C16.4335 35.4665 16.4335 35.4665 16.4335 35.4665C16.4335 35.4665 16.4335 35.4665 16.4335 35.4665C16.4335 35.4665 16.4335 35.4665 16.4335 35.4665C16.4335 35.4665 16.4335 35.4665 16.4335 35.4665C16.4335 35.4665 16.4335 35.4665 16.4335 35.4665C16.4335 35.4665 16.4335 35.4665 16.4335 35.4665C16.4335 35.4665 16.4335 35.4665 16.4335 35.4665C16.4335 35.4665 16.4335 35.4665 16.4335 35.4665C16.4335 35.4665 16.4335 35.4665 16.4335 35.4665C16.4335 35.4665 16.4335 35.4665 16.4335 35.4665C16.4335 35.4665 16.4335 35.4665 16.4335 35.4665C16.4335 35.4665 16.4335 35.4665 16.4335 35.4665C16.4335 35.4665 16.4335 35.4665 16.4335 35.4665C16.4335 35.4665 16.4335 35.4665 16.4335 35.4665C16.4335 35.4665 16.4335 35.4665 16.4335 35.4665C16.4335 35.4665 16.4335 35.4665 16.4335 35.4665C16.4335 35.4665 16.4335 35.4665 16.4335 35.4665C16.4335 35.4665 16.4335 35.4665 16.4335 35.4665C16.4335 35.4665 16.4335 35.4665 16.4335 35.4665C16.4335 35.4665 16.4335 35.4665 16.4335 35.4665C16.4335 35.4665 16.4335 35.4665 16.4335 35.4665C16.4335 35.4665 16.4335 35.4665 16.4335 35.4665C16.4335 35.4665 16.4335 35.4665 16.4335 35.4665C16.4335 35.4665 16.4335 35.4665 16.4335 35.4665C16.4335 35.4665 16.4335 35.4665 16.4335 35.4665C16.4335 35.4665 16.4335 35.4665 16.4335 35.4665C16.4335 35.4665 16.4335 35.4665 16.4335 35.4665C16.4335 35.4665 16.4335 35.4665 16.4335 35.4665C16.4335 35.4665 16.4335 35.4665 16.4335 35.4665C16.4335 35.4665 16.4335 35.4665 16.4335 35.4665C16.4335 35.4665 16.4335 35.4665 16.4335 35.4665C16.4335 35.4665 16.4335 35.4665 16.4335 35.4665C16.4335 35.4665 16.4335 35.4665 16.4335 35.4664C16.4335 35.4664 16.4335 35.4664 16.4335 35.4664C16.4335 35.4664 16.4335 35.4664 16.4335 35.4664C16.4335 35.4664 16.4335 35.4664 16.4335 35.4664C16.4335 35.4664 16.4335 35.4664 16.4335 35.4664C16.4335 35.4664 16.4335 35.4664 16.4335 35.4664C16.4335 35.4664 16.4335 35.4664 16.4335 35.4664C16.4335 35.4664 16.4335 35.4664 16.4335 35.4664C16.4335 35.4664 16.4335 35.4664 16.4335 35.4664C16.4335 35.4664 16.4335 35.4664 16.4335 35.4664C16.4335 35.4664 16.4335 35.4664 16.4335 35.4664C16.4335 35.4664 16.4335 35.4664 16.4335 35.4664C16.4335 35.4664 16.4335 35.4664 16.4335 35.4664C16.4335 35.4664 16.4335 35.4664 16.4335 35.4664C16.4335 35.4664 16.4335 35.4664 16.4335 35.4664C16.4335 35.4664 16.4335 35.4664 16.4335 35.4664C16.4335 35.4664 16.4335 35.4664 16.4335 35.4664C16.4335 35.4664 16.4335 35.4664 16.4335 35.4664C16.4335 35.4664 16.4335 35.4664 16.4335 35.4664C16.4335 35.4664 16.4335 35.4664 16.4335 35.4664C16.4335 35.4664 16.4335 35.4664 16.4335 35.4664C16.4335 35.4664 16.4335 35.4664 16.4335 35.4664C16.4335 35.4664 16.4335 35.4664 16.4335 35.4664C16.4335 35.4664 16.4335 35.4664 16.4335 35.4664C16.4335 35.4664 16.4335 35.4664 16.4335 35.4664C16.4335 35.4664 16.4335 35.4664 16.4335 35.4664C16.4335 35.4664 16.4335 35.4664 16.4335 35.4664C16.4335 35.4664 16.4335 35.4664 16.4335 35.4664C16.4335 35.4664 16.4335 35.4664 16.4335 35.4664C16.4335 35.4664 16.4335 35.4664 16.4335 35.4663C16.4335 35.4663 16.4335 35.4663 16.4335 35.4663C16.4335 35.4663 16.4335 35.4663 16.4335 35.4663C16.4335 35.4663 16.4335 35.4663 16.4335 35.4663C16.4335 35.4663 16.4335 35.4663 16.4335 35.4663C16.4335 35.4663 16.4335 35.4663 16.4335 35.4663C16.4335 35.4663 16.4335 35.4663 16.4335 35.4663C16.4335 35.4663 16.4335 35.4663 16.4335 35.4663C16.4335 35.4663 16.4335 35.4663 16.4335 35.4663C16.4335 35.4663 16.4335 35.4663 16.4335 35.4663C16.4335 35.4663 16.4335 35.4663 16.4335 35.4663C16.4335 35.4663 16.4335 35.4663 16.4335 35.4663C16.4335 35.4663 16.4335 35.4663 16.4335 35.4663C16.4335 35.4663 16.4335 35.4663 16.4335 35.4663C16.4335 35.4663 16.4335 35.4663 16.4335 35.4663C16.4335 35.4663 16.4335 35.4663 16.4335 35.4663C16.4335 35.4663 16.4335 35.4663 16.4335 35.4663C16.4335 35.4663 16.4335 35.4663 16.4335 35.4663C16.4335 35.4663 16.4335 35.4663 16.4335 35.4663C16.4335 35.4663 16.4335 35.4663 16.4335 35.4663C16.4335 35.4663 16.4335 35.4663 16.4335 35.4663C16.4335 35.4663 16.4335 35.4663 16.4335 35.4663C16.4335 35.4663 16.4335 35.4663 16.4335 35.4663C16.4335 35.4663 16.4335 35.4663 16.4335 35.4663C16.4335 35.4663 16.4335 35.4663 16.4335 35.4663C16.4335 35.4663 16.4335 35.4662 16.4335 35.4662C16.4335 35.4662 16.4335 35.4662 16.4335 35.4662C16.4335 35.4662 16.4335 35.4662 16.4335 35.4662C16.4335 35.4662 16.4335 35.4662 16.4335 35.4662C16.4335 35.4662 16.4335 35.4662 16.4335 35.4662C16.4335 35.4662 16.4335 35.4662 16.4335 35.4662C16.4335 35.4662 16.4335 35.4662 16.4335 35.4662C16.4335 35.4662 16.4335 35.4662 16.4335 35.4662C16.4335 35.4662 16.4335 35.4662 16.4335 35.4662C16.4335 35.4662 16.4335 35.4662 16.4335 35.4662C16.4335 35.4662 16.4335 35.4662 16.4335 35.4662C16.4335 35.4662 16.4335 35.4662 16.4335 35.4662C16.4335 35.4662 16.4335 35.4662 16.4335 35.4662C16.4335 35.4662 16.4335 35.4662 16.4335 35.4662C16.4335 35.4662 16.4335 35.4662 16.4335 35.4662C16.4335 35.4662 16.4335 35.4662 16.4335 35.4662C16.4335 35.4662 16.4335 35.4662 16.4335 35.4662C16.4335 35.4662 16.4335 35.4662 16.4335 35.4662C16.4335 35.4662 16.4335 35.4662 16.4335 35.4662C16.4335 35.4662 16.4335 35.4662 16.4335 35.4662C16.4335 35.4662 16.4335 35.4662 16.4335 35.4662C16.4335 35.4662 16.4335 35.4662 16.4335 35.4662C16.4335 35.4662 16.4335 35.4662 16.4335 35.4662C16.4335 35.4662 16.4335 35.4662 16.4335 35.4661C16.4335 35.4661 16.4335 35.4661 16.4335 35.4661C16.4335 35.4661 16.4335 35.4661 16.4335 35.4661C16.4335 35.4661 16.4335 35.4661 16.4335 35.4661C16.4335 35.4661 16.4335 35.4661 16.4335 35.4661C16.4335 35.4661 16.4335 35.4661 16.4335 35.4661C16.4335 35.4661 16.4335 35.4661 16.4335 35.4661C16.4335 35.4661 16.4335 35.4661 16.4335 35.4661C16.4335 35.4661 16.4335 35.4661 16.4335 35.4661C16.4335 35.4661 16.4335 35.4661 16.4335 35.4661C16.4335 35.4661 16.4335 35.4661 16.4335 35.4661C16.4335 35.4661 16.4335 35.4661 16.4335 35.4661C16.4335 35.4661 16.4335 35.4661 16.4335 35.4661C16.4335 35.4661 16.4335 35.4661 16.4335 35.4661C16.4335 35.4661 16.4335 35.4661 16.4335 35.4661C16.4335 35.4661 16.4335 35.4661 16.4335 35.4661C16.4335 35.4661 16.4335 35.4661 16.4335 35.4661C16.4335 35.4661 16.4335 35.4661 16.4335 35.4661C16.4335 35.4661 16.4335 35.4661 16.4335 35.4661C16.4335 35.4661 16.4335 35.4661 16.4335 35.4661C16.4335 35.4661 16.4335 35.4661 16.4335 35.4661C16.4335 35.4661 16.4335 35.4661 16.4335 35.4661C16.4335 35.4661 16.4335 35.4661 16.4335 35.4661C16.4335 35.466 16.4335 35.466 16.4335 35.466C16.4335 35.466 16.4335 35.466 16.4335 35.466C16.4335 35.466 16.4335 35.466 16.4335 35.466C16.4335 35.466 16.4335 35.466 16.4335 35.466C16.4335 35.466 16.4335 35.466 16.4335 35.466C16.4335 35.466 16.4335 35.466 16.4335 35.466C16.4335 35.466 16.4335 35.466 16.4335 35.466C16.4335 35.466 16.4335 35.466 16.4335 35.466C16.4335 35.466 16.4335 35.466 16.4335 35.466C16.4335 35.466 16.4335 35.466 16.4335 35.466C16.4335 35.466 16.4335 35.466 16.4335 35.466C16.4335 35.466 16.4335 35.466 16.4335 35.466C16.4335 35.466 16.4335 35.466 16.4335 35.466C16.4335 35.466 16.4335 35.466 16.4335 35.466C16.4335 35.466 16.4335 35.466 16.4335 35.466C16.4335 35.466 16.4335 35.466 16.4335 35.466C16.4335 35.466 16.4335 35.466 16.4335 35.466C16.4335 35.466 16.4335 35.466 16.4335 35.466C16.4335 35.466 16.4335 35.466 16.4335 35.466C16.4335 35.466 16.4335 35.466 16.4335 35.466C16.4335 35.466 16.4335 35.466 16.4335 35.466C16.4335 35.466 16.4335 35.466 16.4335 35.466C16.4335 35.466 16.4335 35.466 16.4335 35.4659C16.4335 35.4659 16.4335 35.4659 16.4335 35.4659C16.4335 35.4659 16.4335 35.4659 16.4335 35.4659C16.4335 35.4659 16.4335 35.4659 16.4335 35.4659C16.4335 35.4659 16.4335 35.4659 16.4335 35.4659C16.4335 35.4659 16.4335 35.4659 16.4335 35.4659C16.4335 35.4659 16.4335 35.4659 16.4335 35.4659C16.4335 35.4659 16.4335 35.4659 16.4335 35.4659C16.4335 35.4659 16.4335 35.4659 16.4335 35.4659C16.4335 35.4659 16.4335 35.4659 16.4335 35.4659C16.4335 35.4659 16.4335 35.4659 16.4335 35.4659C16.4335 35.4659 16.4335 35.4659 16.4335 35.4659C16.4335 35.4659 16.4335 35.4659 16.4335 35.4659C16.4335 35.4659 16.4335 35.4659 16.4335 35.4659C16.4335 35.4659 16.4335 35.4659 16.4335 35.4659C16.4335 35.4659 16.4335 35.4659 16.4335 35.4659C16.4335 35.4659 16.4335 35.4659 16.4335 35.4659C16.4335 35.4659 16.4335 35.4659 16.4335 35.4659C16.4335 35.4659 16.4335 35.4659 16.4335 35.4659C16.4335 35.4659 16.4335 35.4659 16.4335 35.4659C16.4335 35.4659 16.4335 35.4659 16.4335 35.4659C16.4335 35.4659 16.4335 35.4659 16.4335 35.4659C16.4335 35.4659 16.4335 35.4659 16.4335 35.4659C16.4335 35.4659 16.4335 35.4659 16.4335 35.4659C16.4335 35.4659 16.4335 35.4658 16.4335 35.4658C16.4335 35.4658 16.4335 35.4658 16.4335 35.4658C16.4335 35.4658 16.4335 35.4658 16.4335 35.4658C16.4335 35.4658 16.4335 35.4658 16.4335 35.4658C16.4335 35.4658 16.4335 35.4658 16.4335 35.4658C16.4335 35.4658 16.4335 35.4658 16.4335 35.4658C16.4335 35.4658 16.4335 35.4658 16.4335 35.4658C16.4335 35.4658 16.4335 35.4658 16.4335 35.4658C16.4335 35.4658 16.4335 35.4658 16.4335 35.4658C16.4335 35.4658 16.4335 35.4658 16.4335 35.4658C16.4335 35.4658 16.4335 35.4658 16.4335 35.4658C16.4335 35.4658 16.4335 35.4658 16.4335 35.4658C16.4335 35.4658 16.4335 35.4658 16.4335 35.4658C16.4335 35.4658 16.4335 35.4658 16.4335 35.4658C16.4335 35.4658 16.4335 35.4658 16.4335 35.4658C16.4335 35.4658 16.4335 35.4658 16.4335 35.4658C16.4335 35.4658 16.4335 35.4658 16.4335 35.4658C16.4335 35.4658 16.4335 35.4658 16.4335 35.4658C16.4335 35.4658 16.4335 35.4658 16.4335 35.4658C16.4335 35.4658 16.4335 35.4658 16.4335 35.4658C16.4335 35.4658 16.4335 35.4658 16.4335 35.4658C16.4335 35.4658 16.4335 35.4658 16.4335 35.4658C16.4335 35.4658 16.4335 35.4658 16.4335 35.4658C16.4335 35.4658 16.4335 35.4658 16.4335 35.4658C16.4335 35.4658 16.4335 35.4658 16.4335 35.4658C16.4335 35.4658 16.4335 35.4658 16.4335 35.4658C16.4335 35.4658 16.4335 35.4658 16.4335 35.4657C16.4335 35.4657 16.4335 35.4657 16.4335 35.4657C16.4335 35.4657 16.4335 35.4657 16.4335 35.4657C16.4335 35.4657 16.4335 35.4657 16.4335 35.4657C16.4335 35.4657 16.4335 35.4657 16.4335 35.4657C16.4335 35.4657 16.4335 35.4657 16.4335 35.4657C16.4335 35.4657 16.4335 35.4657 16.4335 35.4657C16.4335 35.4657 16.4335 35.4657 16.4335 35.4657C16.4335 35.4657 16.4335 35.4657 16.4335 35.4657C16.4335 35.4657 16.4335 35.4657 16.4335 35.4657C16.4335 35.4657 16.4335 35.4657 16.4335 35.4657C16.4335 35.4657 16.4335 35.4657 16.4335 35.4657C16.4335 35.4657 16.4335 35.4657 16.4335 35.4657C16.4335 35.4657 16.4335 35.4657 16.4335 35.4657C16.4335 35.4657 16.4335 35.4657 16.4335 35.4657C16.4335 35.4657 16.4335 35.4657 16.4335 35.4657C16.4335 35.4657 16.4335 35.4657 16.4335 35.4657C16.4335 35.4657 16.4335 35.4657 16.4335 35.4657C16.4335 35.4657 16.4335 35.4657 16.4335 35.4657C16.4335 35.4657 16.4335 35.4657 16.4335 35.4657C16.4335 35.4657 16.4335 35.4657 16.4335 35.4657C16.4335 35.4657 16.4335 35.4657 16.4335 35.4657C16.4335 35.4657 16.4335 35.4657 16.4335 35.4657C16.4335 35.4657 16.4335 35.4657 16.4335 35.4657C16.4335 35.4657 16.4335 35.4657 16.4335 35.4657C16.4335 35.4657 16.4335 35.4657 16.4335 35.4657C16.4335 35.4657 16.4335 35.4657 16.4335 35.4657C16.4335 35.4657 16.4335 35.4657 16.4335 35.4657C16.4335 35.4657 16.4335 35.4657 16.4335 35.4657C16.4335 35.4657 16.4335 35.4657 16.4335 35.4657C16.4335 35.4657 16.4335 35.4657 16.4335 35.4657C16.4335 35.4657 16.4335 35.4657 16.4335 35.4657C16.4335 35.4657 16.4335 35.4657 16.4335 35.4657C16.4335 35.4656 16.4335 35.4656 16.4335 35.4656C16.4335 35.4656 16.4335 35.4656 16.4335 35.4656C16.4335 35.4656 16.4335 35.4656 16.4335 35.4656C16.4335 35.4656 16.4335 35.4656 16.4335 35.4656C16.4335 35.4656 16.4335 35.4656 16.4335 35.4656C16.4335 35.4656 16.4335 35.4656 16.4335 35.4656C16.4335 35.4656 16.4335 35.4656 16.4335 35.4656C16.4335 35.4656 16.4335 35.4656 16.4335 35.4656C16.4335 35.4656 16.4335 35.4656 16.4335 35.4656C16.4335 35.4656 16.4335 35.4656 16.4335 35.4656C16.4335 35.4656 16.4335 35.4656 16.4335 35.4656C16.4335 35.4656 16.4335 35.4656 16.4335 35.4656C16.4335 35.4656 16.4335 35.4656 16.4335 35.4656C16.4335 35.4656 16.4335 35.4656 16.4335 35.4656C16.4335 35.4656 16.4335 35.4656 16.4335 35.4656C16.4335 35.4656 16.4335 35.4656 16.4335 35.4656C16.4335 35.4656 16.4335 35.4656 16.4335 35.4656C16.4335 35.4656 16.4335 35.4656 16.4335 35.4656C16.4335 35.4656 16.4335 35.4656 16.4335 35.4656C16.4335 35.4656 16.4335 35.4656 16.4335 35.4656C16.4335 35.4656 16.4335 35.4656 16.4335 35.4656C16.4335 35.4656 16.4335 35.4656 16.4335 35.4656C16.4335 35.4656 16.4335 35.4656 16.4335 35.4656C16.4335 35.4656 16.4335 35.4656 16.4335 35.4656C16.4335 35.4656 16.4335 35.4656 16.4335 35.4656C16.4335 35.4656 16.4335 35.4656 16.4335 35.4656C16.4335 35.4656 16.4335 35.4656 16.4335 35.4656C16.4335 35.4656 16.4335 35.4656 16.4335 35.4656C16.4335 35.4656 16.4335 35.4656 16.4335 35.4656C16.4335 35.4656 16.4335 35.4656 16.4335 35.4656C16.4335 35.4656 16.4335 35.4656 16.4335 35.4656C16.4335 35.4656 16.4335 35.4656 16.4335 35.4656C16.4335 35.4656 16.4335 35.4656 16.4335 35.4656C16.4335 35.4656 16.4335 35.4656 16.4335 35.4656C16.4335 35.4656 16.4335 35.4656 16.4335 35.4656C16.4335 35.4656 16.4335 35.4656 16.4335 35.4656C16.4335 35.4656 16.4335 35.4656 16.4335 35.4656C16.4335 35.4656 16.4335 35.4656 16.4335 35.4656C16.4335 35.4656 16.4335 35.4656 16.4335 35.4656C16.4335 35.4656 16.4335 35.4656 16.4335 35.4656C16.4335 35.4656 16.4335 35.4656 16.4335 35.4656C16.4335 35.4656 16.4335 35.4656 16.4335 35.4656C16.4335 35.4656 16.4335 35.4656 16.4335 35.4656C16.4335 35.4656 16.4335 35.4656 16.4335 35.4656C16.4335 35.4656 16.4335 35.4656 16.4335 35.4656V35.4656C16.4335 35.4656 16.4335 35.4656 16.4335 35.4656V35.4656C16.4335 35.4656 16.4335 35.4656 16.4335 35.4656C16.4335 35.4656 16.4335 35.4656 16.4335 35.4656V35.4656V35.4656V35.4656C16.4335 35.4656 16.4335 35.4656 16.4335 35.4656C16.4335 35.4656 16.4335 35.4656 16.4335 35.4656C16.4335 35.4656 16.4335 35.4656 16.4335 35.4656C16.4335 35.4656 16.4335 35.4656 14.9335 35.4656Z" fill="#00E3CF" mask="url(#path-4-inside-1_1818_300)"/>
</g>
<defs>
<clipPath id="clip0_1818_300">
<rect width="56" height="56" fill="white"/>
</clipPath>
</defs>
</svg>
