<svg width="21" height="15" viewBox="0 0 21 15" fill="none" xmlns="http://www.w3.org/2000/svg">
<path d="M0.661561 1.80443L9.30563 6.44803C9.59607 6.60362 9.9718 6.67738 10.3498 6.67738C10.7279 6.67738 11.1036 6.60362 11.394 6.44803L20.0381 1.80443C20.6017 1.50132 21.1342 0.322266 20.1003 0.322266H0.600476C-0.433354 0.322266 0.0991205 1.50132 0.661561 1.80443V1.80443ZM20.2997 4.34349L11.394 8.98477C11.0022 9.18993 10.7279 9.21413 10.3498 9.21413C9.9718 9.21413 9.69749 9.18993 9.30563 8.98477C8.91377 8.77962 1.08454 4.67542 0.444883 4.34233C-0.00460826 4.10722 1.86258e-06 4.38267 1.86258e-06 4.59474V13.0002C1.86258e-06 13.4843 0.652341 14.1528 1.15254 14.1528H19.5932C20.0934 14.1528 20.7458 13.4843 20.7458 13.0002V4.59589C20.7458 4.38383 20.7504 4.10837 20.2997 4.34349V4.34349Z" fill="white"/>
</svg>
