<svg width="15" height="22" viewBox="0 0 15 22" fill="none" xmlns="http://www.w3.org/2000/svg">
<path d="M7.33019 0.0373206C5.45344 0.0258756 3.64446 0.738122 2.2793 2.02601C0.914144 3.31389 0.0978068 5.07834 0 6.95257C0 10.8021 3.18104 15.3892 7.33019 21.9356C11.4793 15.3546 14.6603 10.7675 14.6603 6.95257C14.5653 5.07735 13.7499 3.31125 12.3841 2.02279C11.0183 0.734325 9.20776 0.0230313 7.33019 0.0373206ZM7.33019 12.8651C6.24286 12.8651 5.17993 12.5427 4.27585 11.9386C3.37177 11.3345 2.66713 10.4759 2.25102 9.47133C1.83492 8.46677 1.72607 7.36138 1.9382 6.29495C2.15032 5.22851 2.67393 4.24893 3.44278 3.48007C4.21164 2.71121 5.19119 2.18763 6.25763 1.9755C7.32406 1.76337 8.42945 1.87224 9.43401 2.28834C10.4386 2.70445 11.2972 3.40909 11.9013 4.31317C12.5054 5.21725 12.8278 6.28016 12.8278 7.36749C12.8248 8.82462 12.2446 10.2212 11.2142 11.2515C10.1839 12.2819 8.78731 12.8621 7.33019 12.8651Z" fill="white"/>
</svg>
